<svg width="40" height="40" viewBox="0 0 40 40" fill="none" xmlns="http://www.w3.org/2000/svg">
<g id="Apple_Icon">
<path id="Vector" d="M26.6638 31.0371C25.3716 32.3036 23.9606 32.1036 22.6024 31.5037C21.1651 30.8904 19.8464 30.8638 18.33 31.5037C16.4311 32.3303 15.429 32.0903 14.2949 31.0371C7.85994 24.3313 8.80937 14.1192 16.1147 13.7459C17.8948 13.8393 19.1344 14.7325 20.1761 14.8125C21.7321 14.4925 23.2222 13.5726 24.8837 13.6926C26.8748 13.8526 28.3781 14.6525 29.3671 16.0923C25.2529 18.5853 26.2287 24.0646 30 25.5978C29.2484 27.5975 28.2726 29.5839 26.6506 31.0504L26.6638 31.0371ZM20.0442 13.666C19.8464 10.693 22.2332 8.23997 24.976 8C25.3584 11.4396 21.8903 13.9992 20.0442 13.666Z" fill="#001640"/>
<rect x="0.5" y="0.5" width="39" height="39" rx="19.5" stroke="#B2CCFF" stroke-opacity="0.7"/>
</g>
</svg>
