<svg width="24" height="26" viewBox="0 0 24 26" fill="none" xmlns="http://www.w3.org/2000/svg">
<path d="M22.1568 17.9576C21.246 16.9843 19.5413 15.5203 19.5413 10.725C19.5429 9.00411 18.9412 7.33648 17.8396 6.009C16.738 4.68153 15.2054 3.77721 13.5056 3.45164V2.47498C13.5056 2.27799 13.4666 2.08294 13.3907 1.90095C13.3149 1.71896 13.2038 1.5536 13.0636 1.41432C12.9235 1.27503 12.7572 1.16454 12.5741 1.08916C12.391 1.01377 12.1948 0.974976 11.9967 0.974976C11.7985 0.974976 11.6023 1.01377 11.4192 1.08916C11.2362 1.16454 11.0698 1.27503 10.9297 1.41432C10.7896 1.5536 10.6784 1.71896 10.6026 1.90095C10.5268 2.08294 10.4878 2.27799 10.4878 2.47498V3.45164C8.78791 3.77721 7.25535 4.68153 6.15376 6.009C5.05217 7.33648 4.45043 9.00411 4.45206 10.725C4.45206 15.5203 2.74731 16.9843 1.8366 17.9576C1.57683 18.2331 1.4339 18.5974 1.43757 18.975C1.43774 19.1723 1.47705 19.3677 1.55324 19.5499C1.62942 19.7321 1.741 19.8976 1.88157 20.0369C2.02215 20.1762 2.18898 20.2866 2.37251 20.3618C2.55605 20.4369 2.75269 20.4754 2.95119 20.475H21.0489C21.2474 20.4754 21.444 20.4369 21.6275 20.3618C21.8111 20.2866 21.9779 20.1762 22.1185 20.0369C22.2591 19.8976 22.3706 19.7321 22.4468 19.5499C22.523 19.3677 22.5623 19.1723 22.5625 18.975C22.5643 18.5965 22.419 18.232 22.1568 17.9576Z" stroke="#3F80FF" stroke-width="1.95"/>
<path d="M10.375 1.78748H13.625V3.41248L12.8125 4.30623H12H11.1875L10.375 3.41248V1.78748Z" fill="#3F80FF"/>
<path d="M15.25 22.75C15.25 23.612 14.9076 24.4386 14.2981 25.0481C13.6886 25.6576 12.862 26 12 26C11.138 26 10.3114 25.6576 9.7019 25.0481C9.09241 24.4386 8.75 23.612 8.75 22.75L12 22.75H15.25Z" fill="#3F80FF"/>
<circle cx="18.75" cy="6.75" r="3.75" fill="#3F80FF"/>
</svg>
