<svg width="42" height="42" viewBox="0 0 42 42" fill="none" xmlns="http://www.w3.org/2000/svg">
<g id="Google_Icon">
<path id="Vector" d="M10.2486 15.612C11.2249 13.6239 12.7227 11.9526 14.5745 10.785C16.4263 9.61731 18.5592 8.9993 20.7347 9C23.8972 9 26.5539 10.1892 28.5852 12.126L25.2209 15.5676C24.004 14.3784 22.4573 13.7724 20.7347 13.7724C17.6778 13.7724 15.0903 15.8844 14.1691 18.72C13.9344 19.44 13.8007 20.208 13.8007 21C13.8007 21.792 13.9344 22.56 14.1691 23.28C15.0915 26.1168 17.6778 28.2276 20.7347 28.2276C22.313 28.2276 23.6566 27.8016 24.7081 27.0816C25.3176 26.6712 25.8394 26.1387 26.242 25.5162C26.6446 24.8937 26.9196 24.1942 27.0503 23.46H20.7347V18.8184H31.7864C31.9249 19.6032 32 20.4216 32 21.2724C32 24.9276 30.7209 28.0044 28.5007 30.0924C26.5598 31.926 23.9031 33 20.7347 33C19.1935 33.0006 17.6673 32.6907 16.2433 32.0878C14.8193 31.485 13.5254 30.6011 12.4356 29.4867C11.3458 28.3723 10.4815 27.0491 9.89199 25.5929C9.30249 24.1368 8.99938 22.576 9 21C9 19.0632 9.45296 17.232 10.2486 15.612Z" fill="#001640"/>
<rect x="0.5" y="0.5" width="41" height="41" rx="20.5" stroke="#B2CCFF" stroke-opacity="0.7"/>
</g>
</svg>
