<svg width="345" height="256" viewBox="0 0 345 256" fill="none" xmlns="http://www.w3.org/2000/svg">
<g clip-path="url(#clip0_325_8934)">
<path d="M309.558 236.377H286.77V236.549H309.558V236.377Z" fill="#EBEBEB"/>
<path d="M227.9 238.248H221.92V238.42H227.9V238.248Z" fill="#EBEBEB"/>
<path d="M286.082 229.991H272.878V230.163H286.082V229.991Z" fill="#EBEBEB"/>
<path d="M65.8131 231.147H36.0957V231.319H65.8131V231.147Z" fill="#EBEBEB"/>
<path d="M76.2991 231.147H71.9437V231.319H76.2991V231.147Z" fill="#EBEBEB"/>
<path d="M154.917 234.051H90.4594V234.223H154.917V234.051Z" fill="#EBEBEB"/>
<path d="M164.034 194.618H31.1692C29.0018 194.618 27.2404 192.857 27.2404 190.689V3.92883C27.2404 1.76144 29.0018 0 31.1692 0H164.034C166.201 0 167.963 1.76144 167.963 3.92883V190.689C167.963 192.857 166.201 194.618 164.034 194.618ZM31.1692 0.172015C29.0981 0.172015 27.4124 1.85777 27.4124 3.92883V190.689C27.4124 192.76 29.0981 194.446 31.1692 194.446H164.034C166.105 194.446 167.791 192.76 167.791 190.689V3.92883C167.791 1.85777 166.105 0.172015 164.034 0.172015H31.1692Z" fill="#EBEBEB"/>
<path d="M312.861 194.618H179.997C177.829 194.618 176.068 192.857 176.068 190.689V3.92883C176.068 1.76144 177.829 0 179.997 0H312.861C315.029 0 316.79 1.76144 316.79 3.92883V190.689C316.79 192.857 315.029 194.618 312.861 194.618ZM179.997 0.172015C177.926 0.172015 176.24 1.85777 176.24 3.92883V190.689C176.24 192.76 177.926 194.446 179.997 194.446H312.861C314.932 194.446 316.618 192.76 316.618 190.689V3.92883C316.618 1.85777 314.932 0.172015 312.861 0.172015H179.997Z" fill="#EBEBEB"/>
<path d="M344.03 225.306H0V225.478H344.03V225.306Z" fill="#EBEBEB"/>
<path d="M240.87 221.315H306.359V134.172H240.87V221.315Z" fill="#F5F5F5"/>
<path d="M228.374 221.315H240.87V134.172H228.374V221.315Z" fill="#E6E6E6"/>
<path d="M245.122 161.797H301.77V140.633H245.122V161.797Z" fill="#FAFAFA"/>
<path d="M280.832 140.633L280.584 143.454C280.502 144.383 279.724 145.098 278.789 145.098H268.096C267.16 145.098 266.383 144.383 266.3 143.454L266.053 140.633H280.825H280.832Z" fill="#EBEBEB"/>
<path d="M245.122 185.267H301.77V164.103H245.122V185.267Z" fill="#FAFAFA"/>
<path d="M280.832 164.109L280.584 166.93C280.502 167.859 279.724 168.575 278.789 168.575H268.096C267.16 168.575 266.383 167.859 266.3 166.93L266.053 164.109H280.825H280.832Z" fill="#EBEBEB"/>
<path d="M245.122 208.744H301.77V187.579H245.122V208.744Z" fill="#FAFAFA"/>
<path d="M280.832 187.579L280.584 190.4C280.502 191.329 279.724 192.045 278.789 192.045H268.096C267.16 192.045 266.383 191.329 266.3 190.4L266.053 187.579H280.825H280.832Z" fill="#EBEBEB"/>
<path d="M245.122 225.656H301.082L301.77 221.301H245.122V225.656Z" fill="#E6E6E6"/>
<path d="M233.425 225.656H245.122V221.301H232.737L233.425 225.656Z" fill="#E0E0E0"/>
<path d="M271.426 134.261H293.788L291.311 105.906H268.949L271.426 134.261Z" fill="#FAFAFA"/>
<path d="M271.426 134.261H270.36L267.876 105.906H268.949L271.426 134.261Z" fill="#EBEBEB"/>
<path d="M273.456 131.371H291.256L289.282 108.796H271.481L273.456 131.371Z" fill="#F0F0F0"/>
<path d="M274.757 129.514H289.626L287.981 110.654H273.105L274.757 129.514Z" fill="#E6E6E6"/>
<path d="M265.144 134.261L266.679 116.709H244.42L242.886 134.261H265.144Z" fill="#F0F0F0"/>
<path d="M265.144 134.261L266.679 116.709H267.876L266.342 134.261H265.144Z" fill="#E0E0E0"/>
<path d="M263.032 132.472L264.257 118.498H246.532L245.307 132.472H263.032Z" fill="#EBEBEB"/>
<path d="M261.67 131.323L262.695 119.647H247.888L246.869 131.323H261.67Z" fill="#F5F5F5"/>
<path d="M213.739 213.863C213.739 218.514 213.01 221.521 211.778 223.455C210.856 224.907 209.191 225.725 207.471 225.725H200.735C199.015 225.725 197.357 224.907 196.428 223.455C195.196 221.521 194.467 218.514 194.467 213.863C194.467 207.113 197.405 201.719 198.368 197.405C198.712 195.85 197.563 191.095 197.563 191.095H210.636C210.636 191.095 209.487 195.857 209.831 197.405C210.794 201.719 213.732 207.12 213.732 213.863H213.739Z" fill="#EBEBEB"/>
<path d="M236.005 186.554C236.005 180.699 226.819 183.127 224.507 174.038C223.634 170.598 231.099 162.802 231.099 162.802H207.808C207.808 162.802 215.281 170.598 214.4 174.038C212.088 183.127 202.902 180.692 202.902 186.554C202.902 193.008 215.859 206.439 216.478 221.563C216.533 222.911 214.042 225.718 214.042 225.718H224.858C224.858 225.718 222.368 222.918 222.423 221.563C223.049 206.439 235.998 193.001 235.998 186.554H236.005Z" fill="#F5F5F5"/>
<path d="M228.966 201.781C230.322 198.932 227.521 189.251 227.521 189.251H237.615C237.615 189.251 234.815 198.932 236.17 201.781C237.126 203.79 239.301 205.077 239.301 207.45V221.741C239.301 225.443 236.273 225.718 232.572 225.718C228.87 225.718 225.842 225.443 225.842 221.741V207.45C225.842 205.07 228.017 203.79 228.973 201.781H228.966Z" fill="#F0F0F0"/>
<path d="M113.633 117.369C107.833 114.858 104.53 109.56 106.257 105.555C107.991 101.551 114.115 100.34 119.915 102.851C125.716 105.363 129.025 110.661 127.291 114.665C125.557 118.67 119.434 119.881 113.633 117.369ZM118.25 106.711C115.532 105.535 112.663 106.106 111.851 107.977C111.039 109.856 112.587 112.333 115.305 113.509C118.023 114.686 120.892 114.115 121.704 112.243C122.516 110.365 120.968 107.888 118.25 106.711Z" fill="#E6E6E6"/>
<path d="M120.459 106.932L117.707 105.741L134.358 67.251C134.688 66.4873 135.569 66.1433 136.332 66.4666C137.096 66.7969 137.44 67.6776 137.117 68.4414L120.466 106.932H120.459Z" fill="#E6E6E6"/>
<path d="M138.383 72.1637L133.092 69.8519L134.289 67.0996L139.573 69.4046L138.383 72.1637Z" fill="#E6E6E6"/>
<path d="M135.775 75.2462L131.991 73.6018L133.181 70.8427L136.965 72.4871L135.775 75.2462Z" fill="#E6E6E6"/>
<path d="M131.641 76.0993L130.449 78.8523L134.693 80.6894L135.884 77.9363L131.641 76.0993Z" fill="#E6E6E6"/>
<path d="M121.525 102.824L120.012 102.17C119.255 101.847 118.911 100.966 119.234 100.216V100.195C119.571 99.4384 120.445 99.0944 121.202 99.4178L122.716 100.071C123.473 100.395 123.817 101.276 123.493 102.026V102.046C123.156 102.803 122.282 103.147 121.525 102.824Z" fill="#E6E6E6"/>
<path d="M239.769 89.5924C244.365 92.6542 245.548 98.9775 242.411 103.684C239.273 108.39 232.984 109.732 228.388 106.677C223.792 103.615 222.608 97.2918 225.746 92.5854C228.883 87.8791 235.172 86.5374 239.769 89.5992V89.5924ZM231.409 102.136C233.562 103.567 236.507 102.941 237.98 100.732C239.452 98.5234 238.895 95.5647 236.741 94.1267C234.588 92.6955 231.643 93.3216 230.17 95.5303C228.698 97.739 229.255 100.698 231.409 102.136Z" fill="#E6E6E6"/>
<path d="M230.301 100.911L233.149 102.81L212.776 133.993C212.253 134.777 211.187 134.991 210.402 134.468C209.618 133.945 209.404 132.885 209.927 132.094L230.301 100.911Z" fill="#E6E6E6"/>
<path d="M210.051 125.296L216.044 129.321L213.051 133.814L207.044 129.782C206.184 129.204 205.95 128.034 206.528 127.174L207.43 125.819C208.008 124.952 209.184 124.718 210.051 125.296Z" fill="#E6E6E6"/>
<path d="M156.561 29.9994L153.396 38.1942C153.114 38.9304 152.282 39.302 151.545 39.013C150.809 38.7309 150.438 37.8983 150.727 37.1621L153.892 28.9673C154.91 26.3183 153.589 23.339 150.947 22.3138L148.016 21.1853C145.367 20.167 142.387 21.4881 141.362 24.1302L140.069 27.4742L137.392 26.4421L138.686 23.0981C140.275 18.9767 144.926 16.9194 149.041 18.5088L151.972 19.6372C156.094 21.2266 158.151 25.8779 156.561 29.9994Z" fill="#F0F0F0"/>
<path d="M156.059 31.293C155.846 31.0247 155.564 30.7976 155.22 30.6669L139.257 24.5018C138.899 24.3642 138.527 24.3367 138.176 24.4055C137.537 24.5294 136.972 24.9697 136.725 25.6234L130.56 41.5864C130.167 42.5979 130.67 43.7263 131.681 44.1185L147.644 50.2835C148.656 50.6757 149.784 50.1734 150.176 49.162L156.341 33.1989C156.596 32.5384 156.472 31.8159 156.059 31.293ZM143.936 43.63L138.871 41.6759L141.548 37.0039C141.211 36.3227 141.149 35.5108 141.445 34.7471C142.002 33.3022 143.626 32.5797 145.078 33.137C146.53 33.6943 147.245 35.3251 146.688 36.77C146.392 37.5337 145.8 38.0911 145.091 38.3663L143.936 43.63Z" fill="#E6E6E6"/>
<path d="M47.5796 216.402L174.96 216.402V147.851H47.5796L47.5796 216.402Z" fill="#E6E6E6"/>
<path d="M164.749 225.292H172.758V219.244H164.749V225.292Z" fill="#E6E6E6"/>
<path d="M37.8571 225.292H45.8661L45.8661 142.745H37.8571L37.8571 225.292Z" fill="#E6E6E6"/>
<path d="M45.7698 142.745V225.292H50.0427V220.668H172.758V225.292H177.031V142.745H45.7698ZM50.0427 150.217H109.264V178.889H50.0427V150.217ZM172.758 213.196H113.537V150.217H172.758V213.196ZM50.0427 213.196V183.155H109.264V213.196H50.0427Z" fill="#F0F0F0"/>
<path d="M113.53 213.196H168.754V153.3H113.53V213.196Z" fill="#F5F5F5"/>
<path d="M116.035 181.455C116.035 182.873 117.184 184.022 118.601 184.022C120.018 184.022 121.168 182.873 121.168 181.455C121.168 180.038 120.018 178.889 118.601 178.889C117.184 178.889 116.035 180.038 116.035 181.455Z" fill="#FAFAFA"/>
<path d="M118.601 184.022C119.633 184.022 120.521 183.403 120.927 182.522C121.078 182.845 121.168 183.21 121.168 183.588C121.168 185.006 120.018 186.155 118.601 186.155C117.184 186.155 116.035 185.006 116.035 183.588C116.035 183.203 116.124 182.845 116.275 182.522C116.681 183.403 117.569 184.022 118.601 184.022Z" fill="#E0E0E0"/>
<path d="M147.341 213.196H134.165L127.869 153.3H141.046L147.341 213.196Z" fill="#FAFAFA"/>
<path d="M130.793 213.196H128.165L121.876 153.3H124.498L130.793 213.196Z" fill="#FAFAFA"/>
<path d="M95.9226 178.861H101.138V153.245H95.9226V178.861Z" fill="#FAFAFA"/>
<path d="M74.283 178.861H79.4985V153.245H74.283V178.861Z" fill="#F5F5F5"/>
<path d="M90.7002 178.861H95.9157V155.041H90.7002V178.861Z" fill="#F5F5F5"/>
<path d="M79.4985 178.861H84.7141V155.041H79.4985V178.861Z" fill="#FAFAFA"/>
<path d="M84.721 178.861H88.0925V153.245H84.721V178.861Z" fill="#EBEBEB"/>
<path d="M88.0855 178.861H90.6933V155.041H88.0855V178.861Z" fill="#FAFAFA"/>
<path d="M69.0676 178.861H74.2831V153.245H69.0676V178.861Z" fill="#EBEBEB"/>
<path d="M63.8452 178.861H69.0607V155.041H63.8452V178.861Z" fill="#E6E6E6"/>
<path d="M52.6436 178.861H57.8591V155.041H52.6436V178.861Z" fill="#E6E6E6"/>
<path d="M57.8659 178.861H61.2374V153.245H57.8659V178.861Z" fill="#FAFAFA"/>
<path d="M61.2374 178.861H63.8452V155.041H61.2374V178.861Z" fill="#EBEBEB"/>
<path d="M50.0358 178.854H52.6436V153.843H50.0358V178.854Z" fill="#EBEBEB"/>
<path d="M55.2513 187.579H50.0358V213.196H55.2513V187.579Z" fill="#EBEBEB"/>
<path d="M76.8839 187.579H71.6684V213.196H76.8839V187.579Z" fill="#FAFAFA"/>
<path d="M60.4668 189.375H55.2513V213.196H60.4668V189.375Z" fill="#FAFAFA"/>
<path d="M71.6684 189.375H66.4529V213.196H71.6684V189.375Z" fill="#EBEBEB"/>
<path d="M66.4529 187.579H63.0814V213.196H66.4529V187.579Z" fill="#FAFAFA"/>
<path d="M63.0814 189.375H60.4737V213.196H63.0814V189.375Z" fill="#F5F5F5"/>
<path d="M82.1063 187.579H76.8908V213.196H82.1063V187.579Z" fill="#EBEBEB"/>
<path d="M87.3218 189.375H82.1063V213.196H87.3218V189.375Z" fill="#F5F5F5"/>
<path d="M98.5234 189.375H93.3079V213.196H98.5234V189.375Z" fill="#E6E6E6"/>
<path d="M93.308 187.579H89.9365V213.196H93.308V187.579Z" fill="#FAFAFA"/>
<path d="M104.51 187.579H101.138V213.196H104.51V187.579Z" fill="#FAFAFA"/>
<path d="M89.9364 189.375H87.3287V213.196H89.9364V189.375Z" fill="#EBEBEB"/>
<path d="M101.131 188.185H98.5235V213.196H101.131V188.185Z" fill="#EBEBEB"/>
<path d="M55.857 98.6266C55.857 98.6266 54.9831 99.0326 54.5839 99.8447C54.1848 100.657 55.4235 102.164 55.4235 102.164C55.4235 102.164 56.4695 102.893 57.5018 102.418L58.5409 101.95C58.5409 101.95 56.7723 98.8743 55.9121 98.8468L55.8639 98.6335L55.857 98.6266Z" fill="#E6E6E6"/>
<path d="M60.2948 98.5991C60.4187 100.058 59.5173 101.895 58.2169 102.012C56.9165 102.122 55.7055 100.471 55.5816 99.0119C55.4578 97.5532 56.5036 97.4087 57.8109 97.2986C59.1114 97.1885 60.171 97.1472 60.3017 98.6059L60.2948 98.5991Z" fill="#E6E6E6"/>
<path d="M56.4763 98.1726C56.4763 98.1726 57.4741 98.964 59.5249 98.5029C59.5249 98.5029 56.2905 100.657 56.4763 98.1726Z" fill="#E6E6E6"/>
<path d="M57.3568 97.8835C57.3568 97.8835 58.5061 97.6839 58.5198 98.1656C58.5198 98.1656 59.4901 98.1106 59.3594 97.7046C59.2218 97.2985 57.3568 97.8904 57.3568 97.8904V97.8835Z" fill="#E6E6E6"/>
<g opacity="0.2">
<path d="M56.4763 98.1726C56.4763 98.1726 57.4741 98.964 59.5249 98.5029C59.5249 98.5029 56.2905 100.657 56.4763 98.1726Z" fill="#FAFAFA"/>
</g>
<g opacity="0.2">
<path d="M57.3568 97.8835C57.3568 97.8835 58.5061 97.6839 58.5198 98.1656C58.5198 98.1656 59.4901 98.1106 59.3594 97.7046C59.2218 97.2985 57.3568 97.8904 57.3568 97.8904V97.8835Z" fill="#FAFAFA"/>
</g>
<path d="M56.0289 102.473C56.4417 103.147 57.288 103.491 58.0724 103.395C58.8568 103.298 59.5586 102.81 60.0127 102.163C60.4669 101.516 60.6802 100.725 60.7283 99.9408C60.7421 99.7343 60.7558 99.2252 60.4875 99.1495C60.2398 99.0807 60.0884 99.4247 59.9783 99.583C59.6481 100.044 59.304 100.477 58.8843 100.863C58.4784 101.234 58.0311 101.565 57.5495 101.833C57.4119 101.909 56.1046 102.59 56.0289 102.473Z" fill="#E6E6E6"/>
<path d="M61.6163 99.5625C61.864 100.154 61.7746 100.87 61.3892 101.386C61.1346 101.723 60.7767 101.964 60.4189 102.178C60.1711 102.329 59.8477 102.474 59.5999 102.315C59.3316 102.143 59.3591 101.758 59.421 101.441C59.5174 100.966 59.6206 100.492 59.7376 100.017C59.8339 99.6314 59.8958 98.9845 60.1229 98.6542C60.3363 98.3445 60.6391 98.5303 60.9625 98.7505C61.2515 98.9501 61.4855 99.2322 61.6232 99.5557L61.6163 99.5625Z" fill="#E6E6E6"/>
<g opacity="0.2">
<path d="M56.3593 101.661C55.857 101.641 55.3821 101.297 55.1963 100.829C55.0587 100.485 55.0656 99.6037 55.5129 99.4867C55.7125 100.271 55.8845 100.98 56.3593 101.654V101.661Z" fill="#FAFAFA"/>
</g>
<g opacity="0.2">
<path d="M59.7513 101.627C60.2261 101.489 60.6184 101.104 60.7629 100.629C60.8455 100.367 60.7422 99.0324 60.3431 99.5967C60.2123 99.7825 60.2399 100.367 60.171 100.601C60.0678 100.959 59.9302 101.303 59.7444 101.627H59.7513Z" fill="#FAFAFA"/>
</g>
<g opacity="0.2">
<path d="M57.935 102.452C58.2998 102.762 58.8916 102.782 59.2701 102.487C59.2219 102.741 58.4099 102.961 58.1552 103.037C57.5015 103.23 57.1574 102.941 56.5174 102.672C56.5174 102.672 57.5221 102.824 57.9281 102.452H57.935Z" fill="#FAFAFA"/>
</g>
<path d="M56.7995 129.252L56.8614 109.402L57.8798 103.36L58.2651 103.429L57.2536 109.436L57.1779 129.631L56.7995 129.252Z" fill="#E0E0E0"/>
<path d="M57.2123 109.298L56.9027 109.539C56.5931 109.133 56.311 108.603 55.9876 107.991C55.4853 107.042 54.9142 105.968 54.0472 105.019L54.3362 104.757C55.2376 105.748 55.8156 106.842 56.3316 107.812C56.6481 108.411 56.9233 108.927 57.2123 109.305V109.298Z" fill="#E0E0E0"/>
<path d="M57.4535 106.636C57.9834 106.498 58.4582 106.161 58.761 105.707C59.1051 105.191 59.229 104.565 59.3391 103.952C58.6509 104.159 57.9145 103.821 57.2057 103.904C56.6414 103.966 56.1115 104.317 55.8225 104.806C55.4509 105.446 55.2995 106.168 55.6298 106.464C55.8982 106.705 56.7447 106.822 57.4535 106.636Z" fill="#E6E6E6"/>
<path d="M54.8115 105.267C54.1784 105.666 53.3664 105.769 52.6507 105.535C51.935 105.301 51.7285 104.234 51.4532 103.532C52.1001 103.402 53.738 103.491 54.1096 103.532C54.4812 103.567 54.8597 103.739 55.0593 104.055C55.2588 104.372 55.2244 104.847 54.9216 105.06C54.901 105.046 54.8115 105.267 54.8115 105.267Z" fill="#E6E6E6"/>
<path d="M51.5565 106.422C51.99 105.892 53.0636 105.514 53.738 105.638C54.4124 105.762 54.9836 106.223 55.2244 106.773C55.0455 107.2 54.5707 107.441 54.1096 107.475C53.6485 107.51 53.1943 107.372 52.7539 107.234C52.3135 107.097 51.8593 106.966 51.3982 106.994L51.5634 106.422H51.5565Z" fill="#E6E6E6"/>
<path d="M64.8016 103.01C64.8016 103.01 65.5172 103.649 65.6617 104.551C65.8062 105.445 64.1755 106.519 64.1755 106.519C64.1755 106.519 62.9645 106.904 62.1113 106.154L61.2581 105.397C61.2581 105.397 63.8521 102.982 64.6847 103.202L64.7947 103.01H64.8016Z" fill="#E6E6E6"/>
<path d="M60.5632 101.682C60.0127 103.037 60.3361 105.06 61.5471 105.555C62.7581 106.051 64.3957 104.819 64.9461 103.464C65.4965 102.108 64.5333 101.661 63.3223 101.172C62.1113 100.684 61.1067 100.333 60.5632 101.688V101.682Z" fill="#E6E6E6"/>
<path d="M64.3411 102.397C64.3411 102.397 63.1575 102.865 61.3338 101.819C61.3338 101.819 63.7906 104.833 64.3411 102.397Z" fill="#E6E6E6"/>
<path d="M63.5841 101.861C63.5841 101.861 62.5449 101.331 62.3866 101.785C62.3866 101.785 61.4714 101.448 61.7191 101.097C61.9669 100.746 63.5772 101.861 63.5772 101.861H63.5841Z" fill="#E6E6E6"/>
<g opacity="0.2">
<path d="M64.3411 102.397C64.3411 102.397 63.1575 102.865 61.3338 101.819C61.3338 101.819 63.7906 104.833 64.3411 102.397Z" fill="#FAFAFA"/>
</g>
<g opacity="0.2">
<path d="M63.5841 101.861C63.5841 101.861 62.5449 101.331 62.3866 101.785C62.3866 101.785 61.4714 101.448 61.7191 101.097C61.9669 100.746 63.5772 101.861 63.5772 101.861H63.5841Z" fill="#FAFAFA"/>
</g>
<path d="M63.5012 106.636C62.9094 107.159 62.0012 107.234 61.2787 106.918C60.5563 106.601 60.0265 105.92 59.7856 105.17C59.5448 104.42 59.5723 103.601 59.7512 102.831C59.7994 102.631 59.9301 102.143 60.2122 102.143C60.4668 102.143 60.515 102.521 60.5769 102.707C60.7558 103.243 60.9622 103.76 61.2443 104.255C61.5195 104.73 61.8567 105.177 62.2351 105.576C62.3383 105.686 63.398 106.725 63.5012 106.636Z" fill="#E6E6E6"/>
<path d="M59.022 102.212C58.6159 102.707 58.4852 103.416 58.7054 104.022C58.8499 104.421 59.1183 104.751 59.4005 105.068C59.5931 105.288 59.8615 105.515 60.1437 105.439C60.4465 105.357 60.5359 104.971 60.5703 104.662C60.6185 104.18 60.6598 103.691 60.6805 103.209C60.7011 102.81 60.8318 102.177 60.7149 101.792C60.6048 101.434 60.2607 101.517 59.8891 101.64C59.5519 101.751 59.2491 101.943 59.022 102.218V102.212Z" fill="#E6E6E6"/>
<g opacity="0.2">
<path d="M63.4255 105.769C63.9141 105.9 64.4646 105.714 64.7812 105.315C65.0152 105.026 65.2698 104.179 64.8706 103.945C64.4509 104.633 64.0792 105.26 63.4255 105.769Z" fill="#FAFAFA"/>
</g>
<g opacity="0.2">
<path d="M60.1917 104.737C59.7788 104.469 59.5104 103.98 59.5173 103.485C59.5173 103.209 60.0059 101.971 60.2192 102.617C60.288 102.831 60.0953 103.381 60.0885 103.629C60.0816 104.001 60.116 104.372 60.1917 104.737Z" fill="#FAFAFA"/>
</g>
<g opacity="0.2">
<path d="M61.6849 106.058C61.2444 106.25 60.6733 106.092 60.398 105.7C60.3705 105.961 61.0862 106.409 61.2995 106.553C61.8707 106.932 62.2836 106.753 62.9718 106.691C62.9718 106.691 61.9601 106.539 61.6849 106.065V106.058Z" fill="#FAFAFA"/>
</g>
<path d="M56.2352 126.287L56.4829 125.475L56.8132 124.381L57.1985 123.101L60.2879 112.938L60.6732 110.021L61.0172 107.434L61.0861 106.897L61.2787 106.918V106.925L61.4782 106.945L61.4714 106.993L61.4026 107.503L61.0379 110.269L60.7351 112.519L60.6732 113.014L60.6457 113.097L57.1985 124.45L56.8063 125.722L56.6274 126.314L56.3866 127.119L56.2352 126.287Z" fill="#E0E0E0"/>
<path d="M60.3636 112.814L60.5906 113.131C61.0104 112.835 61.4301 112.408 61.9255 111.92C62.6823 111.163 63.5424 110.303 64.6502 109.649L64.4507 109.312C63.3016 109.993 62.4209 110.874 61.6503 111.645C61.1686 112.126 60.7558 112.539 60.3705 112.814H60.3636Z" fill="#E0E0E0"/>
<path d="M60.9211 110.2C60.46 109.911 60.1022 109.45 59.9439 108.927C59.765 108.335 59.8338 107.695 59.9026 107.083C60.4944 107.482 61.2996 107.379 61.9534 107.668C62.4764 107.895 62.8755 108.384 63.0063 108.934C63.1714 109.657 63.1026 110.393 62.7035 110.572C62.3732 110.723 61.5336 110.586 60.9142 110.2H60.9211Z" fill="#E6E6E6"/>
<path d="M63.8452 109.67C64.3338 110.241 65.0839 110.579 65.8271 110.565C66.5772 110.551 67.0934 109.588 67.5613 109.003C66.9833 108.686 65.3867 108.294 65.022 108.218C64.6572 108.143 64.2443 108.191 63.9622 108.438C63.68 108.679 63.5768 109.147 63.797 109.443C63.8177 109.436 63.8452 109.67 63.8452 109.67Z" fill="#E6E6E6"/>
<path d="M66.6187 111.734C66.3571 111.101 65.4419 110.42 64.7675 110.344C64.0862 110.262 63.4049 110.537 63.0126 110.991C63.0539 111.452 63.4393 111.824 63.8728 111.989C64.3064 112.154 64.7812 112.161 65.2423 112.161C65.7034 112.161 66.1782 112.161 66.6118 112.333L66.6255 111.734H66.6187Z" fill="#E6E6E6"/>
<path d="M50.8615 102.218C50.8615 102.218 50.0702 102.776 49.8225 103.643C49.5748 104.516 51.0679 105.776 51.0679 105.776C51.0679 105.776 52.2239 106.305 53.1596 105.652L54.0954 105.005C54.0954 105.005 51.7973 102.301 50.951 102.425L50.8615 102.218Z" fill="#E6E6E6"/>
<path d="M55.2239 101.399C55.6092 102.81 55.0519 104.785 53.7928 105.129C52.5336 105.473 51.0474 104.062 50.6621 102.652C50.2768 101.241 51.2813 100.911 52.5474 100.567C53.8134 100.223 54.8455 99.9889 55.2308 101.406L55.2239 101.399Z" fill="#E6E6E6"/>
<path d="M51.3913 101.661C51.3913 101.661 52.513 102.26 54.4468 101.441C54.4468 101.441 51.6528 104.145 51.3913 101.661Z" fill="#E6E6E6"/>
<path d="M52.2032 101.221C52.2032 101.221 53.2974 100.815 53.4007 101.289C53.4007 101.289 54.3503 101.062 54.1439 100.684C53.9374 100.305 52.2032 101.221 52.2032 101.221Z" fill="#E6E6E6"/>
<g opacity="0.2">
<path d="M51.3913 101.661C51.3913 101.661 52.513 102.26 54.4468 101.441C54.4468 101.441 51.6528 104.145 51.3913 101.661Z" fill="#FAFAFA"/>
</g>
<g opacity="0.2">
<path d="M52.2032 101.221C52.2032 101.221 53.2974 100.815 53.4007 101.289C53.4007 101.289 54.3503 101.062 54.1439 100.684C53.9374 100.305 52.2032 101.221 52.2032 101.221Z" fill="#FAFAFA"/>
</g>
<path d="M51.7216 105.975C52.2514 106.56 53.1459 106.753 53.8959 106.519C54.6527 106.285 55.2582 105.679 55.5816 104.964C55.9119 104.248 55.9807 103.429 55.8844 102.645C55.8637 102.445 55.7812 101.936 55.5059 101.909C55.2513 101.881 55.1619 102.246 55.0793 102.425C54.8385 102.941 54.5771 103.429 54.233 103.883C53.9028 104.324 53.5174 104.723 53.0977 105.081C52.9807 105.177 51.8111 106.085 51.7147 105.982L51.7216 105.975Z" fill="#E6E6E6"/>
<path d="M56.6966 102.101C57.0475 102.638 57.0888 103.361 56.7998 103.932C56.614 104.31 56.3043 104.606 55.9878 104.888C55.7675 105.081 55.4785 105.281 55.2032 105.171C54.9142 105.047 54.866 104.661 54.8729 104.345C54.8729 103.856 54.9004 103.374 54.9349 102.886C54.9624 102.487 54.9004 101.84 55.0656 101.475C55.217 101.131 55.5473 101.262 55.9052 101.42C56.2217 101.565 56.5039 101.799 56.6966 102.095V102.101Z" fill="#E6E6E6"/>
<g opacity="0.2">
<path d="M51.9076 105.115C51.4121 105.184 50.8822 104.936 50.6138 104.51C50.4211 104.193 50.2629 103.326 50.6826 103.133C51.0199 103.87 51.3158 104.537 51.9007 105.115H51.9076Z" fill="#FAFAFA"/>
</g>
<g opacity="0.2">
<path d="M55.2375 104.475C55.678 104.255 56.0014 103.801 56.0565 103.312C56.0909 103.044 55.7468 101.75 55.4578 102.37C55.3614 102.576 55.4922 103.147 55.4715 103.388C55.4371 103.76 55.3545 104.124 55.2375 104.475Z" fill="#FAFAFA"/>
</g>
<g opacity="0.2">
<path d="M53.6002 105.61C54.02 105.851 54.5981 105.762 54.9215 105.404C54.9215 105.665 54.1576 106.023 53.9237 106.14C53.3112 106.45 52.9258 106.223 52.2514 106.078C52.2514 106.078 53.2699 106.051 53.6002 105.61Z" fill="#FAFAFA"/>
</g>
<path d="M57.288 132.176L53.7857 112.635L53.7032 106.519L54.0954 106.512L54.1779 112.608L57.7352 132.479L57.288 132.176Z" fill="#E0E0E0"/>
<path d="M54.1166 112.478L53.8551 112.767C53.4766 112.423 53.105 111.955 52.6715 111.404C52.0039 110.565 51.2538 109.608 50.2285 108.824L50.4693 108.514C51.5291 109.326 52.2999 110.303 52.9811 111.163C53.4009 111.693 53.7588 112.154 54.1166 112.478Z" fill="#E0E0E0"/>
<path d="M53.8686 109.815C54.3641 109.581 54.7701 109.168 54.9904 108.666C55.2381 108.094 55.245 107.454 55.245 106.835C54.605 107.159 53.8205 106.966 53.1392 107.172C52.5955 107.337 52.1344 107.771 51.9418 108.308C51.694 109.003 51.6734 109.746 52.045 109.973C52.3547 110.159 53.2011 110.125 53.8686 109.815Z" fill="#E6E6E6"/>
<path d="M51.0272 108.941C50.4767 109.45 49.6922 109.698 48.9489 109.595C48.2057 109.491 47.8066 108.48 47.4143 107.84C48.0268 107.592 49.6577 107.392 50.0294 107.358C50.401 107.324 50.8001 107.427 51.0547 107.702C51.3094 107.977 51.3575 108.445 51.096 108.721C51.0754 108.714 51.0203 108.941 51.0203 108.941H51.0272Z" fill="#E6E6E6"/>
<path d="M48.0336 110.668C48.3639 110.069 49.3549 109.505 50.0361 109.505C50.7174 109.505 51.3643 109.856 51.7015 110.358C51.6052 110.812 51.1785 111.136 50.7312 111.246C50.2839 111.356 49.8091 111.308 49.3549 111.253C48.8938 111.198 48.4258 111.149 47.9785 111.26L48.0336 110.668Z" fill="#E6E6E6"/>
<path d="M58.726 120.19H54.6114C54.3018 120.19 54.0266 120.383 53.9371 120.679C53.6 121.745 52.8775 124.553 52.8775 128.977C52.8775 133.835 54.1435 140.282 54.5426 142.188C54.6114 142.511 54.8935 142.738 55.2169 142.738H58.0792C58.4095 142.738 58.6847 142.504 58.7535 142.188C59.1526 140.282 60.4186 133.835 60.4186 128.977C60.4186 124.553 59.6962 121.752 59.359 120.679C59.2696 120.397 59.015 120.204 58.7191 120.19H58.726Z" fill="#F0F0F0"/>
<path d="M172.015 256C245.694 256 305.423 252.513 305.423 248.211C305.423 243.91 245.694 240.422 172.015 240.422C98.3359 240.422 38.6071 243.91 38.6071 248.211C38.6071 252.513 98.3359 256 172.015 256Z" fill="#F5F5F5"/>
<path d="M83.104 221.432C82.8701 221.418 82.6843 221.219 82.6912 220.985C83.2003 200.762 84.2462 167.591 84.3012 167.405C84.37 167.171 84.6177 167.047 84.8448 167.109C85.0787 167.178 85.2095 167.426 85.1407 167.653C85.1269 167.694 84.0742 200.983 83.5719 220.998C83.5719 221.239 83.3655 221.432 83.1246 221.425C83.1246 221.425 83.1109 221.425 83.104 221.425V221.432Z" fill="#001640"/>
<path d="M80.3861 153.906C80.5581 155.461 82.4228 160.862 83.9778 160.697C85.5328 160.525 86.1934 154.855 86.0282 153.293C85.8562 151.738 84.4594 150.61 82.9044 150.782C81.3494 150.954 80.221 152.351 80.393 153.906H80.3861Z" fill="#3F80FF"/>
<path d="M87.9479 170.935C87.7759 169.38 85.9113 163.979 84.3562 164.151C82.8012 164.323 82.1407 169.992 82.3058 171.554C82.4778 173.109 83.8746 174.238 85.4296 174.066C86.9846 173.894 88.1131 172.497 87.941 170.942L87.9479 170.935Z" fill="#3F80FF"/>
<path d="M75.6523 166.201C77.2073 166.029 82.6086 164.165 82.4366 162.61C82.2645 161.055 76.5949 160.394 75.033 160.559C73.478 160.731 72.3496 162.128 72.5216 163.683C72.6936 165.238 74.0904 166.366 75.6454 166.194L75.6523 166.201Z" fill="#3F80FF"/>
<path d="M92.6818 158.639C91.1267 158.811 85.7255 160.676 85.8906 162.231C86.0626 163.786 91.7322 164.447 93.2941 164.281C94.8492 164.109 95.9776 162.713 95.8056 161.158C95.6335 159.603 94.2368 158.474 92.6818 158.646V158.639Z" fill="#3F80FF"/>
<path d="M75.4734 159.073C76.6981 160.057 81.831 162.554 82.815 161.33C83.7989 160.105 80.2485 155.626 79.0306 154.649C77.8128 153.665 76.0238 153.864 75.0399 155.082C74.0559 156.3 74.2555 158.089 75.4734 159.073Z" fill="#3F80FF"/>
<path d="M92.8607 165.768C91.6428 164.784 86.503 162.286 85.5191 163.511C84.5352 164.729 88.0855 169.208 89.3034 170.192C90.5213 171.176 92.3102 170.976 93.2942 169.758C94.2781 168.541 94.0786 166.752 92.8607 165.768Z" fill="#3F80FF"/>
<path d="M80.8196 171.114C81.8036 169.896 84.3012 164.756 83.0765 163.772C81.8586 162.788 77.3793 166.339 76.3954 167.557C75.4115 168.775 75.611 170.564 76.8289 171.547C78.0468 172.531 79.8357 172.332 80.8196 171.114Z" fill="#3F80FF"/>
<path d="M87.5144 153.727C86.5305 154.945 84.0328 160.084 85.2576 161.068C86.4754 162.052 90.9547 158.502 91.9386 157.284C92.9226 156.066 92.723 154.277 91.5052 153.293C90.2873 152.309 88.4983 152.509 87.5144 153.727Z" fill="#3F80FF"/>
<g opacity="0.6">
<path d="M80.3861 153.906C80.5581 155.461 82.4228 160.862 83.9778 160.697C85.5328 160.525 86.1934 154.855 86.0282 153.293C85.8562 151.738 84.4594 150.61 82.9044 150.782C81.3494 150.954 80.221 152.351 80.393 153.906H80.3861Z" fill="white"/>
<path d="M87.9479 170.935C87.7759 169.38 85.9113 163.979 84.3562 164.151C82.8012 164.323 82.1407 169.992 82.3058 171.554C82.4778 173.109 83.8746 174.238 85.4296 174.066C86.9846 173.894 88.1131 172.497 87.941 170.942L87.9479 170.935Z" fill="white"/>
<path d="M75.6523 166.201C77.2073 166.029 82.6086 164.165 82.4366 162.61C82.2645 161.055 76.5949 160.394 75.033 160.559C73.478 160.731 72.3496 162.128 72.5216 163.683C72.6936 165.238 74.0904 166.366 75.6454 166.194L75.6523 166.201Z" fill="white"/>
<path d="M92.6818 158.639C91.1267 158.811 85.7255 160.676 85.8906 162.231C86.0626 163.786 91.7322 164.447 93.2941 164.281C94.8492 164.109 95.9776 162.713 95.8056 161.158C95.6335 159.603 94.2368 158.474 92.6818 158.646V158.639Z" fill="white"/>
<path d="M75.4734 159.073C76.6981 160.057 81.831 162.554 82.815 161.33C83.7989 160.105 80.2485 155.626 79.0306 154.649C77.8128 153.665 76.0238 153.864 75.0399 155.082C74.0559 156.3 74.2555 158.089 75.4734 159.073Z" fill="white"/>
<path d="M92.8607 165.768C91.6428 164.784 86.503 162.286 85.5191 163.511C84.5352 164.729 88.0855 169.208 89.3034 170.192C90.5213 171.176 92.3102 170.976 93.2942 169.758C94.2781 168.541 94.0786 166.752 92.8607 165.768Z" fill="white"/>
<path d="M80.8196 171.114C81.8036 169.896 84.3012 164.756 83.0765 163.772C81.8586 162.788 77.3793 166.339 76.3954 167.557C75.4115 168.775 75.611 170.564 76.8289 171.547C78.0468 172.531 79.8357 172.332 80.8196 171.114Z" fill="white"/>
<path d="M87.5144 153.727C86.5305 154.945 84.0328 160.084 85.2576 161.068C86.4754 162.052 90.9547 158.502 91.9386 157.284C92.9226 156.066 92.723 154.277 91.5052 153.293C90.2873 152.309 88.4983 152.509 87.5144 153.727Z" fill="white"/>
</g>
<path d="M80.8265 162.781C81.0261 164.625 82.6843 165.96 84.5283 165.761C86.3723 165.561 87.7071 163.903 87.5076 162.059C87.308 160.215 85.6498 158.88 83.8058 159.08C81.9618 159.279 80.627 160.937 80.8265 162.781Z" fill="#3F80FF"/>
<path d="M81.1568 206.618C77.283 206.7 70.6501 203.122 68.0355 199.627C65.3864 196.084 72.8175 198.265 72.0469 195.478C71.2762 192.691 62.1319 194.776 60.4324 190.785C58.7329 186.795 65.3383 187.689 65.0699 185.653C64.8016 183.609 57.9622 184.042 55.7536 179.804C53.5449 175.559 59.5654 177.926 58.6159 176.164C57.6664 174.403 50.1046 167.013 53.2559 165.458C56.4072 163.903 63.4943 171.602 65.8681 172.456C68.2419 173.309 68.7786 167.976 71.868 170.515C74.9573 173.054 72.6799 184.215 76.3128 185.673C79.0169 186.76 77.8541 181.662 80.971 182.942C86.4204 185.178 82.7324 206.583 81.1568 206.618Z" fill="#3F80FF"/>
<g opacity="0.2">
<path d="M81.1568 206.618C77.283 206.7 70.6501 203.122 68.0355 199.627C65.3864 196.084 72.8175 198.265 72.0469 195.478C71.2762 192.691 62.1319 194.776 60.4324 190.785C58.7329 186.795 65.3383 187.689 65.0699 185.653C64.8016 183.609 57.9622 184.042 55.7536 179.804C53.5449 175.559 59.5654 177.926 58.6159 176.164C57.6664 174.403 50.1046 167.013 53.2559 165.458C56.4072 163.903 63.4943 171.602 65.8681 172.456C68.2419 173.309 68.7786 167.976 71.868 170.515C74.9573 173.054 72.6799 184.215 76.3128 185.673C79.0169 186.76 77.8541 181.662 80.971 182.942C86.4204 185.178 82.7324 206.583 81.1568 206.618Z" fill="white"/>
</g>
<path d="M86.7301 201.698C86.792 201.808 86.214 202.359 88.1268 202.434C92.84 202.627 101.172 202.311 104.303 198.024C108.769 191.907 98.4684 192.464 99.4661 189.093C100.471 185.721 111.542 188.474 113.702 183.657C115.863 178.841 107.812 179.783 108.184 177.3C108.555 174.823 117.005 178.036 119.791 172.923C122.578 167.811 115.195 170.55 116.392 168.43C117.59 166.311 126.961 157.497 123.163 155.536C119.365 153.575 110.565 162.775 107.661 163.758C104.757 164.742 104.083 155.722 100.271 158.736C96.4524 161.756 98.9569 175.38 94.5052 177.066C91.1887 178.325 92.9983 173.446 88.9043 173.632C83.3448 173.887 81.5214 192.987 86.7232 201.691L86.7301 201.698Z" fill="#3F80FF"/>
<g opacity="0.3">
<path d="M86.7301 201.698C86.792 201.808 86.214 202.359 88.1268 202.434C92.84 202.627 101.172 202.311 104.303 198.024C108.769 191.907 98.4684 192.464 99.4661 189.093C100.471 185.721 111.542 188.474 113.702 183.657C115.863 178.841 107.812 179.783 108.184 177.3C108.555 174.823 117.005 178.036 119.791 172.923C122.578 167.811 115.195 170.55 116.392 168.43C117.59 166.311 126.961 157.497 123.163 155.536C119.365 153.575 110.565 162.775 107.661 163.758C104.757 164.742 104.083 155.722 100.271 158.736C96.4524 161.756 98.9569 175.38 94.5052 177.066C91.1887 178.325 92.9983 173.446 88.9043 173.632C83.3448 173.887 81.5214 192.987 86.7232 201.691L86.7301 201.698Z" fill="white"/>
</g>
<path d="M83.2003 218.377C83.2003 218.377 83.1865 218.377 83.1728 218.377C83.0076 218.356 82.8838 218.205 82.9044 218.033C86.7713 186.368 105.012 173.501 105.198 173.378C105.335 173.281 105.528 173.316 105.624 173.453C105.721 173.591 105.686 173.784 105.548 173.88C105.37 174.004 87.3493 186.733 83.5168 218.108C83.4961 218.267 83.3585 218.384 83.2003 218.377Z" fill="#001640"/>
<path d="M101.042 177.774C100.918 177.774 100.801 177.685 100.76 177.561C100.705 177.403 100.794 177.224 100.959 177.176C101.069 177.141 103.787 176.281 108.239 177.224C108.404 177.258 108.507 177.423 108.473 177.588C108.438 177.754 108.273 177.864 108.108 177.822C103.828 176.914 101.172 177.747 101.145 177.754C101.111 177.767 101.076 177.767 101.035 177.767L101.042 177.774Z" fill="#001640"/>
<path d="M97.6771 181.62C97.512 181.62 97.3881 181.483 97.3812 181.318C97.2849 171.74 102.831 164.261 102.886 164.185C102.989 164.047 103.182 164.02 103.312 164.123C103.45 164.226 103.477 164.419 103.374 164.55C103.319 164.625 97.8973 171.946 97.9936 181.304C97.9936 181.476 97.856 181.614 97.6909 181.614H97.6771V181.62Z" fill="#001640"/>
<path d="M92.2414 189.726C92.1657 189.726 92.09 189.691 92.0281 189.63C91.9111 189.506 91.918 189.313 92.0419 189.196C92.0832 189.155 96.184 185.364 101.558 187.29C101.716 187.345 101.799 187.524 101.744 187.682C101.688 187.841 101.51 187.923 101.351 187.868C96.3285 186.065 92.496 189.609 92.4616 189.643C92.3997 189.698 92.3171 189.733 92.2414 189.726Z" fill="#001640"/>
<path d="M89.3997 195.375C89.2827 195.375 89.1795 195.299 89.1314 195.189C89.0419 194.99 87.0328 190.173 88.1406 183.313C88.1681 183.148 88.3195 183.031 88.4915 183.059C88.6566 183.086 88.7736 183.244 88.746 183.41C87.6658 190.084 89.6749 194.9 89.6956 194.948C89.7644 195.107 89.6956 195.285 89.5304 195.347C89.4892 195.368 89.441 195.375 89.3997 195.375Z" fill="#001640"/>
<path d="M83.3172 229.688C83.159 229.688 83.0282 229.551 83.0214 229.393L82.6223 221.005C81.4457 193.125 62.3245 174.155 62.1318 173.969C62.008 173.852 62.008 173.66 62.1318 173.536C62.2488 173.412 62.4415 173.412 62.5653 173.536C62.758 173.728 82.0581 192.85 83.2415 220.991L83.6406 229.379C83.6406 229.551 83.5099 229.688 83.3448 229.695C83.3379 229.695 83.331 229.695 83.3241 229.695L83.3172 229.688Z" fill="#001640"/>
<path d="M70.0239 184.442C70.0239 184.442 69.9895 184.442 69.9757 184.442C69.9482 184.442 69.9138 184.421 69.8863 184.407L69.79 184.366C67.2854 183.327 64.4919 182.783 61.9117 182.845C61.7397 182.852 61.602 182.715 61.5952 182.543C61.5952 182.371 61.7259 182.233 61.8979 182.226C64.5538 182.171 67.4437 182.721 70.0239 183.795L70.1271 183.836C70.1271 183.836 70.1615 183.85 70.1822 183.864C70.2991 183.926 70.3748 184.063 70.3404 184.201C70.3129 184.352 70.1753 184.448 70.0308 184.442H70.0239Z" fill="#001640"/>
<path d="M72.728 188.033C72.728 188.033 72.7211 188.033 72.7142 188.033C72.5491 188.019 72.4183 187.868 72.439 187.703C73.1821 179.474 68.9161 172.703 68.8748 172.634C68.7854 172.49 68.8267 172.304 68.9712 172.208C69.1156 172.118 69.3014 172.16 69.3978 172.304C69.439 172.373 73.8151 179.316 73.0582 187.758C73.0445 187.923 72.9 188.04 72.7417 188.04L72.728 188.033Z" fill="#001640"/>
<path d="M75.5215 192.801C75.4458 192.801 75.3701 192.767 75.3151 192.712C75.2807 192.678 72.1775 189.616 67.6294 190.827C67.4643 190.875 67.2992 190.772 67.251 190.607C67.2097 190.441 67.306 190.276 67.4712 190.228C72.3702 188.921 75.6109 192.141 75.7485 192.279C75.8655 192.402 75.8655 192.595 75.7485 192.712C75.6866 192.774 75.6041 192.801 75.5215 192.801Z" fill="#001640"/>
<path d="M79.065 200.659C79.0237 200.659 78.9755 200.645 78.9343 200.625C78.7829 200.549 78.7278 200.363 78.8035 200.212C78.8242 200.171 80.9296 196.056 80.448 190.118C80.4342 189.946 80.5581 189.802 80.7301 189.788C80.9021 189.767 81.0466 189.898 81.0604 190.07C81.5558 196.194 79.4365 200.322 79.3471 200.494C79.292 200.604 79.1751 200.666 79.065 200.659Z" fill="#001640"/>
<path d="M100.567 231.01C100.567 240.787 96.1702 248.72 82.8494 248.72C69.5285 248.72 65.1318 240.787 65.1318 231.01C65.1318 227.322 66.2671 223.888 68.1937 221.053H97.512C99.4385 223.888 100.574 227.322 100.574 231.01H100.567Z" fill="#3F80FF"/>
<path opacity="0.7" d="M100.567 231.01C100.567 240.787 96.1702 248.72 82.8494 248.72C69.5285 248.72 65.1318 240.787 65.1318 231.01C65.1318 227.322 66.2671 223.888 68.1937 221.053H97.512C99.4385 223.888 100.574 227.322 100.574 231.01H100.567Z" fill="white"/>
<path d="M202.359 240.071L209.212 239.074L207.485 223.035L200.625 224.039L202.359 240.071Z" fill="#E8BFBF"/>
<path d="M214.483 239.315C215.082 239.274 215.639 239.026 216.079 238.62C216.265 238.386 216.327 238.069 216.238 237.78C216.196 237.601 216.066 237.45 215.894 237.395C214.978 237.065 212.473 238.916 212.191 239.122C212.136 239.163 212.115 239.239 212.129 239.308C212.15 239.37 212.212 239.418 212.281 239.418C213.017 239.452 213.753 239.418 214.483 239.315ZM215.446 237.705C215.549 237.677 215.66 237.684 215.756 237.711C215.825 237.732 215.88 237.794 215.9 237.87C215.955 238.062 215.921 238.269 215.797 238.42C215.446 238.861 214.325 239.108 212.762 239.108C213.574 238.489 214.49 238.007 215.46 237.691H215.439L215.446 237.705Z" fill="#3F80FF"/>
<path d="M212.322 239.418L212.377 239.391C213.141 238.888 214.51 237.147 214.249 236.39C214.173 236.218 214.029 236.005 213.568 236.032C213.237 236.032 212.921 236.184 212.7 236.438C211.957 237.292 212.109 239.17 212.109 239.246C212.109 239.301 212.129 239.356 212.177 239.391C212.219 239.425 212.267 239.432 212.322 239.418ZM213.471 236.377L213.561 236.335C213.863 236.321 213.898 236.432 213.905 236.473C214.063 236.927 213.155 238.269 212.398 238.888C212.329 238.097 212.508 237.306 212.921 236.631C213.065 236.48 213.265 236.383 213.478 236.37H213.464L213.471 236.377Z" fill="#3F80FF"/>
<path d="M208.51 236.232L202.434 237.677C202.159 237.732 201.973 237.986 202.001 238.269L202.2 247.062C202.283 247.681 202.854 248.108 203.466 248.025C203.508 248.025 203.549 248.012 203.59 247.998C206.226 247.344 207.464 246.897 210.815 246.126C212.865 245.651 219.368 245.163 222.03 243.98C224.693 242.796 223.654 240.092 222.443 240.353C218.535 241.193 213.519 239.521 210.67 236.975C210.285 236.782 208.93 236.129 208.517 236.232H208.51Z" fill="#001640"/>
<path opacity="0.2" d="M207.485 223.035L208.372 231.305L201.519 232.31L200.625 224.046L207.485 223.035Z" fill="black"/>
<path d="M211.145 227.899L198.464 230.266C198.464 230.266 192.306 221.473 191.143 215.232C189.932 208.73 191.226 186.602 191.143 186.306C187.559 174.196 177.809 142.821 173.109 131.275C170.502 124.876 168.671 120.569 168.671 120.569L169.985 120.273L180.334 116.035L187.875 117.459C187.875 117.459 210.794 163.807 213.203 181.242C214.998 194.26 211.138 227.899 211.138 227.899H211.145Z" fill="#3F80FF"/>
<path opacity="0.3" d="M211.145 227.899L198.464 230.266C198.464 230.266 192.306 221.473 191.143 215.232C189.932 208.73 191.226 186.602 191.143 186.306C187.559 174.196 177.809 142.821 173.109 131.275C170.502 124.876 168.671 120.569 168.671 120.569L169.985 120.273L180.334 116.035L187.875 117.459C187.875 117.459 210.794 163.807 213.203 181.242C214.998 194.26 211.138 227.899 211.138 227.899H211.145Z" fill="white"/>
<path opacity="0.2" d="M188.157 175.827C184.572 163.717 177.334 145.353 172.628 133.807L169.511 122.805L168.912 120.686L170.006 122.688L182.288 149.901C187.71 160.318 188.24 176.123 188.157 175.834V175.827Z" fill="black"/>
<path d="M132.5 236.294L138.61 238.867L145.126 224.886L139.023 222.312L132.5 236.294Z" fill="#E8BFBF"/>
<path d="M142.587 241.799C143.069 242.101 143.647 242.232 144.211 242.163C144.486 242.088 144.714 241.881 144.803 241.606C144.872 241.448 144.858 241.255 144.755 241.11C144.232 240.34 141.252 240.347 140.922 240.353C140.853 240.353 140.798 240.402 140.77 240.457C140.75 240.519 140.77 240.587 140.825 240.629C141.376 241.069 141.961 241.461 142.58 241.792L142.587 241.799ZM144.239 241.104C144.335 241.145 144.418 241.207 144.473 241.289C144.514 241.344 144.521 241.427 144.493 241.489C144.431 241.668 144.287 241.806 144.101 241.861C143.578 241.998 142.58 241.558 141.369 240.677C142.346 240.656 143.323 240.801 144.253 241.11H144.232L144.239 241.104Z" fill="#3F80FF"/>
<path d="M140.86 240.663L140.915 240.677C141.782 240.719 143.833 240.147 144.06 239.418C144.094 239.246 144.108 238.998 143.736 238.757C143.475 238.571 143.151 238.509 142.842 238.578C141.789 238.819 140.839 240.347 140.798 240.409C140.764 240.45 140.75 240.512 140.77 240.56C140.784 240.608 140.819 240.643 140.867 240.663H140.86ZM143.468 238.964L143.564 238.984C143.805 239.143 143.771 239.253 143.757 239.287C143.626 239.728 142.167 240.251 141.231 240.306C141.624 239.659 142.216 239.15 142.911 238.86C143.11 238.826 143.317 238.86 143.489 238.977H143.475L143.468 238.964Z" fill="#3F80FF"/>
<path d="M139.718 236.046L134.206 233.727C133.965 233.617 133.676 233.707 133.539 233.941L128.722 240.842C128.44 241.365 128.633 242.019 129.156 242.301C129.19 242.321 129.232 242.335 129.266 242.356C131.667 243.34 132.878 243.697 135.906 244.991C137.757 245.789 143.055 249.078 145.779 249.67C148.504 250.262 149.227 247.592 148.146 247.096C144.658 245.535 141.727 241.413 140.963 237.835C140.77 237.47 140.096 236.198 139.718 236.046Z" fill="#001640"/>
<path opacity="0.2" d="M145.394 225.051L141.858 232.172L135.816 229.461L139.339 222.333L145.394 225.051Z" fill="black"/>
<path d="M146.667 232.812L134.502 226.331C134.502 226.331 132.17 217.668 134.502 212.143C138.988 201.512 150.672 185.88 150.747 185.584C153.864 173.343 159.327 139.835 161.199 127.505C162.238 120.672 162.843 119.2 162.843 119.2L164.13 119.619L182.742 119.654C182.742 119.654 186.251 147.844 172.793 191.487C169.442 202.345 163.834 211.372 154.6 223.592C151.098 228.23 146.66 232.812 146.66 232.812H146.667Z" fill="#3F80FF"/>
<path opacity="0.3" d="M146.667 232.812L134.502 226.331C134.502 226.331 132.17 217.668 134.502 212.143C138.988 201.512 150.672 185.88 150.747 185.584C153.864 173.343 159.327 139.835 161.199 127.505C162.238 120.672 162.843 119.2 162.843 119.2L164.13 119.619L182.742 119.654C182.742 119.654 186.251 147.844 172.793 191.487C169.442 202.345 163.834 211.372 154.6 223.592C151.098 228.23 146.66 232.812 146.66 232.812H146.667Z" fill="white"/>
<path d="M199.235 96.6243C199.373 94.5326 200.756 91.8423 201.953 90.5969C202.338 90.1978 203.79 89.5923 204.609 89.0557C208.648 86.4066 216.739 83.097 216.739 83.097L219.237 85.2713C219.237 85.2713 214.31 90.0327 211.379 92.3171C210.801 92.7643 210.134 93.3079 209.432 93.8858C208.159 94.9523 202.159 98.9087 201.01 99.8995L199.235 96.6175V96.6243Z" fill="#E8BFBF"/>
<path d="M223.854 81.8723L219.237 85.2851L216.65 83.3792C216.65 83.3792 217.709 82.0306 218.79 80.9916C219.264 80.5306 219.526 79.9044 219.533 79.2439C219.54 78.2256 219.698 77.049 220.248 76.182C220.262 76.1614 220.269 76.1408 220.283 76.127C221.28 74.6201 223.627 75.0743 224.095 76.8151L224.762 79.2783C225.023 80.2485 224.666 81.2806 223.854 81.8792V81.8723Z" fill="#E8BFBF"/>
<path d="M200.707 97.5464L199.489 98.6611C199.111 98.3584 198.506 97.8698 197.749 97.2437C191.818 92.3172 176.949 80.3793 182.88 76.9665C187.958 74.0423 193.359 82.9871 196.049 85.6705C196.6 86.2278 198.1 87.9549 199.311 90.1292C200.577 92.4066 201.512 95.1658 200.707 97.5464Z" fill="#001640"/>
<path d="M199.304 89.0626C197.198 90.6039 195.402 92.558 194.047 94.7873C195.024 98.0212 197.48 100.828 200.577 102.177C202.276 98.2414 203.061 94.0029 202.73 89.73C201.657 89.4961 200.377 89.2966 199.304 89.0626Z" fill="#001640"/>
<path d="M166.655 76.2715C164.536 76.9527 162.107 76.4091 160.745 78.1706C159.382 79.932 158.977 82.2645 158.977 84.4938C158.977 87.5901 159.685 90.6451 160.394 93.6588C161.247 97.3193 162.1 100.98 162.96 104.64C163.545 107.145 162.933 118.773 163.552 118.973C163.552 118.973 183.004 118.594 187.882 117.906C187.882 117.906 188.309 105.948 188.694 101.874C188.783 100.973 190.153 97.1335 190.311 96.1702C191.068 91.629 189.581 88.4227 188.006 84.0948C188.006 84.0948 184.559 77.1591 182.88 76.9733C179.887 76.6362 172.566 74.3725 166.655 76.2784V76.2715Z" fill="#001640"/>
<path d="M165.836 82.01C165.768 81.604 162.314 74.6339 159.004 79.5054C154.401 86.2897 154.091 94.8079 154.091 94.8079C154.091 94.8079 151.263 103.092 153.231 104.902C155.206 106.711 157.332 107.874 158.708 106.849C160.084 105.824 160.979 103.773 160.979 103.773C160.979 103.773 167.041 89.1107 165.836 82.01Z" fill="#001640"/>
<path d="M165.609 73.6845C164.158 74.8198 164.35 77.4413 165.947 78.3564C165.547 79.76 166.015 81.3839 167.109 82.354C168.203 83.3242 169.868 83.5994 171.217 83.0352C170.632 84.0811 171.293 85.4572 172.297 86.104C173.302 86.7508 174.547 86.8677 175.731 87.026C176.914 87.1842 178.166 87.4388 179.033 88.2714C180.258 86.5099 181.483 84.7416 182.715 82.9802C183.189 82.2921 183.685 81.5559 183.726 80.7233C183.76 79.8908 183.127 78.9688 182.295 79.0307C183.141 78.15 183.162 76.595 182.329 75.6936C181.504 74.7922 179.955 74.6753 178.999 75.4459C179.171 74.7372 178.758 73.9872 178.16 73.5744C177.561 73.1615 176.818 73.017 176.095 72.9482L165.609 73.6913V73.6845Z" fill="#001640"/>
<path d="M167.818 64.7052C168.774 68.2143 169.937 74.689 167.612 77.2485C167.612 77.2485 174.183 79.8769 178.848 85.1544C181.022 83.042 180.795 80.6682 180.127 78.9343C179.611 77.5926 178.504 76.5949 177.176 76.0307C174.616 74.9435 174.595 72.4252 175.022 70.017L167.811 64.7052H167.818Z" fill="#E8BFBF"/>
<path opacity="0.2" d="M169.249 70.6845L171.664 71.3382C172.696 71.6203 173.784 71.6822 174.843 71.5239C174.836 72.0469 174.74 73.1478 175.07 73.7326C173.68 74.4 171.334 73.9459 170.302 72.7212C169.875 72.2464 169.49 71.2762 169.256 70.6776L169.249 70.6845Z" fill="black"/>
<path d="M163.132 61.719C165.692 67.1134 166.655 69.4528 170.598 71.173C176.529 73.7669 182.584 69.4322 181.682 63.3841C180.877 57.9416 176.825 50.0289 170.529 50.0013C166.029 49.96 162.348 53.5655 162.3 58.0654C162.286 59.3314 162.568 60.5837 163.125 61.7259L163.132 61.719Z" fill="#E8BFBF"/>
<path d="M165.94 51.412C164.075 50.545 161.763 51.2537 160.208 52.6161C158.632 54.006 157.669 55.9463 156.747 57.8385C156.245 58.8637 155.743 59.9095 155.509 61.0242C155.275 62.1457 155.344 63.3705 155.935 64.3475C156.513 65.3039 157.593 65.9369 158.708 65.9989C159.348 66.0333 160.098 66.5012 160.311 67.1066C160.504 67.6709 160.415 68.2832 160.325 68.8681C160.236 69.4392 160.153 70.0309 160.332 70.5745C160.628 71.4827 161.598 72.0332 162.554 72.1295C163.504 72.2189 164.447 71.9437 165.369 71.6754C165.947 71.5034 166.531 71.5997 166.986 72.0056C167.096 72.1089 167.192 72.2258 167.261 72.3634C167.543 72.907 168.369 72.8176 168.609 72.2533C169.442 70.2717 168.231 67.1135 166.428 64.6984C165.472 63.4186 165.52 63.742 165.148 62.187C164.832 60.8934 165.307 59.5449 165.892 58.3476C166.662 56.7513 167.66 55.1894 167.35 53.2835C167.219 52.4785 166.697 51.756 165.96 51.412H165.94Z" fill="#001640"/>
<path d="M163.291 67.2373C164.137 68.1387 165.314 68.6685 166.552 68.7097C168.197 68.7441 168.609 67.1754 167.818 65.8405C167.102 64.6364 165.382 63.1709 163.896 63.7488C162.41 64.3337 162.259 66.1089 163.291 67.2373Z" fill="#E8BFBF"/>
<path d="M173.412 60.7559C173.605 61.2307 173.976 61.4785 174.272 61.3546C174.568 61.2307 174.644 60.7834 174.479 60.3223C174.314 59.8612 173.914 59.6066 173.618 59.7236C173.323 59.8406 173.233 60.3017 173.412 60.7559Z" fill="#001640"/>
<path d="M178.449 58.5885C178.634 59.0634 179.013 59.3111 179.309 59.1941C179.598 59.0771 179.68 58.6229 179.515 58.1619C179.35 57.7008 178.951 57.4462 178.655 57.5563C178.359 57.6664 178.27 58.1343 178.449 58.5885Z" fill="#001640"/>
<path d="M178.524 57.6457L179.481 56.8956C179.481 56.8956 179.274 57.9623 178.524 57.6457Z" fill="#001640"/>
<path d="M177.141 59.5997C178.311 60.7559 179.192 60.9623 180.458 61.7606C180.424 62.8823 179.364 63.1438 179.364 63.1438L177.141 59.6066V59.5997Z" fill="#ED847E"/>
<path d="M178.828 65.3451C179.048 65.2625 179.254 65.1662 179.461 65.0492C179.529 65.0148 179.55 64.9322 179.516 64.8634C179.474 64.7946 179.392 64.7739 179.323 64.8015C178.256 65.4208 176.956 65.4896 175.827 64.9873C175.758 64.9529 175.669 64.9735 175.634 65.0492C175.6 65.118 175.621 65.2075 175.696 65.2419C176.687 65.6961 177.816 65.7374 178.834 65.352L178.828 65.3451Z" fill="#001640"/>
<path d="M173.227 57.0127C173.22 57.1434 173.13 57.2536 173.006 57.288C171.685 57.6802 171.1 59.3525 171.1 59.3662C171.045 59.5245 170.88 59.6071 170.722 59.5521C170.563 59.497 170.481 59.3318 170.536 59.1736C170.584 59.1116 171.224 57.1916 172.834 56.7099C172.993 56.6686 173.158 56.7581 173.206 56.9095C173.22 56.9439 173.227 56.9714 173.234 57.0058L173.227 57.0127Z" fill="#001640"/>
<path d="M179.316 56.2009C179.206 56.2697 179.068 56.256 178.965 56.1734C177.892 55.3132 176.178 55.788 176.171 55.788C176.013 55.8362 175.848 55.7467 175.8 55.5884C175.751 55.4301 175.841 55.265 175.999 55.2168C176.082 55.2168 178.022 54.6525 179.337 55.6985C179.461 55.8018 179.481 55.9876 179.385 56.1183C179.371 56.1458 179.344 56.1734 179.316 56.194V56.2009Z" fill="#001640"/>
<path d="M173.501 59.8062L174.458 59.063C174.458 59.063 174.238 60.1297 173.501 59.8062Z" fill="#001640"/>
<path d="M166.353 50.5105C164.853 50.6275 163.421 51.4876 162.609 52.7536C162.066 53.6068 161.873 54.9004 162.678 55.5059C163.057 55.788 163.559 55.843 164.027 55.8843C166.119 56.0701 168.706 54.4531 168.706 54.4531C167.901 51.0335 175.07 48.3844 178.607 53.6825C179.646 55.2375 179.364 56.3659 181.091 57.0884C181.903 57.4256 182.976 57.3361 183.499 58.0448C184.366 59.2214 182.701 61.2168 183.76 62.2282C184.483 62.9232 186.121 62.6548 186.217 63.6525C186.265 64.1204 185.955 64.7947 186.409 64.9323C186.657 65.008 186.884 64.7809 187.049 64.5745C187.442 64.0791 187.841 63.5631 187.971 62.9507C188.102 62.3383 187.889 61.5952 187.311 61.3337C186.87 61.1342 185.708 61.3544 185.79 61.836C185.887 62.4071 185.391 59.593 185.611 58.5333C185.804 57.6045 186.685 56.8063 186.416 55.8981C186.127 54.9279 184.978 54.5426 183.981 54.3981C182.983 54.2536 181.848 54.1297 181.235 53.3316C180.554 52.4371 180.864 51.1573 180.644 50.0564C180.361 48.6528 179.192 47.5588 177.878 46.9877C173.887 45.2606 167.722 45.5015 166.346 50.5174L166.353 50.5105Z" fill="#001640"/>
<path d="M177.685 68.8679L163.93 75.7761C159.41 78.0467 157.359 83.3929 159.21 88.1061L165.843 105.026C167.694 109.739 172.827 112.271 177.692 110.867L192.485 106.601C198.031 105.005 200.996 98.9843 198.891 93.6106L191.219 74.0421C189.114 68.6684 182.845 66.2671 177.692 68.8611L177.685 68.8679ZM175.414 97.9316C172.345 99.1357 168.885 97.622 167.68 94.5532C166.476 91.4845 167.99 88.0235 171.059 86.8263C174.128 85.6222 177.588 87.1359 178.793 90.2047C179.997 93.2734 178.483 96.7344 175.414 97.9316Z" fill="#3F80FF"/>
<path d="M177.685 68.8679L163.93 75.7761C159.41 78.0467 157.359 83.3929 159.21 88.1061L165.843 105.026C167.694 109.739 172.827 112.271 177.692 110.867L192.485 106.601C198.031 105.005 200.996 98.9843 198.891 93.6106L191.219 74.0421C189.114 68.6684 182.845 66.2671 177.692 68.8611L177.685 68.8679ZM175.414 97.9316C172.345 99.1357 168.885 97.622 167.68 94.5532C166.476 91.4845 167.99 88.0235 171.059 86.8263C174.128 85.6222 177.588 87.1359 178.793 90.2047C179.997 93.2734 178.483 96.7344 175.414 97.9316Z" fill="#3F80FF"/>
<path opacity="0.1" d="M198.884 93.6245L191.205 74.056C189.1 68.6823 182.832 66.2809 177.678 68.868L173.68 70.8772L170.997 72.2258L163.924 75.783C159.396 78.0536 157.353 83.3999 159.197 88.1131L165.83 105.033C167.68 109.746 172.813 112.278 177.678 110.874L192.478 106.608C193.689 106.257 194.776 105.693 195.719 104.971C196.448 104.413 197.088 103.766 197.618 103.044C199.558 100.436 200.171 96.9065 198.884 93.6245ZM175.4 97.9317C172.339 99.1359 168.871 97.6221 167.674 94.5534C166.469 91.4915 167.983 88.0237 171.052 86.8264C174.114 85.6223 177.582 87.1361 178.779 90.1979C179.976 93.2667 178.469 96.7276 175.4 97.9249V97.9317Z" fill="white"/>
<path d="M177.822 70.1547L164.921 76.6363C160.676 78.7692 158.763 83.7783 160.49 88.1957L166.71 104.062C168.444 108.48 173.261 110.86 177.822 109.539L191.701 105.535C196.902 104.035 199.682 98.3927 197.707 93.3561L190.51 75.0056C188.536 69.9689 182.653 67.7121 177.822 70.1478V70.1547ZM167.674 94.5465C166.469 91.4777 167.983 88.0168 171.052 86.8196C174.121 85.6154 177.582 87.1292 178.786 90.1979C179.99 93.2667 178.476 96.7276 175.407 97.9249C172.339 99.129 168.878 97.6152 167.674 94.5465Z" fill="#3F80FF"/>
<path opacity="0.1" d="M177.822 70.1547L164.921 76.6363C160.676 78.7692 158.763 83.7783 160.49 88.1957L166.71 104.062C168.444 108.48 173.261 110.86 177.822 109.539L191.701 105.535C196.902 104.035 199.682 98.3927 197.707 93.3561L190.51 75.0056C188.536 69.9689 182.653 67.7121 177.822 70.1478V70.1547ZM167.674 94.5465C166.469 91.4777 167.983 88.0168 171.052 86.8196C174.121 85.6154 177.582 87.1292 178.786 90.1979C179.99 93.2667 178.476 96.7276 175.407 97.9249C172.339 99.129 168.878 97.6152 167.674 94.5465Z" fill="#3F80FF"/>
<path d="M241.936 64.0378L241.544 64.7603L241.324 65.1593L240.704 66.2946L240.966 69.2051C240.98 69.329 240.966 69.4529 240.924 69.5698C240.842 69.8244 240.649 70.0308 240.395 70.134L234.959 72.2601C234.704 72.3633 234.422 72.3358 234.188 72.2051C234.113 72.1638 234.044 72.1088 233.982 72.0468L230.906 68.923H230.899L226.53 70.6226L227.163 72.2395L222.794 73.9528L223.84 76.6156L220.62 77.8747C220.358 77.9779 220.062 77.9573 219.822 77.8334C219.739 77.7922 219.67 77.7371 219.601 77.6752L217.744 75.9275L213.375 77.6408L214.42 80.3036L209.824 82.1063L210.87 84.776C211.042 85.2095 210.829 85.7049 210.388 85.8769L197.797 90.8034L192.334 76.8702L237.876 59.0425L238.592 59.4072L240.904 60.5906C242.163 61.2374 242.638 62.7924 241.963 64.0309L241.936 64.0378Z" fill="#3F80FF"/>
<g opacity="0.1">
<path d="M241.936 64.0378L241.544 64.7603L241.324 65.1593L240.704 66.2946L240.966 69.2051C240.98 69.329 240.966 69.4529 240.924 69.5698C240.842 69.8244 240.649 70.0308 240.395 70.134L234.959 72.2601C234.704 72.3633 234.422 72.3358 234.188 72.2051C234.113 72.1638 234.044 72.1088 233.982 72.0468L230.906 68.923H230.899L226.53 70.6226L227.163 72.2395L222.794 73.9528L223.84 76.6156L220.62 77.8747C220.358 77.9779 220.062 77.9573 219.822 77.8334C219.739 77.7922 219.67 77.7371 219.601 77.6752L217.744 75.9275L213.375 77.6408L214.42 80.3036L209.824 82.1063L210.87 84.776C211.042 85.2095 210.829 85.7049 210.388 85.8769L197.797 90.8034L192.334 76.8702L237.876 59.0425L238.592 59.4072L240.904 60.5906C242.163 61.2374 242.638 62.7924 241.963 64.0309L241.936 64.0378Z" fill="white"/>
</g>
<path d="M241.757 62.4484L193.07 81.5077L191.652 77.9298L238.076 59.7581L240.388 60.9415C241.269 61.3956 241.771 61.8085 241.764 62.4484H241.757Z" fill="#3F80FF"/>
<path opacity="0.1" d="M241.757 62.4484L193.07 81.5077L191.652 77.9298L238.076 59.7581L240.388 60.9415C241.269 61.3956 241.771 61.8085 241.764 62.4484H241.757Z" fill="black"/>
<path d="M240.794 65.1387L240.326 66.1983C240.326 66.1983 240.312 66.2327 240.319 66.2533L240.58 69.1363C240.587 69.2395 240.58 69.3427 240.553 69.4459C240.546 69.4804 240.519 69.5079 240.484 69.5216L234.574 71.8473C234.574 71.8473 234.505 71.861 234.477 71.8404C234.422 71.806 234.367 71.7647 234.319 71.7097L230.941 68.3106C230.941 68.3106 230.865 68.2694 230.824 68.2831L226.021 70.1753C225.966 70.1959 225.939 70.2647 225.959 70.3198L226.53 71.7647C226.551 71.8198 226.53 71.8886 226.468 71.9092L222.374 73.5193C222.319 73.5399 222.292 73.6087 222.312 73.6638L223.296 76.1614C223.317 76.2165 223.296 76.2853 223.234 76.3059L220.234 77.4894C220.234 77.4894 220.166 77.5031 220.138 77.4894C220.076 77.455 220.014 77.4068 219.959 77.3586L217.764 75.3357C217.764 75.3357 217.689 75.3013 217.647 75.3151L212.879 77.1935C212.824 77.2142 212.797 77.283 212.817 77.338L213.829 79.8976C213.849 79.9526 213.829 80.0214 213.767 80.0421L195.457 87.2461C195.402 87.2667 195.334 87.2461 195.313 87.1842L193.483 82.6017C193.462 82.5466 193.483 82.4778 193.545 82.4572L241.255 63.68C241.344 63.6456 241.441 63.735 241.399 63.8314L240.801 65.1525L240.794 65.1387Z" fill="#3F80FF"/>
<path opacity="0.1" d="M240.794 65.1387L240.326 66.1983C240.326 66.1983 240.312 66.2327 240.319 66.2533L240.58 69.1363C240.587 69.2395 240.58 69.3427 240.553 69.4459C240.546 69.4804 240.519 69.5079 240.484 69.5216L234.574 71.8473C234.574 71.8473 234.505 71.861 234.477 71.8404C234.422 71.806 234.367 71.7647 234.319 71.7097L230.941 68.3106C230.941 68.3106 230.865 68.2694 230.824 68.2831L226.021 70.1753C225.966 70.1959 225.939 70.2647 225.959 70.3198L226.53 71.7647C226.551 71.8198 226.53 71.8886 226.468 71.9092L222.374 73.5193C222.319 73.5399 222.292 73.6087 222.312 73.6638L223.296 76.1614C223.317 76.2165 223.296 76.2853 223.234 76.3059L220.234 77.4894C220.234 77.4894 220.166 77.5031 220.138 77.4894C220.076 77.455 220.014 77.4068 219.959 77.3586L217.764 75.3357C217.764 75.3357 217.689 75.3013 217.647 75.3151L212.879 77.1935C212.824 77.2142 212.797 77.283 212.817 77.338L213.829 79.8976C213.849 79.9526 213.829 80.0214 213.767 80.0421L195.457 87.2461C195.402 87.2667 195.334 87.2461 195.313 87.1842L193.483 82.6017C193.462 82.5466 193.483 82.4778 193.545 82.4572L241.255 63.68C241.344 63.6456 241.441 63.735 241.399 63.8314L240.801 65.1525L240.794 65.1387Z" fill="black"/>
<path opacity="0.3" d="M170.687 85.3333C166.841 86.8402 164.942 91.1818 166.449 95.0281C167.956 98.8744 172.297 100.773 176.15 99.2666C179.997 97.7597 181.896 93.418 180.389 89.5718C178.882 85.7255 174.54 83.8265 170.687 85.3333ZM175.407 97.9248C172.339 99.129 168.878 97.6152 167.674 94.5465C166.469 91.4777 167.983 88.0168 171.052 86.8195C174.121 85.6154 177.582 87.1292 178.786 90.1979C179.99 93.2667 178.476 96.7276 175.407 97.9248Z" fill="white"/>
<path opacity="0.1" d="M197.618 103.037C197.081 103.76 196.448 104.413 195.719 104.964L170.997 72.2189L170.976 72.1913C170.976 72.1913 173.157 71.0973 173.646 70.7739C173.646 70.8014 173.66 70.8359 173.68 70.8771C174.761 73.1959 194.191 98.4271 197.618 103.044V103.037Z" fill="white"/>
<path opacity="0.1" d="M194.047 105.996C193.889 106.071 186.692 108.259 186.692 108.259L178.662 97.6289C180.74 95.5923 181.517 92.4409 180.389 89.5648C178.882 85.7186 174.54 83.8195 170.687 85.3264C170.35 85.4571 170.034 85.6085 169.724 85.7874L162.623 76.3816C162.623 76.3816 168.864 73.4092 169.559 72.9757C169.745 74.2968 194.047 105.721 194.047 106.003V105.996Z" fill="white"/>
<path d="M164.577 54.3499C163.772 55.3063 163.442 56.648 163.717 57.8658C163.986 59.0837 164.853 60.1571 165.988 60.6869C166.573 60.9621 167.219 61.0929 167.804 61.375C168.382 61.6639 168.926 62.1662 168.988 62.813C169.057 63.5286 168.534 64.1891 168.582 64.9047C168.63 65.5584 169.139 66.0744 169.655 66.4804C170.171 66.8863 170.749 67.2648 171.031 67.8565C171.313 68.4482 171.135 69.3221 170.502 69.4941C170.371 69.7005 170.316 70.189 170.488 70.361C170.66 70.5331 170.956 70.5743 171.162 70.4436C172.132 69.845 172.8 68.7235 172.807 67.5813C172.813 66.4391 172.098 65.3313 171.059 64.8634C170.873 64.485 171.018 64.0034 171.176 63.6112C171.492 62.8268 171.809 62.0355 172.118 61.2511C172.242 60.9415 172.132 60.3773 171.919 60.1227C171.706 59.8681 171.389 59.7236 171.079 59.5929L169.05 58.7259C168.286 58.3957 166.008 55.3544 168.706 54.4668C168.355 53.6824 167.742 53.4416 166.903 53.2834C166.064 53.1251 165.135 53.71 164.584 54.3636L164.577 54.3499Z" fill="#001640"/>
<path d="M168.258 51.0749C168.19 51.8731 168.121 52.6783 168.059 53.4766C168.733 52.3755 169.979 50.2353 169.931 50.3179C169.401 50.6069 168.788 50.7858 168.258 51.0749Z" fill="#001640"/>
<path d="M169.167 52.3894C170.109 51.5223 171.045 50.6483 171.988 49.7812C171.266 49.5128 170.385 49.7124 169.855 50.2767C169.869 50.2148 169.435 51.5498 169.174 52.3894H169.167Z" fill="#001640"/>
<path d="M163.435 117.486C159.768 122.041 160.986 125.53 155.922 133.594C162.307 138.328 169.311 139.112 178.022 138.438C179.054 136.615 179.57 134.715 180.602 132.892C182.075 134.722 183.265 136.264 184.737 138.094C189.299 137.378 194.721 136.098 198.327 133.773C195.141 130.119 193.159 125.557 191.123 121.525C190.166 119.633 190.565 118.842 188.026 116.365C179.942 116.736 171.926 116.936 163.841 117.308C164.054 117.321 163.222 117.48 163.435 117.486Z" fill="#001640"/>
<path d="M164.44 116.723L163.931 118.849C163.855 119.014 164.054 119.172 164.33 119.158L186.609 118.175C186.822 118.175 186.994 118.051 187.001 117.92L187.118 115.808C187.118 115.663 186.932 115.546 186.698 115.56L164.804 116.523C164.653 116.523 164.515 116.592 164.433 116.716L164.44 116.723Z" fill="#3F80FF"/>
<path d="M164.44 116.723L163.931 118.849C163.855 119.014 164.054 119.172 164.33 119.158L186.609 118.175C186.822 118.175 186.994 118.051 187.001 117.92L187.118 115.808C187.118 115.663 186.932 115.546 186.698 115.56L164.804 116.523C164.653 116.523 164.515 116.592 164.433 116.716L164.44 116.723Z" fill="#3F80FF"/>
<path d="M169.353 119.166L168.706 119.193C168.582 119.193 168.479 119.138 168.485 119.063L168.658 116.317C168.658 116.241 168.768 116.172 168.898 116.166L169.545 116.131C169.669 116.131 169.772 116.186 169.765 116.269L169.593 119.008C169.587 119.083 169.476 119.159 169.353 119.166Z" fill="#001640"/>
<path d="M185.439 118.471L184.793 118.498C184.669 118.498 184.565 118.443 184.572 118.368L184.744 115.629C184.744 115.546 184.854 115.477 184.978 115.47L185.625 115.443C185.749 115.443 185.852 115.498 185.845 115.574L185.673 118.313C185.673 118.395 185.57 118.464 185.439 118.471Z" fill="#001640"/>
<path d="M172.229 105.803C172.27 106.003 174.004 108.762 175.359 108.569C175.373 108.569 175.38 108.569 175.394 108.569C175.786 108.514 176.185 108.672 176.426 108.989C176.969 109.698 177.3 110.104 177.664 110.571C178.263 111.328 179.302 111.569 180.169 111.163C180.43 111.046 180.685 110.909 180.939 110.778C181.779 110.331 182.205 109.367 181.978 108.445C181.731 107.434 181.338 106.457 180.822 105.549C180.643 105.239 180.444 104.929 180.134 104.75C179.825 104.572 176.839 103.67 175.683 103.705C174.478 103.746 173.329 105.322 172.229 105.81V105.803Z" fill="#E8BFBF"/>
<path d="M175.717 103.608C175.717 103.608 157.428 98.0694 153.479 101.757C151.16 103.925 152.254 105.975 153.555 107.289C154.518 108.273 156.623 108.033 157.993 107.964L172.401 106.553L175.717 103.608Z" fill="#E8BFBF"/>
<path d="M165.203 101.076C165.107 100.085 164.336 99.2665 163.449 98.8193C162.561 98.3789 161.55 98.2413 160.566 98.1175C158.268 97.8285 155.97 97.5326 153.672 97.2437C152.502 98.7161 151.662 100.746 151.704 102.631C151.738 104.51 152.447 106.374 153.672 107.805C154.772 105.679 156.224 103.491 158.371 102.432C160.518 101.379 162.857 100.65 165.21 101.076H165.203Z" fill="#001640"/>
<path opacity="0.1" d="M160.492 67.6786C160.469 67.6336 160.469 67.6112 160.492 67.6037C160.649 67.5587 160.626 67.5887 160.492 67.6786Z" fill="white"/>
<path d="M205.93 38.0566L211.028 47.5037L231.821 29.848C232.007 29.6898 231.794 29.4077 231.594 29.5453L212.102 42.412L209.095 36.5497L205.93 38.0566Z" fill="#3F80FF"/>
<path d="M238.737 38.1048C238.737 46.5267 229.895 53.3523 218.996 53.3523C214.813 53.3523 210.932 52.3546 207.739 50.6275L196.146 55.6641L203.46 47.5175C200.824 44.9373 199.249 41.669 199.249 38.1117C199.249 29.6898 208.09 22.8643 218.989 22.8643C229.888 22.8643 238.73 29.6898 238.73 38.1117L238.737 38.1048Z" stroke="#3F80FF" stroke-width="1.3" stroke-miterlimit="10"/>
</g>
<defs>
<clipPath id="clip0_325_8934">
<rect width="344.03" height="256" fill="white"/>
</clipPath>
</defs>
</svg>
