<svg width="344" height="256" viewBox="0 0 344 256" fill="none" xmlns="http://www.w3.org/2000/svg">
<g clip-path="url(#clip0_325_5930)">
<path d="M343.523 224.973H0V225.145H343.523V224.973Z" fill="#EBEBEB"/>
<path d="M309.102 236.028H286.347V236.199H309.102V236.028Z" fill="#EBEBEB"/>
<path d="M227.563 237.896H221.593V238.068H227.563V237.896Z" fill="#EBEBEB"/>
<path d="M285.66 229.652H272.475V229.824H285.66V229.652Z" fill="#EBEBEB"/>
<path d="M65.716 230.806H36.0425V230.978H65.716V230.806Z" fill="#EBEBEB"/>
<path d="M76.1864 230.806H71.8374V230.978H76.1864V230.806Z" fill="#EBEBEB"/>
<path d="M154.688 233.705H90.3259V233.877H154.688V233.705Z" fill="#EBEBEB"/>
<path d="M162.837 194.331H30.1681C28.004 194.331 26.2451 192.572 26.2451 190.408V3.92303C26.2451 1.75884 28.004 0 30.1681 0H162.837C165.001 0 166.76 1.75884 166.76 3.92303V190.408C166.76 192.572 165.001 194.331 162.837 194.331ZM30.1681 0.171761C28.1001 0.171761 26.4169 1.85502 26.4169 3.92303V190.408C26.4169 192.476 28.1001 194.159 30.1681 194.159H162.837C164.905 194.159 166.588 192.476 166.588 190.408V3.92303C166.588 1.85502 164.905 0.171761 162.837 0.171761H30.1681Z" fill="#EBEBEB"/>
<path d="M311.444 194.331H178.776C176.612 194.331 174.853 192.572 174.853 190.408V3.92303C174.853 1.75884 176.612 0 178.776 0H311.444C313.609 0 315.367 1.75884 315.367 3.92303V190.408C315.367 192.572 313.609 194.331 311.444 194.331ZM178.776 0.171761C176.708 0.171761 175.025 1.85502 175.025 3.92303V190.408C175.025 192.476 176.708 194.159 178.776 194.159H311.444C313.512 194.159 315.196 192.476 315.196 190.408V3.92303C315.196 1.85502 313.512 0.171761 311.444 0.171761H178.776Z" fill="#EBEBEB"/>
<path d="M152.998 88.4778H45.448V224.664H152.998V88.4778Z" fill="#F0F0F0"/>
<path d="M149.192 93.4382H49.2473V122.562H149.192V93.4382Z" fill="#E0E0E0"/>
<path d="M54.9223 98.1582H49.2473V122.562H54.9223V98.1582Z" fill="#EBEBEB"/>
<path d="M82.3767 98.1582H76.7017V122.562H82.3767V98.1582Z" fill="#EBEBEB"/>
<path d="M113.538 97.5446L107.946 98.5085L112.091 122.558L117.684 121.594L113.538 97.5446Z" fill="#EBEBEB"/>
<path d="M61.9577 101.374H56.2827V122.562H61.9577V101.374Z" fill="#EBEBEB"/>
<path d="M75.0046 101.374H69.3296V122.562H75.0046V101.374Z" fill="#EBEBEB"/>
<path d="M107.942 101.374H102.267V122.562H107.942V101.374Z" fill="#EBEBEB"/>
<path d="M89.8311 100.642L84.2913 101.874L88.8881 122.557L94.4279 121.326L89.8311 100.642Z" fill="#EBEBEB"/>
<path d="M66.87 96.9421H64.0325V122.562H66.87V96.9421Z" fill="#EBEBEB"/>
<path d="M100.638 96.9421H97.8008V122.562H100.638V96.9421Z" fill="#EBEBEB"/>
<path d="M49.2472 156.296H149.192V127.172L49.2472 127.172V156.296Z" fill="#E0E0E0"/>
<path d="M143.517 156.296H149.192V131.892H143.517V156.296Z" fill="#EBEBEB"/>
<path d="M116.063 156.296H121.738V131.892H116.063V156.296Z" fill="#EBEBEB"/>
<path d="M80.751 155.329L86.3435 156.293L90.4889 132.244L84.8964 131.28L80.751 155.329Z" fill="#EBEBEB"/>
<path d="M136.475 156.296H142.15V135.108H136.475V156.296Z" fill="#EBEBEB"/>
<path d="M123.434 156.296H129.109V135.108H123.434V156.296Z" fill="#EBEBEB"/>
<path d="M90.4905 156.296H96.1655V135.108H90.4905V156.296Z" fill="#EBEBEB"/>
<path d="M104.017 155.061L109.557 156.292L114.154 135.608L108.614 134.377L104.017 155.061Z" fill="#EBEBEB"/>
<path d="M131.569 156.296H134.406V130.676H131.569V156.296Z" fill="#EBEBEB"/>
<path d="M97.8009 156.296H100.638V130.676H97.8009V156.296Z" fill="#EBEBEB"/>
<path d="M54.9223 131.885H49.2473V156.289H54.9223V131.885Z" fill="#EBEBEB"/>
<path d="M61.9577 135.101H56.2827V156.289H61.9577V135.101Z" fill="#EBEBEB"/>
<path d="M75.0046 135.101H69.3296V156.289H75.0046V135.101Z" fill="#EBEBEB"/>
<path d="M66.87 130.676H64.0325V156.296H66.87V130.676Z" fill="#EBEBEB"/>
<path d="M149.192 160.906H49.2473V190.03H149.192V160.906Z" fill="#E0E0E0"/>
<path d="M112.284 165.619H106.609V190.023H112.284V165.619Z" fill="#EBEBEB"/>
<path d="M143.458 165.01L137.865 165.974L142.011 190.024L147.603 189.06L143.458 165.01Z" fill="#EBEBEB"/>
<path d="M91.8647 168.835H86.1897V190.023H91.8647V168.835Z" fill="#EBEBEB"/>
<path d="M104.919 168.835H99.2437V190.023H104.919V168.835Z" fill="#EBEBEB"/>
<path d="M137.856 168.835H132.181V190.023H137.856V168.835Z" fill="#EBEBEB"/>
<path d="M119.749 168.1L114.209 169.331L118.806 190.015L124.346 188.784L119.749 168.1Z" fill="#EBEBEB"/>
<path d="M96.7772 164.41H93.9397V190.03H96.7772V164.41Z" fill="#EBEBEB"/>
<path d="M130.545 164.41H127.708V190.03H130.545V164.41Z" fill="#EBEBEB"/>
<path d="M78.1345 165.01L72.542 165.974L76.6874 190.023L82.2799 189.059L78.1345 165.01Z" fill="#EBEBEB"/>
<path d="M72.5383 168.835H66.8633V190.023H72.5383V168.835Z" fill="#EBEBEB"/>
<path d="M54.4275 168.104L48.8877 169.335L53.4845 190.019L59.0244 188.788L54.4275 168.104Z" fill="#EBEBEB"/>
<path d="M65.2281 164.41H62.3906V190.03H65.2281V164.41Z" fill="#EBEBEB"/>
<path d="M209.741 143.373H270.345C276.92 143.373 282.252 148.704 282.252 155.279V202.603H197.842V155.279C197.842 148.704 203.173 143.373 209.748 143.373H209.741Z" fill="#E6E6E6"/>
<path d="M179.923 178.453H190.772C194.681 178.453 197.848 181.621 197.848 185.53V224.671H172.854V185.53C172.854 181.621 176.021 178.453 179.93 178.453H179.923Z" fill="#E0E0E0"/>
<path d="M179.923 178.453H180.15C184.059 178.453 187.227 181.621 187.227 185.53V224.671H172.854V185.53C172.854 181.621 176.021 178.453 179.93 178.453H179.923Z" fill="#EBEBEB"/>
<path d="M273.423 206.684H190.25V224.664H273.423V206.684Z" fill="#E6E6E6"/>
<path d="M270.346 190.243H190.133C186.16 190.243 182.94 193.464 182.94 197.436V201.909C182.94 205.882 186.16 209.102 190.133 209.102H270.346C274.318 209.102 277.539 205.882 277.539 201.909V197.436C277.539 193.464 274.318 190.243 270.346 190.243Z" fill="#F5F5F5"/>
<path d="M270.208 190.243H260.267C256.294 190.243 253.073 193.464 253.073 197.436V201.909C253.073 205.882 256.294 209.102 260.267 209.102H270.208C274.181 209.102 277.402 205.882 277.402 201.909V197.436C277.402 193.464 274.181 190.243 270.208 190.243Z" fill="#E0E0E0"/>
<path d="M271.287 178.453H282.135C286.044 178.453 289.212 181.621 289.212 185.53V224.671H264.217V185.53C264.217 181.621 267.384 178.453 271.294 178.453H271.287Z" fill="#E0E0E0"/>
<path d="M271.287 178.453H271.513C275.423 178.453 278.59 181.621 278.59 185.53V224.671H264.217V185.53C264.217 181.621 267.384 178.453 271.294 178.453H271.287Z" fill="#F0F0F0"/>
<path d="M103.236 71.9294C112.057 70.4977 118.046 62.1866 116.615 53.3661C115.183 44.5456 106.872 38.5559 98.0514 39.9876C89.231 41.4194 83.2412 49.7305 84.673 58.551C86.1048 67.3714 94.4158 73.3612 103.236 71.9294Z" fill="#E0E0E0"/>
<path d="M102.849 69.5422C110.351 68.3245 115.445 61.2556 114.228 53.7535C113.01 46.2515 105.941 41.157 98.439 42.3748C90.9369 43.5925 85.8424 50.6614 87.0602 58.1634C88.2779 65.6655 95.3468 70.76 102.849 69.5422Z" fill="#F0F0F0"/>
<path d="M99.9859 65.3931V55.7744L93.6169 59.3814" fill="#F0F0F0"/>
<path d="M99.9859 65.3931V55.7744L93.6169 59.3814" stroke="#E0E0E0" stroke-width="2" stroke-linecap="round" stroke-linejoin="round"/>
<path d="M294.474 35.5409H190.902V127.447H294.474V35.5409Z" fill="#E6E6E6"/>
<path d="M291.747 38.0624H193.492V124.981H291.747V38.0624Z" fill="#F0F0F0"/>
<path d="M216.55 38.0624L193.492 124.788V84.0326L205.667 38.0624H216.55Z" fill="white"/>
<path d="M224.719 38.0624L201.455 124.981H197.745L221.009 38.0624H224.719Z" fill="white"/>
<path d="M291.747 92.9092V106.794L287.041 124.98H283.331L291.747 92.9092Z" fill="white"/>
<path d="M227.762 36.4958H226.106V126.918H227.762V36.4958Z" fill="#E6E6E6"/>
<path d="M259.84 36.4958H258.185V126.918H259.84V36.4958Z" fill="#E6E6E6"/>
<path d="M171.761 256C245.332 256 304.973 252.518 304.973 248.223C304.973 243.927 245.332 240.445 171.761 240.445C98.1908 240.445 38.55 243.927 38.55 248.223C38.55 252.518 98.1908 256 171.761 256Z" fill="#F5F5F5"/>
<path d="M276.123 231.04C276.123 231.04 279.387 223.922 275.656 216.9C271.926 209.879 270.847 208.23 273.224 206.787C275.601 205.344 276.694 212.4 276.694 212.4C276.694 212.4 278.7 207.55 277.044 202.472C275.388 197.395 274.351 189.123 276.611 188.237C278.872 187.35 277.044 198.556 279.002 202.376C279.002 202.376 280.651 198.123 280.919 194.042C281.187 189.961 280.768 183.448 282.554 181.778C284.341 180.109 285.481 181.263 283.729 190.263C281.977 199.264 281.991 206.581 281.991 206.581C281.991 206.581 285.866 194.77 288.463 194.427C291.06 194.083 291.06 197.903 288.834 201.222C286.608 204.54 282.321 210.483 281.613 213.541C281.613 213.541 285.866 204.657 289.686 207.378C293.513 210.098 286.36 215.471 283.173 217.409C279.985 219.346 277.772 231.507 277.772 231.507L276.13 231.04H276.123Z" fill="#3F80FF"/>
<path opacity="0.2" d="M276.123 231.04C276.123 231.04 279.387 223.922 275.656 216.9C271.926 209.879 270.847 208.23 273.224 206.787C275.601 205.344 276.694 212.4 276.694 212.4C276.694 212.4 278.7 207.55 277.044 202.472C275.388 197.395 274.351 189.123 276.611 188.237C278.872 187.35 277.044 198.556 279.002 202.376C279.002 202.376 280.651 198.123 280.919 194.042C281.187 189.961 280.768 183.448 282.554 181.778C284.341 180.109 285.481 181.263 283.729 190.263C281.977 199.264 281.991 206.581 281.991 206.581C281.991 206.581 285.866 194.77 288.463 194.427C291.06 194.083 291.06 197.903 288.834 201.222C286.608 204.54 282.321 210.483 281.613 213.541C281.613 213.541 285.866 204.657 289.686 207.378C293.513 210.098 286.36 215.471 283.173 217.409C279.985 219.346 277.772 231.507 277.772 231.507L276.13 231.04H276.123Z" fill="black"/>
<path d="M278.7 233.96C278.7 233.96 275.519 226.794 279.332 219.827C283.145 212.86 284.244 211.225 281.888 209.755C279.531 208.285 278.356 215.32 278.356 215.32C278.356 215.32 276.412 210.435 278.13 205.385C279.847 200.329 280.981 192.077 278.734 191.157C276.487 190.236 278.178 201.469 276.171 205.255C276.171 205.255 274.578 200.981 274.351 196.893C274.124 192.806 274.632 186.306 272.867 184.609C271.101 182.912 269.947 184.053 271.589 193.08C273.231 202.108 273.135 209.425 273.135 209.425C273.135 209.425 269.404 197.56 266.807 197.175C264.21 196.79 264.169 200.617 266.354 203.963C268.538 207.316 272.757 213.321 273.423 216.385C273.423 216.385 269.28 207.44 265.426 210.105C261.572 212.771 268.655 218.247 271.822 220.232C274.99 222.218 277.051 234.406 277.051 234.406L278.7 233.96Z" fill="#3F80FF"/>
<path d="M264.038 228.848H290.29L288.167 247.632H266.168L264.038 228.848Z" fill="#001640"/>
<path d="M166.677 244.616V247.082C166.677 247.391 166.43 247.632 166.12 247.632H96.4403C93.8639 247.632 92.1051 245.028 93.067 242.644L115.149 187.955L150.834 188.196L149.618 195.293L141.744 241.222C141.49 242.706 142.63 244.059 144.135 244.059H166.12C166.43 244.059 166.677 244.3 166.677 244.609V244.616Z" fill="#001640"/>
<path opacity="0.5" d="M166.677 244.616V247.082C166.677 247.391 166.43 247.632 166.121 247.632H96.4403C93.8639 247.632 92.1051 245.028 93.067 242.644L106.76 208.745L115.149 187.955L150.834 188.196L149.618 195.293L146.196 215.265L141.751 241.215C141.497 242.699 142.637 244.052 144.142 244.052H166.127C166.437 244.052 166.684 244.293 166.684 244.602L166.677 244.616Z" fill="white"/>
<path opacity="0.2" d="M144.135 244.066H98.7969C97.6633 244.066 96.8938 242.912 97.3266 241.868L116.688 195.307H149.618L141.744 241.236C141.49 242.72 142.63 244.073 144.135 244.073V244.066Z" fill="black"/>
<path opacity="0.1" d="M150.834 188.202L149.618 195.3L146.189 215.272L106.76 208.745L115.149 187.962L150.834 188.202Z" fill="black"/>
<path d="M220.219 86.2595H55.0185C52.6826 86.2595 50.7932 88.1489 50.7932 90.4848V202.322C50.7932 204.658 52.6826 206.547 55.0185 206.547H220.219C222.554 206.547 224.444 204.658 224.444 202.322V90.4848C224.444 88.1489 222.548 86.2595 220.219 86.2595Z" fill="#001640"/>
<path opacity="0.6" d="M220.219 86.2595H55.0185C52.6826 86.2595 50.7932 88.1489 50.7932 90.4848V202.322C50.7932 204.658 52.6826 206.547 55.0185 206.547H220.219C222.554 206.547 224.444 204.658 224.444 202.322V90.4848C224.444 88.1489 222.548 86.2595 220.219 86.2595Z" fill="white"/>
<path opacity="0.2" d="M58.5225 206.546H55.0185C52.6895 206.546 50.7932 204.657 50.7932 202.321V90.4839C50.7932 88.148 52.6826 86.2517 55.0185 86.2517H58.5225C56.1934 86.2517 54.2971 88.1411 54.2971 90.4839V202.321C54.2971 204.65 56.1865 206.546 58.5225 206.546Z" fill="black"/>
<path d="M220.644 89.8862H58.1101V197.732H220.644V89.8862Z" fill="#3F80FF"/>
<path opacity="0.4" d="M137.134 130.944C144.928 130.944 151.246 124.626 151.246 116.832C151.246 109.038 144.928 102.72 137.134 102.72C129.34 102.72 123.022 109.038 123.022 116.832C123.022 124.626 129.34 130.944 137.134 130.944Z" fill="white"/>
<path d="M133.768 114.689V113.369C133.768 112.085 134.812 111.047 136.09 111.047H138.172C139.456 111.047 140.494 112.092 140.494 113.369V114.689H141.998V113.369C141.998 111.26 140.281 109.543 138.172 109.543H136.09C133.981 109.543 132.263 111.26 132.263 113.369V114.689H133.768Z" fill="white"/>
<path d="M130.367 116.427V123.359C130.367 123.785 130.71 124.129 131.136 124.129H143.132C143.558 124.129 143.901 123.785 143.901 123.359V116.427C143.901 116.001 143.558 115.657 143.132 115.657H131.136C130.71 115.657 130.367 116.001 130.367 116.427ZM137.567 120.357V121.717H136.701V120.357C136.454 120.206 136.282 119.945 136.282 119.635C136.282 119.161 136.667 118.777 137.141 118.777C137.615 118.777 138 119.161 138 119.635C138 119.945 137.828 120.206 137.581 120.357H137.567Z" fill="white"/>
<path d="M102.706 142.631H89.3776C88.5845 142.631 87.9417 143.274 87.9417 144.067V157.395C87.9417 158.188 88.5845 158.831 89.3776 158.831H102.706C103.499 158.831 104.142 158.188 104.142 157.395V144.067C104.142 143.274 103.499 142.631 102.706 142.631Z" fill="white"/>
<path d="M123.256 142.61H109.927C109.134 142.61 108.491 143.253 108.491 144.046V157.375C108.491 158.168 109.134 158.811 109.927 158.811H123.256C124.049 158.811 124.692 158.168 124.692 157.375V144.046C124.692 143.253 124.049 142.61 123.256 142.61Z" fill="white"/>
<path d="M143.799 142.583H130.47C129.677 142.583 129.034 143.226 129.034 144.019V157.347C129.034 158.14 129.677 158.783 130.47 158.783H143.799C144.592 158.783 145.234 158.14 145.234 157.347V144.019C145.234 143.226 144.592 142.583 143.799 142.583Z" fill="white"/>
<path d="M164.341 142.562H151.012C150.219 142.562 149.576 143.205 149.576 143.998V157.327C149.576 158.12 150.219 158.763 151.012 158.763H164.341C165.134 158.763 165.777 158.12 165.777 157.327V143.998C165.777 143.205 165.134 142.562 164.341 142.562Z" fill="white"/>
<path d="M184.884 142.541H171.555C170.762 142.541 170.119 143.184 170.119 143.977V157.306C170.119 158.099 170.762 158.742 171.555 158.742H184.884C185.677 158.742 186.32 158.099 186.32 157.306V143.977C186.32 143.184 185.677 142.541 184.884 142.541Z" fill="white"/>
<path d="M174.654 150.958C174.654 148.106 176.179 146.485 178.226 146.485C180.274 146.485 181.785 148.113 181.785 150.958C181.785 153.802 180.26 155.43 178.226 155.43C176.193 155.43 174.654 153.809 174.654 150.958ZM180.542 150.958C180.542 148.718 179.593 147.598 178.226 147.598C176.859 147.598 175.904 148.725 175.904 150.958C175.904 153.191 176.852 154.317 178.226 154.317C179.6 154.317 180.542 153.191 180.542 150.958Z" fill="#001640"/>
<path d="M99.2986 150.841C99.2986 153.83 97.6084 155.424 95.1626 155.424C94.3381 155.424 93.548 155.259 92.9915 154.908L93.4656 153.933C93.9259 154.235 94.5167 154.345 95.1557 154.345C96.9283 154.345 98.055 153.232 98.055 151.047V150.738C97.5397 151.5 96.6191 151.885 95.5336 151.885C93.7953 151.885 92.5449 150.848 92.5449 149.233C92.5449 147.619 93.8915 146.471 95.6298 146.471C97.9795 146.471 99.3054 148.045 99.3054 150.834L99.2986 150.841ZM97.7596 149.178C97.7596 148.278 97.0382 147.488 95.671 147.488C94.5305 147.488 93.7473 148.148 93.7473 149.185C93.7473 150.223 94.5099 150.875 95.7328 150.875C96.9558 150.875 97.7596 150.14 97.7596 149.178Z" fill="#001640"/>
<path d="M113.019 150.958C113.019 148.106 114.544 146.485 116.591 146.485C118.639 146.485 120.15 148.113 120.15 150.958C120.15 153.802 118.625 155.43 116.591 155.43C114.558 155.43 113.019 153.809 113.019 150.958ZM118.907 150.958C118.907 148.718 117.959 147.598 116.591 147.598C115.224 147.598 114.269 148.725 114.269 150.958C114.269 153.191 115.217 154.317 116.591 154.317C117.966 154.317 118.907 153.191 118.907 150.958Z" fill="#001640"/>
<path d="M140.295 154.242V155.327H134.008V154.475L137.567 151.04C138.494 150.14 138.666 149.59 138.666 149.041C138.666 148.141 138.027 147.591 136.804 147.591C135.87 147.591 135.107 147.893 134.565 148.539L133.713 147.804C134.386 146.966 135.547 146.478 136.914 146.478C138.742 146.478 139.917 147.413 139.917 148.917C139.917 149.769 139.669 150.532 138.481 151.665L135.808 154.242H140.295Z" fill="#001640"/>
<path d="M158.68 146.581V155.327H157.443V147.667H155.471V146.581H158.68Z" fill="#001640"/>
<g opacity="0.6">
<path d="M121.765 138.675V138.984H119.381V135.618H121.689V135.927H119.738V137.122H121.483V137.425H119.738V138.675H121.765Z" fill="white"/>
<path d="M124.857 137.512V138.982H124.513V137.547C124.513 137.011 124.231 136.736 123.751 136.736C123.208 136.736 122.864 137.072 122.864 137.65V138.976H122.521V136.447H122.851V136.914C123.036 136.605 123.373 136.427 123.812 136.427C124.431 136.427 124.85 136.784 124.85 137.512H124.857Z" fill="white"/>
<path d="M127.117 138.824C126.98 138.941 126.78 139.003 126.581 139.003C126.107 139.003 125.839 138.735 125.839 138.268V136.736H125.386V136.447H125.839V135.891H126.183V136.447H126.952V136.736H126.183V138.247C126.183 138.543 126.334 138.708 126.622 138.708C126.76 138.708 126.904 138.666 127 138.577L127.117 138.824Z" fill="white"/>
<path d="M129.845 137.821H127.729C127.77 138.35 128.168 138.701 128.725 138.701C129.034 138.701 129.309 138.591 129.501 138.371L129.693 138.591C129.467 138.859 129.116 139.003 128.718 139.003C127.928 139.003 127.392 138.467 127.392 137.711C127.392 136.956 127.914 136.427 128.629 136.427C129.343 136.427 129.858 136.949 129.858 137.711C129.858 137.739 129.858 137.78 129.858 137.814L129.845 137.821ZM127.729 137.567H129.522C129.48 137.072 129.116 136.722 128.622 136.722C128.127 136.722 127.77 137.066 127.729 137.567Z" fill="white"/>
<path d="M131.823 136.427V136.756C131.823 136.756 131.768 136.756 131.741 136.756C131.212 136.756 130.889 137.093 130.889 137.691V138.982H130.545V136.454H130.875V136.949C131.033 136.612 131.356 136.434 131.823 136.434V136.427Z" fill="white"/>
<path d="M135.863 136.447L134.599 139.278C134.386 139.773 134.118 139.931 133.754 139.931C133.52 139.931 133.294 139.855 133.135 139.697L133.294 139.443C133.417 139.566 133.575 139.635 133.754 139.635C133.981 139.635 134.132 139.532 134.276 139.209L134.386 138.962L133.252 136.433H133.61L134.565 138.584L135.52 136.433H135.856L135.863 136.447Z" fill="white"/>
<path d="M136.014 137.711C136.014 136.963 136.564 136.427 137.306 136.427C138.048 136.427 138.591 136.963 138.591 137.711C138.591 138.46 138.048 139.003 137.306 139.003C136.564 139.003 136.014 138.467 136.014 137.711ZM138.24 137.711C138.24 137.121 137.842 136.722 137.299 136.722C136.756 136.722 136.358 137.114 136.358 137.711C136.358 138.309 136.763 138.701 137.299 138.701C137.835 138.701 138.24 138.309 138.24 137.711Z" fill="white"/>
<path d="M141.566 136.447V138.976H141.236V138.515C141.057 138.824 140.727 139.003 140.329 139.003C139.683 139.003 139.257 138.639 139.257 137.918V136.447H139.601V137.883C139.601 138.419 139.882 138.694 140.363 138.694C140.892 138.694 141.222 138.35 141.222 137.773V136.447H141.566Z" fill="white"/>
<path d="M143.798 136.427V136.756C143.798 136.756 143.743 136.756 143.716 136.756C143.187 136.756 142.864 137.093 142.864 137.691V138.982H142.521V136.454H142.85V136.949C143.008 136.612 143.331 136.434 143.798 136.434V136.427Z" fill="white"/>
<path d="M145.482 137.292C145.482 136.31 146.231 135.582 147.254 135.582C148.278 135.582 149.02 136.31 149.02 137.292C149.02 138.275 148.264 139.003 147.254 139.003C146.244 139.003 145.482 138.275 145.482 137.292ZM148.663 137.292C148.663 136.488 148.058 135.898 147.254 135.898C146.45 135.898 145.832 136.488 145.832 137.292C145.832 138.096 146.437 138.687 147.254 138.687C148.072 138.687 148.663 138.096 148.663 137.292Z" fill="white"/>
<path d="M150.421 135.918H149.24V135.609H151.96V135.918H150.779V138.976H150.421V135.918Z" fill="white"/>
<path d="M155.169 136.763C155.169 137.478 154.647 137.911 153.795 137.911H152.888V138.976H152.531V135.609H153.788C154.647 135.609 155.162 136.042 155.162 136.763H155.169ZM154.812 136.763C154.812 136.227 154.454 135.918 153.781 135.918H152.888V137.601H153.781C154.454 137.601 154.812 137.292 154.812 136.763Z" fill="white"/>
</g>
<g opacity="0.6">
<path d="M123.771 167.598L123.908 167.323C124.149 167.557 124.575 167.728 125.021 167.728C125.654 167.728 125.928 167.467 125.928 167.131C125.928 166.21 123.853 166.773 123.853 165.53C123.853 165.035 124.238 164.609 125.097 164.609C125.475 164.609 125.873 164.719 126.141 164.905L126.025 165.186C125.736 165.001 125.399 164.905 125.104 164.905C124.486 164.905 124.211 165.18 124.211 165.516C124.211 166.437 126.286 165.88 126.286 167.11C126.286 167.605 125.894 168.031 125.028 168.031C124.52 168.031 124.025 167.852 123.778 167.591L123.771 167.598Z" fill="white"/>
<path d="M129.178 166.849H127.062C127.103 167.378 127.502 167.728 128.058 167.728C128.367 167.728 128.642 167.619 128.835 167.399L129.027 167.619C128.8 167.886 128.45 168.031 128.051 168.031C127.261 168.031 126.725 167.495 126.725 166.739C126.725 165.983 127.247 165.454 127.962 165.454C128.677 165.454 129.192 165.976 129.192 166.739C129.192 166.767 129.192 166.808 129.192 166.842L129.178 166.849ZM127.062 166.595H128.855C128.814 166.1 128.45 165.75 127.955 165.75C127.46 165.75 127.103 166.093 127.062 166.595Z" fill="white"/>
<path d="M132.208 166.54V168.01H131.864V166.574C131.864 166.038 131.583 165.764 131.102 165.764C130.559 165.764 130.216 166.1 130.216 166.677V168.003H129.872V165.475H130.202V165.942C130.387 165.633 130.724 165.454 131.164 165.454C131.782 165.454 132.201 165.812 132.201 166.54H132.208Z" fill="white"/>
<path d="M135.458 164.438V168.01H135.128V167.509C134.922 167.852 134.571 168.031 134.152 168.031C133.431 168.031 132.888 167.509 132.888 166.739C132.888 165.97 133.424 165.454 134.152 165.454C134.558 165.454 134.901 165.626 135.114 165.956V164.438H135.458ZM135.121 166.746C135.121 166.155 134.716 165.757 134.18 165.757C133.644 165.757 133.239 166.148 133.239 166.746C133.239 167.344 133.644 167.735 134.18 167.735C134.716 167.735 135.121 167.344 135.121 166.746Z" fill="white"/>
<path d="M139.58 166.437V168.003H139.25V167.612C139.099 167.873 138.797 168.031 138.378 168.031C137.807 168.031 137.457 167.735 137.457 167.296C137.457 166.904 137.704 166.581 138.433 166.581H139.236V166.43C139.236 165.997 138.989 165.763 138.522 165.763C138.192 165.763 137.89 165.88 137.677 166.059L137.526 165.805C137.78 165.585 138.158 165.461 138.556 165.461C139.209 165.461 139.58 165.791 139.58 166.444V166.437ZM139.236 167.247V166.835H138.44C137.952 166.835 137.787 167.028 137.787 167.289C137.787 167.584 138.02 167.763 138.426 167.763C138.831 167.763 139.092 167.577 139.23 167.247H139.236Z" fill="white"/>
<path d="M142.857 165.475V167.701C142.857 168.573 142.431 168.965 141.593 168.965C141.133 168.965 140.679 168.828 140.411 168.573L140.583 168.312C140.823 168.532 141.188 168.656 141.579 168.656C142.218 168.656 142.514 168.36 142.514 167.735V167.412C142.301 167.735 141.943 167.9 141.524 167.9C140.803 167.9 140.253 167.392 140.253 166.67C140.253 165.949 140.803 165.447 141.524 165.447C141.95 165.447 142.314 165.619 142.527 165.956V165.468H142.857V165.475ZM142.527 166.677C142.527 166.128 142.122 165.757 141.565 165.757C141.009 165.757 140.61 166.134 140.61 166.677C140.61 167.22 141.009 167.605 141.565 167.605C142.122 167.605 142.527 167.227 142.527 166.677Z" fill="white"/>
<path d="M145.722 166.437V168.003H145.392V167.612C145.241 167.873 144.939 168.031 144.52 168.031C143.95 168.031 143.599 167.735 143.599 167.296C143.599 166.904 143.846 166.581 144.575 166.581H145.379V166.43C145.379 165.997 145.131 165.763 144.664 165.763C144.334 165.763 144.032 165.88 143.819 166.059L143.668 165.805C143.922 165.585 144.3 165.461 144.698 165.461C145.351 165.461 145.722 165.791 145.722 166.444V166.437ZM145.379 167.247V166.835H144.582C144.094 166.835 143.929 167.028 143.929 167.289C143.929 167.584 144.163 167.763 144.568 167.763C144.973 167.763 145.234 167.577 145.372 167.247H145.379Z" fill="white"/>
<path d="M146.574 164.678C146.574 164.547 146.684 164.438 146.821 164.438C146.959 164.438 147.069 164.541 147.069 164.671C147.069 164.809 146.966 164.918 146.821 164.918C146.677 164.918 146.574 164.809 146.574 164.671V164.678ZM146.65 165.475H146.993V168.003H146.65V165.475Z" fill="white"/>
<path d="M150.27 166.54V168.01H149.927V166.574C149.927 166.038 149.645 165.764 149.164 165.764C148.621 165.764 148.278 166.1 148.278 166.677V168.003H147.934V165.475H148.264V165.942C148.45 165.633 148.786 165.454 149.226 165.454C149.844 165.454 150.263 165.812 150.263 166.54H150.27Z" fill="white"/>
</g>
<path opacity="0.4" d="M156.275 185.186H117.986C114.833 185.186 112.277 182.63 112.277 179.477C112.277 176.323 114.833 173.768 117.986 173.768H156.275C159.429 173.768 161.985 176.323 161.985 179.477C161.985 182.63 159.429 185.186 156.275 185.186Z" fill="white"/>
<path d="M122.198 179.181C122.198 178.048 123.063 177.217 124.238 177.217C124.829 177.217 125.351 177.423 125.702 177.814L125.344 178.158C125.049 177.849 124.685 177.704 124.266 177.704C123.4 177.704 122.754 178.33 122.754 179.181C122.754 180.033 123.4 180.659 124.266 180.659C124.692 180.659 125.049 180.507 125.344 180.198L125.702 180.542C125.351 180.94 124.836 181.146 124.238 181.146C123.07 181.146 122.205 180.315 122.205 179.181H122.198Z" fill="white"/>
<path d="M126.093 179.181C126.093 178.055 126.959 177.217 128.141 177.217C129.322 177.217 130.181 178.055 130.181 179.181C130.181 180.308 129.316 181.146 128.141 181.146C126.966 181.146 126.093 180.308 126.093 179.181ZM129.632 179.181C129.632 178.33 128.993 177.704 128.141 177.704C127.289 177.704 126.643 178.33 126.643 179.181C126.643 180.033 127.282 180.659 128.141 180.659C128.999 180.659 129.632 180.033 129.632 179.181Z" fill="white"/>
<path d="M134.331 177.265V181.112H133.878L131.569 178.247V181.112H131.02V177.265H131.473L133.781 180.13V177.265H134.331Z" fill="white"/>
<path d="M136.248 177.739H134.929V177.258H138.11V177.739H136.791V181.105H136.248V177.739Z" fill="white"/>
<path d="M138.708 177.265H139.257V181.112H138.708V177.265Z" fill="white"/>
<path d="M143.723 177.265V181.112H143.269L140.961 178.247V181.112H140.411V177.265H140.865L143.173 180.13V177.265H143.723Z" fill="white"/>
<path d="M144.843 179.449V177.265H145.392V179.429C145.392 180.281 145.784 180.666 146.471 180.666C147.158 180.666 147.557 180.281 147.557 179.429V177.265H148.093V179.449C148.093 180.562 147.481 181.153 146.464 181.153C145.447 181.153 144.836 180.562 144.836 179.449H144.843Z" fill="white"/>
<path d="M152.015 180.631V181.112H149.226V177.265H151.94V177.746H149.776V178.927H151.706V179.394H149.776V180.638H152.015V180.631Z" fill="white"/>
<path opacity="0.1" d="M203.702 90.3947C181.229 112.909 123.51 163.015 58.1101 159.312V90.3947H203.702Z" fill="white"/>
<path opacity="0.1" d="M220.638 131.775V198.24H122.782C126.533 184.815 134.036 166.43 148.587 153.294C174.764 129.659 205.145 129.728 220.638 131.775Z" fill="white"/>
<path d="M241.311 79.7935L243.592 89.8655L245.873 79.7935H241.311Z" fill="#3F80FF"/>
<path opacity="0.7" d="M241.311 79.7935L243.592 89.8655L245.873 79.7935H241.311Z" fill="white"/>
<path d="M269.123 51.2742H218.068C214.809 51.2742 212.167 53.9165 212.167 57.1759V76.1246C212.167 79.384 214.809 82.0263 218.068 82.0263H269.123C272.382 82.0263 275.024 79.384 275.024 76.1246V57.1759C275.024 53.9165 272.382 51.2742 269.123 51.2742Z" fill="#3F80FF"/>
<path opacity="0.7" d="M269.123 51.2742H218.068C214.809 51.2742 212.167 53.9165 212.167 57.1759V76.1246C212.167 79.384 214.809 82.0263 218.068 82.0263H269.123C272.382 82.0263 275.024 79.384 275.024 76.1246V57.1759C275.024 53.9165 272.382 51.2742 269.123 51.2742Z" fill="white"/>
<g opacity="0.5">
<path d="M224.719 62.5555V63.8883H224.176V62.5486L222.651 60.0409H223.242L224.472 62.0677L225.708 60.0409H226.251L224.726 62.5555H224.719Z" fill="#001640"/>
<path d="M226.127 62.4319C226.127 61.5662 226.773 60.9479 227.646 60.9479C228.518 60.9479 229.157 61.5662 229.157 62.4319C229.157 63.2976 228.518 63.9228 227.646 63.9228C226.773 63.9228 226.127 63.3044 226.127 62.4319ZM228.621 62.4319C228.621 61.8136 228.202 61.4082 227.646 61.4082C227.089 61.4082 226.663 61.8067 226.663 62.4319C226.663 63.0571 227.089 63.4625 227.646 63.4625C228.202 63.4625 228.621 63.0571 228.621 62.4319Z" fill="#001640"/>
<path d="M232.599 60.9753V63.8884H232.098V63.4487C231.885 63.751 231.521 63.9228 231.108 63.9228C230.353 63.9228 229.858 63.5105 229.858 62.6517V60.9753H230.387V62.5899C230.387 63.1601 230.675 63.4487 231.17 63.4487C231.72 63.4487 232.07 63.1052 232.07 62.48V60.9753H232.599Z" fill="#001640"/>
<path d="M235.176 60.9479V61.4563C235.134 61.4563 235.093 61.4563 235.052 61.4563C234.489 61.4563 234.131 61.7998 234.131 62.4388V63.8884H233.602V60.9754H234.111V61.4632C234.296 61.1196 234.66 60.9479 235.169 60.9479H235.176Z" fill="#001640"/>
<path d="M237.106 61.9647C237.106 60.838 237.972 59.9998 239.154 59.9998C240.335 59.9998 241.194 60.8311 241.194 61.9647C241.194 63.0983 240.328 63.9297 239.154 63.9297C237.979 63.9297 237.106 63.0915 237.106 61.9647ZM240.645 61.9647C240.645 61.1128 240.006 60.4876 239.154 60.4876C238.302 60.4876 237.656 61.1128 237.656 61.9647C237.656 62.8166 238.295 63.4418 239.154 63.4418C240.012 63.4418 240.645 62.8166 240.645 61.9647Z" fill="#001640"/>
<path d="M242.747 60.5218H241.428V60.0409H244.609V60.5218H243.29V63.8883H242.747V60.5218Z" fill="#001640"/>
<path d="M248.312 61.3807C248.312 62.2189 247.707 62.7204 246.711 62.7204H245.763V63.8815H245.213V60.0341H246.711C247.714 60.0341 248.312 60.5425 248.312 61.3738V61.3807ZM247.762 61.3807C247.762 60.831 247.391 60.515 246.691 60.515H245.756V62.2395H246.691C247.391 62.2395 247.762 61.9234 247.762 61.3738V61.3807Z" fill="#001640"/>
<path d="M250.339 61.9647C250.339 60.8242 251.205 59.9998 252.379 59.9998C252.97 59.9998 253.492 60.2059 253.843 60.5975L253.486 60.941C253.19 60.625 252.826 60.4876 252.407 60.4876C251.541 60.4876 250.895 61.1128 250.895 61.9647C250.895 62.8166 251.541 63.4418 252.407 63.4418C252.833 63.4418 253.19 63.2907 253.486 62.9815L253.843 63.3251C253.492 63.7235 252.977 63.9297 252.379 63.9297C251.211 63.9297 250.346 63.0983 250.346 61.9647H250.339Z" fill="#001640"/>
<path d="M254.159 62.4319C254.159 61.5662 254.805 60.9479 255.677 60.9479C256.55 60.9479 257.189 61.5662 257.189 62.4319C257.189 63.2976 256.55 63.9228 255.677 63.9228C254.805 63.9228 254.159 63.3044 254.159 62.4319ZM256.653 62.4319C256.653 61.8136 256.234 61.4082 255.677 61.4082C255.121 61.4082 254.695 61.8067 254.695 62.4319C254.695 63.0571 255.121 63.4625 255.677 63.4625C256.234 63.4625 256.653 63.0571 256.653 62.4319Z" fill="#001640"/>
<path d="M260.665 59.8142V63.8884H260.157V63.4281C259.923 63.7579 259.545 63.9227 259.119 63.9227C258.267 63.9227 257.649 63.325 257.649 62.4319C257.649 61.5387 258.267 60.9478 259.119 60.9478C259.531 60.9478 259.896 61.099 260.136 61.415V59.8142H260.665ZM260.143 62.4319C260.143 61.8135 259.717 61.4082 259.167 61.4082C258.618 61.4082 258.185 61.8066 258.185 62.4319C258.185 63.0571 258.611 63.4624 259.167 63.4624C259.724 63.4624 260.143 63.0571 260.143 62.4319Z" fill="#001640"/>
<path d="M264.286 62.6105H261.922C261.991 63.1189 262.403 63.4624 262.98 63.4624C263.324 63.4624 263.606 63.3456 263.819 63.112L264.107 63.4556C263.846 63.7647 263.441 63.9296 262.96 63.9296C262.019 63.9296 261.393 63.3113 261.393 62.4387C261.393 61.5662 262.012 60.9547 262.857 60.9547C263.702 60.9547 264.3 61.5593 264.3 62.4525C264.3 62.4937 264.3 62.5624 264.286 62.6105ZM261.922 62.2326H263.791C263.736 61.7448 263.365 61.3944 262.857 61.3944C262.348 61.3944 261.977 61.7379 261.922 62.2326Z" fill="#001640"/>
</g>
<g opacity="0.5">
<path d="M235.65 69.9069C235.65 72.0711 234.427 73.2253 232.654 73.2253C232.057 73.2253 231.486 73.1085 231.081 72.8543L231.425 72.1467C231.761 72.3665 232.187 72.4421 232.647 72.4421C233.932 72.4421 234.743 71.6383 234.743 70.0512V69.8245C234.372 70.3741 233.706 70.6558 232.915 70.6558C231.658 70.6558 230.751 69.9069 230.751 68.7389C230.751 67.571 231.727 66.7396 232.984 66.7396C234.688 66.7396 235.643 67.8801 235.643 69.9L235.65 69.9069ZM234.537 68.7046C234.537 68.0519 234.015 67.4816 233.025 67.4816C232.201 67.4816 231.631 67.9626 231.631 68.7114C231.631 69.4603 232.18 69.9344 233.067 69.9344C233.953 69.9344 234.53 69.3985 234.53 68.7046H234.537Z" fill="#001640"/>
<path d="M236.522 69.9894C236.522 67.9283 237.629 66.7534 239.113 66.7534C240.597 66.7534 241.689 67.9283 241.689 69.9894C241.689 72.0505 240.583 73.2254 239.113 73.2254C237.642 73.2254 236.522 72.0505 236.522 69.9894ZM240.782 69.9894C240.782 68.368 240.095 67.5573 239.106 67.5573C238.116 67.5573 237.422 68.3748 237.422 69.9894C237.422 71.604 238.11 72.4215 239.106 72.4215C240.102 72.4215 240.782 71.604 240.782 69.9894Z" fill="#001640"/>
<path d="M246.986 72.3665V73.1566H242.438V72.5383L245.014 70.0512C245.681 69.3985 245.811 69 245.811 68.6015C245.811 67.9488 245.351 67.5503 244.465 67.5503C243.784 67.5503 243.235 67.7702 242.843 68.2374L242.225 67.7015C242.713 67.0969 243.558 66.7396 244.54 66.7396C245.859 66.7396 246.711 67.4198 246.711 68.5053C246.711 69.1237 246.533 69.6733 245.674 70.4978L243.736 72.3597H246.986V72.3665Z" fill="#001640"/>
<path d="M249.693 66.822V73.1566H248.8V67.6121H247.371V66.822H249.693Z" fill="#001640"/>
<path d="M251.074 69.9894C251.074 67.9283 252.18 66.7534 253.664 66.7534C255.148 66.7534 256.241 67.9283 256.241 69.9894C256.241 72.0505 255.134 73.2254 253.664 73.2254C252.194 73.2254 251.074 72.0505 251.074 69.9894ZM255.334 69.9894C255.334 68.368 254.647 67.5573 253.657 67.5573C252.668 67.5573 251.974 68.3748 251.974 69.9894C251.974 71.604 252.661 72.4215 253.657 72.4215C254.653 72.4215 255.334 71.604 255.334 69.9894Z" fill="#001640"/>
</g>
<path d="M237.944 109.336L238.652 109.804L239.428 110.298C239.957 110.628 240.5 110.944 241.043 111.253C242.135 111.865 243.248 112.456 244.382 112.971C246.656 114.008 248.992 114.853 251.369 115.382L251.479 115.41C251.52 115.417 251.568 115.431 251.52 115.424C251.486 115.424 251.445 115.424 251.349 115.424C251.191 115.431 250.875 115.479 250.497 115.705C250.126 115.932 249.878 116.282 249.796 116.482C249.707 116.695 249.713 116.791 249.713 116.805C249.734 116.846 249.755 116.667 249.748 116.461C249.748 116.255 249.713 116.001 249.672 115.733C249.487 114.647 249.15 113.397 248.752 112.174C247.968 109.714 247.034 107.186 246.106 104.699L248.758 103.277C250.346 105.571 251.761 107.921 253.004 110.463C253.609 111.748 254.207 113.047 254.64 114.585C254.749 114.977 254.846 115.389 254.921 115.85C254.99 116.317 255.052 116.818 254.983 117.533C254.949 117.876 254.866 118.309 254.626 118.825C254.399 119.326 253.932 119.951 253.272 120.35C252.606 120.755 251.946 120.858 251.452 120.879C251.191 120.886 250.978 120.879 250.778 120.851L250.572 120.824L250.435 120.803C247.487 120.405 244.636 119.601 241.97 118.467C240.631 117.904 239.318 117.292 238.047 116.592C237.415 116.234 236.79 115.87 236.172 115.479C235.863 115.279 235.553 115.087 235.251 114.881C234.935 114.668 234.66 114.469 234.296 114.194L237.931 109.33L237.944 109.336Z" fill="#DC897C"/>
<path d="M237.176 108.554C241.133 109.007 243.792 111.24 243.792 111.24L241.03 119.746C241.03 119.746 227.695 107.468 237.183 108.554H237.176Z" fill="#3F80FF"/>
<path opacity="0.6" d="M237.147 115.733C239.037 117.918 241.015 119.738 241.015 119.738L242.149 116.241L243.777 111.233C243.777 111.233 241.118 108.993 237.168 108.546C231.335 107.88 234.124 112.256 237.14 115.726L237.147 115.733Z" fill="white"/>
<path opacity="0.2" d="M237.147 115.733C239.037 117.918 241.015 119.738 241.015 119.738L242.149 116.241C239.724 114.372 237.161 114.524 237.161 114.524C237.113 114.936 237.113 115.348 237.14 115.733H237.147Z" fill="black"/>
<path d="M207.494 96.0078C207.494 96.0078 201.105 117.251 214.564 120.102C228.023 122.954 229.432 113.177 229.432 113.177C229.432 113.177 218.405 96.4407 207.494 96.0078Z" fill="#001640"/>
<path d="M204.334 102.878C204.334 102.878 204.994 101.655 206.175 101.58" stroke="#001640" stroke-width="0.48" stroke-linecap="round" stroke-linejoin="round"/>
<path d="M206.258 105.681C206.258 105.681 206.113 107.124 205.701 108.107C205.701 108.107 206.34 108.567 207.11 108.134L206.258 105.688V105.681Z" fill="#DE5753"/>
<path d="M204.959 104.754C205.103 105.132 205.419 105.358 205.674 105.262C205.928 105.166 206.01 104.781 205.866 104.41C205.722 104.032 205.406 103.806 205.152 103.902C204.897 103.998 204.815 104.383 204.959 104.754Z" fill="#001640"/>
<path d="M205.268 103.874H204.327C204.327 103.874 205 104.397 205.268 103.874Z" fill="#001640"/>
<path d="M218.638 108.313C218.611 108.374 218.583 108.436 218.542 108.484C218.48 108.601 218.412 108.711 218.343 108.828C217.938 109.515 217.436 110.195 216.763 110.717C214.681 112.359 212.908 112.854 211.349 112.38C211.273 112.359 211.198 112.332 211.122 112.304H211.115C208.8 111.37 207.02 108.601 205.557 104.939C204.877 103.263 204.437 101.738 204.368 100.419C204.368 100.405 204.348 100.364 204.348 100.35C204.348 100.295 204.334 100.226 204.334 100.171C204.279 98.3093 204.925 96.784 206.505 95.5199C207.055 95.0802 207.714 94.6679 208.498 94.2901C215.402 90.9373 222.08 101.834 218.638 108.313Z" fill="#E4897B"/>
<path opacity="0.2" d="M218.343 108.828C217.937 109.515 217.436 110.195 216.763 110.717C214.681 112.359 212.908 112.854 211.349 112.38C212.613 112.043 214.124 111.37 215.258 110.01C216 109.137 217.127 108.835 218.343 108.828Z" fill="black"/>
<path d="M204.341 100.377C204.341 100.377 206.258 105.42 211.857 105.331C211.857 105.331 216.227 109.446 219.174 108.141C223.193 106.362 224.025 99.0513 219.923 93.9397C214.605 87.3166 203.008 92.0572 204.341 100.37V100.377Z" fill="#001640"/>
<path d="M208.862 105.035C208.504 104.273 208.511 102.713 209.775 102.329C211.081 101.93 213.183 104.623 210.497 106.712C210.112 107.014 209.61 106.623 208.862 105.035Z" fill="#E4897B"/>
<path d="M210.366 91.1984C210.366 91.1984 205.172 92.2221 203.489 95.3C201.524 98.8933 201.455 101.69 206.656 103.51C206.656 103.51 213.252 97.2993 216.096 96.6123C218.941 95.9252 221.153 95.8016 221.153 95.8016C219.263 90.3945 212.469 88.9243 210.373 91.2052L210.366 91.1984Z" fill="#001640"/>
<path d="M215.402 110.855C215.402 110.855 218.975 113.328 219.909 117.409L231.046 110.91C231.046 110.91 222.328 108.917 220.823 105.544C220.823 105.544 214.997 106.265 215.402 110.848V110.855Z" fill="#E4897B"/>
<path d="M226.464 137.615C226.464 137.615 212.063 123.435 210.483 118.983C210.483 118.983 216.55 109.536 228.676 109.137C240.802 108.739 249.054 131.81 249.054 131.81L226.464 137.608V137.615Z" fill="#3F80FF"/>
<path opacity="0.6" d="M249.054 131.817L226.471 137.615C226.471 137.615 223.324 134.517 219.806 130.765C218.721 129.59 217.587 128.354 216.495 127.131C213.63 123.881 211.101 120.707 210.49 118.982C210.49 118.982 216.55 109.536 228.676 109.137C240.809 108.746 249.054 131.817 249.054 131.817Z" fill="white"/>
<path d="M212.97 102.906C212.97 102.906 215.079 109.914 222.486 112.243C229.892 114.572 228.03 122.122 235.21 121.236C239.03 120.762 242.3 112.985 230.586 106.128C223.757 102.136 226.409 89.0136 211.912 90.2435C211.912 90.2435 214.915 99.2369 212.97 102.906Z" fill="#001640"/>
<path d="M220.177 244.437L216.749 243.654C217.264 226.491 219.745 205.708 221.936 190.106C222.28 187.66 222.616 185.351 222.939 183.194C223.097 182.17 223.242 181.188 223.386 180.24C224.094 175.561 224.705 171.864 225.083 169.577C225.358 167.907 225.523 166.993 225.523 166.993L237.869 170.009L236.983 173.129L234.063 183.421L233.733 184.595L231.795 191.39L228.511 202.96C228.731 220.432 220.177 244.437 220.177 244.437Z" fill="#E4897B"/>
<path d="M249.583 241.558L246.065 241.38C243.386 222.912 242.259 199.82 241.771 183.757C241.695 181.27 241.64 178.941 241.592 176.839C241.592 176.729 241.592 176.626 241.592 176.529C241.503 172.345 241.462 169.02 241.441 166.911C241.434 165.262 241.427 164.355 241.427 164.355L254.117 165.186L253.574 170.477L252.777 178.247L252.619 179.772L252.07 185.063L250.606 199.257C253.849 216.426 249.59 241.558 249.59 241.558H249.583Z" fill="#E4897B"/>
<path d="M250.902 240.878C250.888 240.439 245.474 240.782 245.474 240.782C245.474 240.782 242.142 244.169 238.906 244.932C235.67 245.694 237.477 247.632 241.098 247.632H250.043C252.613 247.632 251.005 245.44 250.902 240.878Z" fill="#001640"/>
<path d="M242.149 242.039C242.046 241.95 241.936 241.785 242.018 241.462C242.06 241.304 242.156 241.18 242.307 241.098C242.595 240.933 243.063 240.919 243.523 240.967C243.083 240.734 242.699 240.445 242.678 240.164C242.664 239.978 242.788 239.827 243.035 239.71C243.269 239.6 243.502 239.593 243.736 239.69C244.471 239.992 244.925 241.256 244.945 241.311C244.959 241.345 244.952 241.387 244.945 241.421C244.945 241.435 244.931 241.441 244.925 241.448C244.925 241.448 244.897 241.476 244.876 241.483C244.595 241.62 243.392 242.17 242.63 242.17C242.431 242.17 242.266 242.135 242.156 242.039H242.149ZM242.451 241.345C242.369 241.393 242.314 241.455 242.293 241.538C242.238 241.751 242.307 241.806 242.328 241.826C242.582 242.039 243.578 241.737 244.375 241.4C243.77 241.263 242.836 241.125 242.451 241.352V241.345ZM243.159 239.964C243.083 239.999 242.96 240.067 242.967 240.143C242.98 240.383 243.757 240.809 244.56 241.112C244.375 240.699 244.031 240.115 243.633 239.951C243.557 239.923 243.489 239.903 243.413 239.903C243.331 239.903 243.248 239.923 243.166 239.964H243.159Z" fill="#001640"/>
<path d="M221.922 240.878C221.909 240.439 216.495 240.782 216.495 240.782C216.495 240.782 213.163 244.169 209.927 244.932C206.691 245.694 208.498 247.632 212.118 247.632H221.064C223.633 247.632 222.026 245.44 221.922 240.878Z" fill="#001640"/>
<path d="M213.169 242.039C213.066 241.95 212.956 241.785 213.039 241.462C213.08 241.304 213.176 241.18 213.327 241.098C213.616 240.933 214.083 240.919 214.544 240.967C214.104 240.734 213.719 240.445 213.698 240.164C213.685 239.978 213.808 239.827 214.056 239.71C214.289 239.6 214.523 239.593 214.757 239.69C215.492 239.992 215.945 241.256 215.966 241.311C215.979 241.345 215.973 241.387 215.966 241.421C215.966 241.435 215.952 241.441 215.945 241.448C215.945 241.448 215.918 241.476 215.897 241.483C215.615 241.62 214.406 242.17 213.65 242.17C213.451 242.17 213.286 242.135 213.169 242.039ZM213.472 241.345C213.389 241.393 213.334 241.455 213.314 241.538C213.259 241.751 213.327 241.806 213.348 241.826C213.602 242.039 214.599 241.737 215.395 241.4C214.791 241.263 213.856 241.125 213.472 241.352V241.345ZM214.179 239.964C214.104 239.999 213.98 240.067 213.987 240.143C214.001 240.383 214.777 240.809 215.581 241.112C215.395 240.699 215.052 240.115 214.653 239.951C214.578 239.923 214.509 239.903 214.434 239.903C214.351 239.903 214.269 239.923 214.186 239.964H214.179Z" fill="#001640"/>
<path d="M223.537 172.153L226.471 151.562V137.615C234.186 131.817 249.061 131.817 249.061 131.817C249.061 131.817 260.493 147.66 254.935 173.754L240.589 175.849L239.676 170.985L237.876 175.849L223.544 172.16L223.537 172.153Z" fill="#001640"/>
<path opacity="0.2" d="M223.537 172.153L226.471 151.562V137.615C234.186 131.817 249.061 131.817 249.061 131.817C249.061 131.817 260.493 147.66 254.935 173.754L240.589 175.849L239.676 170.985L237.876 175.849L223.544 172.16L223.537 172.153Z" fill="white"/>
<path opacity="0.2" d="M239.669 170.978L242.431 162.397C242.431 162.397 245.33 161.518 249.054 155.76C249.054 155.76 248.408 165.564 239.669 170.978Z" fill="black"/>
<path opacity="0.2" d="M233.554 141.573L239.992 140.954C239.992 140.954 241.551 144.032 241.022 148.601L236.893 151.081L233.905 148.958C233.905 148.958 233.815 143.503 233.554 141.573Z" fill="black"/>
<path opacity="0.2" d="M249.054 139.992C249.054 139.992 250.256 142.72 250.957 146.581L253.245 147.55L254.475 146.018C254.475 146.018 253.636 141.525 252.235 139.333L249.061 139.992H249.054Z" fill="black"/>
<path d="M223.269 170.978L238.494 175.451L237.539 177.491L223.07 173.046L223.269 170.978Z" fill="#001640"/>
<path d="M239.992 175.156L240.246 177.031L255.175 175.156L255.402 172.778L239.992 175.156Z" fill="#001640"/>
<path d="M243.125 134.668C247.529 133.967 250.511 133.946 250.511 133.946L249.59 132.428C247.082 132.352 244.664 132.531 242.39 132.861L243.125 134.668Z" fill="#001640"/>
<path d="M229.432 136.564C227.467 137.416 226.326 138.062 226.326 138.062L226.34 139.937C227.446 139.374 228.566 138.866 229.672 138.405L229.432 136.571V136.564Z" fill="#001640"/>
<path d="M230.38 138.117C234.626 136.427 238.783 135.424 242.204 134.826L241.517 132.998C236.818 133.768 232.812 135.156 230.098 136.282L230.38 138.117Z" fill="#001640"/>
<path d="M189.102 143.496L185.2 141.93L184.54 145.612C184.54 145.612 188.058 147.749 189.521 145.207L189.095 143.496H189.102Z" fill="#E4897B"/>
<path d="M183.262 142.15L182.012 145.001L184.54 145.606L185.2 141.93L183.262 142.15Z" fill="#E4897B"/>
<path d="M248.992 103.916L248.532 99.7384L244.973 100.9C244.973 100.9 244.753 105.008 247.687 105.097L248.992 103.916Z" fill="#E4897B"/>
<path d="M247.412 98.1376L244.313 98.378L244.973 100.893L248.532 99.7315L247.412 98.1376Z" fill="#E4897B"/>
<path opacity="0.2" d="M219.806 130.765C218.721 129.591 217.587 128.354 216.495 127.131C216.076 124.575 215.808 122.328 215.808 122.328C215.808 122.328 220.095 125.187 219.806 130.765Z" fill="black"/>
<path d="M216.206 121.14C215.801 122.851 215.32 124.403 214.818 126.018C214.31 127.612 213.726 129.178 213.128 130.745C212.537 132.311 211.878 133.857 211.156 135.382C210.806 136.145 210.435 136.908 210.043 137.663C209.858 138.041 209.645 138.412 209.446 138.79L209.143 139.353L208.985 139.642C208.896 139.8 208.8 139.965 208.704 140.109C207.893 141.284 206.958 141.964 206.086 142.5C205.2 143.029 204.334 143.421 203.482 143.751C201.771 144.396 200.088 144.809 198.412 145.138C195.052 145.757 191.768 146.08 188.388 146.093L188.113 143.098C189.645 142.768 191.225 142.418 192.757 142.019C194.296 141.641 195.821 141.222 197.299 140.734C198.769 140.26 200.212 139.724 201.49 139.092C202.129 138.783 202.719 138.44 203.2 138.082C203.674 137.732 204.032 137.354 204.107 137.162C204.121 137.134 204.121 137.121 204.128 137.107L204.245 136.846L204.485 136.317C204.643 135.959 204.808 135.616 204.959 135.252C205.261 134.537 205.571 133.823 205.859 133.088C206.436 131.638 206.986 130.161 207.515 128.677C208.044 127.193 208.518 125.688 208.992 124.177C209.473 122.686 209.913 121.126 210.318 119.683L216.213 121.147L216.206 121.14Z" fill="#DC897C"/>
<path d="M212.84 115.966C209.473 118.165 207.68 123.881 207.11 126.678L214.09 131.817L217.615 128.381C219.044 120.494 214.117 115.135 212.84 115.966Z" fill="#3F80FF"/>
<path opacity="0.6" d="M212.84 115.966C209.473 118.165 207.68 123.881 207.11 126.678L214.09 131.817L217.615 128.381C219.044 120.494 214.117 115.135 212.84 115.966Z" fill="white"/>
<path d="M246.917 105.255L241.936 105.784C241.654 105.812 241.421 105.578 241.414 105.248L241.111 94.6886C241.105 94.3657 241.324 94.0771 241.599 94.0497L246.58 93.5206C246.862 93.4931 247.096 93.7267 247.103 94.0565L247.405 104.616C247.412 104.939 247.192 105.228 246.917 105.255Z" fill="#001640"/>
<path opacity="0.6" d="M246.917 105.255L241.936 105.784C241.654 105.812 241.421 105.578 241.414 105.248L241.111 94.6886C241.105 94.3657 241.324 94.0771 241.599 94.0497L246.58 93.5206C246.862 93.4931 247.096 93.7267 247.103 94.0565L247.405 104.616C247.412 104.939 247.192 105.228 246.917 105.255Z" fill="white"/>
<path d="M246.477 105.306L241.496 105.835C241.215 105.862 240.981 105.629 240.974 105.299L240.672 94.7389C240.665 94.416 240.885 94.1274 241.16 94.0999L246.141 93.5709C246.422 93.5434 246.656 93.777 246.663 94.1068L246.965 104.667C246.972 104.99 246.752 105.278 246.477 105.306Z" fill="#001640"/>
<path opacity="0.7" d="M246.477 105.306L241.496 105.835C241.215 105.862 240.981 105.629 240.974 105.299L240.672 94.7389C240.665 94.416 240.885 94.1274 241.16 94.0999L246.141 93.5709C246.422 93.5434 246.656 93.777 246.663 94.1068L246.965 104.667C246.972 104.99 246.752 105.278 246.477 105.306Z" fill="white"/>
<path d="M246.147 93.7749L244.842 93.9123L244.677 94.3108L242.657 94.5237L242.465 94.1596L241.16 94.297C240.981 94.3176 240.837 94.5031 240.843 94.7161L241.146 105.276C241.146 105.489 241.304 105.64 241.489 105.62L246.47 105.091C246.649 105.07 246.793 104.884 246.786 104.671L246.484 94.1115C246.484 93.8985 246.326 93.7474 246.141 93.768L246.147 93.7749Z" fill="#3F80FF"/>
<path opacity="0.8" d="M245.481 97.588L241.819 97.9796C241.641 98.0002 241.489 97.8491 241.483 97.643L241.455 96.6261C241.455 96.42 241.592 96.2345 241.771 96.2208L245.433 95.8292C245.612 95.8085 245.763 95.9597 245.77 96.1658L245.797 97.1826C245.797 97.3887 245.66 97.5742 245.481 97.588Z" fill="white"/>
</g>
<defs>
<clipPath id="clip0_325_5930">
<rect width="343.523" height="256" fill="white"/>
</clipPath>
</defs>
</svg>
