<svg width="344" height="256" viewBox="0 0 344 256" fill="none" xmlns="http://www.w3.org/2000/svg">
<g clip-path="url(#clip0_316_4640)">
<path d="M343.523 224.973H0V225.145H343.523V224.973Z" fill="#EBEBEB"/>
<path d="M216.88 229.652H199.387V229.824H216.88V229.652Z" fill="#EBEBEB"/>
<path d="M312.908 233.369H271.459V233.54H312.908V233.369Z" fill="#EBEBEB"/>
<path d="M195.664 229.734H152.84V229.906H195.664V229.734Z" fill="#EBEBEB"/>
<path d="M125.07 234.874H116.111V235.045H125.07V234.874Z" fill="#EBEBEB"/>
<path d="M174.571 234.874H133.775V235.045H174.571V234.874Z" fill="#EBEBEB"/>
<path d="M62.4594 231.974H36.0425V232.146H62.4594V231.974Z" fill="#EBEBEB"/>
<path d="M162.837 194.331H30.1681C28.004 194.331 26.2451 192.572 26.2451 190.408V3.92303C26.2451 1.75884 28.004 0 30.1681 0H162.837C165.001 0 166.76 1.75884 166.76 3.92303V190.408C166.76 192.572 165.001 194.331 162.837 194.331ZM30.1681 0.171761C28.1001 0.171761 26.4169 1.85502 26.4169 3.92303V190.408C26.4169 192.476 28.1001 194.159 30.1681 194.159H162.837C164.905 194.159 166.588 192.476 166.588 190.408V3.92303C166.588 1.85502 164.905 0.171761 162.837 0.171761H30.1681Z" fill="#EBEBEB"/>
<path d="M311.445 194.331H178.776C176.612 194.331 174.853 192.572 174.853 190.408V3.92303C174.853 1.75884 176.612 0 178.776 0H311.445C313.609 0 315.368 1.75884 315.368 3.92303V190.408C315.368 192.572 313.609 194.331 311.445 194.331ZM178.776 0.171761C176.708 0.171761 175.025 1.85502 175.025 3.92303V190.408C175.025 192.476 176.708 194.159 178.776 194.159H311.445C313.513 194.159 315.196 192.476 315.196 190.408V3.92303C315.196 1.85502 313.513 0.171761 311.445 0.171761H178.776Z" fill="#EBEBEB"/>
<path d="M134.633 165.379H89.0137L86.2449 133.431H131.865L134.633 165.379Z" fill="#E6E6E6"/>
<path d="M136.997 165.379H91.3772L88.6084 133.431H134.228L136.997 165.379Z" fill="#F0F0F0"/>
<path d="M97.6156 158.522L96.0903 140.295H127.99L129.515 158.522H97.6156Z" fill="white"/>
<path d="M144.891 165.379H139.539V224.966H144.891V165.379Z" fill="#E6E6E6"/>
<path d="M146.581 165.379H142.864V224.966H146.581V165.379Z" fill="#F0F0F0"/>
<path d="M94.7712 171.961H146.581V165.386H94.7712V171.961Z" fill="#F0F0F0"/>
<path d="M96.5987 171.961H91.2466V224.973H96.5987V171.961Z" fill="#E6E6E6"/>
<path d="M98.2887 171.961H94.5718V224.973H98.2887V171.961Z" fill="#F0F0F0"/>
<path d="M58.502 171.961H53.1499V224.973H58.502V171.961Z" fill="#E6E6E6"/>
<path d="M60.192 171.961H56.4751V224.973H60.192V171.961Z" fill="#F0F0F0"/>
<path d="M111.02 171.961H105.668V224.973H111.02V171.961Z" fill="#E6E6E6"/>
<path d="M112.703 171.961H108.986V224.973H112.703V171.961Z" fill="#F0F0F0"/>
<path d="M94.7711 165.379H53.1499V171.954H94.7711V165.379Z" fill="#E6E6E6"/>
<path d="M249.975 16.8052H88.9792V106.437H249.975V16.8052Z" fill="#E0E0E0"/>
<path d="M258.817 16.8052H89.79V106.437H258.817V16.8052Z" fill="#F5F5F5"/>
<path d="M256.055 103.675V19.5671L92.5518 19.5671V103.675L256.055 103.675Z" fill="white"/>
<path d="M158.756 103.675L189.625 19.5671H138.68L107.811 103.675H158.756Z" fill="#F5F5F5"/>
<path d="M207.79 103.675L238.659 19.5671H200.226L169.357 103.675H207.79Z" fill="#F5F5F5"/>
<path d="M301.001 139.367H287.315V224.973H301.001V139.367Z" fill="#E6E6E6"/>
<path d="M297.402 224.973H301.002V218.378H293.63L297.402 224.973Z" fill="#FAFAFA"/>
<path d="M174.819 139.367H161.133V224.973H174.819V139.367Z" fill="#E6E6E6"/>
<path d="M301.002 139.367H171.679V223.194H301.002V139.367Z" fill="#FAFAFA"/>
<path d="M298.555 166.416H174.132V142.741H298.555V166.416ZM174.819 165.729H297.868V143.428H174.819V165.729Z" fill="#E6E6E6"/>
<path d="M276.653 154.235H198.453C194.819 154.235 191.322 151.308 188.862 146.196L188.622 145.702H286.477L286.237 146.196C283.777 151.301 280.28 154.235 276.646 154.235H276.653ZM189.721 146.396C192.043 150.951 195.203 153.548 198.446 153.548H276.646C279.889 153.548 283.049 150.951 285.378 146.396H189.721Z" fill="#E6E6E6"/>
<path d="M175.279 224.973H171.679V218.378H179.051L175.279 224.973Z" fill="#FAFAFA"/>
<path d="M298.555 193.115H174.132V169.439H298.555V193.115ZM174.819 192.428H297.868V170.126H174.819V192.428Z" fill="#E6E6E6"/>
<path d="M276.653 180.934H198.453C194.819 180.934 191.322 178.007 188.862 172.895L188.622 172.4H286.477L286.237 172.895C283.777 178 280.28 180.934 276.646 180.934H276.653ZM189.721 173.094C192.043 177.649 195.203 180.246 198.446 180.246H276.646C279.889 180.246 283.049 177.649 285.378 173.094H189.721Z" fill="#E6E6E6"/>
<path d="M298.555 219.82H174.132V196.145H298.555V219.82ZM174.819 219.133H297.868V196.832H174.819V219.133Z" fill="#E6E6E6"/>
<path d="M276.653 207.639H198.453C194.819 207.639 191.322 204.712 188.862 199.601L188.622 199.106H286.477L286.237 199.601C283.777 204.705 280.28 207.639 276.646 207.639H276.653ZM189.721 199.8C192.043 204.355 195.203 206.952 198.446 206.952H276.646C279.889 206.952 283.049 204.355 285.378 199.8H189.721Z" fill="#E6E6E6"/>
<path d="M83.1187 150.69V152.352H82.0538L81.1812 165.379H68.2373L67.3647 152.352H66.2998V150.69H83.1187Z" fill="#E6E6E6"/>
<path d="M78.8591 118.35C77.7941 110.587 67.3236 108.375 54.0292 108.086C41.3807 107.818 37.3271 103.339 37.3271 103.339C37.3271 103.339 37.3684 121.463 55.5957 128.024C72.9024 134.256 79.924 126.121 78.8591 118.35Z" fill="#E6E6E6"/>
<path d="M72.4008 135.946C72.6207 132.751 77.7186 126.884 89.9823 129.556C98.8452 131.487 102.143 126.89 102.143 126.89C102.143 126.89 101.325 139.862 87.9899 143.764C75.3276 147.467 72.0092 141.566 72.4008 135.953V135.946Z" fill="#E6E6E6"/>
<path d="M75.197 155.581C75.3344 155.581 75.465 155.526 75.5612 155.417C76.4475 154.365 75.7261 151.851 74.7161 148.367C73.4245 143.902 71.8168 138.337 73.1771 134.304C73.9466 132.023 74.8947 130.016 75.8154 128.072C77.7391 124.005 79.4018 120.487 78.0139 116.818C77.9246 116.571 77.6498 116.447 77.4025 116.544C77.1551 116.633 77.0383 116.908 77.1276 117.155C78.3712 120.453 76.8666 123.634 74.9566 127.674C74.0703 129.549 73.0603 131.679 72.2771 134.008C70.8206 138.33 72.4763 144.046 73.8023 148.642C74.5856 151.349 75.3963 154.152 74.8329 154.819C74.6611 155.018 74.6886 155.313 74.8879 155.485C74.9772 155.561 75.0871 155.595 75.1902 155.595L75.197 155.581Z" fill="#E6E6E6"/>
<path d="M171.761 256C245.332 256 304.973 252.518 304.973 248.223C304.973 243.927 245.332 240.445 171.761 240.445C98.1908 240.445 38.55 243.927 38.55 248.223C38.55 252.518 98.1908 256 171.761 256Z" fill="#F5F5F5"/>
<path d="M171.734 210.305H74.1735L68.8352 53.4041H166.396L171.734 210.305Z" fill="#3F80FF"/>
<path d="M176.605 205.434H79.0447L73.6995 48.533H171.26L176.605 205.434Z" fill="#3F80FF"/>
<path opacity="0.3" d="M176.605 205.434H79.0447L73.6995 48.533H171.26L176.605 205.434Z" fill="white"/>
<path d="M143.92 113.096C154.366 102.47 153.921 85.0943 142.927 74.2866C131.933 63.4788 114.552 63.3317 104.106 73.9578C93.6603 84.584 94.1047 101.96 105.099 112.767C116.093 123.575 133.474 123.722 143.92 113.096Z" fill="#3F80FF"/>
<path d="M146.664 93.5345C146.794 97.4437 145.928 101.119 144.293 104.321C140.714 111.377 133.397 116.179 124.788 116.179C116.179 116.179 108.533 111.377 104.472 104.321C102.617 101.119 101.504 97.4437 101.367 93.5345C100.941 81.0234 110.731 70.8826 123.242 70.8826C135.753 70.8826 146.238 81.0234 146.664 93.5345Z" fill="white"/>
<path opacity="0.6" d="M144.293 104.321C140.714 111.377 133.397 116.179 124.788 116.179C116.179 116.179 108.533 111.377 104.472 104.321C110.044 100.515 116.812 98.2887 124.177 98.2887C131.542 98.2887 138.46 100.515 144.293 104.321Z" fill="#3F80FF"/>
<path opacity="0.6" d="M131.071 92.9682C134.913 89.0608 134.749 82.6716 130.707 78.6975C126.664 74.7235 120.273 74.6694 116.432 78.5767C112.591 82.4841 112.754 88.8733 116.797 92.8473C120.839 96.8214 127.23 96.8755 131.071 92.9682Z" fill="#3F80FF"/>
<path d="M157.004 148.615H94.7711L94.3521 136.248H156.585L157.004 148.615Z" fill="white"/>
<path d="M157.759 170.717H95.5199L95.1008 158.35H157.34L157.759 170.717Z" fill="white"/>
<path d="M133.74 160.054L118.742 162.095C118.124 162.177 117.718 162.741 117.835 163.338L119.807 173.39C119.924 173.987 120.522 174.413 121.14 174.324L136.138 172.284C136.756 172.201 137.162 171.645 137.045 171.04L135.073 160.989C134.956 160.391 134.359 159.965 133.74 160.054ZM129.433 170.236L126.719 170.607L126.444 167.364C125.867 167.11 125.448 166.595 125.331 165.99C125.139 165.008 125.805 164.094 126.808 163.963C127.811 163.826 128.787 164.513 128.979 165.496C129.096 166.1 128.897 166.698 128.443 167.09L129.426 170.236H129.433Z" fill="#3F80FF"/>
<path d="M132.256 159.511C131.707 159.587 131.178 159.216 131.075 158.68L130.882 157.698C130.353 154.991 127.763 152.943 124.96 153.191C121.964 153.452 119.958 156.097 120.515 158.955L120.735 160.082C120.838 160.618 120.48 161.105 119.931 161.181C119.381 161.257 118.852 160.886 118.749 160.35L118.564 159.388C117.822 155.616 120.199 151.988 124.039 151.315C128.079 150.614 132.064 153.335 132.833 157.265L133.053 158.392C133.156 158.927 132.799 159.415 132.249 159.491L132.256 159.511Z" fill="#3F80FF"/>
<path d="M147.488 188.038H106.973L106.698 179.985H147.213L147.488 188.038Z" fill="#3F80FF"/>
<path d="M127.942 142.432C127.983 143.682 127.007 144.692 125.757 144.692C124.506 144.692 123.462 143.682 123.421 142.432C123.38 141.181 124.355 140.171 125.606 140.171C126.856 140.171 127.9 141.181 127.942 142.432Z" fill="#001640"/>
<path d="M118.2 142.432C118.241 143.682 117.265 144.692 116.015 144.692C114.764 144.692 113.72 143.682 113.679 142.432C113.638 141.181 114.613 140.171 115.864 140.171C117.114 140.171 118.158 141.181 118.2 142.432Z" fill="#001640"/>
<path d="M108.464 142.432C108.505 143.682 107.53 144.692 106.279 144.692C105.029 144.692 103.984 143.682 103.943 142.432C103.902 141.181 104.878 140.171 106.128 140.171C107.378 140.171 108.423 141.181 108.464 142.432Z" fill="#001640"/>
<path d="M137.677 142.432C137.718 143.682 136.743 144.692 135.492 144.692C134.242 144.692 133.198 143.682 133.156 142.432C133.115 141.181 134.091 140.171 135.341 140.171C136.592 140.171 137.636 141.181 137.677 142.432Z" fill="#001640"/>
<path d="M147.413 142.432C147.454 143.682 146.478 144.692 145.228 144.692C143.977 144.692 142.933 143.682 142.892 142.432C142.851 141.181 143.826 140.171 145.077 140.171C146.327 140.171 147.371 141.181 147.413 142.432Z" fill="#001640"/>
<path d="M229.411 81.9851C230.325 83.4485 231.088 84.857 231.871 86.3204C232.654 87.77 233.362 89.2541 234.056 90.7587C235.423 93.7679 236.646 96.8734 237.56 100.192C237.683 100.597 237.773 101.03 237.876 101.456L238.027 102.095L238.102 102.411L238.192 102.933C238.391 104.328 238.212 105.468 237.979 106.471C237.484 108.471 236.694 110.072 235.842 111.597C234.104 114.613 232.077 117.182 229.734 119.615L226.842 117.423C228.271 114.716 229.679 111.878 230.717 109.151C231.218 107.797 231.644 106.416 231.768 105.283C231.83 104.726 231.789 104.245 231.713 104.067L231.438 103.229C231.328 102.885 231.225 102.542 231.088 102.191C230.098 99.4155 228.841 96.6329 227.467 93.8916C226.114 91.1572 224.616 88.3746 223.146 85.7707L229.418 81.9851H229.411Z" fill="#FF8B7B"/>
<path d="M227.577 116.434L224.423 118.11L228.051 122.356C228.051 122.356 230.318 120.824 230.414 118.488L227.577 116.44V116.434Z" fill="#FF8B7B"/>
<path d="M220.177 120.728L224.059 123.812L228.044 122.356L224.417 118.11L220.177 120.728Z" fill="#FF8B7B"/>
<path d="M206.904 59.505C206.828 59.8897 206.56 60.1577 206.313 60.1027C206.066 60.0546 205.921 59.7042 206.004 59.3195C206.079 58.9347 206.347 58.6668 206.595 58.7217C206.842 58.7698 206.986 59.1202 206.904 59.505Z" fill="#001640"/>
<path d="M206.595 60.1646C206.595 60.1646 205.275 62.1913 204.107 63.0639C204.657 63.8334 205.859 63.7784 205.859 63.7784L206.595 60.1714V60.1646Z" fill="#FF5652"/>
<path d="M205.358 73.6444L205.385 69.1443L211.349 69.8657C211.349 69.8657 211.246 73.7406 207.914 74.8743L205.351 73.6444H205.358Z" fill="#FF8B7B"/>
<path d="M207.075 65.8945L211.273 67.1037L211.349 69.8588L205.385 69.1374L207.075 65.8945Z" fill="#FF8B7B"/>
<path opacity="0.2" d="M211.273 67.1037L207.075 65.8945L206.258 67.461C206.361 70.1199 207.982 72.3047 210.133 73.2871C211.301 71.755 211.349 69.8588 211.349 69.8588L211.273 67.1037Z" fill="black"/>
<path d="M208.731 57.6705C208.786 57.6705 208.841 57.6499 208.889 57.6087C208.985 57.5263 208.985 57.3751 208.903 57.2858C208.044 56.3583 207 56.5232 206.959 56.53C206.835 56.5507 206.753 56.6675 206.773 56.7911C206.794 56.9148 206.917 56.9972 207.034 56.9766C207.069 56.9766 207.886 56.853 208.573 57.595C208.621 57.6431 208.676 57.6705 208.738 57.6705H208.731Z" fill="#001640"/>
<path d="M217.512 66.4579C216.818 69.9962 216.399 74.8948 218.872 77.2514C218.872 77.2514 217.903 80.8377 211.335 80.8377C204.114 80.8377 207.859 77.6911 207.859 77.6911C210.861 76.7567 210.834 73.3421 210.147 70.5939L217.505 66.4579H217.512Z" fill="#FF8B7B"/>
<path d="M220.225 79.6149C220.871 78.7011 220.844 75.8224 220.157 75.3208C219.051 74.5032 214.303 74.3109 207.914 75.7811C208.601 78.5705 207.13 80.0271 207.13 80.0271L220.225 79.6149Z" fill="#3F80FF"/>
<path d="M241.703 242.719C241.215 242.822 240.734 242.85 240.5 242.651C240.404 242.568 240.301 242.41 240.39 242.122C240.438 241.97 240.535 241.854 240.686 241.785C241.339 241.476 242.836 242.087 242.905 242.108C242.946 242.122 242.974 242.163 242.974 242.211C242.974 242.259 242.953 242.3 242.912 242.314C242.685 242.424 242.197 242.609 241.71 242.712L241.703 242.719ZM240.919 241.95C240.871 241.963 240.823 241.977 240.782 241.991C240.693 242.032 240.638 242.101 240.61 242.183C240.548 242.389 240.624 242.451 240.651 242.479C240.913 242.699 241.874 242.499 242.555 242.225C242.094 242.06 241.345 241.854 240.919 241.95Z" fill="#3F80FF"/>
<path d="M242.877 242.335C242.877 242.335 242.843 242.335 242.822 242.335C242.273 242.177 241.105 241.345 241.091 240.796C241.091 240.7 241.125 240.514 241.386 240.425C241.558 240.363 241.723 240.377 241.895 240.466C242.541 240.796 242.946 242.136 242.967 242.19C242.98 242.232 242.967 242.273 242.939 242.307C242.925 242.321 242.905 242.335 242.884 242.342L242.877 242.335ZM241.51 240.624C241.51 240.624 241.476 240.631 241.462 240.638C241.318 240.686 241.325 240.755 241.325 240.789C241.332 241.112 242.101 241.765 242.671 242.026C242.527 241.641 242.204 240.878 241.792 240.665C241.696 240.617 241.606 240.603 241.517 240.624H241.51Z" fill="#3F80FF"/>
<path d="M206.017 243.53C205.399 243.53 204.801 243.448 204.595 243.166C204.527 243.07 204.472 242.905 204.602 242.664C204.678 242.534 204.801 242.445 204.966 242.397C205.77 242.177 207.46 243.139 207.529 243.18C207.57 243.2 207.591 243.248 207.584 243.297C207.577 243.345 207.543 243.379 207.495 243.393C207.185 243.455 206.588 243.53 206.011 243.53H206.017ZM205.248 242.596C205.166 242.596 205.09 242.603 205.028 242.623C204.925 242.651 204.849 242.706 204.801 242.781C204.719 242.926 204.753 242.994 204.781 243.035C205.008 243.345 206.23 243.358 207.124 243.228C206.677 243.001 205.811 242.596 205.248 242.596Z" fill="#3F80FF"/>
<path d="M207.481 243.4C207.481 243.4 207.447 243.4 207.433 243.393C206.849 243.132 205.695 242.087 205.784 241.538C205.805 241.407 205.894 241.249 206.21 241.215C206.444 241.194 206.657 241.256 206.842 241.414C207.453 241.916 207.584 243.221 207.591 243.276C207.591 243.317 207.577 243.358 207.543 243.379C207.522 243.393 207.502 243.4 207.474 243.4H207.481ZM206.299 241.442C206.299 241.442 206.251 241.442 206.231 241.442C206.024 241.462 206.011 241.545 206.011 241.572C205.956 241.902 206.746 242.719 207.337 243.077C207.275 242.699 207.103 241.916 206.698 241.586C206.574 241.483 206.444 241.435 206.299 241.435V241.442Z" fill="#3F80FF"/>
<path d="M212.792 243.283H207.962L207.481 232.091H212.311L212.792 243.283Z" fill="#FF8B7B"/>
<path d="M248.264 241.05L243.537 242.074L238.796 231.644L243.523 230.627L248.264 241.05Z" fill="#FF8B7B"/>
<path d="M243.084 241.599L248.388 240.452C248.58 240.411 248.779 240.507 248.862 240.686L250.703 244.684C250.895 245.097 250.641 245.584 250.194 245.674C248.333 246.045 247.412 246.127 245.076 246.636C243.64 246.945 240.397 247.735 238.418 248.168C236.481 248.587 235.753 246.69 236.529 246.34C239.999 244.753 241.441 243.358 242.383 242.06C242.555 241.826 242.802 241.661 243.084 241.606V241.599Z" fill="#001640"/>
<path d="M207.996 242.726H213.273C213.472 242.726 213.644 242.864 213.685 243.056L214.64 247.35C214.736 247.797 214.399 248.216 213.946 248.209C212.043 248.175 209.295 248.065 206.897 248.065C204.1 248.065 201.682 248.216 198.405 248.216C196.419 248.216 195.87 246.21 196.701 246.031C200.48 245.207 203.571 245.117 206.835 243.104C207.192 242.884 207.584 242.726 207.996 242.726Z" fill="#001640"/>
<path d="M227.529 78.3437C232.056 79.3812 235.794 90.9441 235.794 90.9441L226.697 97.8764C226.697 97.8764 223.358 94.7298 221.874 88.9449C220.315 82.8851 222.898 77.2788 227.529 78.3437Z" fill="#3F80FF"/>
<path opacity="0.4" d="M227.529 78.3437C232.056 79.3812 235.794 90.9441 235.794 90.9441L226.697 97.8764C226.697 97.8764 223.358 94.7298 221.874 88.9449C220.315 82.8851 222.898 77.2788 227.529 78.3437Z" fill="black"/>
<path d="M203.709 92.1397C202.575 93.3626 201.448 94.4413 200.287 95.5612C199.71 96.1177 199.113 96.6604 198.508 97.1963L197.594 97.9933L197.367 98.1925C197.258 98.2887 197.12 98.3987 196.976 98.5155C196.674 98.7422 196.344 98.9964 195.65 99.2987C195.286 99.443 194.812 99.6285 193.98 99.6422C193.589 99.6422 193.053 99.5804 192.538 99.388C192.015 99.1956 191.507 98.859 191.163 98.5155C190.442 97.7941 190.229 97.162 190.085 96.736C189.954 96.2963 189.913 95.9871 189.886 95.7123C189.844 95.1764 189.872 94.8191 189.899 94.4825C189.934 94.1527 189.975 93.8641 190.03 93.5962C190.229 92.5382 190.518 91.6793 190.827 90.8274C191.143 89.9823 191.486 89.1648 191.892 88.3472C192.325 87.4746 192.751 86.8357 193.17 86.1074C194.867 83.2699 196.859 80.6798 198.975 78.2339C201.139 75.8086 203.407 73.5894 206.017 71.5558L208.546 74.1597C206.766 76.5369 205.021 79.0858 203.407 81.5935C201.792 84.1218 200.301 86.6983 199.009 89.3228C198.714 89.9686 198.35 90.6763 198.144 91.219C197.903 91.8099 197.683 92.4488 197.498 93.0741C197.319 93.6924 197.175 94.3382 197.106 94.8123C197.093 94.9291 197.086 95.0253 197.086 95.0871C197.086 95.1421 197.099 95.1695 197.086 95.0253C197.079 94.9428 197.072 94.826 196.996 94.5787C196.914 94.3382 196.783 93.8848 196.206 93.3008C195.925 93.026 195.506 92.7374 195.073 92.5862C194.654 92.4214 194.214 92.3733 193.918 92.3733C193.28 92.387 192.998 92.5175 192.812 92.5862C192.476 92.7305 192.469 92.7717 192.469 92.758L192.73 92.5175L193.554 91.7618L195.196 90.2228C196.282 89.1991 197.374 88.1067 198.412 87.0899L203.702 92.1603L203.709 92.1397Z" fill="#FF8B7B"/>
<path opacity="0.2" d="M223.647 86.8495C226.107 89.2816 226.91 93.7199 227.103 97.5743L226.704 97.8834C226.704 97.8834 223.365 94.7299 221.874 88.9518C221.785 88.5877 221.703 88.2304 221.641 87.8732L223.654 86.8564L223.647 86.8495Z" fill="black"/>
<path d="M198.907 83.1875C197.917 88.409 197.299 99.1269 200.171 120.363H226.017C226.196 116.392 223.702 97.0383 227.529 78.3438C227.529 78.3438 223.097 77.4575 218.879 77.2514C215.574 77.0934 210.792 76.9903 207.893 77.2514C206.684 77.3613 205.488 77.5399 204.43 77.7254C201.634 78.2201 199.436 80.3981 198.913 83.1875H198.907Z" fill="#3F80FF"/>
<path opacity="0.4" d="M198.907 83.1875C197.917 88.409 197.299 99.1269 200.171 120.363H226.017C226.196 116.392 223.702 97.0383 227.529 78.3438C227.529 78.3438 223.097 77.4575 218.879 77.2514C215.574 77.0934 210.792 76.9903 207.893 77.2514C206.684 77.3613 205.488 77.5399 204.43 77.7254C201.634 78.2201 199.436 80.3981 198.913 83.1875H198.907Z" fill="black"/>
<path opacity="0.2" d="M202.864 90.903L198.192 89.7831C198.048 92.6137 198.034 96.1177 198.247 100.453C200.397 98.007 203.139 94.1939 202.864 90.903Z" fill="black"/>
<path opacity="0.2" d="M207.481 232.098L207.728 237.869H212.565L212.318 232.098H207.481Z" fill="black"/>
<path opacity="0.2" d="M243.523 230.627L238.796 231.651L241.242 237.024L245.969 236L243.523 230.627Z" fill="black"/>
<path d="M219.806 61.2844C218.563 65.9151 218.075 68.6908 215.217 70.6145C210.916 73.5138 205.564 70.1886 205.392 65.2762C205.241 60.8585 207.295 54.0224 212.27 53.088C217.168 52.1673 221.05 56.6469 219.806 61.2776V61.2844Z" fill="#FF8B7B"/>
<path d="M208.965 61.463C208.738 60.8447 207.666 56.056 208.669 54.8124C209.673 53.5689 221.112 54.462 222.802 56.1247C225.605 58.8866 223.661 61.3531 220.59 64.5272C218.281 66.9182 218.192 69.6114 217.024 70.0099C214.983 70.7038 211.816 70.0511 211.177 67.8732C210.545 65.6952 208.958 61.463 208.958 61.463H208.965Z" fill="#001640"/>
<path d="M221.414 50.6834C217.367 48.9589 209.789 50.8689 205.701 49.8795C205.557 52.0025 206.835 55.3965 210.93 56.3103C210.93 56.3103 216.742 57.4439 221.236 57.2584C225.729 57.0729 224.856 52.1399 221.421 50.6834H221.414Z" fill="#001640"/>
<path d="M222.046 56.2758C222.046 56.2758 224.547 56.5575 226.32 55.4583C227.075 57.2858 222.926 57.7873 222.046 56.2758Z" fill="#001640"/>
<path d="M211.163 61.6554C211.088 62.9127 210.504 64.0876 209.803 64.8639C208.752 66.025 207.653 65.3036 207.46 63.8883C207.295 62.6173 207.639 60.4806 208.924 59.8416C210.195 59.2095 211.239 60.2264 211.157 61.6623L211.163 61.6554Z" fill="#FF8B7B"/>
<path d="M209.336 120.363C209.336 120.363 214.819 157.292 217.828 171.129C221.126 186.279 238.803 236.405 238.803 236.405L247.453 234.53C247.453 234.53 235.093 193.678 232.325 172.496C230.202 156.227 226.011 120.357 226.011 120.357H209.329L209.336 120.363Z" fill="#3F80FF"/>
<path d="M236.735 233.52C236.701 233.527 238.35 236.646 238.35 236.646L248.085 234.537L247.268 231.61L236.742 233.513L236.735 233.52Z" fill="#001640"/>
<path opacity="0.3" d="M212.806 133.52C219.147 134.764 218.474 158.412 217.711 170.573C215.883 161.978 213.204 145.434 211.376 133.692C211.796 133.479 212.27 133.417 212.806 133.52Z" fill="black"/>
<path d="M200.164 120.364C200.164 120.364 199.497 156.495 200.026 171.232C200.576 186.56 205.928 236.749 205.928 236.749H214.118C214.118 236.749 214.42 187.453 214.784 172.4C215.183 155.987 217.161 120.364 217.161 120.364H200.171H200.164Z" fill="#3F80FF"/>
<path d="M204.355 233.485C204.32 233.485 204.815 236.886 204.815 236.886H214.77L215.038 233.856L204.348 233.492L204.355 233.485Z" fill="#001640"/>
<path d="M209.034 84.7746C211.349 91.0198 197.739 98.3781 197.739 98.3781L191.844 90.7999C191.844 90.7999 195.774 82.9745 200.604 79.45C206.567 75.0941 207.275 80.0271 209.034 84.7814V84.7746Z" fill="#3F80FF"/>
<path opacity="0.4" d="M209.034 84.7746C211.349 91.0198 197.739 98.3781 197.739 98.3781L191.844 90.7999C191.844 90.7999 195.774 82.9745 200.604 79.45C206.567 75.0941 207.275 80.0271 209.034 84.7814V84.7746Z" fill="black"/>
<path d="M262.362 37.3615C276.056 37.3615 287.158 30.2867 287.158 21.5595C287.158 12.8323 276.056 5.75745 262.362 5.75745C248.668 5.75745 237.567 12.8323 237.567 21.5595C237.567 30.2867 248.668 37.3615 262.362 37.3615Z" fill="#3F80FF"/>
<path d="M253.417 29.5155C252.043 29.5155 250.696 29.1033 249.528 28.3063C247.962 27.2414 246.924 25.62 246.594 23.7512C245.976 20.1717 248.353 16.6128 251.892 15.8021C254.805 15.1425 257.766 16.3861 259.325 18.9075L275.244 15.6234C276.536 15.3555 277.841 16.125 278.164 17.3411C278.336 17.9869 278.233 18.6533 277.882 19.2167C277.532 19.7801 276.982 20.1648 276.33 20.3022L275.911 20.3915C275.787 20.419 275.684 20.4946 275.622 20.6045C275.56 20.7144 275.553 20.845 275.595 20.9618L275.876 21.6901C276.069 22.1847 275.89 22.7412 275.45 23.0092C275.114 23.2222 274.88 23.5863 274.832 23.9779C274.777 24.4657 274.454 24.8367 274.008 24.9329L273.678 25.0016C273.231 25.0909 272.785 24.8779 272.544 24.452C272.256 23.9573 271.685 23.7031 271.122 23.8199C270.559 23.9367 270.133 24.397 270.064 24.9673C270.002 25.4551 269.679 25.8261 269.233 25.9223L268.91 25.991C268.47 26.0803 268.017 25.8673 267.776 25.4413C267.577 25.0978 267.22 24.8505 266.821 24.7955C266.313 24.7199 265.928 24.2802 265.907 23.7512L265.873 22.968C265.873 22.8443 265.811 22.7275 265.708 22.6519C265.612 22.5763 265.488 22.542 265.358 22.5695L260.287 23.6138C259.854 26.4856 257.69 28.7872 254.825 29.3781C254.351 29.4743 253.877 29.5224 253.403 29.5224L253.417 29.5155ZM252.043 16.4754C248.855 17.1968 246.718 20.4121 247.275 23.6344C247.563 25.3177 248.504 26.7811 249.913 27.7429C251.321 28.7048 253.025 29.0483 254.695 28.6979C257.354 28.1483 259.339 25.9703 259.648 23.2771L259.676 23.0298L265.234 21.8824C265.557 21.8137 265.887 21.8962 266.148 22.0954C266.409 22.2947 266.56 22.597 266.574 22.9267L266.608 23.71C266.615 23.9092 266.759 24.0741 266.938 24.1016C267.549 24.1909 268.078 24.5482 268.388 25.0841C268.463 25.2146 268.607 25.3383 268.793 25.3039L269.116 25.2352C269.294 25.2009 269.384 25.0222 269.397 24.8711C269.501 24.0054 270.146 23.3115 270.998 23.1328C271.85 22.9542 272.716 23.3458 273.149 24.0947C273.224 24.2253 273.369 24.3558 273.554 24.3146L273.884 24.2459C274.063 24.2115 274.152 24.0329 274.166 23.8886C274.234 23.2771 274.578 22.7412 275.1 22.4114C275.251 22.3153 275.313 22.1023 275.244 21.9236L274.963 21.1954C274.846 20.8931 274.866 20.5496 275.024 20.261C275.182 19.9724 275.457 19.7732 275.773 19.7045L276.192 19.6152C276.66 19.519 277.051 19.2442 277.298 18.8457C277.546 18.4403 277.621 17.9663 277.498 17.5059C277.271 16.6403 276.323 16.0975 275.382 16.2899L258.982 19.677L258.858 19.464C257.484 17.0662 254.75 15.857 252.043 16.4754ZM253.424 26.9803C252.572 26.9803 251.74 26.733 251.012 26.252C250.03 25.6062 249.356 24.6169 249.123 23.4626C248.882 22.3084 249.109 21.1335 249.755 20.1511C250.401 19.1686 251.39 18.5022 252.544 18.2617C253.698 18.0212 254.873 18.248 255.856 18.8938C256.838 19.5396 257.505 20.5289 257.745 21.6832C257.986 22.8374 257.759 24.0054 257.113 24.9879C256.467 25.9703 255.478 26.6436 254.324 26.8772C254.028 26.9391 253.726 26.9666 253.424 26.9666V26.9803ZM253.444 18.8663C253.19 18.8663 252.936 18.8938 252.682 18.9419C251.713 19.1411 250.875 19.7114 250.332 20.5358C249.789 21.3671 249.597 22.3565 249.796 23.3252C249.995 24.294 250.566 25.1321 251.39 25.6749C252.221 26.2177 253.211 26.4101 254.179 26.2108C255.155 26.0116 255.986 25.4413 256.529 24.6169C257.072 23.7855 257.264 22.7962 257.065 21.8275C256.866 20.8519 256.296 20.0205 255.471 19.4709C254.86 19.0655 254.159 18.8594 253.444 18.8594V18.8663Z" fill="white"/>
<path opacity="0.6" d="M242.184 46.6298C246.684 46.6298 250.332 44.3044 250.332 41.4358C250.332 38.5672 246.684 36.2417 242.184 36.2417C237.684 36.2417 234.035 38.5672 234.035 41.4358C234.035 44.3044 237.684 46.6298 242.184 46.6298Z" fill="#3F80FF"/>
<path opacity="0.3" d="M229.219 48.7527C231.067 48.7527 232.565 47.7992 232.565 46.6229C232.565 45.4466 231.067 44.493 229.219 44.493C227.371 44.493 225.873 45.4466 225.873 46.6229C225.873 47.7992 227.371 48.7527 229.219 48.7527Z" fill="#3F80FF"/>
</g>
<defs>
<clipPath id="clip0_316_4640">
<rect width="343.523" height="256" fill="white"/>
</clipPath>
</defs>
</svg>
