<svg width="277" height="256" viewBox="0 0 277 256" fill="none" xmlns="http://www.w3.org/2000/svg">
<g clip-path="url(#clip0_352_12091)">
<path d="M29.2174 176.178H13.4507V182.841H29.2174V176.178Z" fill="#EBEBEB"/>
<path d="M20.4229 184.58H4.65625V191.242H20.4229V184.58Z" fill="#EBEBEB"/>
<path d="M52.2066 0.869324H36.4399V7.53205H52.2066V0.869324Z" fill="#EBEBEB"/>
<path d="M43.4063 9.27063H27.6396V15.9334H43.4063V9.27063Z" fill="#EBEBEB"/>
<path d="M34.6475 0.869324H18.8809V7.53205H34.6475V0.869324Z" fill="#EBEBEB"/>
<path d="M272.541 168.694H256.774V175.357H272.541V168.694Z" fill="#EBEBEB"/>
<path d="M177.917 0.869324H162.15V7.53205H177.917V0.869324Z" fill="#EBEBEB"/>
<path d="M264.658 104.299H248.891V110.962H264.658V104.299Z" fill="#EBEBEB"/>
<path d="M254.184 0H238.417V6.66273H254.184V0Z" fill="#EBEBEB"/>
<path d="M262.979 8.40137H247.212V15.0641H262.979V8.40137Z" fill="#EBEBEB"/>
<path d="M18.8809 56.7255H3.11426V63.3882H18.8809V56.7255Z" fill="#EBEBEB"/>
<path d="M36.9576 90.8965H21.1909V97.5593H36.9576V90.8965Z" fill="#EBEBEB"/>
<path d="M134.517 256C204.836 256 261.841 253.268 261.841 249.897C261.841 246.526 204.836 243.794 134.517 243.794C64.1979 243.794 7.19287 246.526 7.19287 249.897C7.19287 253.268 64.1979 256 134.517 256Z" fill="#EBEBEB"/>
<path d="M0 229.325L34.5343 229.176L69.0685 229.129L138.143 229.028L207.212 229.123L241.752 229.176L276.286 229.325L241.752 229.468L207.212 229.522L138.143 229.623L69.0685 229.522L34.5343 229.468L0 229.325Z" fill="#001640"/>
<path d="M256.774 25.2338H57.6484V224.359H256.774V25.2338Z" fill="#455A64"/>
<path d="M247.367 36.1061H67.0503V213.207H247.367V36.1061Z" fill="#DBDBDB"/>
<path d="M247.367 168.878H67.0503V175.172H247.367V168.878Z" fill="#455A64"/>
<path d="M247.367 121.864H67.0503V128.158H247.367V121.864Z" fill="#455A64"/>
<path d="M247.367 74.8381H67.0503V81.1316H247.367V74.8381Z" fill="#455A64"/>
<path d="M73.3496 57.2733H87.2288C88.247 57.2733 89.0686 58.1009 89.0686 59.1131V72.9923C89.0686 74.0105 88.241 74.8321 87.2288 74.8321H73.3496C72.3314 74.8321 71.5098 74.0045 71.5098 72.9923V59.1131C71.5098 58.0949 72.3374 57.2733 73.3496 57.2733Z" fill="white"/>
<path d="M105.359 57.2733H91.4741C90.458 57.2733 89.6343 58.097 89.6343 59.1131V72.9982C89.6343 74.0144 90.458 74.8381 91.4741 74.8381H105.359C106.375 74.8381 107.199 74.0144 107.199 72.9982V59.1131C107.199 58.097 106.375 57.2733 105.359 57.2733Z" fill="white"/>
<path d="M87.2348 39.3214H73.3496C72.3335 39.3214 71.5098 40.1451 71.5098 41.1613V55.0464C71.5098 56.0625 72.3335 56.8862 73.3496 56.8862H87.2348C88.2509 56.8862 89.0746 56.0625 89.0746 55.0464V41.1613C89.0746 40.1451 88.2509 39.3214 87.2348 39.3214Z" fill="white"/>
<path d="M105.359 39.3214H91.4741C90.458 39.3214 89.6343 40.1451 89.6343 41.1613V55.0464C89.6343 56.0625 90.458 56.8862 91.4741 56.8862H105.359C106.375 56.8862 107.199 56.0625 107.199 55.0464V41.1613C107.199 40.1451 106.375 39.3214 105.359 39.3214Z" fill="white"/>
<path d="M123.46 57.2733H109.575C108.559 57.2733 107.735 58.097 107.735 59.1131V72.9982C107.735 74.0144 108.559 74.8381 109.575 74.8381H123.46C124.476 74.8381 125.3 74.0144 125.3 72.9982V59.1131C125.3 58.097 124.476 57.2733 123.46 57.2733Z" fill="white"/>
<path d="M123.46 39.3214H109.575C108.559 39.3214 107.735 40.1451 107.735 41.1613V55.0464C107.735 56.0625 108.559 56.8862 109.575 56.8862H123.46C124.476 56.8862 125.3 56.0625 125.3 55.0464V41.1613C125.3 40.1451 124.476 39.3214 123.46 39.3214Z" fill="white"/>
<path d="M126.104 52.1288H70.3428V66.0616H126.104V52.1288Z" fill="#C7C7C7"/>
<path d="M144.627 57.2733H130.742C129.726 57.2733 128.902 58.097 128.902 59.1131V72.9982C128.902 74.0144 129.726 74.8381 130.742 74.8381H144.627C145.643 74.8381 146.467 74.0144 146.467 72.9982V59.1131C146.467 58.097 145.643 57.2733 144.627 57.2733Z" fill="white"/>
<path d="M162.758 57.2733H148.873C147.856 57.2733 147.033 58.097 147.033 59.1131V72.9982C147.033 74.0144 147.856 74.8381 148.873 74.8381H162.758C163.774 74.8381 164.598 74.0144 164.598 72.9982V59.1131C164.598 58.097 163.774 57.2733 162.758 57.2733Z" fill="white"/>
<path d="M144.627 39.3214H130.742C129.726 39.3214 128.902 40.1451 128.902 41.1613V55.0464C128.902 56.0625 129.726 56.8862 130.742 56.8862H144.627C145.643 56.8862 146.467 56.0625 146.467 55.0464V41.1613C146.467 40.1451 145.643 39.3214 144.627 39.3214Z" fill="white"/>
<path d="M162.758 39.3214H148.873C147.856 39.3214 147.033 40.1451 147.033 41.1613V55.0464C147.033 56.0625 147.856 56.8862 148.873 56.8862H162.758C163.774 56.8862 164.598 56.0625 164.598 55.0464V41.1613C164.598 40.1451 163.774 39.3214 162.758 39.3214Z" fill="white"/>
<path d="M180.858 57.2733H166.973C165.957 57.2733 165.133 58.097 165.133 59.1131V72.9982C165.133 74.0144 165.957 74.8381 166.973 74.8381H180.858C181.874 74.8381 182.698 74.0144 182.698 72.9982V59.1131C182.698 58.097 181.874 57.2733 180.858 57.2733Z" fill="white"/>
<path d="M180.858 39.3214H166.973C165.957 39.3214 165.133 40.1451 165.133 41.1613V55.0464C165.133 56.0625 165.957 56.8862 166.973 56.8862H180.858C181.874 56.8862 182.698 56.0625 182.698 55.0464V41.1613C182.698 40.1451 181.874 39.3214 180.858 39.3214Z" fill="white"/>
<path d="M183.502 52.1288H127.741V66.0616H183.502V52.1288Z" fill="#EBEBEB"/>
<path d="M85.514 112.361V121.864H70.3428V112.361C70.3428 108.027 72.7066 105.383 72.7066 104.026C72.7066 102.668 70.9501 100.572 70.9501 97.9284C70.9501 95.2848 74.4035 93.0817 74.4035 91.1168V85.5616H81.4414V91.1168C81.4414 93.0817 84.8948 95.2848 84.8948 97.9284C84.8948 100.572 83.1383 102.674 83.1383 104.026C83.1383 105.377 85.5021 108.027 85.5021 112.361H85.514Z" fill="#C7C7C7"/>
<path d="M82.5309 83.6682H73.3198V86.7822H82.5309V83.6682Z" fill="#EBEBEB"/>
<path d="M85.514 112.939H70.3428V118.458H85.514V112.939Z" fill="white"/>
<path d="M102.37 112.361V121.864H87.1992V112.361C87.1992 108.027 89.563 105.383 89.563 104.026C89.563 102.668 87.8065 100.572 87.8065 97.9284C87.8065 95.2848 91.26 93.0817 91.26 91.1168V85.5616H98.2978V91.1168C98.2978 93.0817 101.751 95.2848 101.751 97.9284C101.751 100.572 99.9948 102.674 99.9948 104.026C99.9948 105.377 102.359 108.027 102.359 112.361H102.37Z" fill="#C7C7C7"/>
<path d="M99.3932 83.6682H90.1821V86.7822H99.3932V83.6682Z" fill="#EBEBEB"/>
<path d="M102.376 112.939H87.2051V118.458H102.376V112.939Z" fill="white"/>
<path d="M178.566 93.8319V118.042C178.566 119.733 177.197 121.102 175.506 121.102H161.591C159.9 121.102 158.53 119.733 158.53 118.042V93.8319C158.53 92.1469 159.9 90.7774 161.591 90.7774H161.686V89.3187H175.41V90.7774H175.506C177.197 90.7774 178.566 92.1469 178.566 93.8319Z" fill="white"/>
<path d="M174.791 95.3979H162.311C160.93 95.3979 159.811 96.5175 159.811 97.8986V117.369C159.811 118.75 160.93 119.87 162.311 119.87H174.791C176.172 119.87 177.292 118.75 177.292 117.369V97.8986C177.292 96.5175 176.172 95.3979 174.791 95.3979Z" fill="#A6A6A6"/>
<path d="M177.363 86.3297H159.662V89.2412H177.363V86.3297Z" fill="#C7C7C7"/>
<path d="M173.749 105.21H163.353V115.702H173.749V105.21Z" fill="#EBEBEB"/>
<path d="M80.0363 153.368V167.14C80.0363 168.098 79.2563 168.878 78.2977 168.878H70.3846C69.426 168.878 68.646 168.098 68.646 167.14V153.368C68.646 152.409 69.426 151.629 70.3846 151.629H70.4382V150.802H78.2441V151.629H78.2977C79.2563 151.629 80.0363 152.409 80.0363 153.368Z" fill="white"/>
<path d="M78.3035 154.255H70.3607C69.8082 154.255 69.3604 154.703 69.3604 155.255V167.176C69.3604 167.728 69.8082 168.176 70.3607 168.176H78.3035C78.856 168.176 79.3038 167.728 79.3038 167.176V155.255C79.3038 154.703 78.856 154.255 78.3035 154.255Z" fill="#EBEBEB"/>
<path d="M79.3459 149.099H69.2773V150.754H79.3459V149.099Z" fill="#A6A6A6"/>
<path d="M79.9826 133.606V147.378C79.9826 148.337 79.2026 149.116 78.244 149.116H70.3309C69.3723 149.116 68.5923 148.337 68.5923 147.378V133.606C68.5923 132.647 69.3723 131.867 70.3309 131.867H70.3845V131.04H78.1904V131.867H78.244C79.2026 131.867 79.9826 132.647 79.9826 133.606Z" fill="white"/>
<path d="M78.2562 134.499H70.3133C69.7608 134.499 69.313 134.947 69.313 135.499V147.42C69.313 147.972 69.7608 148.42 70.3133 148.42H78.2562C78.8086 148.42 79.2565 147.972 79.2565 147.42V135.499C79.2565 134.947 78.8086 134.499 78.2562 134.499Z" fill="#EBEBEB"/>
<path d="M79.298 129.337H69.2295V130.992H79.298V129.337Z" fill="#A6A6A6"/>
<path d="M92.0935 153.368V167.14C92.0935 168.098 91.3135 168.878 90.3549 168.878H82.4418C81.4831 168.878 80.7031 168.098 80.7031 167.14V153.368C80.7031 152.409 81.4831 151.629 82.4418 151.629H82.4953V150.802H90.3013V151.629H90.3549C91.3135 151.629 92.0935 152.409 92.0935 153.368Z" fill="white"/>
<path d="M90.3607 154.255H82.4178C81.8653 154.255 81.4175 154.703 81.4175 155.255V167.176C81.4175 167.728 81.8653 168.176 82.4178 168.176H90.3607C90.9131 168.176 91.361 167.728 91.361 167.176V155.255C91.361 154.703 90.9131 154.255 90.3607 154.255Z" fill="#EBEBEB"/>
<path d="M91.403 149.099H81.3345V150.754H91.403V149.099Z" fill="#A6A6A6"/>
<path d="M92.0398 133.606V147.378C92.0398 148.337 91.2598 149.116 90.3011 149.116H82.388C81.4294 149.116 80.6494 148.337 80.6494 147.378V133.606C80.6494 132.647 81.4294 131.867 82.388 131.867H82.4416V131.04H90.2476V131.867H90.3011C91.2598 131.867 92.0398 132.647 92.0398 133.606Z" fill="white"/>
<path d="M90.3133 134.499H82.3704C81.818 134.499 81.3701 134.947 81.3701 135.499V147.42C81.3701 147.972 81.818 148.42 82.3704 148.42H90.3133C90.8657 148.42 91.3136 147.972 91.3136 147.42V135.499C91.3136 134.947 90.8657 134.499 90.3133 134.499Z" fill="#EBEBEB"/>
<path d="M91.3551 129.337H81.2866V130.992H91.3551V129.337Z" fill="#A6A6A6"/>
<path d="M104.151 153.368V167.14C104.151 168.098 103.371 168.878 102.412 168.878H94.4989C93.5403 168.878 92.7603 168.098 92.7603 167.14V153.368C92.7603 152.409 93.5403 151.629 94.4989 151.629H94.5525V150.802H102.358V151.629H102.412C103.371 151.629 104.151 152.409 104.151 153.368Z" fill="white"/>
<path d="M102.418 154.255H94.4749C93.9225 154.255 93.4746 154.703 93.4746 155.255V167.176C93.4746 167.728 93.9225 168.176 94.4749 168.176H102.418C102.97 168.176 103.418 167.728 103.418 167.176V155.255C103.418 154.703 102.97 154.255 102.418 154.255Z" fill="#EBEBEB"/>
<path d="M103.46 149.099H93.3916V150.754H103.46V149.099Z" fill="#A6A6A6"/>
<path d="M104.097 133.606V147.378C104.097 148.337 103.317 149.116 102.358 149.116H94.4452C93.4865 149.116 92.7065 148.337 92.7065 147.378V133.606C92.7065 132.647 93.4865 131.867 94.4452 131.867H94.4988V131.04H102.305V131.867H102.358C103.317 131.867 104.097 132.647 104.097 133.606Z" fill="white"/>
<path d="M102.37 134.499H94.4271C93.8746 134.499 93.4268 134.947 93.4268 135.499V147.42C93.4268 147.972 93.8746 148.42 94.4271 148.42H102.37C102.922 148.42 103.37 147.972 103.37 147.42V135.499C103.37 134.947 102.922 134.499 102.37 134.499Z" fill="#EBEBEB"/>
<path d="M103.412 129.337H93.3438V130.992H103.412V129.337Z" fill="#A6A6A6"/>
<path d="M116.202 153.368V167.14C116.202 168.098 115.422 168.878 114.463 168.878H106.55C105.592 168.878 104.812 168.098 104.812 167.14V153.368C104.812 152.409 105.592 151.629 106.55 151.629H106.604V150.802H114.41V151.629H114.463C115.422 151.629 116.202 152.409 116.202 153.368Z" fill="white"/>
<path d="M114.475 154.255H106.533C105.98 154.255 105.532 154.703 105.532 155.255V167.176C105.532 167.728 105.98 168.176 106.533 168.176H114.475C115.028 168.176 115.476 167.728 115.476 167.176V155.255C115.476 154.703 115.028 154.255 114.475 154.255Z" fill="#EBEBEB"/>
<path d="M115.517 149.099H105.449V150.754H115.517V149.099Z" fill="#A6A6A6"/>
<path d="M116.154 133.606V147.378C116.154 148.337 115.374 149.116 114.415 149.116H106.502C105.544 149.116 104.764 148.337 104.764 147.378V133.606C104.764 132.647 105.544 131.867 106.502 131.867H106.556V131.04H114.362V131.867H114.415C115.374 131.867 116.154 132.647 116.154 133.606Z" fill="white"/>
<path d="M114.428 134.499H106.485C105.932 134.499 105.484 134.947 105.484 135.499V147.42C105.484 147.972 105.932 148.42 106.485 148.42H114.428C114.98 148.42 115.428 147.972 115.428 147.42V135.499C115.428 134.947 114.98 134.499 114.428 134.499Z" fill="#EBEBEB"/>
<path d="M115.464 129.337H105.395V130.992H115.464V129.337Z" fill="#A6A6A6"/>
<path d="M128.259 153.368V167.14C128.259 168.098 127.479 168.878 126.52 168.878H118.607C117.649 168.878 116.869 168.098 116.869 167.14V153.368C116.869 152.409 117.649 151.629 118.607 151.629H118.661V150.802H126.467V151.629H126.52C127.479 151.629 128.259 152.409 128.259 153.368Z" fill="white"/>
<path d="M126.533 154.255H118.59C118.037 154.255 117.589 154.703 117.589 155.255V167.176C117.589 167.728 118.037 168.176 118.59 168.176H126.533C127.085 168.176 127.533 167.728 127.533 167.176V155.255C127.533 154.703 127.085 154.255 126.533 154.255Z" fill="#EBEBEB"/>
<path d="M127.574 149.099H117.506V150.754H127.574V149.099Z" fill="#A6A6A6"/>
<path d="M128.212 133.606V147.378C128.212 148.337 127.432 149.116 126.473 149.116H118.56C117.601 149.116 116.821 148.337 116.821 147.378V133.606C116.821 132.647 117.601 131.867 118.56 131.867H118.614V131.04H126.419V131.867H126.473C127.432 131.867 128.212 132.647 128.212 133.606Z" fill="white"/>
<path d="M126.485 134.499H118.542C117.99 134.499 117.542 134.947 117.542 135.499V147.42C117.542 147.972 117.99 148.42 118.542 148.42H126.485C127.038 148.42 127.485 147.972 127.485 147.42V135.499C127.485 134.947 127.038 134.499 126.485 134.499Z" fill="#EBEBEB"/>
<path d="M127.521 129.337H117.453V130.992H127.521V129.337Z" fill="#A6A6A6"/>
<path d="M140.316 153.368V167.14C140.316 168.098 139.536 168.878 138.578 168.878H130.664C129.706 168.878 128.926 168.098 128.926 167.14V153.368C128.926 152.409 129.706 151.629 130.664 151.629H130.718V150.802H138.524V151.629H138.578C139.536 151.629 140.316 152.409 140.316 153.368Z" fill="white"/>
<path d="M138.596 154.255H130.647C130.094 154.255 129.646 154.703 129.646 155.255V167.176C129.646 167.728 130.094 168.176 130.647 168.176H138.596C139.148 168.176 139.596 167.728 139.596 167.176V155.255C139.596 154.703 139.148 154.255 138.596 154.255Z" fill="#EBEBEB"/>
<path d="M139.632 149.099H129.563V150.754H139.632V149.099Z" fill="#A6A6A6"/>
<path d="M140.269 133.606V147.378C140.269 148.337 139.489 149.116 138.53 149.116H130.617C129.658 149.116 128.878 148.337 128.878 147.378V133.606C128.878 132.647 129.658 131.867 130.617 131.867H130.671V131.04H138.477V131.867H138.53C139.489 131.867 140.269 132.647 140.269 133.606Z" fill="white"/>
<path d="M138.542 134.499H130.599C130.046 134.499 129.599 134.947 129.599 135.499V147.42C129.599 147.972 130.046 148.42 130.599 148.42H138.542C139.094 148.42 139.542 147.972 139.542 147.42V135.499C139.542 134.947 139.094 134.499 138.542 134.499Z" fill="#EBEBEB"/>
<path d="M139.578 129.337H129.51V130.992H139.578V129.337Z" fill="#A6A6A6"/>
<path d="M152.374 153.368V167.14C152.374 168.098 151.594 168.878 150.635 168.878H142.722C141.763 168.878 140.983 168.098 140.983 167.14V153.368C140.983 152.409 141.763 151.629 142.722 151.629H142.776V150.802H150.582V151.629H150.635C151.594 151.629 152.374 152.409 152.374 153.368Z" fill="white"/>
<path d="M150.647 154.255H142.704C142.151 154.255 141.704 154.703 141.704 155.255V167.176C141.704 167.728 142.151 168.176 142.704 168.176H150.647C151.199 168.176 151.647 167.728 151.647 167.176V155.255C151.647 154.703 151.199 154.255 150.647 154.255Z" fill="#EBEBEB"/>
<path d="M151.689 149.099H141.621V150.754H151.689V149.099Z" fill="#A6A6A6"/>
<path d="M152.326 133.606V147.378C152.326 148.337 151.546 149.116 150.587 149.116H142.674C141.716 149.116 140.936 148.337 140.936 147.378V133.606C140.936 132.647 141.716 131.867 142.674 131.867H142.728V131.04H150.534V131.867H150.587C151.546 131.867 152.326 132.647 152.326 133.606Z" fill="white"/>
<path d="M150.599 134.499H142.657C142.104 134.499 141.656 134.947 141.656 135.499V147.42C141.656 147.972 142.104 148.42 142.657 148.42H150.599C151.152 148.42 151.6 147.972 151.6 147.42V135.499C151.6 134.947 151.152 134.499 150.599 134.499Z" fill="#EBEBEB"/>
<path d="M151.635 129.337H141.567V130.992H151.635V129.337Z" fill="#A6A6A6"/>
<path d="M200.751 93.8319V118.042C200.751 119.733 199.382 121.102 197.691 121.102H183.776C182.085 121.102 180.715 119.733 180.715 118.042V93.8319C180.715 92.1469 182.085 90.7774 183.776 90.7774H183.871V89.3187H197.595V90.7774H197.691C199.382 90.7774 200.751 92.1469 200.751 93.8319Z" fill="white"/>
<path d="M196.97 95.3979H184.491C183.109 95.3979 181.99 96.5175 181.99 97.8986V117.369C181.99 118.75 183.109 119.87 184.491 119.87H196.97C198.352 119.87 199.471 118.75 199.471 117.369V97.8986C199.471 96.5175 198.352 95.3979 196.97 95.3979Z" fill="#A6A6A6"/>
<path d="M199.543 86.3297H181.841V89.2412H199.543V86.3297Z" fill="#C7C7C7"/>
<path d="M195.934 105.21H185.538V115.702H195.934V105.21Z" fill="#EBEBEB"/>
<path d="M222.93 93.8319V118.042C222.93 119.733 221.561 121.102 219.87 121.102H205.955C204.264 121.102 202.895 119.733 202.895 118.042V93.8319C202.895 92.1469 204.264 90.7774 205.955 90.7774H206.05V89.3187H219.775V90.7774H219.87C221.561 90.7774 222.93 92.1469 222.93 93.8319Z" fill="white"/>
<path d="M219.156 95.3979H206.676C205.294 95.3979 204.175 96.5175 204.175 97.8986V117.369C204.175 118.75 205.294 119.87 206.676 119.87H219.156C220.537 119.87 221.656 118.75 221.656 117.369V97.8986C221.656 96.5175 220.537 95.3979 219.156 95.3979Z" fill="#A6A6A6"/>
<path d="M221.728 86.3297H204.026V89.2412H221.728V86.3297Z" fill="#C7C7C7"/>
<path d="M218.113 105.21H207.717V115.702H218.113V105.21Z" fill="#EBEBEB"/>
<path d="M245.116 93.8319V118.042C245.116 119.733 243.746 121.102 242.055 121.102H228.141C226.45 121.102 225.08 119.733 225.08 118.042V93.8319C225.08 92.1469 226.45 90.7774 228.141 90.7774H228.236V89.3187H241.96V90.7774H242.055C243.746 90.7774 245.116 92.1469 245.116 93.8319Z" fill="white"/>
<path d="M241.335 95.3979H228.855C227.474 95.3979 226.354 96.5175 226.354 97.8986V117.369C226.354 118.75 227.474 119.87 228.855 119.87H241.335C242.716 119.87 243.836 118.75 243.836 117.369V97.8986C243.836 96.5175 242.716 95.3979 241.335 95.3979Z" fill="#A6A6A6"/>
<path d="M243.907 86.3297H226.206V89.2412H243.907V86.3297Z" fill="#C7C7C7"/>
<path d="M240.299 105.21H229.903V115.702H240.299V105.21Z" fill="#EBEBEB"/>
<path d="M181.99 130.135H154.517V168.819H181.99V130.135Z" fill="#C7C7C7"/>
<path d="M178.078 141.489H158.435V143.186H178.078V141.489Z" fill="#A6A6A6"/>
<path d="M176.065 144.71H160.447V146.407H176.065V144.71Z" fill="#A6A6A6"/>
<path d="M176.065 135.565H160.447V137.262H176.065V135.565Z" fill="#EBEBEB"/>
<path d="M178.929 157.214C178.929 160.501 174.148 163.168 168.253 163.168C162.359 163.168 157.578 160.501 157.578 157.214C157.578 153.927 162.359 151.26 168.253 151.26C174.148 151.26 178.929 153.927 178.929 157.214Z" fill="white"/>
<path d="M212.344 130.135H184.872V168.819H212.344V130.135Z" fill="#C7C7C7"/>
<path d="M208.427 141.489H188.784V143.186H208.427V141.489Z" fill="#A6A6A6"/>
<path d="M206.414 144.71H190.796V146.407H206.414V144.71Z" fill="#A6A6A6"/>
<path d="M206.414 135.565H190.796V137.262H206.414V135.565Z" fill="#EBEBEB"/>
<path d="M209.278 157.214C209.278 160.501 204.497 163.168 198.602 163.168C192.707 163.168 187.926 160.501 187.926 157.214C187.926 153.927 192.707 151.26 198.602 151.26C204.497 151.26 209.278 153.927 209.278 157.214Z" fill="white"/>
<path d="M242.692 130.135H215.22V168.819H242.692V130.135Z" fill="#C7C7C7"/>
<path d="M238.775 141.489H219.132V143.186H238.775V141.489Z" fill="#A6A6A6"/>
<path d="M236.762 144.71H221.144V146.407H236.762V144.71Z" fill="#A6A6A6"/>
<path d="M236.762 135.565H221.144V137.262H236.762V135.565Z" fill="#EBEBEB"/>
<path d="M239.632 157.214C239.632 160.501 234.851 163.168 228.956 163.168C223.061 163.168 218.28 160.501 218.28 157.214C218.28 153.927 223.061 151.26 228.956 151.26C234.851 151.26 239.632 153.927 239.632 157.214Z" fill="white"/>
<path d="M116.708 213.201H136.089V188.307H116.708V213.201Z" fill="#EBEBEB"/>
<path d="M119.429 200.632H133.66V195.327H119.429V200.632Z" fill="white"/>
<path d="M119.429 211.219H133.66V203.157H119.429V211.219Z" fill="white"/>
<path d="M115.577 192.189H137.22V188.307H115.577V192.189Z" fill="#C7C7C7"/>
<path d="M93.9927 213.201H113.374V188.307H93.9927V213.201Z" fill="#EBEBEB"/>
<path d="M96.7138 200.632H110.944V195.327H96.7138V200.632Z" fill="white"/>
<path d="M96.7138 211.219H110.944V203.157H96.7138V211.219Z" fill="white"/>
<path d="M92.8614 192.189H114.505V188.307H92.8614V192.189Z" fill="#C7C7C7"/>
<path d="M139.423 213.201H158.804V188.307H139.423V213.201Z" fill="#EBEBEB"/>
<path d="M142.138 200.632H156.369V195.327H142.138V200.632Z" fill="white"/>
<path d="M142.138 211.219H156.369V203.157H142.138V211.219Z" fill="white"/>
<path d="M138.292 192.189H159.936V188.307H138.292V192.189Z" fill="#C7C7C7"/>
<path d="M71.2837 213.201H90.6646V188.307H71.2837V213.201Z" fill="#EBEBEB"/>
<path d="M73.9927 200.632H88.2231V195.327H73.9927V200.632Z" fill="white"/>
<path d="M73.9927 211.219H88.2231V203.157H73.9927V211.219Z" fill="white"/>
<path d="M70.1525 192.189H91.7959V188.307H70.1525V192.189Z" fill="#C7C7C7"/>
<path d="M247.367 224.354H67.0503V229.17H247.367V224.354Z" fill="#001640"/>
<path d="M187.354 74.8381C187.354 74.8381 184.175 65.8711 185.496 61.5364C186.384 58.6248 190.76 56.6838 190.76 53.5995V50.2354H194.547C194.547 50.2354 201.108 63.9419 195.654 74.844H187.354V74.8381Z" fill="#EBEBEB"/>
<path d="M194.368 50.801H190.206C190.052 50.801 189.926 50.9263 189.926 51.0809V51.6584C189.926 51.813 190.052 51.9383 190.206 51.9383H194.368C194.523 51.9383 194.648 51.813 194.648 51.6584V51.0809C194.648 50.9263 194.523 50.801 194.368 50.801Z" fill="#EBEBEB"/>
<path d="M194.368 51.9383H190.206C190.052 51.9383 189.926 52.0636 189.926 52.2181V52.7957C189.926 52.9502 190.052 53.0755 190.206 53.0755H194.368C194.523 53.0755 194.648 52.9502 194.648 52.7957V52.2181C194.648 52.0636 194.523 51.9383 194.368 51.9383Z" fill="#EBEBEB"/>
<path d="M194.368 53.0756H190.206C190.052 53.0756 189.926 53.2009 189.926 53.3554V53.933C189.926 54.0875 190.052 54.2128 190.206 54.2128H194.368C194.523 54.2128 194.648 54.0875 194.648 53.933V53.3554C194.648 53.2009 194.523 53.0756 194.368 53.0756Z" fill="#EBEBEB"/>
<path d="M188.081 45.3232C188.081 45.3232 188.73 46.1568 188.646 47.0202C188.563 47.8835 188.164 48.6933 188.295 48.7469C188.426 48.7945 189.575 47.9907 189.748 46.9249C189.92 45.865 189.641 45.3173 189.641 45.3173H188.081V45.3232Z" fill="#EBEBEB"/>
<path d="M194.91 49.6221V47.294C194.91 46.9427 195.363 46.2163 196.172 46.2163C197.572 46.2163 199.269 47.8775 199.352 47.3119C199.435 46.7462 198.477 42.5366 195.178 42.5366H187.366V45.3172H188.956C189.307 45.3172 190.462 45.5316 190.462 47.2285V49.6161H194.91V49.6221Z" fill="white"/>
<path d="M195.089 48.1871H190.29C190.129 48.1871 189.998 48.3178 189.998 48.4789V50.414C189.998 50.5751 190.129 50.7058 190.29 50.7058H195.089C195.25 50.7058 195.381 50.5751 195.381 50.414V48.4789C195.381 48.3178 195.25 48.1871 195.089 48.1871Z" fill="#C7C7C7"/>
<path d="M187.366 42.1556V45.7102L185.913 45.3946V42.4711L187.366 42.1556Z" fill="#C7C7C7"/>
<path d="M192.689 56.0765C195.071 56.0765 196.47 59.4644 196.47 64.0551C196.47 67.0084 195.982 69.4912 195.66 70.8786C195.494 71.5871 194.862 72.0873 194.136 72.0873H189.075C188.366 72.0873 187.747 71.6169 187.563 70.9262C186.931 68.5564 185.741 63.2036 187.187 61.1673C189.134 58.4343 190.79 57.7675 191.498 56.0765H192.695H192.689Z" fill="white"/>
<path d="M217.536 74.8381C217.536 74.8381 214.357 65.8711 215.679 61.5364C216.566 58.6248 220.942 56.6838 220.942 53.5995V50.2354H224.729C224.729 50.2354 231.29 63.9419 225.836 74.844H217.536V74.8381Z" fill="#EBEBEB"/>
<path d="M224.556 50.801H220.394C220.24 50.801 220.114 50.9263 220.114 51.0809V51.6584C220.114 51.813 220.24 51.9383 220.394 51.9383H224.556C224.711 51.9383 224.836 51.813 224.836 51.6584V51.0809C224.836 50.9263 224.711 50.801 224.556 50.801Z" fill="#EBEBEB"/>
<path d="M224.556 51.9383H220.394C220.24 51.9383 220.114 52.0636 220.114 52.2181V52.7957C220.114 52.9502 220.24 53.0755 220.394 53.0755H224.556C224.711 53.0755 224.836 52.9502 224.836 52.7957V52.2181C224.836 52.0636 224.711 51.9383 224.556 51.9383Z" fill="#EBEBEB"/>
<path d="M224.556 53.0756H220.394C220.24 53.0756 220.114 53.2009 220.114 53.3554V53.933C220.114 54.0875 220.24 54.2128 220.394 54.2128H224.556C224.711 54.2128 224.836 54.0875 224.836 53.933V53.3554C224.836 53.2009 224.711 53.0756 224.556 53.0756Z" fill="#EBEBEB"/>
<path d="M218.269 45.3232C218.269 45.3232 218.918 46.1568 218.834 47.0202C218.751 47.8835 218.352 48.6933 218.483 48.7469C218.614 48.7945 219.763 47.9907 219.936 46.9249C220.108 45.865 219.829 45.3173 219.829 45.3173H218.269V45.3232Z" fill="#EBEBEB"/>
<path d="M225.098 49.6221V47.294C225.098 46.9427 225.551 46.2163 226.36 46.2163C227.76 46.2163 229.457 47.8775 229.54 47.3119C229.623 46.7462 228.665 42.5366 225.366 42.5366H217.554V45.3172H219.144C219.495 45.3172 220.65 45.5316 220.65 47.2285V49.6161H225.098V49.6221Z" fill="white"/>
<path d="M225.277 48.1871H220.478C220.317 48.1871 220.186 48.3178 220.186 48.4789V50.414C220.186 50.5751 220.317 50.7058 220.478 50.7058H225.277C225.438 50.7058 225.569 50.5751 225.569 50.414V48.4789C225.569 48.3178 225.438 48.1871 225.277 48.1871Z" fill="#C7C7C7"/>
<path d="M217.554 42.1556V45.7102L216.101 45.3946V42.4711L217.554 42.1556Z" fill="#C7C7C7"/>
<path d="M222.877 56.0765C225.259 56.0765 226.658 59.4644 226.658 64.0551C226.658 67.0084 226.17 69.4912 225.848 70.8786C225.682 71.5871 225.05 72.0873 224.324 72.0873H219.263C218.554 72.0873 217.935 71.6169 217.751 70.9262C217.119 68.5564 215.929 63.2036 217.375 61.1673C219.322 58.4343 220.978 57.7675 221.686 56.0765H222.883H222.877Z" fill="white"/>
<path d="M232.63 74.8381C232.63 74.8381 229.45 65.8711 230.772 61.5364C231.659 58.6248 236.036 56.6838 236.036 53.5995V50.2354H239.823C239.823 50.2354 246.384 63.9419 240.93 74.844H232.63V74.8381Z" fill="#EBEBEB"/>
<path d="M239.65 50.801H235.488C235.333 50.801 235.208 50.9263 235.208 51.0809V51.6584C235.208 51.813 235.333 51.9383 235.488 51.9383H239.65C239.804 51.9383 239.93 51.813 239.93 51.6584V51.0809C239.93 50.9263 239.804 50.801 239.65 50.801Z" fill="#EBEBEB"/>
<path d="M239.65 51.9383H235.488C235.333 51.9383 235.208 52.0636 235.208 52.2181V52.7957C235.208 52.9502 235.333 53.0755 235.488 53.0755H239.65C239.804 53.0755 239.93 52.9502 239.93 52.7957V52.2181C239.93 52.0636 239.804 51.9383 239.65 51.9383Z" fill="#EBEBEB"/>
<path d="M239.65 53.0756H235.488C235.333 53.0756 235.208 53.2009 235.208 53.3554V53.933C235.208 54.0875 235.333 54.2128 235.488 54.2128H239.65C239.804 54.2128 239.93 54.0875 239.93 53.933V53.3554C239.93 53.2009 239.804 53.0756 239.65 53.0756Z" fill="#EBEBEB"/>
<path d="M233.362 45.3232C233.362 45.3232 234.011 46.1568 233.928 47.0202C233.845 47.8835 233.446 48.6933 233.577 48.7469C233.708 48.7945 234.857 47.9907 235.029 46.9249C235.202 45.865 234.922 45.3173 234.922 45.3173H233.362V45.3232Z" fill="#EBEBEB"/>
<path d="M240.192 49.6221V47.294C240.192 46.9427 240.644 46.2163 241.454 46.2163C242.853 46.2163 244.55 47.8775 244.634 47.3119C244.717 46.7462 243.758 42.5366 240.46 42.5366H232.648V45.3172H234.238C234.589 45.3172 235.744 45.5316 235.744 47.2285V49.6161H240.192V49.6221Z" fill="white"/>
<path d="M240.371 48.1871H235.572C235.41 48.1871 235.28 48.3178 235.28 48.4789V50.414C235.28 50.5751 235.41 50.7058 235.572 50.7058H240.371C240.532 50.7058 240.662 50.5751 240.662 50.414V48.4789C240.662 48.3178 240.532 48.1871 240.371 48.1871Z" fill="#C7C7C7"/>
<path d="M232.648 42.1556V45.7102L231.189 45.3946V42.4711L232.648 42.1556Z" fill="#C7C7C7"/>
<path d="M237.971 56.0765C240.353 56.0765 241.752 59.4644 241.752 64.0551C241.752 67.0084 241.264 69.4912 240.942 70.8786C240.775 71.5871 240.144 72.0873 239.418 72.0873H234.357C233.648 72.0873 233.029 71.6169 232.844 70.9262C232.213 68.5564 231.022 63.2036 232.469 61.1673C234.416 58.4343 236.071 57.7675 236.78 56.0765H237.977H237.971Z" fill="white"/>
<path d="M118.202 107.485H107.443C105.944 107.485 104.728 108.7 104.728 110.2V119.149C104.728 120.649 105.944 121.864 107.443 121.864H118.202C119.702 121.864 120.917 120.649 120.917 119.149V110.2C120.917 108.7 119.702 107.485 118.202 107.485Z" fill="white"/>
<path d="M119.084 105.681H106.562V107.479H119.084V105.681Z" fill="#A6A6A6"/>
<path d="M121.025 110.968H104.728V118.375H121.025V110.968Z" fill="#EBEBEB"/>
<path d="M117.762 114.672C117.762 116.392 115.553 117.786 112.82 117.786C110.087 117.786 107.878 116.392 107.878 114.672C107.878 112.951 110.087 111.558 112.82 111.558C115.553 111.558 117.762 112.951 117.762 114.672Z" fill="white"/>
<path d="M135.964 107.485H125.204C123.705 107.485 122.489 108.7 122.489 110.2V119.149C122.489 120.649 123.705 121.864 125.204 121.864H135.964C137.463 121.864 138.679 120.649 138.679 119.149V110.2C138.679 108.7 137.463 107.485 135.964 107.485Z" fill="white"/>
<path d="M136.845 105.681H124.323V107.479H136.845V105.681Z" fill="#A6A6A6"/>
<path d="M138.786 110.968H122.489V118.375H138.786V110.968Z" fill="#EBEBEB"/>
<path d="M135.523 114.672C135.523 116.392 133.314 117.786 130.581 117.786C127.848 117.786 125.639 116.392 125.639 114.672C125.639 112.951 127.848 111.558 130.581 111.558C133.314 111.558 135.523 112.951 135.523 114.672Z" fill="white"/>
<path d="M153.731 107.485H142.972C141.472 107.485 140.257 108.7 140.257 110.2V119.149C140.257 120.649 141.472 121.864 142.972 121.864H153.731C155.231 121.864 156.446 120.649 156.446 119.149V110.2C156.446 108.7 155.231 107.485 153.731 107.485Z" fill="white"/>
<path d="M154.612 105.681H142.091V107.479H154.612V105.681Z" fill="#A6A6A6"/>
<path d="M156.553 110.968H140.257V118.375H156.553V110.968Z" fill="#EBEBEB"/>
<path d="M153.291 114.672C153.291 116.392 151.082 117.786 148.349 117.786C145.616 117.786 143.407 116.392 143.407 114.672C143.407 112.951 145.616 111.558 148.349 111.558C151.082 111.558 153.291 112.951 153.291 114.672Z" fill="white"/>
<path d="M118.202 90.9203H107.443C105.944 90.9203 104.728 92.1359 104.728 93.6355V102.585C104.728 104.084 105.944 105.3 107.443 105.3H118.202C119.702 105.3 120.917 104.084 120.917 102.585V93.6355C120.917 92.1359 119.702 90.9203 118.202 90.9203Z" fill="white"/>
<path d="M119.084 89.1222H106.562V90.9204H119.084V89.1222Z" fill="#A6A6A6"/>
<path d="M121.025 94.4095H104.728V101.816H121.025V94.4095Z" fill="#EBEBEB"/>
<path d="M117.762 98.113C117.762 99.8338 115.553 101.227 112.82 101.227C110.087 101.227 107.878 99.8338 107.878 98.113C107.878 96.3922 110.087 94.999 112.82 94.999C115.553 94.999 117.762 96.3922 117.762 98.113Z" fill="white"/>
<path d="M153.731 90.9203H142.972C141.472 90.9203 140.257 92.1359 140.257 93.6355V102.585C140.257 104.084 141.472 105.3 142.972 105.3H153.731C155.231 105.3 156.446 104.084 156.446 102.585V93.6355C156.446 92.1359 155.231 90.9203 153.731 90.9203Z" fill="white"/>
<path d="M154.612 89.1222H142.091V90.9204H154.612V89.1222Z" fill="#A6A6A6"/>
<path d="M156.553 94.4095H140.257V101.816H156.553V94.4095Z" fill="#EBEBEB"/>
<path d="M153.291 98.113C153.291 99.8338 151.082 101.227 148.349 101.227C145.616 101.227 143.407 99.8338 143.407 98.113C143.407 96.3922 145.616 94.999 148.349 94.999C151.082 94.999 153.291 96.3922 153.291 98.113Z" fill="white"/>
<path d="M233.749 178.131H227.676V185.443H233.749V178.131Z" fill="#EBEBEB"/>
<path d="M244.092 210.004L239.525 188.283C238.912 185.407 236.595 183.252 233.755 182.799C233.392 182.74 233.017 182.71 232.642 182.71H228.688C228.337 182.71 227.998 182.775 227.676 182.9C226.711 183.311 226.039 184.264 226.039 185.366V210.546C226.039 212.01 227.218 213.201 228.682 213.201H241.484C243.175 213.201 244.437 211.647 244.086 209.998L244.092 210.004ZM236.161 190.105C236.298 190.069 236.435 190.057 236.56 190.057C237.423 190.057 238.185 190.647 238.376 191.522L240.293 200.209C240.495 201.21 239.87 202.198 238.864 202.424C237.864 202.627 236.875 201.996 236.649 200.995L234.744 192.32C234.529 191.32 235.166 190.331 236.161 190.105Z" fill="#C7C7C7"/>
<path d="M229.54 186.3H231.886C232.862 186.3 233.589 187.241 233.291 188.17C232.963 189.2 232.761 190.677 233.112 192.665C233.898 197.155 234.994 202.728 235.357 203.46C235.661 204.068 237.096 205.217 239.317 204.609C240.12 204.389 240.96 204.848 241.156 205.663L241.651 207.718C241.871 208.64 241.174 209.528 240.228 209.528H229.546C228.736 209.528 228.081 208.873 228.081 208.063V187.771C228.081 186.961 228.736 186.306 229.546 186.306L229.54 186.3Z" fill="white"/>
<path d="M192.796 178.131H186.723V185.443H192.796V178.131Z" fill="#EBEBEB"/>
<path d="M203.133 210.004L198.566 188.283C197.953 185.407 195.636 183.252 192.796 182.799C192.433 182.74 192.058 182.71 191.683 182.71H187.729C187.378 182.71 187.039 182.775 186.717 182.9C185.752 183.311 185.08 184.264 185.08 185.366V210.546C185.08 212.01 186.259 213.201 187.723 213.201H200.525C202.216 213.201 203.478 211.647 203.127 209.998L203.133 210.004ZM195.202 190.105C195.339 190.069 195.476 190.057 195.601 190.057C196.464 190.057 197.226 190.647 197.417 191.522L199.334 200.209C199.536 201.21 198.911 202.198 197.905 202.424C196.905 202.627 195.916 201.996 195.69 200.995L193.785 192.32C193.57 191.32 194.207 190.331 195.202 190.105Z" fill="#C7C7C7"/>
<path d="M188.58 186.3H190.92C191.897 186.3 192.623 187.241 192.326 188.17C191.998 189.2 191.796 190.677 192.147 192.665C192.933 197.155 194.029 202.728 194.392 203.46C194.695 204.068 196.13 205.217 198.351 204.609C199.155 204.389 199.995 204.848 200.191 205.663L200.685 207.718C200.906 208.64 200.209 209.528 199.262 209.528H188.58C187.771 209.528 187.116 208.873 187.116 208.063V187.771C187.116 186.961 187.771 186.306 188.58 186.306V186.3Z" fill="white"/>
<path d="M172.314 178.131H166.241V185.443H172.314V178.131Z" fill="#EBEBEB"/>
<path d="M182.657 210.004L178.09 188.283C177.476 185.407 175.16 183.252 172.32 182.799C171.957 182.74 171.582 182.71 171.207 182.71H167.253C166.902 182.71 166.562 182.775 166.241 182.9C165.276 183.311 164.604 184.264 164.604 185.366V210.546C164.604 212.01 165.782 213.201 167.247 213.201H180.049C181.74 213.201 183.002 211.647 182.651 209.998L182.657 210.004ZM174.726 190.105C174.863 190.069 175 190.057 175.125 190.057C175.988 190.057 176.75 190.647 176.941 191.522L178.858 200.209C179.06 201.21 178.435 202.198 177.429 202.424C176.429 202.627 175.44 201.996 175.214 200.995L173.309 192.32C173.094 191.32 173.731 190.331 174.726 190.105Z" fill="#C7C7C7"/>
<path d="M168.104 186.3H170.444C171.421 186.3 172.147 187.241 171.85 188.17C171.522 189.2 171.32 190.677 171.671 192.665C172.457 197.155 173.552 202.728 173.916 203.46C174.219 204.068 175.654 205.217 177.875 204.609C178.679 204.389 179.519 204.848 179.715 205.663L180.209 207.718C180.43 208.64 179.733 209.528 178.786 209.528H168.104C167.295 209.528 166.64 208.873 166.64 208.063V187.771C166.64 186.961 167.295 186.306 168.104 186.306V186.3Z" fill="white"/>
<path d="M213.272 178.131H207.199V185.443H213.272V178.131Z" fill="#3F80FF"/>
<path d="M223.615 210.004L219.048 188.283C218.435 185.407 216.119 183.252 213.279 182.799C212.915 182.74 212.54 182.71 212.165 182.71H208.212C207.86 182.71 207.521 182.775 207.199 182.9C206.235 183.311 205.562 184.264 205.562 185.366V210.546C205.562 212.01 206.741 213.201 208.206 213.201H221.007C222.698 213.201 223.96 211.647 223.609 209.998L223.615 210.004ZM215.684 190.105C215.821 190.069 215.958 190.057 216.083 190.057C216.946 190.057 217.709 190.647 217.899 191.522L219.816 200.209C220.019 201.21 219.394 202.198 218.387 202.424C217.387 202.627 216.399 201.996 216.172 200.995L214.267 192.32C214.053 191.32 214.69 190.331 215.684 190.105Z" fill="#37474F"/>
<path d="M209.057 186.3H211.403C212.373 186.3 213.106 187.241 212.808 188.17C212.481 189.2 212.278 190.677 212.629 192.665C213.415 197.155 214.511 202.728 214.874 203.46C215.178 204.068 216.613 205.217 218.834 204.609C219.637 204.389 220.477 204.848 220.674 205.663L221.168 207.718C221.388 208.64 220.691 209.528 219.745 209.528H209.063C208.253 209.528 207.598 208.873 207.598 208.063V187.771C207.598 186.961 208.253 186.306 209.063 186.306L209.057 186.3Z" fill="white"/>
<path d="M239.304 199.981C241.675 186.354 232.55 173.386 218.924 171.015C205.298 168.645 192.33 177.769 189.959 191.395C187.588 205.022 196.712 217.99 210.339 220.361C223.965 222.731 236.933 213.607 239.304 199.981Z" stroke="#001640" stroke-width="2" stroke-miterlimit="10"/>
<path d="M230.957 199.949C233.325 190.922 227.927 181.684 218.9 179.316C209.873 176.948 200.636 182.346 198.267 191.373C195.899 200.4 201.297 209.638 210.324 212.006C219.351 214.374 228.589 208.976 230.957 199.949Z" stroke="#001640" stroke-miterlimit="10"/>
<path d="M214.618 170.623V175.529" stroke="#001640" stroke-width="2" stroke-miterlimit="10"/>
<path d="M189.575 195.672H194.481" stroke="#001640" stroke-width="2" stroke-miterlimit="10"/>
<path d="M214.618 220.716V215.809" stroke="#001640" stroke-width="2" stroke-miterlimit="10"/>
<path d="M239.662 195.672H234.755" stroke="#001640" stroke-width="2" stroke-miterlimit="10"/>
<path d="M217.071 195.672H212.165" stroke="#001640" stroke-miterlimit="10"/>
<path d="M214.618 198.125V193.219" stroke="#001640" stroke-miterlimit="10"/>
<path d="M135.964 90.9203H125.204C123.705 90.9203 122.489 92.1359 122.489 93.6355V102.585C122.489 104.084 123.705 105.3 125.204 105.3H135.964C137.463 105.3 138.679 104.084 138.679 102.585V93.6355C138.679 92.1359 137.463 90.9203 135.964 90.9203Z" fill="#3F80FF"/>
<path opacity="0.7" d="M135.964 90.9203H125.204C123.705 90.9203 122.489 92.1359 122.489 93.6355V102.585C122.489 104.084 123.705 105.3 125.204 105.3H135.964C137.463 105.3 138.679 104.084 138.679 102.585V93.6355C138.679 92.1359 137.463 90.9203 135.964 90.9203Z" fill="white"/>
<path d="M136.845 89.1222H124.323V90.9204H136.845V89.1222Z" fill="#37474F"/>
<path d="M138.786 94.4095H122.489V101.816H138.786V94.4095Z" fill="#3F80FF"/>
<path d="M135.523 98.113C135.523 99.8338 133.314 101.227 130.581 101.227C127.848 101.227 125.639 99.8338 125.639 98.113C125.639 96.3922 127.848 94.999 130.581 94.999C133.314 94.999 135.523 96.3922 135.523 98.113Z" fill="white"/>
<path d="M130.64 122.257C144.471 122.257 155.684 111.045 155.684 97.2139C155.684 83.3829 144.471 72.1706 130.64 72.1706C116.809 72.1706 105.597 83.3829 105.597 97.2139C105.597 111.045 116.809 122.257 130.64 122.257Z" stroke="#001640" stroke-width="2" stroke-miterlimit="10"/>
<path d="M130.641 114.112C139.973 114.112 147.539 106.546 147.539 97.2139C147.539 87.8814 139.973 80.3159 130.641 80.3159C121.308 80.3159 113.743 87.8814 113.743 97.2139C113.743 106.546 121.308 114.112 130.641 114.112Z" stroke="#001640" stroke-miterlimit="10"/>
<path d="M130.641 72.1647V77.0709" stroke="#001640" stroke-width="2" stroke-miterlimit="10"/>
<path d="M105.591 97.2139H110.498" stroke="#001640" stroke-width="2" stroke-miterlimit="10"/>
<path d="M130.641 122.257V117.351" stroke="#001640" stroke-width="2" stroke-miterlimit="10"/>
<path d="M155.684 97.2139H150.778" stroke="#001640" stroke-width="2" stroke-miterlimit="10"/>
<path d="M133.094 97.2139H128.182" stroke="#001640" stroke-miterlimit="10"/>
<path d="M130.641 99.6671V94.7608" stroke="#001640" stroke-miterlimit="10"/>
<path d="M202.448 74.8381C202.448 74.8381 199.268 65.8711 200.59 61.5364C201.477 58.6248 205.854 56.6838 205.854 53.5995V50.2354H209.641C209.641 50.2354 216.202 63.9419 210.748 74.844H202.448V74.8381Z" fill="#3F80FF"/>
<path d="M209.462 50.801H205.3C205.145 50.801 205.02 50.9263 205.02 51.0809V51.6584C205.02 51.813 205.145 51.9383 205.3 51.9383H209.462C209.616 51.9383 209.742 51.813 209.742 51.6584V51.0809C209.742 50.9263 209.616 50.801 209.462 50.801Z" fill="#3F80FF"/>
<path d="M209.462 51.9383H205.3C205.145 51.9383 205.02 52.0636 205.02 52.2181V52.7957C205.02 52.9502 205.145 53.0755 205.3 53.0755H209.462C209.616 53.0755 209.742 52.9502 209.742 52.7957V52.2181C209.742 52.0636 209.616 51.9383 209.462 51.9383Z" fill="#3F80FF"/>
<path d="M209.462 53.0756H205.3C205.145 53.0756 205.02 53.2009 205.02 53.3554V53.933C205.02 54.0875 205.145 54.2128 205.3 54.2128H209.462C209.616 54.2128 209.742 54.0875 209.742 53.933V53.3554C209.742 53.2009 209.616 53.0756 209.462 53.0756Z" fill="#3F80FF"/>
<path d="M203.174 45.3232C203.174 45.3232 203.823 46.1568 203.74 47.0202C203.657 47.8835 203.258 48.6933 203.389 48.7469C203.52 48.7945 204.669 47.9907 204.841 46.9249C205.014 45.865 204.734 45.3173 204.734 45.3173H203.174V45.3232Z" fill="#3F80FF"/>
<path d="M210.004 49.6221V47.294C210.004 46.9427 210.456 46.2163 211.266 46.2163C212.665 46.2163 214.362 47.8775 214.446 47.3119C214.529 46.7462 213.57 42.5366 210.272 42.5366H202.46V45.3172H204.05C204.401 45.3172 205.556 45.5316 205.556 47.2285V49.6161H210.004V49.6221Z" fill="white"/>
<path d="M210.183 48.1871H205.384C205.222 48.1871 205.092 48.3178 205.092 48.4789V50.414C205.092 50.5751 205.222 50.7058 205.384 50.7058H210.183C210.344 50.7058 210.474 50.5751 210.474 50.414V48.4789C210.474 48.3178 210.344 48.1871 210.183 48.1871Z" fill="#001640"/>
<path d="M202.46 42.1556V45.7102L201.007 45.3946V42.4711L202.46 42.1556Z" fill="#001640"/>
<path d="M207.783 56.0765C210.165 56.0765 211.564 59.4644 211.564 64.0551C211.564 67.0084 211.076 69.4912 210.754 70.8786C210.587 71.5871 209.956 72.0873 209.23 72.0873H204.169C203.46 72.0873 202.841 71.6169 202.656 70.9262C202.025 68.5564 200.834 63.2036 202.281 61.1673C204.228 58.4343 205.883 57.7675 206.592 56.0765H207.789H207.783Z" fill="white"/>
<path d="M231.46 65.3487C235.242 52.0448 227.524 38.1939 214.22 34.4117C200.916 30.6295 187.065 38.3484 183.283 51.6522C179.501 64.9561 187.219 78.807 200.523 82.5892C213.827 86.3714 227.678 78.6525 231.46 65.3487Z" stroke="#001640" stroke-width="2" stroke-miterlimit="10"/>
<path d="M224.036 61.2277C225.544 52.0179 219.3 43.3292 210.091 41.8211C200.881 40.3129 192.192 46.5563 190.684 55.7662C189.176 64.976 195.419 73.6646 204.629 75.1728C213.839 76.681 222.527 70.4375 224.036 61.2277Z" stroke="#001640" stroke-miterlimit="10"/>
<path d="M207.36 33.4506V38.3568" stroke="#001640" stroke-width="2" stroke-miterlimit="10"/>
<path d="M182.311 58.4998H187.217" stroke="#001640" stroke-width="2" stroke-miterlimit="10"/>
<path d="M207.36 83.5431V78.6368" stroke="#001640" stroke-width="2" stroke-miterlimit="10"/>
<path d="M232.404 58.4998H227.498" stroke="#001640" stroke-width="2" stroke-miterlimit="10"/>
<path d="M209.813 58.4998H204.907" stroke="#001640" stroke-miterlimit="10"/>
<path d="M207.36 60.9529V56.0467" stroke="#001640" stroke-miterlimit="10"/>
<path d="M185.67 243.853H113.648C112.856 243.853 112.207 243.21 112.207 242.413V233.886C112.207 233.886 112.207 233.844 112.207 233.827C112.207 233.797 112.207 233.767 112.207 233.743C112.207 233.69 112.219 233.642 112.231 233.588L120.936 201.615L109.653 131.712L93.9038 126.383C93.1417 126.163 92.7071 125.359 92.9274 124.597C93.1536 123.835 93.9455 123.4 94.7136 123.621L111.344 129.206C111.88 129.361 112.278 129.819 112.362 130.373L123.824 201.424C123.847 201.585 123.841 201.746 123.812 201.906L115.363 232.546L182.449 237.316C182.824 237.34 183.169 237.512 183.419 237.786L186.73 241.442C187.111 241.865 187.206 242.472 186.98 242.99C186.747 243.508 186.235 243.848 185.664 243.848L185.67 243.853ZM115.089 240.978H182.431L181.686 240.156L115.089 235.416V240.978Z" fill="#A6A6A6"/>
<path d="M106.538 125.615C100.894 123.722 95.2493 121.834 89.6047 119.941C85.5082 118.572 83.7517 125.038 87.8244 126.401C93.469 128.295 99.1135 130.182 104.758 132.076C108.855 133.445 110.611 126.979 106.538 125.615Z" fill="#3F80FF"/>
<path d="M196.917 191.016H121.067C120.799 191.016 120.584 190.802 120.584 190.534C120.584 190.266 120.799 190.051 121.067 190.051H196.917C197.185 190.051 197.399 190.266 197.399 190.534C197.399 190.802 197.185 191.016 196.917 191.016Z" fill="#A6A6A6"/>
<path d="M198.846 185.181H120.18C119.912 185.181 119.697 184.967 119.697 184.699C119.697 184.431 119.912 184.216 120.18 184.216H198.846C199.114 184.216 199.328 184.431 199.328 184.699C199.328 184.967 199.114 185.181 198.846 185.181Z" fill="#A6A6A6"/>
<path d="M200.633 179.352H119.286C119.019 179.352 118.804 179.137 118.804 178.869C118.804 178.602 119.019 178.387 119.286 178.387H200.633C200.9 178.387 201.115 178.602 201.115 178.869C201.115 179.137 200.9 179.352 200.633 179.352Z" fill="#A6A6A6"/>
<path d="M202.561 173.517H118.387C118.119 173.517 117.905 173.302 117.905 173.034C117.905 172.766 118.119 172.552 118.387 172.552H202.561C202.823 172.552 203.044 172.766 203.044 173.034C203.044 173.302 202.829 173.517 202.561 173.517Z" fill="#A6A6A6"/>
<path d="M204.407 167.682H117.494C117.226 167.682 117.012 167.467 117.012 167.199C117.012 166.931 117.226 166.717 117.494 166.717H204.407C204.675 166.717 204.889 166.931 204.889 167.199C204.889 167.467 204.675 167.682 204.407 167.682Z" fill="#A6A6A6"/>
<path d="M206.384 161.847H116.601C116.333 161.847 116.119 161.632 116.119 161.364C116.119 161.096 116.333 160.882 116.601 160.882H206.384C206.652 160.882 206.866 161.096 206.866 161.364C206.866 161.632 206.652 161.847 206.384 161.847Z" fill="#A6A6A6"/>
<path d="M208.272 156.017H115.708C115.44 156.017 115.226 155.803 115.226 155.535C115.226 155.267 115.44 155.053 115.708 155.053H208.272C208.54 155.053 208.754 155.267 208.754 155.535C208.754 155.803 208.54 156.017 208.272 156.017Z" fill="#A6A6A6"/>
<path d="M128.95 198.334C128.7 198.334 128.492 198.143 128.474 197.893L124.8 149.843C124.782 149.581 124.979 149.349 125.241 149.331C125.479 149.307 125.735 149.509 125.759 149.771L129.432 197.822C129.45 198.084 129.254 198.316 128.992 198.34C128.98 198.34 128.968 198.34 128.956 198.34L128.95 198.334Z" fill="#A6A6A6"/>
<path d="M188.42 195.202C188.379 195.202 188.337 195.202 188.295 195.184C188.039 195.113 187.89 194.851 187.956 194.594L200.168 149.676C200.239 149.42 200.501 149.271 200.757 149.337C201.013 149.408 201.162 149.67 201.097 149.926L188.885 194.845C188.825 195.059 188.635 195.196 188.42 195.196V195.202Z" fill="#A6A6A6"/>
<path d="M136.613 197.976C136.351 197.976 136.143 197.768 136.131 197.506L134.946 149.813C134.94 149.545 135.148 149.331 135.41 149.319H135.422C135.684 149.319 135.893 149.527 135.905 149.789L137.089 197.482C137.095 197.75 136.887 197.965 136.625 197.976H136.613Z" fill="#A6A6A6"/>
<path d="M144.479 197.548H144.467C144.205 197.548 143.99 197.322 143.996 197.06L144.877 149.789C144.877 149.527 145.098 149.319 145.36 149.319H145.372C145.634 149.319 145.848 149.545 145.842 149.807L144.961 197.077C144.961 197.339 144.74 197.548 144.479 197.548Z" fill="#A6A6A6"/>
<path d="M180.049 195.577C180.019 195.577 179.983 195.577 179.953 195.565C179.692 195.511 179.525 195.255 179.578 194.999L188.861 149.706C188.915 149.444 189.171 149.277 189.427 149.331C189.689 149.384 189.855 149.64 189.802 149.896L180.519 195.19C180.471 195.416 180.275 195.571 180.049 195.571V195.577Z" fill="#A6A6A6"/>
<path d="M170.51 196.149C170.51 196.149 170.457 196.149 170.433 196.143C170.171 196.101 169.992 195.851 170.04 195.595L177.554 149.73C177.596 149.468 177.846 149.289 178.102 149.337C178.364 149.378 178.543 149.629 178.495 149.885L170.981 195.75C170.945 195.982 170.737 196.149 170.51 196.149Z" fill="#A6A6A6"/>
<path d="M152.529 197.095C152.529 197.095 152.505 197.095 152.493 197.095C152.231 197.077 152.028 196.845 152.052 196.583L155.553 149.771C155.571 149.509 155.803 149.307 156.065 149.331C156.327 149.349 156.53 149.581 156.506 149.843L153.005 196.655C152.987 196.905 152.773 197.101 152.529 197.101V197.095Z" fill="#A6A6A6"/>
<path d="M161.954 196.482C161.954 196.482 161.918 196.482 161.9 196.482C161.638 196.452 161.448 196.214 161.478 195.952L166.616 149.748C166.646 149.486 166.872 149.289 167.146 149.325C167.408 149.355 167.599 149.593 167.569 149.855L162.43 196.059C162.401 196.303 162.198 196.488 161.954 196.488V196.482Z" fill="#A6A6A6"/>
<path d="M212.041 151.242H114.952C114.16 151.242 113.511 150.599 113.511 149.801C113.511 149.003 114.154 148.36 114.952 148.36H212.041C212.832 148.36 213.481 149.003 213.481 149.801C213.481 150.599 212.838 151.242 212.041 151.242Z" fill="#A6A6A6"/>
<path d="M122.407 198.947C122.15 198.947 121.942 198.75 121.93 198.494C121.918 198.232 122.121 198.006 122.383 197.988L195.315 194.088L209.677 149.658C209.76 149.408 210.028 149.265 210.278 149.349C210.528 149.432 210.671 149.7 210.588 149.95L196.125 194.69C196.066 194.88 195.893 195.011 195.697 195.023L122.436 198.941C122.436 198.941 122.418 198.941 122.412 198.941L122.407 198.947Z" fill="#A6A6A6"/>
<path d="M122.68 250.927C125.807 250.927 128.342 248.392 128.342 245.265C128.342 242.137 125.807 239.602 122.68 239.602C119.553 239.602 117.018 242.137 117.018 245.265C117.018 248.392 119.553 250.927 122.68 250.927Z" fill="#001640"/>
<path d="M125.252 245.265C125.252 246.688 124.103 247.837 122.68 247.837C121.257 247.837 120.108 246.688 120.108 245.265C120.108 243.842 121.257 242.692 122.68 242.692C124.103 242.692 125.252 243.842 125.252 245.265Z" fill="#A6A6A6"/>
<path d="M178.977 245.265C178.977 248.391 176.441 250.927 173.315 250.927C170.189 250.927 167.652 248.391 167.652 245.265C167.652 242.139 170.189 239.602 173.315 239.602C176.441 239.602 178.977 242.139 178.977 245.265Z" fill="#001640"/>
<path d="M175.887 245.265C175.887 246.688 174.738 247.837 173.315 247.837C171.892 247.837 170.743 246.688 170.743 245.265C170.743 243.842 171.892 242.692 173.315 242.692C174.738 242.692 175.887 243.842 175.887 245.265Z" fill="#A6A6A6"/>
<path d="M19.7372 210.873C19.7372 210.873 19.1001 236.071 19.1001 236.089C19.118 240.745 19.2132 244.83 19.4573 246.938C19.4573 246.95 19.4573 246.962 19.4573 246.973C19.5467 247.771 19.6657 248.277 19.8027 248.408C19.8146 248.42 19.8206 248.432 19.8325 248.438C21.2198 249.373 58.4453 250.338 59.7553 249.933C61.0711 249.534 60.0172 245.765 58.6061 244.574C57.183 243.383 43.1014 236.637 43.1014 236.637L43.5063 211.451L19.7372 210.867V210.873Z" fill="#D3766A"/>
<path d="M19.0592 231.088C19.0592 231.088 19.1009 236.071 19.1009 236.089C19.1187 240.745 19.214 244.83 19.4581 246.938C19.4581 246.95 19.4581 246.962 19.4581 246.973C19.5951 247.759 19.7201 248.277 19.8034 248.408C19.8154 248.42 19.8213 248.432 19.8332 248.438C21.2205 249.373 58.4461 250.338 59.756 249.933C61.0719 249.534 60.018 245.765 58.6069 244.574C57.1838 243.383 43.1022 236.637 43.1022 236.637L43.126 231.564L19.0532 231.082L19.0592 231.088Z" fill="white"/>
<path d="M45.3829 236.655C42.906 236.244 39.8932 236.691 38.0414 238.489C37.97 238.56 38.0712 238.661 38.1486 238.632C40.566 237.81 42.8345 237.268 45.377 236.964C45.5556 236.941 45.5556 236.679 45.377 236.655H45.3829Z" fill="#001640"/>
<path d="M47.1871 237.691C44.7102 237.28 41.6974 237.727 39.8456 239.525C39.7742 239.596 39.8754 239.697 39.9528 239.668C42.3702 238.846 44.6387 238.304 47.1812 238C47.3598 237.977 47.3598 237.715 47.1812 237.691H47.1871Z" fill="#001640"/>
<path d="M48.9913 238.727C46.5144 238.316 43.5016 238.763 41.6498 240.561C41.5784 240.632 41.6796 240.733 41.757 240.704C44.1744 239.882 46.4429 239.34 48.9854 239.037C49.164 239.013 49.164 238.751 48.9854 238.727H48.9913Z" fill="#001640"/>
<path d="M59.7621 249.933C58.4522 250.338 21.2326 249.373 19.8393 248.432C19.3034 248.087 19.1308 242.651 19.1069 236.083C19.1069 236.012 19.1069 235.946 19.1069 235.875L43.1261 236.232L43.1082 236.637C43.1082 236.637 57.1899 243.377 58.6129 244.574C60.0241 245.759 61.078 249.534 59.768 249.933H59.7621Z" fill="#37474F"/>
<path d="M19.1011 235.875V236.089C19.1308 242.657 19.2976 248.087 19.8394 248.432C20.4705 248.855 28.5385 249.29 37.2554 249.599C47.6871 249.968 59.0477 250.153 59.7622 249.933C61.0721 249.528 60.0182 245.759 58.6071 244.574C57.184 243.383 43.1024 236.643 43.1024 236.643L43.1262 236.238L35.1178 236.119L19.1011 235.881V235.875Z" fill="#3F80FF"/>
<path d="M59.3754 248.48C53.1056 248.164 27.7884 247.48 21.5663 247.64C21.5187 247.64 21.5127 247.676 21.5663 247.682C27.7765 248.135 53.0997 248.611 59.3754 248.587C59.5064 248.587 59.5123 248.492 59.3754 248.486V248.48Z" fill="#001640"/>
<path opacity="0.1" d="M35.1118 236.119C35.7013 240.144 36.5944 246.068 37.2494 249.605C47.6811 249.974 59.0417 250.159 59.7562 249.939C61.0661 249.534 60.0122 245.765 58.6011 244.58C57.178 243.389 43.0964 236.649 43.0964 236.649L43.1202 236.244L35.1118 236.125V236.119Z" fill="black"/>
<path d="M16.9337 236.226L43.8704 236.482C43.8704 236.482 45.4006 192.63 45.5138 178C45.6448 161.299 44.698 111.188 44.698 111.188H24.561C24.561 111.188 19.1546 122.233 22.2448 134.66L23.0963 179.364L16.9277 236.226H16.9337Z" fill="#001640"/>
<path d="M18.9342 231.504C19.6308 231.379 20.3751 231.385 21.0777 231.332C21.8755 231.278 22.6674 231.219 23.4653 231.183C24.9955 231.117 26.5317 231.094 28.0619 231.088C31.1521 231.076 34.2483 231.1 37.3385 231.195C39.095 231.248 40.8575 231.32 42.6139 231.421C42.6854 231.421 42.6794 231.528 42.6139 231.534C39.5475 231.647 36.4811 231.695 33.4147 231.755C30.3543 231.814 27.2819 231.874 24.2215 231.814C23.3403 231.796 22.465 231.79 21.5838 231.737C20.7145 231.689 19.8094 231.737 18.9461 231.612C18.8925 231.606 18.8746 231.516 18.9342 231.51V231.504Z" fill="#37474F"/>
<path d="M41.929 207.301C42.2446 200.049 42.4768 192.79 42.6733 185.538C43.0722 171.028 43.1675 156.506 42.9888 141.989C42.8876 133.844 42.6673 125.705 42.4232 117.559C42.4232 117.464 42.5601 117.47 42.5661 117.559C43.3401 132.135 43.6319 146.735 43.6497 161.329C43.6676 175.845 43.3639 190.367 42.6435 204.866C42.2386 213.005 41.7444 221.15 40.9823 229.26C40.9763 229.331 40.8691 229.331 40.8691 229.26C41.1966 221.936 41.6075 214.618 41.929 207.295V207.301Z" fill="#37474F"/>
<path d="M48.5503 214.874C48.5503 214.874 48.7587 239.227 48.7527 239.245C48.7706 243.901 48.8659 247.986 49.11 250.093C49.11 250.105 49.11 250.117 49.11 250.129C49.1993 250.927 49.3184 251.433 49.4553 251.564C49.4672 251.576 49.4732 251.588 49.4851 251.594C50.8724 252.529 88.098 253.493 89.4079 253.088C90.7238 252.689 89.6699 248.92 88.2587 247.73C86.8357 246.539 72.754 239.793 72.754 239.793L72.3194 215.452L48.5503 214.868V214.874Z" fill="#D3766A"/>
<path d="M48.7169 234.243C48.7169 234.243 48.7586 239.227 48.7586 239.245C48.7764 243.901 48.8717 247.986 49.1158 250.093C49.1158 250.105 49.1158 250.117 49.1158 250.129C49.2528 250.915 49.3778 251.433 49.4612 251.564C49.4731 251.576 49.479 251.588 49.4909 251.594C50.8783 252.529 88.1038 253.493 89.4137 253.088C90.7296 252.689 89.6757 248.92 88.2646 247.73C86.8415 246.539 72.7599 239.793 72.7599 239.793L72.7837 234.72L48.7109 234.237L48.7169 234.243Z" fill="white"/>
<path d="M75.0406 239.811C72.5637 239.4 69.5509 239.846 67.6991 241.644C67.6277 241.716 67.7289 241.817 67.8063 241.787C70.2237 240.966 72.4922 240.424 75.0347 240.12C75.2133 240.096 75.2133 239.834 75.0347 239.811H75.0406Z" fill="#001640"/>
<path d="M76.8448 240.853C74.3679 240.442 71.3551 240.888 69.5033 242.686C69.4319 242.758 69.5331 242.859 69.6105 242.829C72.0279 242.008 74.2964 241.466 76.8389 241.162C77.0175 241.138 77.0175 240.876 76.8389 240.853H76.8448Z" fill="#001640"/>
<path d="M78.649 241.889C76.1721 241.478 73.1593 241.924 71.3075 243.722C71.2361 243.794 71.3373 243.895 71.4147 243.865C73.8321 243.044 76.1006 242.502 78.6431 242.198C78.8217 242.174 78.8217 241.912 78.6431 241.889H78.649Z" fill="#001640"/>
<path d="M89.4198 253.094C88.1099 253.499 50.8903 252.535 49.497 251.594C48.9611 251.249 48.7885 245.812 48.7646 239.245C48.7646 239.173 48.7646 239.108 48.7646 239.036L72.7838 239.394L72.766 239.799C72.766 239.799 86.8476 246.539 88.2706 247.736C89.6818 248.92 90.7357 252.695 89.4258 253.094H89.4198Z" fill="#3F80FF"/>
<path d="M89.0326 251.636C82.7628 251.32 57.4457 250.635 51.2235 250.796C51.1759 250.796 51.1699 250.832 51.2235 250.838C57.4337 251.29 82.7569 251.767 89.0326 251.743C89.1636 251.743 89.1695 251.647 89.0326 251.642V251.636Z" fill="#001640"/>
<path d="M36.2489 136.964C36.2489 136.964 47.2999 171.79 47.4964 178.191C47.669 183.645 46.9664 239.644 46.9664 239.644L74.9392 239.811C74.9392 239.811 72.5754 182.704 72.1407 177.018C71.325 166.384 62.0067 137.19 55.344 111.182H25.186C25.186 111.182 25.448 124.806 31.6404 134.654C31.6404 134.654 34.4448 135.952 36.243 136.964H36.2489Z" fill="#001640"/>
<path d="M48.4552 234.487C51.6883 234.392 55.0345 234.297 58.2677 234.38C61.471 234.458 64.6863 234.511 67.8896 234.702C69.7056 234.809 71.5157 234.869 73.3317 235.047C73.3913 235.047 73.3913 235.142 73.3317 235.142C70.1046 235.333 66.8595 235.291 63.6264 235.262C60.4171 235.232 57.2078 235.196 54.0045 235.053C52.1884 234.97 50.3784 234.88 48.5623 234.749C48.3659 234.738 48.2646 234.487 48.4611 234.482L48.4552 234.487Z" fill="#37474F"/>
<path d="M54.5698 127.592C55.5642 130.92 56.4097 134.296 57.3028 137.655C58.2019 141.037 59.101 144.425 59.9881 147.812C61.7149 154.362 63.4178 160.93 64.7098 167.58C66.0078 174.273 66.7997 181.019 66.9486 187.836C67.0974 194.767 66.9486 201.716 66.9069 208.646C66.8593 215.619 66.7997 222.591 66.6806 229.563C66.6628 230.433 66.6449 231.296 66.6152 232.165C66.6152 232.249 66.4901 232.243 66.4842 232.165C66.2996 225.229 66.3948 218.28 66.4187 211.344C66.4425 204.407 66.5318 197.464 66.4723 190.528C66.4127 183.627 65.8828 176.786 64.692 169.98C63.5249 163.305 61.8756 156.726 60.1727 150.17C59.2022 146.431 58.2198 142.692 57.2492 138.953C56.2727 135.19 55.2308 131.433 54.3674 127.64C54.3376 127.509 54.5282 127.461 54.5698 127.592Z" fill="#37474F"/>
<path d="M43.1618 137.637C41.7685 137.613 40.3812 137.518 39.0058 137.262C37.6184 137 36.3264 136.541 34.9807 136.148C33.7006 135.773 32.343 135.714 31.0331 135.505C29.7053 135.291 28.3775 134.945 27.1629 134.356C27.1033 134.326 27.0557 134.416 27.1153 134.445C28.318 135.059 29.5327 135.642 30.8247 136.053C32.1525 136.47 33.5398 136.529 34.8855 136.857C36.2728 137.196 37.6006 137.643 39.0296 137.809C40.4109 137.97 41.8042 137.964 43.1796 137.738C43.2332 137.732 43.2154 137.649 43.1677 137.643L43.1618 137.637Z" fill="#37474F"/>
<path d="M44.9303 165.342C44.6683 164.312 44.4182 163.275 44.1384 162.245C43.5727 160.167 42.9952 158.083 42.37 156.023C41.1196 151.927 39.9407 147.807 38.6188 143.734C37.8686 141.424 37.1958 139.084 36.3205 136.815C36.2967 136.762 36.2193 136.785 36.2312 136.839C36.6718 138.953 37.297 141.019 37.8567 143.103C38.4164 145.187 39.0178 147.253 39.6132 149.325C40.804 153.439 41.9711 157.559 43.275 161.644C43.6382 162.787 44.0133 163.93 44.4123 165.062C44.8171 166.223 45.1327 167.42 45.615 168.545C45.6388 168.604 45.7281 168.581 45.7162 168.515C45.5317 167.437 45.1982 166.39 44.9303 165.336V165.342Z" fill="#37474F"/>
<path d="M47.2406 76.8268C51.8312 79.5955 69.277 88.9971 76.5887 87.7646C81.5129 86.937 93.6772 75.243 95.9101 71.3251C96.8211 69.7235 85.1806 60.1432 83.5492 61.2507C81.7748 62.4534 73.7486 73.4627 72.3375 73.8914C70.9263 74.3201 57.7616 72.2242 50.1462 71.9503C45.5853 71.7836 44.6565 75.2727 47.2406 76.8327V76.8268Z" fill="#D3766A"/>
<path d="M93.2365 74.6476C95.7849 72.4028 102.454 62.7571 103.341 60.5659C104.228 58.3748 106.336 51.8788 104.722 51.0273C103.114 50.1759 102.346 52.0276 102.346 52.0276C102.346 52.0276 102.888 48.8779 101.102 48.4373C99.6789 48.08 98.4583 50.6343 98.4583 50.6343C98.4583 50.6343 98.8691 47.1512 97.0412 46.9368C95.374 46.7403 94.7548 49.8246 94.7548 49.8246C94.7548 49.8246 94.8024 46.8773 93.165 46.9963C91.1942 47.1452 91.1049 52.242 89.9379 54.5939C89.6759 55.1298 79.8574 65.4364 79.8574 65.4364L93.2305 74.6476H93.2365Z" fill="#D3766A"/>
<path d="M94.6475 49.7115C94.189 53.5281 93.8913 55.094 91.8609 58.1783C91.8192 58.2379 91.9026 58.3093 91.9502 58.2498C94.2188 55.4096 94.707 53.5757 94.8321 49.7055C94.838 49.5209 94.6713 49.5328 94.6475 49.7115Z" fill="#001640"/>
<path d="M98.4224 50.6403C98.0056 54.5284 97.2197 56.2373 95.3263 59.6252C95.3024 59.6728 95.3798 59.7264 95.4096 59.6788C97.5412 56.5112 98.6487 54.5701 98.5534 50.6284C98.5534 50.4498 98.4463 50.4677 98.4224 50.6463V50.6403Z" fill="#001640"/>
<path d="M102.257 52.2003C101.578 55.9395 100.869 57.9163 98.6128 60.9708C98.5592 61.0422 98.6604 61.1256 98.72 61.0601C101.328 58.1723 102.227 55.7073 102.37 52.236C102.382 51.9978 102.298 51.9681 102.257 52.2062V52.2003Z" fill="#001640"/>
<path d="M79.8633 65.4364C79.8633 65.4364 81.6793 61.3697 82.4414 59.3989C83.2036 57.4281 84.5968 51.5572 86.3414 51.0392C88.3004 50.4617 88.7529 55.9336 87.4191 59.4584C87.4191 59.4584 92.3254 63.2393 91.206 66.6928C90.9619 67.437 88.3123 70.4975 87.4191 70.6344L79.8692 65.4305L79.8633 65.4364Z" fill="#D3766A"/>
<path d="M87.4071 59.8693C89.3719 61.2745 91.307 63.7991 91.1641 66.1986C91.1641 66.27 91.2594 66.2819 91.2713 66.2165C91.7774 63.6621 89.5625 60.7207 87.7345 59.5716C87.3832 59.3513 86.901 59.5061 87.4071 59.8693Z" fill="#001640"/>
<path d="M79.8577 65.3412L93.4511 74.6297C93.4511 74.6297 93.7666 76.547 91.6708 78.5654C89.5749 80.5839 80.596 88.1576 75.9815 88.2827C71.367 88.4136 55.9338 82.6619 48.4077 77.8212C40.8816 72.9804 48.8364 71.5574 50.4916 71.6705C52.1469 71.7836 71.7481 73.4806 72.3375 73.2483C72.927 73.0161 75.7195 68.6338 77.2081 67.0441C78.6966 65.4543 79.8577 65.3412 79.8577 65.3412Z" fill="#3F80FF"/>
<path d="M45.526 73.4031C45.526 73.4031 45.5081 73.4031 45.5022 73.3912C45.4307 73.4865 45.3771 73.5877 45.3354 73.6889C45.3474 73.6949 45.3533 73.7008 45.3652 73.7068C45.7582 73.9092 46.1631 74.0819 46.6156 74.1712C46.2881 73.8497 45.913 73.6115 45.526 73.4031ZM77.0891 74.9333C76.6902 74.7369 76.2853 74.5582 75.8328 74.4689C76.1603 74.7964 76.5354 75.0286 76.9224 75.243C77.3213 75.4395 77.7262 75.6181 78.1787 75.7074C77.8512 75.3799 77.4761 75.1477 77.0891 74.9333ZM64.7818 84.6148C64.3888 84.4124 63.9839 84.2338 63.5314 84.1504C63.8589 84.4779 64.234 84.7101 64.621 84.9185C65.014 85.1209 65.4189 85.2996 65.8714 85.3829C65.5439 85.0614 65.1688 84.8232 64.7818 84.6148ZM75.7554 86.1689C75.3624 85.9724 74.9575 85.7938 74.505 85.7045C74.8325 86.0319 75.2076 86.2642 75.5946 86.4785C75.9876 86.675 76.3925 86.8536 76.845 86.9429C76.5175 86.6154 76.1424 86.3832 75.7554 86.1689ZM71.0158 80.3159C70.8134 80.7089 70.6348 81.1138 70.5514 81.5663C70.8789 81.2388 71.1111 80.8637 71.3195 80.4767C71.5219 80.0837 71.7006 79.6788 71.7839 79.2204C71.4624 79.5478 71.2302 79.9289 71.0158 80.3159ZM59.042 73.3912C58.6192 73.5282 58.2084 73.6889 57.8273 73.945C58.2858 73.945 58.7205 73.8437 59.1432 73.7187C59.56 73.5817 59.9708 73.421 60.3579 73.165C59.8934 73.165 59.4647 73.2662 59.042 73.3912ZM80.5187 68.0027C80.3818 67.5799 80.221 67.1691 79.959 66.788C79.959 67.2525 80.0602 67.6812 80.1853 68.1039C80.3222 68.5266 80.483 68.9375 80.745 69.3186C80.745 68.8541 80.6438 68.4254 80.5187 68.0027ZM80.9534 81.5127C80.8164 81.0959 80.6557 80.6851 80.3996 80.2981C80.3996 80.7625 80.5009 81.1912 80.6259 81.6199C80.7628 82.0367 80.9236 82.4475 81.1796 82.8286C81.1796 82.3701 81.0784 81.9414 80.9534 81.5127ZM51.8017 71.7776C51.6767 71.7717 51.5635 71.7598 51.4563 71.7479C51.5695 72.0813 51.7183 72.4147 51.9267 72.7184C51.9267 72.3909 51.8731 72.0813 51.8017 71.7776ZM69.4737 73.7961C69.0807 73.5937 68.6758 73.415 68.2174 73.3317C68.5449 73.6532 68.9259 73.8854 69.3129 74.0998C69.7059 74.2962 70.1108 74.4749 70.5633 74.5642C70.2358 74.2367 69.8607 74.0045 69.4737 73.7961ZM54.4454 76.8565C54.0524 76.6541 53.6475 76.4755 53.195 76.3921C53.5224 76.7136 53.8976 76.9518 54.2846 77.1602C54.6776 77.3626 55.0824 77.5413 55.535 77.6246C55.2075 77.3031 54.8324 77.0649 54.4454 76.8565ZM85.1392 75.6538C84.9427 76.0468 84.7641 76.4517 84.6747 76.9042C85.0022 76.5827 85.2344 76.2016 85.4488 75.8146C85.6453 75.4216 85.8239 75.0167 85.9132 74.5642C85.5857 74.8917 85.3535 75.2668 85.1392 75.6538ZM89.0034 80.6077C89.1344 80.6077 89.2595 80.6017 89.3845 80.5839C89.5512 80.4469 89.706 80.3159 89.8608 80.179C89.5631 80.2921 89.2833 80.4231 89.0034 80.6077ZM91.6054 74.1176C91.4863 73.7544 91.3494 73.3972 91.135 73.0578C91.1112 72.9982 91.0814 72.9566 91.0457 72.9089C91.0457 72.9387 91.0457 72.9685 91.0457 72.9982C91.0576 73.4269 91.1529 73.8318 91.266 74.2248C91.403 74.6416 91.5637 75.0524 91.8257 75.4394C91.8257 74.975 91.7245 74.5463 91.5995 74.1176H91.6054ZM62.4895 78.7142C62.287 79.1132 62.1084 79.5181 62.025 79.9706C62.3525 79.6431 62.5847 79.268 62.7931 78.875C62.9956 78.482 63.1742 78.0771 63.2575 77.6246C62.936 77.9521 62.7038 78.3272 62.4895 78.7142Z" fill="white"/>
<g opacity="0.1">
<path d="M79.8577 65.3412L93.4511 74.6297C93.4511 74.6297 93.7666 76.547 91.6708 78.5654C89.5749 80.5839 80.596 88.1576 75.9815 88.2827C71.367 88.4136 55.9338 82.6619 48.4077 77.8212C40.8816 72.9804 48.8364 71.5574 50.4916 71.6705C52.1469 71.7836 71.7481 73.4806 72.3375 73.2483C72.927 73.0161 75.7195 68.6338 77.2081 67.0441C78.6966 65.4543 79.8577 65.3412 79.8577 65.3412Z" fill="black"/>
</g>
<path d="M19.4642 119.887C19.5535 119.995 59.5537 122.454 59.9407 122.067C60.4825 121.519 53.1886 79.5895 50.8129 73.2603C49.8007 70.563 43.4357 69.3662 40.5896 71.4204C33.4684 76.5589 26.5318 95.2788 24.8527 100.947C22.0661 110.277 19.1486 119.5 19.4582 119.893L19.4642 119.887Z" fill="#3F80FF"/>
<path d="M45.5255 73.4031C45.1325 73.2007 44.7276 73.0221 44.2751 72.9387C44.6026 73.2602 44.9777 73.4984 45.3647 73.7068C45.7577 73.9093 46.1626 74.0819 46.6151 74.1712C46.2876 73.8497 45.9125 73.6115 45.5255 73.4031ZM41.1432 96.1898C40.7502 95.9874 40.3453 95.8087 39.8928 95.7254C40.2203 96.0529 40.5954 96.2851 40.9824 96.4935C41.3754 96.6959 41.7803 96.8745 42.2328 96.9579C41.9053 96.6364 41.5302 96.4041 41.1432 96.1898ZM44.9955 113.225C44.6026 113.022 44.1977 112.85 43.7452 112.76C44.0726 113.088 44.4478 113.32 44.8348 113.528C45.2278 113.731 45.6326 113.909 46.0852 113.993C45.7577 113.671 45.3826 113.439 44.9955 113.225ZM31.3724 87.1335C31.0508 86.9727 30.7115 86.812 30.3423 86.7226C30.3244 86.7584 30.3066 86.7881 30.2947 86.8239C30.5745 87.068 30.8901 87.2645 31.2176 87.4372C31.6105 87.6396 32.0154 87.8182 32.4679 87.9016C32.1405 87.5801 31.7653 87.3419 31.3724 87.1335ZM55.1951 103.168C54.8021 102.966 54.3972 102.793 53.9387 102.704C54.2662 103.031 54.6473 103.263 55.0343 103.472C55.4273 103.674 55.8322 103.853 56.2847 103.936C55.9572 103.615 55.5821 103.382 55.1951 103.168ZM32.6823 111.623C32.2893 111.421 31.8844 111.242 31.4319 111.159C31.7594 111.48 32.1345 111.712 32.5215 111.927C32.9145 112.123 33.3194 112.302 33.7719 112.391C33.4444 112.064 33.0693 111.831 32.6823 111.623ZM52.0751 87.592C51.6821 87.3895 51.2772 87.2109 50.8247 87.1275C51.1522 87.455 51.5273 87.6872 51.9143 87.8956C52.3073 88.0981 52.7122 88.2767 53.1647 88.36C52.8372 88.0385 52.4621 87.8063 52.0751 87.592ZM48.318 80.0718C48.1155 80.4648 47.9369 80.8697 47.8535 81.3222C48.1751 80.9947 48.4073 80.6196 48.6216 80.2326C48.8181 79.8396 48.9968 79.4347 49.0861 78.9822C48.7586 79.3097 48.5264 79.6848 48.318 80.0718ZM54.5461 115.362C54.3436 115.755 54.165 116.16 54.0816 116.613C54.4032 116.285 54.6413 115.91 54.8497 115.523C55.0522 115.13 55.2248 114.725 55.3141 114.267C54.9867 114.6 54.7544 114.975 54.5461 115.362ZM39.6427 107.205C39.4462 107.598 39.2676 108.003 39.1783 108.461C39.5058 108.134 39.738 107.753 39.9523 107.366C40.1488 106.973 40.3275 106.568 40.4168 106.115C40.0893 106.443 39.8571 106.818 39.6427 107.205ZM47.3772 92.9805C47.1748 93.3735 46.9961 93.7783 46.9128 94.2309C47.2403 93.9034 47.4725 93.5283 47.6809 93.1413C47.8833 92.7483 48.0619 92.3434 48.1453 91.8909C47.8238 92.2184 47.5856 92.5935 47.3772 92.9805ZM25.317 115.023C25.1205 115.416 24.9419 115.821 24.8525 116.273C25.18 115.946 25.4122 115.571 25.6266 115.184C25.8231 114.791 26.0017 114.386 26.091 113.933C25.7635 114.261 25.5313 114.636 25.317 115.023ZM27.0377 98.2916C26.8353 98.6846 26.6567 99.0895 26.5733 99.542C26.8948 99.2145 27.133 98.8394 27.3414 98.4524C27.5438 98.0535 27.7225 97.6486 27.8058 97.1961C27.4843 97.5235 27.2461 97.8986 27.0377 98.2916ZM34.7663 80.4648C34.5698 80.8578 34.3911 81.2627 34.3018 81.7152C34.6293 81.3877 34.8615 81.0126 35.0759 80.6256C35.2724 80.2326 35.451 79.8277 35.5403 79.3752C35.2128 79.7027 34.9806 80.0778 34.7663 80.4648ZM40.5775 77.1721C40.1607 77.3091 39.744 77.4699 39.3629 77.7318C39.8273 77.7259 40.256 77.6247 40.6788 77.5056C41.1015 77.3686 41.5123 77.2079 41.8934 76.9459C41.4349 76.9459 41.0003 77.0471 40.5775 77.1721ZM49.8601 108.414C49.4433 108.551 49.0265 108.711 48.6455 108.973C49.1099 108.967 49.5386 108.866 49.9613 108.747C50.3841 108.61 50.7949 108.449 51.176 108.187C50.7175 108.187 50.2829 108.289 49.8601 108.414ZM32.9324 120.352C32.6347 120.447 32.331 120.56 32.0452 120.715L32.2953 120.733C32.4501 120.745 32.5989 120.751 32.7537 120.763H32.7716C32.8669 120.733 32.9383 120.703 33.0336 120.679C33.4563 120.536 33.8672 120.382 34.2482 120.12C33.7898 120.12 33.3551 120.227 32.9324 120.352ZM33.4563 103.728C33.0336 103.865 32.6227 104.025 32.2417 104.282C32.7061 104.282 33.1348 104.18 33.5576 104.055C33.9803 103.918 34.3911 103.758 34.7722 103.496C34.3078 103.502 33.8791 103.603 33.4563 103.728ZM38.9461 89.6997C38.5233 89.8367 38.1125 89.9974 37.7314 90.2594C38.1959 90.2535 38.6246 90.1523 39.0473 90.0272C39.4701 89.8962 39.8809 89.7355 40.262 89.4735C39.7975 89.4735 39.3688 89.5747 38.9461 89.6997ZM55.0581 95.7849C54.9212 95.3681 54.7604 94.9513 54.5044 94.5703C54.5044 95.0347 54.6056 95.4634 54.7306 95.8861C54.8676 96.3089 55.0283 96.7197 55.2844 97.1008C55.2844 96.6423 55.1831 96.2077 55.0581 95.7849ZM39.4046 116.845C39.2676 116.428 39.1069 116.017 38.8449 115.636C38.8449 116.095 38.952 116.523 39.0711 116.952C39.2081 117.369 39.3688 117.78 39.6308 118.161C39.6308 117.702 39.5296 117.274 39.4046 116.845ZM25.7754 106.86C25.6385 106.437 25.4777 106.026 25.2217 105.645C25.2217 106.104 25.3229 106.538 25.448 106.961C25.5849 107.384 25.7457 107.794 26.0017 108.176C26.0017 107.711 25.9005 107.282 25.7754 106.86ZM33.0693 95.9754C32.9324 95.5587 32.7716 95.1419 32.5096 94.7608C32.5096 95.2252 32.6168 95.6539 32.7359 96.0767C32.8728 96.4994 33.0336 96.9102 33.2956 97.2913C33.2956 96.8328 33.1943 96.3982 33.0693 95.9754ZM48.5681 120.12C48.4251 119.703 48.2703 119.286 48.0084 118.905C48.0084 119.369 48.1096 119.798 48.2346 120.221C48.3716 120.644 48.5323 121.054 48.7943 121.436C48.7943 120.977 48.6871 120.542 48.5681 120.12ZM46.3948 101.697C46.2519 101.281 46.0911 100.864 45.8351 100.483C45.8351 100.947 45.9363 101.376 46.0613 101.799C46.1983 102.221 46.3591 102.632 46.621 103.013C46.621 102.555 46.5139 102.12 46.3948 101.697ZM43.9893 84.7161C43.8523 84.2933 43.6916 83.8825 43.4296 83.5014C43.4296 83.9659 43.5368 84.3946 43.6558 84.8173C43.7928 85.2401 43.9536 85.6509 44.2155 86.032C44.2155 85.5675 44.1143 85.1388 43.9893 84.7161Z" fill="white"/>
<path d="M50.9735 73.939C50.9735 73.939 50.9438 73.9212 50.9438 73.939C50.9438 75.761 50.8306 79.9766 47.9965 79.5479C46.8592 79.3752 45.853 78.5952 45.0253 77.839C44.1739 77.065 43.4236 76.1778 42.7627 75.243C42.0244 74.201 41.2623 73.1114 40.7085 71.9622C40.6847 71.9146 40.6073 71.9622 40.6371 72.0099C41.2444 73.159 41.7386 74.3499 42.4531 75.4395C43.1438 76.4934 43.9417 77.4818 44.8943 78.3094C45.7815 79.0894 46.8533 79.8694 48.0679 79.9944C49.2171 80.1135 50.1042 79.4526 50.5091 78.4047C51.039 77.0292 51.1165 75.3859 50.9795 73.939H50.9735Z" fill="#001640"/>
<path d="M48.2708 77.6246C46.2106 77.702 43.043 73.6889 42.1915 70.9857C42.132 70.8012 42.7393 69.0863 43.3764 66.9726C43.7575 65.6865 44.1505 64.2516 44.4184 62.9119L52.4149 66.6154C52.4149 66.6154 51.0335 69.259 50.5869 71.599C50.5512 71.7955 50.5334 71.9801 50.5334 72.1587C50.5334 72.1825 50.5334 72.2182 50.5334 72.254C50.4976 73.3317 50.2714 77.5532 48.2767 77.6246H48.2708Z" fill="#D3766A"/>
<path d="M50.5275 72.1587C50.5275 72.1587 50.5275 72.2123 50.5275 72.248C50.2595 72.2361 49.9678 72.1944 49.6581 72.1289C44.8174 71.0572 44.8531 64.8827 44.9603 63.1619L46.9609 64.0848L52.4209 66.6153C52.4209 66.6153 51.0395 69.259 50.593 71.599C50.5572 71.7955 50.5394 71.9801 50.5394 72.1587H50.5275Z" fill="#001640"/>
<path d="M41.7388 55.6597C41.5066 58.8928 45.085 67.2585 47.6811 68.7172C51.4381 70.831 56.6064 69.9378 58.1485 65.6449C59.649 61.4829 54.7844 50.6582 51.98 49.4376C47.8478 47.6394 42.0841 50.8785 41.7388 55.6538V55.6597Z" fill="#D3766A"/>
<path opacity="0.2" d="M43.0012 61.2686C44.2337 64.5076 46.1331 67.8539 47.6871 68.7172C51.4442 70.831 56.6065 69.9378 58.1546 65.6449C58.7023 64.1087 58.3987 61.6794 57.6365 59.1489C57.6485 59.2739 57.7437 61.2328 56.7256 61.6913C55.6717 62.1617 54.9572 61.3162 54.9572 61.3162L54.201 61.346C54.201 61.346 53.165 62.7571 50.9083 63.1263C48.6517 63.4954 46.7642 62.6976 45.8175 61.8402C44.8708 60.9828 44.7934 60.5719 44.7934 60.5719L42.9893 61.2626L43.0012 61.2686Z" fill="#001640"/>
<path d="M51.1283 59.1846C51.1283 59.1846 51.0926 59.2323 51.1045 59.2501C51.3605 59.8098 51.563 60.4886 51.1283 60.8935C51.1164 60.9054 51.1283 60.9352 51.1462 60.9233C51.7356 60.572 51.4558 59.6729 51.1283 59.1846Z" fill="#001640"/>
<path d="M50.3782 58.8095C49.4434 59.1251 50.14 60.9768 51.0093 60.6851C51.8667 60.3993 51.1641 58.5475 50.3782 58.8095Z" fill="#001640"/>
<path d="M49.3245 57.7913C49.5508 57.6305 49.7354 57.4459 49.9438 57.2673C50.1819 57.0649 50.3903 56.9279 50.4737 56.6124C50.5213 56.4456 50.3903 56.2253 50.2296 56.1598C49.8604 56.0169 49.5091 56.1956 49.2114 56.4278C48.8899 56.6838 48.7113 56.9577 48.6219 57.3566C48.5386 57.7437 49.0149 57.9997 49.3126 57.7913H49.3245Z" fill="#001640"/>
<path d="M55.4633 56.6541C55.1894 56.7077 54.9274 56.7136 54.6535 56.7434C54.3439 56.7732 54.0998 56.8267 53.814 56.6719C53.6592 56.5886 53.5877 56.3445 53.6592 56.1837C53.814 55.8205 54.1831 55.6895 54.5582 55.6359C54.9631 55.5823 55.2906 55.6359 55.6359 55.8503C55.9753 56.0527 55.8265 56.5767 55.4692 56.6481L55.4633 56.6541Z" fill="#001640"/>
<path d="M52.8434 64.6446C53.0339 64.728 53.2363 64.8589 53.4507 64.7994C53.6591 64.7399 53.8556 64.5612 54.0104 64.4243C54.0282 64.4124 54.0521 64.4243 54.0461 64.4422C53.9806 64.716 53.7186 64.9721 53.4328 65.0257C53.1589 65.0792 52.9446 64.9006 52.7898 64.6863C52.766 64.6565 52.8076 64.6267 52.8374 64.6386L52.8434 64.6446Z" fill="#001640"/>
<path d="M52.8018 62.6976C53.3079 63.0727 53.8855 63.1679 54.4332 63.0727C54.6774 63.031 54.9215 62.9476 55.1477 62.8405C55.1954 62.8226 55.2371 62.7988 55.2787 62.775C55.3204 62.7511 55.3561 62.7333 55.3978 62.7095C55.4633 62.6737 55.4752 62.6023 55.4633 62.5368C55.4633 62.5368 55.4455 62.4951 55.4335 62.4772L55.4157 62.4237C55.2609 61.9771 54.9632 61.3221 54.9632 61.3221C55.1537 61.34 56.1183 61.3995 56.0171 61.1733C55.1835 59.3037 54.2546 57.2316 53.0281 55.5466C52.9923 55.487 52.8971 55.5406 52.9268 55.6002C53.6592 57.4281 54.7071 59.1131 55.4693 60.9351C55.1716 60.9351 54.6714 60.9113 54.4392 61.0006C54.3856 61.0423 55.0346 62.2569 55.0882 62.4653C55.0882 62.4653 55.0882 62.4713 55.0882 62.4892C54.3797 62.8643 53.7366 62.8524 52.8316 62.6261C52.778 62.6082 52.7482 62.6678 52.7958 62.6976H52.8018Z" fill="#001640"/>
<path d="M54.8618 62.8524C54.8618 62.8524 54.6296 63.5014 54.1473 63.8527C53.9687 63.9837 53.7662 64.0789 53.5221 64.0849C53.0279 64.1028 52.8909 63.686 52.8612 63.2989C52.8374 62.9834 52.9029 62.6857 52.9029 62.6857C52.9029 62.6857 53.7603 63.1084 54.8558 62.8524H54.8618Z" fill="#001640"/>
<path d="M54.1533 63.8527C53.9747 63.9837 53.7722 64.0789 53.5281 64.0849C53.0339 64.1027 52.897 63.6859 52.8672 63.2989C53.3733 63.2037 53.9628 63.3882 54.1473 63.8527H54.1533Z" fill="#FF98B9"/>
<path d="M55.9209 56.9875C55.7482 57.0173 55.5934 57.0828 55.4386 57.1602C55.2838 57.2435 55.1409 57.3447 55.0099 57.4698C54.8848 57.6008 54.7717 57.7496 54.7003 57.9282C54.6288 58.1069 54.599 58.3034 54.611 58.4939L54.6348 58.8392L54.9087 58.6249C55.0932 58.476 55.3135 58.3331 55.5338 58.226C55.7601 58.1188 55.9983 58.0354 56.2781 58.0533C56.04 57.9104 55.7244 57.8985 55.4445 57.9699C55.1647 58.0414 54.9146 58.1664 54.6764 58.345L54.9742 58.476C54.9682 58.1962 55.0635 57.9282 55.2421 57.6841C55.4267 57.44 55.6589 57.2137 55.9209 56.9994V56.9875Z" fill="#001640"/>
<path d="M55.8266 58.6964C55.5586 58.7619 55.3204 58.8631 55.0346 58.8571C54.9691 58.8571 54.7072 58.8393 54.6953 58.7976C54.6476 58.6845 54.6238 58.5415 54.6059 58.4046C54.594 58.5415 54.5702 58.6785 54.6179 58.8274C54.7012 58.9226 54.856 58.9822 55.0346 58.9762C55.3264 58.9583 55.6241 58.8274 55.8206 58.6904L55.8266 58.6964Z" fill="#001640"/>
<path d="M44.2277 62.4177C45.8532 61.8878 44.6445 57.8985 44.6445 57.8985C44.6445 57.8985 47.044 56.791 47.3774 53.022C47.3774 53.022 51.1405 54.2128 53.7305 53.0161C57.7853 51.1345 56.2313 45.6388 54.3498 44.9243C51.6763 43.9121 48.2586 47.2881 48.2586 47.2881C48.2586 47.2881 41.7329 47.175 40.9886 51.7597C40.9886 51.7597 38.3033 52.5814 38.8987 55.6299C39.4881 58.6785 43.019 62.8166 44.2277 62.4237V62.4177Z" fill="#001640"/>
<path d="M44.1741 58.5296C45.3232 57.9759 46.3295 57.1185 46.9011 55.9634C47.4965 54.7725 47.5977 53.153 46.9011 51.986C46.8654 51.9205 46.9725 51.8669 47.0023 51.9324C47.6692 53.2602 47.9609 54.7249 47.3774 56.148C46.8415 57.446 45.6329 58.482 44.2158 58.6487C44.1503 58.6547 44.1086 58.5654 44.1741 58.5296Z" fill="#001640"/>
<path d="M38.226 53.9271C38.7857 52.6469 40.0242 52.1468 41.2984 51.861C41.3698 51.8431 41.3936 51.9622 41.3222 51.9741C40.042 52.1527 39 53.3138 38.619 54.4987C38.2439 55.6597 38.7142 56.8803 39.2561 57.9164C40.298 59.905 42.0426 61.4889 44.1564 62.2629C44.1921 62.2748 44.1742 62.3284 44.1385 62.3165C41.7687 61.5544 39.7443 59.8455 38.6785 57.5829C38.1605 56.4814 37.708 55.1 38.226 53.9211V53.9271Z" fill="#001640"/>
<path d="M48.1397 47.5263C48.485 46.5022 49.0923 45.6745 50.0093 45.1267C51.0691 44.4956 52.4267 44.3051 53.6354 44.567C54.6595 44.7874 55.4038 45.5793 55.7312 46.5736C56.1064 47.7049 55.8503 48.9315 55.4335 50.0032C55.4216 50.033 55.374 50.0211 55.3859 49.9854C55.6896 48.997 55.8444 47.9193 55.5109 46.907C55.1835 45.9008 54.4213 45.1863 53.3972 45.0136C51.4502 44.6921 48.9316 45.484 48.2468 47.5561C48.223 47.6275 48.1158 47.5858 48.1397 47.5203V47.5263Z" fill="#001640"/>
<path d="M45.2282 62.3522C45.2282 62.3522 42.5667 60.03 41.4652 61.0482C40.3637 62.0664 42.8525 65.7699 44.4899 65.9544C46.1273 66.139 46.3238 64.6267 46.3238 64.6267L45.2282 62.3462V62.3522Z" fill="#D3766A"/>
<path d="M42.2037 62.0961C42.2037 62.0961 42.1859 62.1378 42.2037 62.1378C43.3589 62.3045 44.1567 63.1381 44.7938 64.0491C44.383 63.7395 43.9066 63.6323 43.4779 64.1324C43.4541 64.1563 43.4898 64.1979 43.5196 64.1801C43.9245 63.9836 44.2579 63.9776 44.633 64.2515C44.901 64.4421 45.1153 64.7159 45.3356 64.9601C45.4071 65.0434 45.5679 64.9482 45.5024 64.8529C45.5024 64.8469 45.4905 64.841 45.4905 64.8291C45.1868 63.4834 43.6804 61.8698 42.2097 62.0902L42.2037 62.0961Z" fill="#001640"/>
<path d="M79.3035 59.774L55.2248 61.7031L54.5103 56.261L78.2674 51.8847L79.3035 59.774Z" fill="#001640"/>
<path d="M92.998 60.2146L68.8299 61.4591L67.7046 52.9684L91.3725 47.9073L92.998 60.2146Z" fill="#37474F"/>
<path d="M104.763 61.5722L86.24 61.1732L84.5967 48.735L102.388 43.5429L104.763 61.5722Z" fill="#455A64"/>
<path d="M104.811 52.3908C105.413 56.9398 105.347 60.6969 104.663 60.7862C103.984 60.8755 102.942 57.2613 102.34 52.7183C101.739 48.1693 101.805 44.4122 102.489 44.3229C103.168 44.2336 104.21 47.8478 104.811 52.3908Z" fill="#3F80FF"/>
<path d="M42.3878 82.65C50.4498 90.0987 71.3013 101.834 75.6003 99.7385C83.5372 95.8742 85.127 72.3195 85.8712 67.7169C86.1868 65.752 69.4377 65.5377 69.0507 67.6335C68.7172 69.4555 68.7649 81.7747 67.2704 82.3225C66.6571 82.5488 57.2792 79.4288 46.7463 77.7318C38.6784 76.4338 40.0002 80.4469 42.3878 82.65Z" fill="#D3766A"/>
<path d="M68.8065 71.4502C68.8065 71.4502 69.0923 69.5151 68.3838 64.7874C67.83 61.0958 69.0983 52.0395 78.0533 46.5915C81.483 44.5015 84.4481 46.002 81.2686 48.8005C79.0298 50.7772 77.3091 51.9502 76.7553 52.8017C76.7553 52.8017 81.3222 52.5754 82.9596 54.6534C83.692 55.5823 85.633 58.1664 86.8536 60.3932C86.8536 60.3932 86.4428 60.7922 85.8474 61.2209C85.8474 61.2209 87.8242 63.9062 85.9486 67.1512L85.4246 71.2001L68.8005 71.4502H68.8065Z" fill="#D3766A"/>
<path d="M68.9077 61.4769C69.9199 59.8038 72.123 56.2968 74.9274 54.052C78.0414 51.5572 84.7101 47.5977 86.5261 49.9139C87.8599 51.6108 85.4425 53.3494 85.4425 53.3494C85.4425 53.3494 88.5446 52.2955 89.4139 54.0877C90.2058 55.7251 88.2588 56.9577 88.2588 56.9577C88.2588 56.9577 90.2475 56.6421 90.706 58.3628C91.2538 60.4349 86.9906 60.7624 85.7342 63.3465C85.4544 63.9241 68.9077 61.4769 68.9077 61.4769Z" fill="#D3766A"/>
<path d="M77.0113 57.7794C78.22 56.3623 81.7984 53.8496 85.365 53.3197C85.4483 53.3078 85.496 53.3614 85.4245 53.3911C81.6198 54.8082 78.3629 56.8624 77.0291 57.8151C77.0113 57.827 76.9934 57.8032 77.0053 57.7853L77.0113 57.7794Z" fill="#001640"/>
<path d="M79.6191 60.8458C80.7861 59.7323 84.5908 57.303 88.2229 56.8922C88.3062 56.8803 88.3539 56.9398 88.2824 56.9636C84.2455 58.2855 81.0243 60.0062 79.6429 60.8755C79.625 60.8874 79.6072 60.8577 79.6191 60.8458Z" fill="#001640"/>
<path d="M85.6748 69.3186C85.6748 68.5862 85.7284 67.8598 85.7879 67.1334V67.1096L85.8177 67.0619C86.1928 66.3832 86.4369 65.5913 86.5084 64.8053C86.5917 64.0134 86.4965 63.2155 86.2881 62.4296L86.2583 62.3284L86.3238 62.2748C86.8001 61.8818 87.3063 61.5305 87.8659 61.2745C87.6278 61.465 87.3956 61.6555 87.1753 61.8639C86.9609 62.0723 86.7347 62.2748 86.5322 62.4891L86.5679 62.3343C86.7168 62.7273 86.8537 63.1381 86.9073 63.5668C86.9847 63.9896 86.9788 64.4242 86.949 64.8529C86.9133 65.2816 86.8121 65.7044 86.6811 66.1093C86.5322 66.5142 86.3595 66.9012 86.0916 67.2644L86.1214 67.187C85.9963 67.9015 85.8594 68.6219 85.6748 69.3305V69.3186Z" fill="#001640"/>
<path d="M68.8064 71.4501L85.4305 71.2001C85.4305 71.2001 88.4791 74.2188 87.7348 77.3865C86.9905 80.5541 80.5898 99.1907 75.0464 100.155C69.5031 101.114 50.2056 89.8605 43.6917 84.2874C37.1778 78.7142 38.4758 76.3802 47.0856 77.2674C55.6953 78.1546 67.0619 81.8521 67.2464 81.7687C67.431 81.6854 66.651 77.3567 66.7522 75.6359C66.8535 73.9152 68.8124 71.4561 68.8124 71.4561L68.8064 71.4501Z" fill="#3F80FF"/>
<path d="M83.4239 87.0739C83.6264 87.2764 83.8467 87.4431 84.0789 87.586C84.1206 87.4967 84.1563 87.4014 84.198 87.3121C83.9538 87.2109 83.6978 87.1215 83.4239 87.0739ZM77.0887 74.9333C76.6897 74.7368 76.2849 74.5582 75.8323 74.4689C76.1598 74.7964 76.5349 75.0286 76.922 75.243C77.3209 75.4394 77.7258 75.6181 78.1783 75.7074C77.8508 75.3799 77.4757 75.1477 77.0887 74.9333ZM64.7814 84.6148C64.3884 84.4124 63.9835 84.2338 63.531 84.1504C63.8585 84.4779 64.2336 84.7101 64.6206 84.9185C65.0136 85.1209 65.4185 85.2996 65.871 85.3829C65.5435 85.0614 65.1684 84.8232 64.7814 84.6148ZM75.7549 86.1689C75.362 85.9724 74.9571 85.7938 74.5046 85.7044C74.832 86.0319 75.2072 86.2641 75.5942 86.4785C75.9872 86.675 76.392 86.8536 76.8446 86.9429C76.5171 86.6154 76.142 86.3832 75.7549 86.1689ZM63.9002 94.1534C63.6977 94.5464 63.5191 94.9513 63.4357 95.4038C63.7632 95.0763 63.9954 94.7012 64.2038 94.3142C64.4063 93.9212 64.5849 93.5163 64.6683 93.0638C64.3467 93.3913 64.1145 93.7664 63.9002 94.1534ZM79.2381 91.4979C79.0357 91.8908 78.8571 92.2957 78.7737 92.7482C79.1012 92.4208 79.3334 92.0457 79.5418 91.6586C79.7442 91.2657 79.9229 90.8608 80.0062 90.4082C79.6847 90.7357 79.4525 91.1108 79.2381 91.4979ZM71.0154 80.3159C70.813 80.7089 70.6343 81.1138 70.551 81.5663C70.8785 81.2388 71.1107 80.8637 71.3191 80.4767C71.5215 80.0837 71.7001 79.6788 71.7835 79.2203C71.462 79.5478 71.2298 79.9289 71.0154 80.3159ZM73.4983 95.7491C73.0815 95.8861 72.6647 96.0469 72.2837 96.3029C72.7481 96.3029 73.1768 96.2017 73.5995 96.0766C74.0223 95.9397 74.4331 95.7789 74.8142 95.5229C74.3557 95.5229 73.9211 95.6241 73.4983 95.7491ZM59.0416 90.0927C58.6188 90.2296 58.208 90.3904 57.8269 90.6464C58.2854 90.6464 58.72 90.5452 59.1428 90.4202C59.5596 90.2832 59.9704 90.1224 60.3574 89.8664C59.893 89.8664 59.4643 89.9676 59.0416 90.0927ZM80.9529 81.5127C80.816 81.0959 80.6552 80.6851 80.3992 80.2981C80.3992 80.7625 80.5004 81.1912 80.6255 81.6199C80.7624 82.0367 80.9232 82.4475 81.1792 82.8286C81.1792 82.3701 81.078 81.9414 80.9529 81.5127ZM56.7075 83.3109C56.5706 82.8881 56.4098 82.4773 56.1478 82.0962C56.1478 82.5606 56.255 82.9893 56.38 83.4121C56.511 83.8348 56.6718 84.2457 56.9338 84.6267C56.9338 84.1623 56.8325 83.7336 56.7075 83.3109ZM69.1637 89.4199C69.0267 89.0031 68.866 88.5922 68.6099 88.2052C68.6099 88.6696 68.7111 89.0983 68.8362 89.527C68.9731 89.9438 69.1339 90.3547 69.3899 90.7357C69.3899 90.2773 69.2887 89.8486 69.1637 89.4199ZM69.4733 73.7961C69.0803 73.5936 68.6754 73.415 68.2169 73.3317C68.5444 73.6532 68.9255 73.8854 69.3125 74.0998C69.7055 74.2962 70.1104 74.4749 70.5629 74.5642C70.2354 74.2367 69.8603 74.0045 69.4733 73.7961ZM85.1387 75.6538C84.9422 76.0468 84.7636 76.4517 84.6743 76.9042C85.0018 76.5826 85.234 76.2016 85.4483 75.8146C85.6448 75.4216 85.8235 75.0167 85.9128 74.5642C85.5853 74.8917 85.3531 75.2668 85.1387 75.6538ZM52.0752 87.5919C51.6822 87.3895 51.2773 87.2109 50.8248 87.1275C51.1523 87.455 51.5274 87.6872 51.9144 87.8956C52.3074 88.098 52.7123 88.2767 53.1648 88.36C52.8373 88.0385 52.4622 87.8063 52.0752 87.5919ZM48.3181 80.0718C48.1156 80.4648 47.937 80.8697 47.8536 81.3222C48.1752 80.9947 48.4074 80.6196 48.6217 80.2326C48.8182 79.8396 48.9968 79.4347 49.0862 78.9822C48.7587 79.3097 48.5265 79.6848 48.3181 80.0718ZM43.4297 83.5014C43.4297 83.7158 43.4535 83.9182 43.4952 84.1147C43.5607 84.1742 43.6262 84.2278 43.6917 84.2874L43.906 84.466C43.7869 84.1325 43.6381 83.8051 43.4297 83.5014Z" fill="white"/>
<path d="M52.7954 77.3031C53.5695 77.6008 54.3316 77.9462 55.0759 78.3034C55.4153 78.4642 55.7547 78.6309 56.1 78.7857C54.3197 78.3689 52.5275 77.9759 50.7353 77.6246C50.6817 77.6127 50.6638 77.702 50.7174 77.7199C53.4802 78.5773 56.2786 79.3513 59.083 80.0658C61.8398 80.7625 64.6026 81.602 67.4249 81.9593C67.5082 81.9712 67.5261 81.8521 67.4546 81.8223C64.7574 80.7803 61.8875 80.1968 59.083 79.4942C58.3983 79.3216 57.7136 79.1668 57.0229 79.006C56.7907 78.8572 56.5525 78.7142 56.3084 78.5773C55.9511 78.3808 55.576 78.2081 55.2009 78.0474C54.4209 77.7199 53.629 77.4579 52.8252 77.2138C52.7657 77.1959 52.7359 77.2793 52.7954 77.3031Z" fill="#001640"/>
<path d="M46.3947 88.1636C46.9246 88.372 47.4664 88.5506 48.0083 88.7173C48.2524 88.7947 48.5025 88.8662 48.7466 88.9495C47.6391 88.3303 46.5435 87.6932 45.4539 87.0323C45.4182 87.0144 45.4539 86.9549 45.4837 86.9727C47.2878 87.8242 49.0741 88.7352 50.8425 89.6819C52.5751 90.6107 53.4087 90.9025 55.0342 92.0457C55.0818 92.0814 55.0402 92.1469 54.9925 92.129C53.1408 91.4026 52.3608 90.9322 50.6043 89.9796C50.1756 89.7474 49.7528 89.5032 49.3241 89.2651C49.1396 89.2353 48.955 89.1996 48.7704 89.1519C48.5025 89.0865 48.2286 89.0031 47.9666 88.9078C47.4248 88.7113 46.9008 88.4791 46.3709 88.2231C46.3351 88.2052 46.353 88.1457 46.3947 88.1636Z" fill="#001640"/>
<path d="M68.7169 71.3966C67.8655 72.4148 67.1271 73.6532 66.758 74.9393C66.371 76.285 66.5972 77.6782 66.758 79.0418C66.9426 80.5601 67.1926 82.0724 67.5142 83.5669C67.4725 83.6682 67.4844 83.8289 67.4784 83.9361C67.4784 84.0969 67.4784 84.2576 67.4844 84.4124C67.5082 85.0317 67.5856 85.6449 67.7107 86.2523C67.7166 86.288 67.7642 86.2761 67.7642 86.2404C67.7047 85.7938 67.669 85.3532 67.6392 84.9066C67.6213 84.6744 67.6094 84.4422 67.6035 84.204C67.6035 84.1088 67.6035 84.0135 67.5975 83.9182C67.8893 85.2341 68.2346 86.5381 68.6455 87.8182C68.6633 87.8718 68.7467 87.8599 68.7288 87.8004C68.1096 85.0198 67.5975 82.2213 67.2581 79.393C67.0914 77.9938 66.7997 76.4755 67.2581 75.106C67.6868 73.8497 68.2525 72.641 68.8181 71.4442C68.8479 71.3787 68.7526 71.349 68.7169 71.3906V71.3966Z" fill="#001640"/>
</g>
<defs>
<clipPath id="clip0_352_12091">
<rect width="276.286" height="256" fill="white"/>
</clipPath>
</defs>
</svg>
