<svg width="344" height="256" viewBox="0 0 344 256" fill="none" xmlns="http://www.w3.org/2000/svg">
<g clip-path="url(#clip0_545_7108)">
<path d="M343.523 224.973H0V225.145H343.523V224.973Z" fill="#EBEBEB"/>
<path d="M58.7974 231.514H36.0424V231.685H58.7974V231.514Z" fill="#EBEBEB"/>
<path d="M149.7 229.652H117.581V229.824H149.7V229.652Z" fill="#EBEBEB"/>
<path d="M90.6831 236.825H77.4987V236.996H90.6831V236.825Z" fill="#EBEBEB"/>
<path d="M235.341 233.836H214.585V234.008H235.341V233.836Z" fill="#EBEBEB"/>
<path d="M254.729 233.836H241.455V234.008H254.729V233.836Z" fill="#EBEBEB"/>
<path d="M309.109 236.742H268.875V236.914H309.109V236.742Z" fill="#EBEBEB"/>
<path d="M162.837 194.331H30.1681C28.004 194.331 26.2451 192.572 26.2451 190.408V3.92303C26.2451 1.75884 28.004 0 30.1681 0H162.837C165.001 0 166.76 1.75884 166.76 3.92303V190.408C166.76 192.572 165.001 194.331 162.837 194.331ZM30.1681 0.171761C28.1001 0.171761 26.4169 1.85502 26.4169 3.92303V190.408C26.4169 192.476 28.1001 194.159 30.1681 194.159H162.837C164.905 194.159 166.588 192.476 166.588 190.408V3.92303C166.588 1.85502 164.905 0.171761 162.837 0.171761H30.1681Z" fill="#EBEBEB"/>
<path d="M311.445 194.331H178.776C176.612 194.331 174.853 192.572 174.853 190.408V3.92303C174.853 1.75884 176.612 0 178.776 0H311.445C313.609 0 315.368 1.75884 315.368 3.92303V190.408C315.368 192.572 313.609 194.331 311.445 194.331ZM178.776 0.171761C176.708 0.171761 175.025 1.85502 175.025 3.92303V190.408C175.025 192.476 176.708 194.159 178.776 194.159H311.445C313.513 194.159 315.196 192.476 315.196 190.408V3.92303C315.196 1.85502 313.513 0.171761 311.445 0.171761H178.776Z" fill="#EBEBEB"/>
<path d="M61.4974 130.724L224.966 130.724V28.4299L61.4974 28.4299V130.724Z" fill="#F0F0F0"/>
<path d="M221.765 125.915V33.2393L64.6922 33.2393V125.915L221.765 125.915Z" fill="#FAFAFA"/>
<path d="M201.091 125.915L184.973 33.2393H173.094L189.212 125.915H201.091Z" fill="white"/>
<path d="M186.471 125.915L170.353 33.2393H165.042L181.153 125.915H186.471Z" fill="white"/>
<path d="M160.466 125.915L144.355 33.2393H132.476L148.587 125.915H160.466Z" fill="white"/>
<path d="M130.518 125.915L114.4 33.2393H109.089L125.2 125.915H130.518Z" fill="white"/>
<path d="M180.501 125.915V33.2393H179.69V125.915H180.501Z" fill="#E0E0E0"/>
<path d="M221.771 125.915V33.2393H220.961V125.915H221.771Z" fill="#E0E0E0"/>
<path d="M183.695 125.915V33.2393H180.494V125.915H183.695Z" fill="#F0F0F0"/>
<path d="M140.844 125.915V33.2393H140.034V125.915H140.844Z" fill="#E0E0E0"/>
<path d="M144.039 125.915V33.2393H140.837V125.915H144.039Z" fill="#F0F0F0"/>
<path d="M101.174 125.915V33.2393H100.364V125.915H101.174Z" fill="#E0E0E0"/>
<path d="M104.369 125.915V33.2393H101.167V125.915H104.369Z" fill="#F0F0F0"/>
<path d="M61.4974 130.724L61.4974 28.4299H60.6867L60.6867 130.724H61.4974Z" fill="#E0E0E0"/>
<path d="M44.8847 21.4084H232.221C232.812 21.4084 233.293 20.9274 233.293 20.3366C233.293 19.7457 232.812 19.2648 232.221 19.2648H44.8847C44.2938 19.2648 43.8129 19.7457 43.8129 20.3366C43.8129 20.9274 44.2938 21.4084 44.8847 21.4084Z" fill="#E0E0E0"/>
<g opacity="0.6">
<path d="M158.522 203.853H229.604L229.604 17.2036H158.522L158.522 203.853Z" fill="#F5F5F5"/>
<path d="M201.744 205.385H207.701L206.031 18.7357H203.365L201.744 205.385Z" fill="#E6E6E6"/>
<path d="M214.887 205.385H217.766L216.955 18.7357H215.67L214.887 205.385Z" fill="#E6E6E6"/>
<path d="M184.472 205.385H187.344L186.54 18.7357H185.255L184.472 205.385Z" fill="#E6E6E6"/>
<path d="M169.838 205.385H172.709L171.906 18.7357H170.621L169.838 205.385Z" fill="#E6E6E6"/>
</g>
<g opacity="0.6">
<path d="M48.5535 203.853H84.0943L84.0943 17.2036H48.5535L48.5535 203.853Z" fill="#F5F5F5"/>
<path d="M70.1679 205.385H73.1428L72.3115 18.7357H70.9786L70.1679 205.385Z" fill="#E6E6E6"/>
<path d="M76.7361 205.385H78.172L77.7735 18.7357H77.1277L76.7361 205.385Z" fill="#E6E6E6"/>
<path d="M61.5318 205.385H62.9677L62.5623 18.7357H61.9165L61.5318 205.385Z" fill="#E6E6E6"/>
<path d="M54.2147 205.385H55.6506L55.2453 18.7357H54.5995L54.2147 205.385Z" fill="#E6E6E6"/>
</g>
<path d="M295.244 46.0664H248.092V104.919H295.244V46.0664Z" fill="#E6E6E6"/>
<path d="M297.319 46.0664H248.8V104.919H297.319V46.0664Z" fill="#F5F5F5"/>
<path d="M293.602 100.741V50.2437H252.524V100.741H293.602Z" fill="#FAFAFA"/>
<path d="M293.602 100.741V50.2437H293.217V100.741H293.602Z" fill="#E6E6E6"/>
<path d="M286.653 72.1706C288.972 69.8524 288.972 66.0939 286.653 63.7757C284.335 61.4575 280.577 61.4575 278.259 63.7757C275.94 66.0939 275.94 69.8524 278.259 72.1706C280.577 74.4888 284.335 74.4888 286.653 72.1706Z" fill="#F0F0F0"/>
<path d="M281.498 85.4076C286.21 80.6961 286.21 73.0573 281.498 68.3458C276.787 63.6343 269.148 63.6343 264.436 68.3458C259.725 73.0573 259.725 80.6961 264.436 85.4076C269.148 90.1191 276.787 90.1191 281.498 85.4076Z" fill="white"/>
<path d="M269.832 69.3366C270.585 66.1459 268.609 62.9488 265.418 62.1957C262.227 61.4427 259.03 63.4188 258.277 66.6095C257.524 69.8002 259.5 72.9973 262.691 73.7504C265.882 74.5035 269.079 72.5274 269.832 69.3366Z" fill="#F0F0F0"/>
<path d="M246.691 154.867H240.246V220.562H246.691V154.867Z" fill="#F0F0F0"/>
<path d="M307.26 150.937H238.68V154.867H307.26V150.937Z" fill="#F0F0F0"/>
<path d="M303.063 220.555H242.871V224.966H303.063V220.555Z" fill="#F0F0F0"/>
<path d="M305.694 154.867H246.691V220.562H305.694V154.867Z" fill="#FAFAFA"/>
<path d="M252.063 182.342H300.314V162.184H252.063V182.342Z" fill="#F0F0F0"/>
<path d="M252.063 211.988H300.314V191.83H252.063V211.988Z" fill="#F0F0F0"/>
<path d="M281.689 160.995H270.689C269.998 160.995 269.439 161.555 269.439 162.246V162.878C269.439 163.568 269.998 164.128 270.689 164.128H281.689C282.379 164.128 282.939 163.568 282.939 162.878V162.246C282.939 161.555 282.379 160.995 281.689 160.995Z" fill="#FAFAFA"/>
<path d="M281.689 190.648H270.689C269.998 190.648 269.439 191.208 269.439 191.899V192.531C269.439 193.221 269.998 193.781 270.689 193.781H281.689C282.379 193.781 282.939 193.221 282.939 192.531V191.899C282.939 191.208 282.379 190.648 281.689 190.648Z" fill="#FAFAFA"/>
<path d="M131.614 224.775C139.69 223.464 145.173 215.855 143.862 207.78C142.552 199.705 134.943 194.221 126.868 195.532C118.792 196.843 113.309 204.451 114.62 212.527C115.93 220.602 123.539 226.085 131.614 224.775Z" fill="#EBEBEB"/>
<path d="M109.449 224.731C119.528 223.095 126.372 213.598 124.736 203.519C123.1 193.44 113.603 186.596 103.524 188.232C93.4452 189.868 86.6009 199.365 88.237 209.444C89.873 219.523 99.3699 226.367 109.449 224.731Z" fill="#F5F5F5"/>
<path d="M171.761 256C245.332 256 304.973 252.518 304.973 248.223C304.973 243.927 245.332 240.445 171.761 240.445C98.1908 240.445 38.5501 243.927 38.5501 248.223C38.5501 252.518 98.1908 256 171.761 256Z" fill="#F5F5F5"/>
<path d="M86.9868 97.9659C82.4523 97.9659 80.3156 93.397 80.2194 93.1978C80.0133 92.7443 80.2126 92.2084 80.666 92.0023C81.1195 91.7962 81.6554 91.9954 81.8615 92.4489C81.889 92.5038 83.6684 96.2551 87.1242 96.1589C87.6258 96.1314 88.038 96.5368 88.0518 97.0383C88.0655 97.5399 87.6739 97.9521 87.1723 97.9659C87.1105 97.9659 87.0487 97.9659 86.9868 97.9659Z" fill="#3F80FF"/>
<path d="M146.313 34.5103C145.64 34.5103 145.193 34.4416 145.131 34.4347C144.637 34.3592 144.3 33.8989 144.376 33.4042C144.451 32.9095 144.912 32.5729 145.399 32.6484C145.441 32.6484 149.57 33.2324 151.39 30.285C151.652 29.859 152.208 29.7285 152.634 29.9896C153.06 30.2506 153.191 30.8071 152.929 31.2331C151.171 34.0844 148.031 34.5103 146.32 34.5103H146.313Z" fill="#3F80FF"/>
<path opacity="0.6" d="M146.313 34.5103C145.64 34.5103 145.193 34.4416 145.131 34.4347C144.637 34.3592 144.3 33.8989 144.376 33.4042C144.451 32.9095 144.912 32.5729 145.399 32.6484C145.441 32.6484 149.57 33.2324 151.39 30.285C151.652 29.859 152.208 29.7285 152.634 29.9896C153.06 30.2506 153.191 30.8071 152.929 31.2331C151.171 34.0844 148.031 34.5103 146.32 34.5103H146.313Z" fill="white"/>
<path d="M44.3831 68.9176C41.7586 68.9176 39.615 67.4679 39.4914 67.3855C39.0792 67.1038 38.9761 66.5404 39.2578 66.1282C39.5395 65.7159 40.1028 65.6129 40.5082 65.8946C40.5426 65.9152 44.0121 68.2374 46.9321 66.3755C47.3512 66.1075 47.9077 66.2312 48.1756 66.6503C48.4436 67.0694 48.3199 67.6259 47.9008 67.8939C46.7191 68.6427 45.503 68.9107 44.3831 68.9107V68.9176Z" fill="#3F80FF"/>
<path opacity="0.6" d="M44.3831 68.9176C41.7586 68.9176 39.615 67.4679 39.4914 67.3855C39.0792 67.1038 38.9761 66.5404 39.2578 66.1282C39.5395 65.7159 40.1028 65.6129 40.5082 65.8946C40.5426 65.9152 44.0121 68.2374 46.9321 66.3755C47.3512 66.1075 47.9077 66.2312 48.1756 66.6503C48.4436 67.0694 48.3199 67.6259 47.9008 67.8939C46.7191 68.6427 45.503 68.9107 44.3831 68.9107V68.9176Z" fill="white"/>
<path d="M280.06 44.8297C277.436 44.8297 275.292 43.38 275.169 43.2976C274.756 43.0159 274.653 42.4525 274.935 42.0403C275.217 41.628 275.78 41.525 276.185 41.8067C276.22 41.8273 279.689 44.1495 282.609 42.2876C283.028 42.0197 283.585 42.1433 283.853 42.5624C284.121 42.9815 283.997 43.538 283.578 43.806C282.396 44.5549 281.18 44.8228 280.06 44.8228V44.8297Z" fill="#3F80FF"/>
<path opacity="0.6" d="M280.06 44.8297C277.436 44.8297 275.292 43.38 275.169 43.2976C274.756 43.0159 274.653 42.4525 274.935 42.0403C275.217 41.628 275.78 41.525 276.185 41.8067C276.22 41.8273 279.689 44.1495 282.609 42.2876C283.028 42.0197 283.585 42.1433 283.853 42.5624C284.121 42.9815 283.997 43.538 283.578 43.806C282.396 44.5549 281.18 44.8228 280.06 44.8228V44.8297Z" fill="white"/>
<path d="M169.57 115.788C165.358 115.788 163.063 111.707 162.96 111.521C162.72 111.082 162.878 110.539 163.318 110.298C163.75 110.058 164.3 110.216 164.541 110.656C164.568 110.711 166.629 114.304 170.064 113.96C170.559 113.912 171.006 114.269 171.054 114.764C171.102 115.259 170.745 115.705 170.25 115.753C170.016 115.781 169.79 115.788 169.563 115.788H169.57Z" fill="#3F80FF"/>
<path opacity="0.6" d="M169.57 115.788C165.358 115.788 163.063 111.707 162.96 111.521C162.72 111.082 162.878 110.539 163.318 110.298C163.75 110.058 164.3 110.216 164.541 110.656C164.568 110.711 166.629 114.304 170.064 113.96C170.559 113.912 171.006 114.269 171.054 114.764C171.102 115.259 170.745 115.705 170.25 115.753C170.016 115.781 169.79 115.788 169.563 115.788H169.57Z" fill="white"/>
<path d="M54.2766 134.146C53.8712 134.146 53.5002 133.871 53.404 133.459C53.2872 132.978 53.5827 132.49 54.0636 132.366C54.1048 132.359 58.1378 131.301 58.6874 127.887C58.763 127.392 59.2302 127.062 59.7249 127.138C60.2195 127.213 60.5493 127.68 60.4737 128.168C59.7317 132.778 54.7163 134.063 54.5033 134.118C54.4277 134.139 54.359 134.146 54.2903 134.146H54.2766Z" fill="#3F80FF"/>
<path opacity="0.6" d="M54.2766 134.146C53.8712 134.146 53.5002 133.871 53.404 133.459C53.2872 132.978 53.5827 132.49 54.0636 132.366C54.1048 132.359 58.1378 131.301 58.6874 127.887C58.763 127.392 59.2302 127.062 59.7249 127.138C60.2195 127.213 60.5493 127.68 60.4737 128.168C59.7317 132.778 54.7163 134.063 54.5033 134.118C54.4277 134.139 54.359 134.146 54.2903 134.146H54.2766Z" fill="black"/>
<path d="M254.866 71.5214C254.461 71.5214 254.09 71.2466 253.994 70.8344C253.877 70.3535 254.172 69.8657 254.653 69.742C254.695 69.7351 258.728 68.6771 259.277 65.2625C259.353 64.7678 259.82 64.438 260.315 64.5136C260.809 64.5892 261.139 65.0563 261.064 65.5441C260.322 70.1542 255.306 71.439 255.093 71.494C255.018 71.5146 254.949 71.5214 254.88 71.5214H254.866Z" fill="#3F80FF"/>
<path opacity="0.6" d="M254.866 71.5214C254.461 71.5214 254.09 71.2466 253.994 70.8344C253.877 70.3535 254.172 69.8657 254.653 69.742C254.695 69.7351 258.728 68.6771 259.277 65.2625C259.353 64.7678 259.82 64.438 260.315 64.5136C260.809 64.5892 261.139 65.0563 261.064 65.5441C260.322 70.1542 255.306 71.439 255.093 71.494C255.018 71.5146 254.949 71.5214 254.88 71.5214H254.866Z" fill="black"/>
<path d="M291.809 105.771C291.761 105.771 291.706 105.771 291.651 105.757C291.438 105.723 286.34 104.781 285.282 100.233C285.172 99.7453 285.474 99.2644 285.955 99.1476C286.443 99.0376 286.924 99.3399 287.041 99.8209C287.824 103.194 291.919 103.964 291.96 103.971C292.448 104.06 292.778 104.527 292.688 105.015C292.613 105.455 292.228 105.764 291.802 105.764L291.809 105.771Z" fill="#3F80FF"/>
<path d="M275.704 138.893C274.324 138.893 272.778 138.536 271.383 137.375C270.998 137.059 270.95 136.489 271.266 136.104C271.582 135.719 272.152 135.671 272.537 135.987C275.196 138.199 278.927 136.344 278.968 136.324C279.415 136.097 279.957 136.276 280.184 136.715C280.411 137.155 280.239 137.698 279.792 137.931C279.676 137.993 277.889 138.893 275.698 138.893H275.704Z" fill="#3F80FF"/>
<path d="M233.561 26.149C233.41 26.149 233.259 26.1146 233.121 26.0322C232.929 25.9222 228.443 23.3321 228.972 18.6945C229.027 18.1998 229.473 17.8426 229.968 17.8975C230.463 17.9525 230.82 18.3991 230.765 18.8938C230.373 22.3359 233.973 24.4382 234.008 24.4588C234.441 24.7062 234.592 25.2558 234.344 25.6886C234.179 25.9841 233.87 26.149 233.561 26.149Z" fill="#3F80FF"/>
<path d="M54.1323 29.8041C53.672 29.8041 53.2735 29.4468 53.2323 28.9796C53.1911 28.485 53.5552 28.0453 54.0567 28.004C57.5057 27.7086 58.8523 23.7581 58.8592 23.7169C59.0172 23.2428 59.5256 22.9886 59.9997 23.1397C60.4737 23.2978 60.7279 23.7993 60.5768 24.2734C60.5081 24.4795 58.8592 29.3919 54.2079 29.7972C54.1804 29.7972 54.1529 29.7972 54.1323 29.7972V29.8041Z" fill="#3F80FF"/>
<path d="M121.167 56.9905C118.721 58.1241 116.578 63.6136 117.272 71.4871C117.973 79.3607 101.662 73.8368 99.4498 82.6585C95.4444 98.6254 122.301 108.223 133.747 98.6254C140.831 92.6894 147.488 73.1223 146.512 62.4456C145.468 50.9651 127.66 43.2633 121.167 56.9905Z" fill="#001640"/>
<path d="M146.938 77.1346C147.241 77.0521 147.68 76.9147 148.058 76.7911L149.24 76.3926C150.03 76.1178 150.813 75.8155 151.59 75.4857C153.142 74.8398 154.668 74.1391 156.117 73.3215C159.003 71.7001 161.703 69.7351 163.75 67.351C165.695 65.0426 167.089 61.889 168.182 58.6668C168.738 57.0454 169.206 55.3758 169.611 53.6788C170.03 51.9956 170.38 50.2436 170.676 48.5741L173.479 48.7527C173.493 52.4971 173.067 56.1316 172.27 59.8073C171.858 61.6348 171.329 63.4624 170.614 65.2624C169.893 67.0556 169.013 68.8488 167.749 70.5183C165.303 73.7406 162.218 76.2208 158.914 78.1789C157.258 79.1545 155.554 80.0202 153.802 80.769C152.923 81.1332 152.036 81.4767 151.136 81.7927C150.683 81.9508 150.229 82.1019 149.769 82.2393C149.295 82.3836 148.869 82.5004 148.306 82.6447L146.945 77.1414L146.938 77.1346Z" fill="#7F3E3B"/>
<path d="M173.451 49.6941L174.619 45.4962L169.982 45.8603C169.982 45.8603 169.652 48.6085 171.253 50.2643L173.451 49.7009V49.6941Z" fill="#7F3E3B"/>
<path d="M175.313 40.6182L171.081 41.7243L169.982 45.8603L174.619 45.4962L175.313 40.6182Z" fill="#7F3E3B"/>
<path d="M141.689 78.1996C143.826 76.2621 149.254 74.7781 149.254 74.7781L155.197 83.7509C155.197 83.7509 148.416 88.2716 145.53 87.2205C142.528 86.1281 139.69 80.0065 141.682 78.1996H141.689Z" fill="#3F80FF"/>
<path d="M122.115 205.248L125.819 209.315L136.447 201.737L132.744 197.677L122.115 205.248Z" fill="#7F3E3B"/>
<path d="M101.216 221.318L106.183 223.778L113.486 213.067L108.519 210.6L101.216 221.318Z" fill="#7F3E3B"/>
<path d="M106.973 223.173L103.139 218.261C103.002 218.082 102.761 218.034 102.569 218.144L98.2475 220.617C97.8009 220.871 97.691 221.517 98.0139 221.923C99.3811 223.613 100.123 224.362 101.806 226.519C102.844 227.845 104.939 230.943 106.375 232.778C107.777 234.571 109.701 233.293 109.268 232.4C107.33 228.401 107.207 226.024 107.275 224.107C107.289 223.764 107.179 223.427 106.973 223.166V223.173Z" fill="#001640"/>
<path d="M126.925 209.391L124.396 203.317C124.307 203.098 124.067 202.96 123.826 202.995L118.474 203.675C117.918 203.743 117.602 204.307 117.821 204.815C118.742 206.924 119.299 207.907 120.405 210.579C121.092 212.222 122.686 216.543 123.627 218.81C124.548 221.029 126.987 220.562 126.808 219.559C126.004 215.059 126.272 212.167 126.945 210.394C127.069 210.078 127.055 209.721 126.918 209.398L126.925 209.391Z" fill="#001640"/>
<path opacity="0.2" d="M136.44 201.744L130.965 205.646L126.822 201.888L132.737 197.677L136.44 201.744Z" fill="black"/>
<path opacity="0.2" d="M108.519 210.607L113.486 213.073L109.714 218.59L104.747 216.124L108.519 210.607Z" fill="black"/>
<path d="M149.171 78.8935C149.171 78.8935 149.343 78.6462 146.334 111.48C137.416 112.105 128.203 112.751 123.867 113.053C123.606 103.881 124.293 97.4162 120.006 78.5843C120.006 78.5843 124.733 77.5812 129.577 77.3751C133.369 77.2102 136.475 77.1072 139.807 77.4301C144.197 77.8561 149.171 78.9004 149.171 78.9004V78.8935Z" fill="#3F80FF"/>
<path d="M121.696 84.0257C120.027 83.2493 118.563 82.4317 117.045 81.5592C115.547 80.6935 114.091 79.7454 112.662 78.756C109.804 76.7774 107.062 74.5788 104.589 72.0093L103.675 71.0268L103.442 70.7794C103.311 70.6214 103.174 70.4634 103.064 70.3054C102.83 69.9825 102.665 69.6596 102.514 69.3366C101.964 68.0656 101.882 66.9595 101.854 65.9426C101.834 63.9227 102.184 62.157 102.596 60.4257C103.483 56.9904 104.692 53.8163 106.21 50.704L108.828 51.7139C108.429 53.2735 108.038 54.895 107.701 56.482C107.351 58.076 107.069 59.6699 106.87 61.2364C106.671 62.7891 106.561 64.3624 106.691 65.6884C106.753 66.3411 106.925 66.9182 107.076 67.1725C107.117 67.2274 107.145 67.2755 107.165 67.2824C107.172 67.2961 107.179 67.2824 107.186 67.2893L107.392 67.4885L108.237 68.2992C110.532 70.4222 113.115 72.3253 115.788 74.0979C117.127 74.9842 118.522 75.8017 119.903 76.6193C121.277 77.4232 122.748 78.2133 124.094 78.8935L121.689 84.0257H121.696Z" fill="#7F3E3B"/>
<path d="M128.848 79.8348C126.3 76.2827 121.318 76.3377 121.318 76.3377L115.286 85.2487C115.286 85.2487 122.026 89.8381 124.919 88.8213C127.928 87.7564 130.429 82.0264 128.855 79.8348H128.848Z" fill="#3F80FF"/>
<path d="M139.8 77.4231L129.57 77.3682C128.01 78.0002 127.097 82.0744 137.478 85.5303C144.664 81.4423 140.837 77.8079 139.8 77.4231Z" fill="white"/>
<path d="M130.649 65.8602C131.274 69.1512 131.885 75.1903 129.577 77.3682C129.577 77.3682 130.47 80.7142 137.485 85.5303C142.397 80.6042 139.807 77.4232 139.807 77.4232C136.145 76.53 136.248 73.8025 136.901 71.2535L130.649 65.8602Z" fill="#7F3E3B"/>
<path d="M151.858 98.5361C151.823 98.5361 151.782 98.5361 151.748 98.5361C150.992 98.4742 150.429 97.8147 150.49 97.0589C150.738 93.9947 148.443 91.6794 145.784 88.9999C142.734 85.9288 139.285 82.4455 139.14 77.0247C139.12 76.2689 139.718 75.6369 140.48 75.6162C141.236 75.5956 141.868 76.1934 141.889 76.956C141.999 81.2844 144.912 84.2249 147.735 87.0693C150.607 89.9686 153.582 92.9641 153.232 97.2857C153.177 98.0071 152.572 98.5498 151.865 98.5498L151.858 98.5361Z" fill="#001640"/>
<path d="M131.755 105.496C131.645 105.496 131.535 105.482 131.425 105.455C130.69 105.276 130.236 104.527 130.422 103.792C131.748 98.4056 130.01 94.1871 128.168 89.7213C126.519 85.7227 124.816 81.5867 125.647 76.7499C125.777 76.001 126.485 75.4995 127.234 75.63C127.983 75.7606 128.484 76.4682 128.354 77.2171C127.66 81.2707 129.144 84.8708 130.71 88.677C132.552 93.136 134.633 98.1995 133.094 104.452C132.943 105.077 132.38 105.496 131.762 105.496H131.755Z" fill="#001640"/>
<path opacity="0.2" d="M135.609 70.1405L132.826 70.4634C132.881 70.8482 133.163 71.8993 133.61 72.552C134.152 73.3696 135.362 73.7338 136.557 73.7612C136.53 72.9574 136.688 72.0917 136.901 71.2535L135.616 70.1405H135.609Z" fill="black"/>
<path d="M124.568 62.5555C126.581 67.6809 127.316 69.8932 130.827 71.7207C136.104 74.4757 141.957 70.8825 141.518 65.2625C141.126 60.2058 137.904 52.6758 132.112 52.2498C126.409 51.8307 122.555 57.4302 124.568 62.5555Z" fill="#7F3E3B"/>
<path d="M130.085 51.501C134.001 53.9056 130.649 68.0588 124.032 67.3236C117.416 66.5885 124.307 47.9489 130.085 51.501Z" fill="#001640"/>
<path d="M129.941 51.549C126.993 53.5071 129 56.9148 138.934 54.9018C138.934 54.9018 134.826 48.2993 129.941 51.549Z" fill="#001640"/>
<path d="M125.283 67.5365C125.736 68.5809 126.636 69.3229 127.516 69.6526C128.835 70.1473 129.618 68.9931 129.35 67.6877C129.11 66.506 128.134 64.8296 126.76 64.8983C125.406 64.967 124.761 66.348 125.283 67.5434V67.5365Z" fill="#7F3E3B"/>
<path d="M146.327 111.48C146.327 111.48 158.35 150.731 159.319 167.618C160.322 185.186 134.235 206.031 134.235 206.031L127.742 198.907C127.742 198.907 148.938 180.906 146.031 167.866C142.026 149.893 129.879 112.634 129.879 112.634L146.334 111.48H146.327Z" fill="#001640"/>
<path opacity="0.2" d="M138.845 124.328C137.739 120.879 135.3 123.208 134.448 126.842C136.145 132.318 138.11 138.769 139.979 145.207C140.693 139.491 140.995 131.061 138.845 124.328Z" fill="black"/>
<path d="M125.997 198.563L134.235 207.062L137.759 205.117L129.048 195.643L125.997 198.563Z" fill="#3F80FF"/>
<path d="M140.398 111.899C140.398 111.899 136.976 150.367 133.527 171.803C130.738 189.116 111.844 217.395 111.844 217.395L104.919 214.173C104.919 214.173 117.622 183.888 119.601 172.119C125.949 134.448 117.368 123.586 123.867 113.053L140.405 111.899H140.398Z" fill="#001640"/>
<path d="M104.431 214.241L112.243 218.082L114.805 214.894L105.668 210.593L104.431 214.241Z" fill="#3F80FF"/>
<path d="M123.435 111.762L122.562 113.843C122.493 114.008 122.693 114.153 122.947 114.132L146.512 112.483C146.712 112.469 146.877 112.359 146.877 112.229L146.938 110.202C146.938 110.065 146.76 109.955 146.54 109.968L123.785 111.562C123.62 111.576 123.476 111.652 123.428 111.755L123.435 111.762Z" fill="white"/>
<path d="M126.664 114.091L126.052 114.132C125.929 114.139 125.832 114.084 125.839 114.008L125.942 111.377C125.942 111.301 126.045 111.233 126.169 111.219L126.78 111.178C126.904 111.171 127 111.226 126.993 111.301L126.89 113.933C126.89 114.008 126.787 114.077 126.664 114.091Z" fill="#001640"/>
<path d="M144.815 112.82L144.204 112.861C144.08 112.868 143.984 112.813 143.991 112.737L144.094 110.106C144.094 110.03 144.197 109.962 144.321 109.948L144.932 109.907C145.056 109.9 145.152 109.955 145.145 110.03L145.042 112.662C145.042 112.737 144.939 112.806 144.815 112.82Z" fill="#001640"/>
<path d="M135.74 113.452L135.128 113.493C135.004 113.5 134.908 113.445 134.915 113.369L135.018 110.738C135.018 110.662 135.121 110.594 135.245 110.58L135.856 110.539C135.98 110.532 136.076 110.587 136.069 110.662L135.966 113.294C135.966 113.369 135.863 113.438 135.74 113.452Z" fill="#001640"/>
<path d="M132.847 60.6317C132.517 60.7417 132.38 61.2363 132.545 61.7516L133.747 61.36C133.582 60.8516 133.177 60.5218 132.847 60.6317Z" fill="#001640"/>
<path d="M138.062 58.9692C137.732 59.0791 137.595 59.5737 137.759 60.089L138.969 59.6974C138.804 59.189 138.398 58.8592 138.069 58.9692H138.062Z" fill="#001640"/>
<path d="M137.924 59.0447L139.031 58.2958C139.031 58.2958 138.714 59.4569 137.924 59.0447Z" fill="#001640"/>
<path d="M136.75 61.0439C136.75 61.0439 138.062 62.6448 139.147 63.27C138.756 63.9776 137.725 64.0463 137.725 64.0463L136.756 61.0439H136.75Z" fill="#630F0F"/>
<path d="M136.804 66.1832C136.846 66.1488 136.859 66.0938 136.846 66.0457C136.825 65.977 136.75 65.9358 136.681 65.9633C134.819 66.5679 133.52 65.5442 133.507 65.5305C133.452 65.4824 133.369 65.4892 133.321 65.5511C133.273 65.606 133.287 65.6885 133.342 65.7366C133.397 65.7847 134.757 66.8565 136.763 66.2106C136.784 66.2106 136.798 66.1969 136.811 66.1832H136.804Z" fill="#001640"/>
<path d="M131.109 60.3226C131.109 60.3226 131.171 60.2539 131.184 60.2126C131.569 59.1065 132.504 58.866 132.517 58.8592C132.662 58.8248 132.744 58.6805 132.71 58.5431C132.675 58.4057 132.531 58.3164 132.394 58.3508C132.346 58.3645 131.171 58.6668 130.69 60.0409C130.642 60.1783 130.717 60.3294 130.855 60.3775C130.944 60.4119 131.047 60.3844 131.116 60.3294L131.109 60.3226Z" fill="#001640"/>
<path d="M139.34 56.9286C139.34 56.9286 139.36 56.908 139.374 56.8942C139.463 56.7774 139.443 56.6125 139.333 56.5232C138.192 55.6232 137.038 55.9942 136.99 56.0079C136.853 56.056 136.777 56.2003 136.825 56.3377C136.873 56.4751 137.017 56.5507 137.155 56.5026C137.196 56.4889 138.096 56.214 139.003 56.9286C139.106 57.011 139.243 57.0041 139.34 56.9217V56.9286Z" fill="#001640"/>
<path d="M111.817 52.7514C111.659 52.7514 111.494 52.7102 111.343 52.614L90.4358 39.7388C90.0098 39.4777 89.8793 38.9212 90.1404 38.4952C90.4014 38.0692 90.9579 37.9387 91.3839 38.1998L112.291 51.075C112.717 51.3361 112.847 51.8926 112.586 52.3186C112.414 52.5934 112.119 52.7445 111.817 52.7445V52.7514Z" fill="#3F80FF"/>
<path d="M95.1764 41.1678C96.3444 41.1128 97.5604 41.0579 97.7185 40.0067C97.8765 38.9555 96.736 38.5433 95.6367 38.1448C95.5474 38.1104 95.4443 38.0761 95.3413 38.0349C95.3207 37.9318 95.2932 37.8287 95.2657 37.7257C95.3482 37.6295 95.4306 37.5402 95.5062 37.4577C96.2757 36.6058 97.0795 35.7264 96.4612 34.8882C95.8428 34.05 94.7642 34.5515 93.7267 35.0325C93.6305 35.0737 93.5206 35.1286 93.4038 35.1836C93.3145 35.1286 93.2252 35.0737 93.1359 35.0187C93.1359 34.9088 93.1221 34.7989 93.1221 34.7027C93.0672 33.5347 93.0122 32.3186 91.961 32.1606C90.9098 32.0026 90.4976 33.1431 90.0991 34.2424C90.0648 34.3317 90.0304 34.4347 89.9892 34.5378C89.8861 34.5584 89.7831 34.5859 89.68 34.6134C89.5838 34.5309 89.4945 34.4416 89.4121 34.3729C88.5601 33.6034 87.6807 32.7996 86.8425 33.4248C86.0043 34.0431 86.5059 35.1218 86.9868 36.1592C87.028 36.2554 87.083 36.3653 87.138 36.4821C87.083 36.5714 87.028 36.6608 86.9731 36.7501C86.8631 36.7501 86.7532 36.7638 86.657 36.7638C85.489 36.8188 84.273 36.8737 84.115 37.9249C83.9569 38.9761 85.0974 39.3883 86.1967 39.7868C86.286 39.8212 86.3891 39.8555 86.4921 39.8967C86.5127 39.9998 86.5402 40.1029 86.5677 40.2059C86.4853 40.3021 86.396 40.3914 86.3272 40.4739C85.5578 41.3258 84.7539 42.2052 85.3791 43.0434C86.0043 43.8816 87.0761 43.3801 88.1136 42.8991C88.2097 42.8579 88.3197 42.8029 88.4365 42.748C88.5258 42.8029 88.6151 42.8579 88.7044 42.9129C88.7044 43.0228 88.7182 43.1327 88.7182 43.2289C88.7731 44.3969 88.8281 45.613 89.8793 45.771C90.9305 45.929 91.3427 44.7885 91.7412 43.6892C91.7755 43.5999 91.8099 43.4969 91.8511 43.3938C91.9541 43.3732 92.0572 43.3457 92.1603 43.3182C92.2564 43.4007 92.3458 43.4831 92.4282 43.5587C93.2801 44.3282 94.1596 45.132 94.9978 44.5137C95.8428 43.8954 95.3413 42.8167 94.8535 41.7793C94.8123 41.6831 94.7573 41.5731 94.7023 41.4563C94.7573 41.367 94.8123 41.2777 94.8672 41.1884C94.9771 41.1884 95.0871 41.1747 95.1833 41.1747L95.1764 41.1678Z" fill="#3F80FF"/>
<path opacity="0.7" d="M95.1764 41.1678C96.3444 41.1128 97.5604 41.0579 97.7185 40.0067C97.8765 38.9555 96.736 38.5433 95.6367 38.1448C95.5474 38.1104 95.4443 38.0761 95.3413 38.0349C95.3207 37.9318 95.2932 37.8287 95.2657 37.7257C95.3482 37.6295 95.4306 37.5402 95.5062 37.4577C96.2757 36.6058 97.0795 35.7264 96.4612 34.8882C95.8428 34.05 94.7642 34.5515 93.7267 35.0325C93.6305 35.0737 93.5206 35.1286 93.4038 35.1836C93.3145 35.1286 93.2252 35.0737 93.1359 35.0187C93.1359 34.9088 93.1221 34.7989 93.1221 34.7027C93.0672 33.5347 93.0122 32.3186 91.961 32.1606C90.9098 32.0026 90.4976 33.1431 90.0991 34.2424C90.0648 34.3317 90.0304 34.4347 89.9892 34.5378C89.8861 34.5584 89.7831 34.5859 89.68 34.6134C89.5838 34.5309 89.4945 34.4416 89.4121 34.3729C88.5601 33.6034 87.6807 32.7996 86.8425 33.4248C86.0043 34.0431 86.5059 35.1218 86.9868 36.1592C87.028 36.2554 87.083 36.3653 87.138 36.4821C87.083 36.5714 87.028 36.6608 86.9731 36.7501C86.8631 36.7501 86.7532 36.7638 86.657 36.7638C85.489 36.8188 84.273 36.8737 84.115 37.9249C83.9569 38.9761 85.0974 39.3883 86.1967 39.7868C86.286 39.8212 86.3891 39.8555 86.4921 39.8967C86.5127 39.9998 86.5402 40.1029 86.5677 40.2059C86.4853 40.3021 86.396 40.3914 86.3272 40.4739C85.5578 41.3258 84.7539 42.2052 85.3791 43.0434C86.0043 43.8816 87.0761 43.3801 88.1136 42.8991C88.2097 42.8579 88.3197 42.8029 88.4365 42.748C88.5258 42.8029 88.6151 42.8579 88.7044 42.9129C88.7044 43.0228 88.7182 43.1327 88.7182 43.2289C88.7731 44.3969 88.8281 45.613 89.8793 45.771C90.9305 45.929 91.3427 44.7885 91.7412 43.6892C91.7755 43.5999 91.8099 43.4969 91.8511 43.3938C91.9541 43.3732 92.0572 43.3457 92.1603 43.3182C92.2564 43.4007 92.3458 43.4831 92.4282 43.5587C93.2801 44.3282 94.1596 45.132 94.9978 44.5137C95.8428 43.8954 95.3413 42.8167 94.8535 41.7793C94.8123 41.6831 94.7573 41.5731 94.7023 41.4563C94.7573 41.367 94.8123 41.2777 94.8672 41.1884C94.9771 41.1884 95.0871 41.1747 95.1833 41.1747L95.1764 41.1678Z" fill="white"/>
<path d="M105.578 52.9713L104.719 47.468L110.326 50.1887C110.326 50.1887 110.223 51.1918 108.924 52.614C108.34 53.2529 107.44 53.514 106.609 53.2736L105.578 52.9713Z" fill="#7F3E3B"/>
<path d="M107.866 44.7748L110.738 47.3031L110.326 50.1887L104.719 47.468L107.866 44.7748Z" fill="#7F3E3B"/>
<path d="M108.773 225.804C108.828 225.763 108.883 225.722 108.938 225.667C109.096 225.509 109.096 225.344 109.068 225.234C108.904 224.547 107.007 223.887 106.794 223.812C106.746 223.798 106.691 223.812 106.657 223.846C106.623 223.887 106.616 223.942 106.636 223.991C106.945 224.664 107.564 225.804 108.258 225.921C108.443 225.955 108.615 225.914 108.78 225.804H108.773ZM107.007 224.169C107.756 224.458 108.725 224.932 108.814 225.296C108.828 225.344 108.828 225.406 108.752 225.481C108.608 225.633 108.464 225.688 108.299 225.66C107.921 225.598 107.454 225.042 107.007 224.162V224.169Z" fill="#3F80FF"/>
<path d="M109.123 223.97C109.172 223.936 109.213 223.901 109.247 223.867C109.33 223.778 109.433 223.578 109.268 223.29C109.158 223.111 109 223.001 108.787 222.96C107.997 222.816 106.732 223.791 106.678 223.833C106.643 223.86 106.623 223.908 106.629 223.956C106.629 224.004 106.664 224.046 106.712 224.059C107.227 224.272 108.594 224.341 109.13 223.977L109.123 223.97ZM107.076 223.86C107.523 223.558 108.271 223.132 108.732 223.214C108.869 223.242 108.965 223.31 109.034 223.42C109.123 223.565 109.082 223.64 109.041 223.688C108.787 223.984 107.694 224.039 107.035 223.881C107.049 223.874 107.055 223.867 107.069 223.853L107.076 223.86Z" fill="#3F80FF"/>
<path d="M127.048 212.503C127.241 212.97 127.495 213.383 127.825 213.568C128.052 213.699 128.285 213.719 128.539 213.637C128.725 213.575 128.787 213.444 128.807 213.348C128.952 212.641 127.151 210.964 126.787 210.634C126.746 210.593 126.684 210.586 126.636 210.614C126.588 210.641 126.561 210.696 126.568 210.751C126.65 211.232 126.808 211.912 127.048 212.503ZM128.498 213.032C128.539 213.135 128.56 213.225 128.546 213.293C128.546 213.328 128.526 213.362 128.45 213.389C128.278 213.451 128.113 213.438 127.955 213.348C127.536 213.101 127.152 212.276 126.904 211.108C127.543 211.72 128.299 212.551 128.498 213.039V213.032Z" fill="#3F80FF"/>
<path d="M126.574 210.779C126.574 210.779 126.588 210.806 126.602 210.82C127.165 211.39 128.848 212.311 129.391 211.995C129.508 211.926 129.632 211.775 129.542 211.445C129.185 210.181 126.78 210.579 126.677 210.6C126.629 210.607 126.588 210.641 126.574 210.689C126.567 210.717 126.567 210.751 126.574 210.779ZM129.261 211.431C129.261 211.431 129.281 211.486 129.288 211.514C129.323 211.644 129.316 211.734 129.261 211.761C128.945 211.947 127.674 211.356 127 210.813C127.598 210.751 128.958 210.696 129.261 211.425V211.431Z" fill="#3F80FF"/>
<path d="M132.71 60.7074L133.816 59.9585C133.816 59.9585 133.5 61.1196 132.71 60.7074Z" fill="#001640"/>
<path d="M222.527 240.686L217.203 240.693L215.767 228.36L221.091 228.353L222.527 240.686Z" fill="#FFC3BD"/>
<path d="M268.36 217.807L264.327 221.284L255.196 212.881L259.222 209.405L268.36 217.807Z" fill="#FFC3BD"/>
<path d="M263.544 221.153L268.456 216.907C268.621 216.763 268.855 216.763 269.026 216.893L272.771 219.916C273.162 220.232 273.156 220.844 272.771 221.167C271.17 222.507 269.94 223.407 267.948 225.124C266.725 226.182 263.138 229.508 261.441 230.964C259.786 232.393 258.15 230.888 258.721 230.133C261.263 226.746 262.836 223.757 263.09 221.971C263.138 221.648 263.296 221.359 263.544 221.146V221.153Z" fill="#001640"/>
<path d="M217.237 240.074H223.049C223.269 240.067 223.455 240.218 223.503 240.431L224.561 245.165C224.671 245.653 224.3 246.12 223.798 246.113C221.703 246.079 218.673 245.962 216.035 245.969C212.95 245.969 211.15 246.052 207.536 246.058C205.351 246.058 204.74 243.853 205.653 243.654C209.817 242.733 212.359 242.726 215.959 240.5C216.351 240.26 216.783 240.081 217.244 240.081L217.237 240.074Z" fill="#001640"/>
<path d="M199.944 87.6327C198.872 87.2273 197.952 86.8426 196.99 86.4029C196.035 85.9769 195.1 85.5303 194.166 85.07C192.304 84.1356 190.476 83.1257 188.69 82.0127C186.89 80.9203 185.152 79.6767 183.462 78.3301C183.043 77.9866 182.617 77.6499 182.204 77.2927L180.982 76.1728C180.576 75.8018 180.191 75.3758 179.8 74.9773C179.601 74.7643 179.422 74.5994 179.202 74.3384C178.982 74.0773 178.755 73.8231 178.556 73.562C177.746 72.5108 177.155 71.439 176.66 70.3672C176.158 69.2954 175.767 68.2305 175.437 67.1725C174.784 65.0495 174.379 62.954 174.097 60.8654C173.541 56.6882 173.472 52.6209 173.795 48.4574L177.794 48.4161C178.062 50.278 178.35 52.2361 178.735 54.1186C179.099 56.008 179.504 57.8836 179.999 59.6974C180.487 61.5112 181.05 63.2838 181.744 64.9052C182.411 66.5267 183.269 67.9969 184.163 69.0138L184.499 69.3573C184.602 69.4672 184.808 69.6321 184.959 69.7695C185.289 70.0512 185.592 70.3466 185.942 70.6214C186.636 71.1711 187.337 71.7138 188.086 72.2291C189.576 73.2666 191.136 74.249 192.771 75.1628C194.406 76.0766 196.076 76.956 197.78 77.7805C198.632 78.1996 199.484 78.6118 200.342 78.9965C201.188 79.3813 202.101 79.7798 202.871 80.1095L199.951 87.6327H199.944Z" fill="#FFC3BD"/>
<path d="M200.782 92.174C196.406 89.5701 192.222 85.7707 192.222 85.7707L194.345 74.8948C194.345 74.8948 200.906 76.791 206.361 77.5193C213.053 78.4124 205.557 95.0183 200.775 92.174H200.782Z" fill="#001640"/>
<path d="M177.869 49.4122L178.24 42.6311L172.613 44.438C172.613 44.438 171.294 49.2954 174.956 50.5733L177.869 49.4122Z" fill="#FFC3BD"/>
<path d="M177.567 38.9761L172.916 40.9135L172.613 44.4381L178.247 42.6312L177.567 38.9761Z" fill="#FFC3BD"/>
<path opacity="0.2" d="M215.767 228.367L216.509 234.722L221.833 234.715L221.098 228.36L215.767 228.367Z" fill="black"/>
<path opacity="0.2" d="M259.229 209.405L255.196 212.888L259.909 217.216L263.935 213.733L259.229 209.405Z" fill="black"/>
<path d="M226.835 77.3269C226.883 75.7398 225.639 74.407 224.052 74.3726C208.855 74.0909 198.968 78.3506 198.288 78.6254C197.766 78.8316 197.402 79.2919 197.306 79.8415C196.674 83.6477 194.88 99.6009 203.668 124.568C212.16 123.359 227.728 121.14 231.864 120.542C231.459 116.385 226.217 97.3062 226.842 77.3269H226.835Z" fill="#001640"/>
<path d="M204.08 76.7155C202.41 78.9484 201.655 84.0943 207.185 87.8594C213.987 82.7821 217.477 77.3201 218.529 74.4757C212.489 74.7986 207.563 75.7811 204.08 76.7155Z" fill="white"/>
<path d="M202.788 78.8041C202.033 78.8041 201.414 78.1857 201.414 77.43C201.414 76.2964 202.397 75.3139 203.221 74.6955C206.011 72.5932 211.445 71.0611 218.322 73.0398C219.051 73.2528 219.47 74.0085 219.264 74.7436C219.051 75.4719 218.295 75.891 217.56 75.6849C209.59 73.3833 204.685 76.6536 204.149 77.5949C204.066 78.2751 203.489 78.8041 202.781 78.8041H202.788Z" fill="#3F80FF"/>
<path d="M214.207 61.4081C214.001 65.3724 214.255 72.5451 217.319 74.7299C215.519 77.114 213.122 79.9102 208.566 80.7278C205.832 81.2156 204.877 80.1988 204.76 78.914C204.643 77.6636 205.351 76.4613 206.437 75.8292C209.398 74.1116 208.807 71.3497 207.742 68.732L214.2 61.4012L214.207 61.4081Z" fill="#FFC3BD"/>
<path d="M202.369 110.326C202.218 110.326 202.06 110.298 201.909 110.25C201.194 109.996 200.817 109.213 201.071 108.498C201.552 107.145 201.311 106.485 200.961 105.496L200.823 105.104C200.7 104.754 200.294 104.307 199.903 103.874C199.278 103.187 198.577 102.411 198.343 101.374C198.089 100.247 198.446 99.1888 198.728 98.3437C198.879 97.8903 199.051 97.3681 199.023 97.1002C198.982 96.7429 198.687 96.2207 198.398 95.7261C197.938 94.936 197.423 94.0359 197.429 92.9916C197.436 91.8237 198.034 90.8961 198.515 90.1473C198.749 89.79 199.03 89.3434 199.058 89.1167C199.099 88.7938 199.003 88.4846 198.838 88.0037C198.618 87.3441 198.343 86.5265 198.604 85.5303C198.913 84.3555 199.676 83.6822 200.239 83.1944C200.494 82.9745 200.755 82.7478 200.81 82.5966C200.926 82.3218 200.885 82.047 200.81 81.5798C200.707 80.9477 200.569 80.0889 201.119 79.2164C201.6 78.4675 201.552 78.2682 201.51 78.1102C201.469 77.9385 201.401 77.6843 201.421 77.3682C201.462 76.6125 202.108 76.0353 202.864 76.0628C203.578 76.0972 204.142 76.6812 204.169 77.3888V77.4301C204.375 78.2064 204.43 79.1339 203.469 80.6523C203.469 80.7485 203.503 80.9683 203.53 81.1332C203.627 81.7241 203.778 82.6241 203.359 83.6409C203.049 84.3898 202.5 84.8708 202.053 85.2624C201.614 85.6471 201.359 85.8807 201.27 86.2174C201.222 86.4097 201.304 86.6777 201.455 87.1311C201.655 87.7357 201.909 88.4984 201.792 89.4465C201.689 90.2984 201.236 91.0061 200.83 91.6313C200.514 92.126 200.184 92.6344 200.184 93.0054C200.184 93.3008 200.5 93.8573 200.789 94.3451C201.201 95.0596 201.668 95.8635 201.772 96.791C201.868 97.6635 201.593 98.4811 201.352 99.2094C201.16 99.7865 200.961 100.384 201.043 100.769C201.119 101.099 201.565 101.587 201.957 102.026C202.514 102.638 203.139 103.325 203.441 104.211L203.565 104.568C203.977 105.716 204.485 107.138 203.682 109.412C203.482 109.975 202.953 110.326 202.383 110.326H202.369Z" fill="#3F80FF"/>
<path d="M226.581 77.1002C227.33 77.7804 227.948 78.3644 228.587 79.0239C229.219 79.6698 229.837 80.3225 230.449 80.982C231.672 82.3012 232.826 83.689 233.939 85.1249C236.151 88.0105 238.178 91.1091 239.71 94.6817C240.088 95.5817 240.432 96.5093 240.713 97.4849C240.864 97.9658 240.981 98.4673 241.098 98.9689L241.139 99.1544L241.201 99.4773C241.242 99.6971 241.263 99.9239 241.284 100.144C241.311 100.597 241.304 101.051 241.242 101.49C241.132 102.377 240.851 103.174 240.5 103.84C240.157 104.506 239.751 105.07 239.339 105.544C238.515 106.499 237.649 107.179 236.79 107.756C235.073 108.904 233.348 109.666 231.61 110.298C230.744 110.614 229.872 110.882 228.992 111.109C228.106 111.343 227.261 111.549 226.306 111.714L225.069 107.914C225.736 107.529 226.491 107.124 227.185 106.712C227.886 106.286 228.58 105.867 229.246 105.434C230.579 104.568 231.85 103.641 232.84 102.7C233.321 102.225 233.726 101.745 233.96 101.36C234.2 100.968 234.179 100.707 234.111 100.79C234.097 100.803 234.083 100.831 234.076 100.858C234.07 100.872 234.076 100.886 234.063 100.893C234.063 100.893 234.063 100.913 234.063 100.899L234.021 100.776C233.918 100.453 233.815 100.13 233.685 99.8071C233.444 99.1544 233.135 98.5017 232.805 97.8421C232.146 96.523 231.356 95.2107 230.463 93.9328C229.583 92.6412 228.621 91.377 227.604 90.1403C226.601 88.8968 225.523 87.6876 224.437 86.4853C223.894 85.8875 223.338 85.2967 222.774 84.7264C222.218 84.1699 221.62 83.5447 221.119 83.0638L226.567 77.1071L226.581 77.1002Z" fill="#FFC3BD"/>
<path d="M224.808 74.4963C227.914 74.9498 232.785 82.7202 232.785 82.7202L224.877 93.3214C224.877 93.3214 220.658 89.309 219.429 85.7639C217.072 78.9965 218.707 73.6031 224.808 74.4963Z" fill="#001640"/>
<path d="M220.665 101.181C220.198 101.181 219.745 100.941 219.484 100.515C218.893 99.5254 218.893 98.4124 218.9 97.5192C218.9 97.0383 218.9 96.4955 218.79 96.2482C218.638 95.9184 218.192 95.5199 217.759 95.1352C217.072 94.5237 216.302 93.8367 215.98 92.8405C215.622 91.7275 215.897 90.6625 216.117 89.8037C216.22 89.3915 216.357 88.8762 216.309 88.6564C216.241 88.306 215.897 87.825 215.567 87.3578C215.052 86.6296 214.468 85.7983 214.399 84.7883C214.324 83.5722 214.887 82.6104 215.341 81.8409C215.512 81.5454 215.773 81.0989 215.787 80.9408C215.815 80.5423 215.609 79.979 215.416 79.4293C215.114 78.5911 214.805 77.7255 215.031 76.8186C215.554 74.7712 216.44 73.9124 216.866 73.507L216.955 73.4246C217.484 72.8749 218.35 72.8612 218.9 73.3902C219.449 73.9192 219.463 74.7849 218.934 75.3345C218.886 75.3826 218.838 75.4307 218.776 75.4926C218.48 75.7811 218.027 76.214 217.697 77.5056C217.697 77.643 217.876 78.1652 218.006 78.5087C218.274 79.2507 218.604 80.1713 218.535 81.147C218.474 81.9508 218.075 82.6378 217.718 83.2424C217.422 83.7371 217.127 84.2524 217.148 84.6234C217.161 84.857 217.546 85.3929 217.821 85.7845C218.295 86.4509 218.824 87.2067 219.009 88.1273C219.174 88.9655 218.968 89.7831 218.783 90.5045C218.638 91.0748 218.487 91.6587 218.597 92.016C218.687 92.2977 219.188 92.7443 219.593 93.1015C220.205 93.6443 220.899 94.2695 221.29 95.1146C221.655 95.9116 221.655 96.7772 221.648 97.5399C221.648 98.1513 221.648 98.7834 221.847 99.1201C222.239 99.7728 222.026 100.618 221.373 101.003C221.153 101.133 220.906 101.195 220.672 101.195L220.665 101.181Z" fill="#3F80FF"/>
<path opacity="0.2" d="M211.569 64.4036L207.742 68.7388C208.024 69.419 208.264 70.1198 208.415 70.8137C210.023 70.3396 212.022 68.2167 211.954 66.4716C211.919 65.599 211.761 64.7814 211.569 64.4036Z" fill="black"/>
<path d="M203.537 50.1405C201.84 53.0948 202.926 57.2927 202.926 57.2927C204.499 58.3301 206.004 57.437 206.004 57.437L205.523 49.5978L203.53 50.1337L203.537 50.1405Z" fill="#001640"/>
<path d="M216.914 57.6431C215.615 62.7615 215.114 65.8258 211.988 67.99C207.295 71.2466 201.346 67.6602 201.091 62.2531C200.858 57.3888 203.029 49.8313 208.491 48.7252C213.87 47.6397 218.213 52.5177 216.914 57.6431Z" fill="#FFC3BD"/>
<path d="M201.95 63.6066C201.888 63.6066 201.826 63.6066 201.765 63.586L190.119 61.1195C189.48 60.9821 188.938 60.6111 188.58 60.0614C188.223 59.5187 188.106 58.866 188.237 58.227C188.374 57.5881 188.745 57.0453 189.295 56.688C189.844 56.3308 190.49 56.214 191.129 56.3445C191.617 56.4476 191.926 56.9285 191.823 57.4163C191.72 57.9041 191.239 58.2202 190.751 58.1102C190.586 58.0759 190.415 58.1102 190.27 58.1995C190.126 58.2889 190.03 58.4331 189.996 58.598C189.961 58.7629 189.996 58.9347 190.085 59.079C190.174 59.2232 190.318 59.3194 190.483 59.3538L202.129 61.8203C202.617 61.9233 202.926 62.4043 202.823 62.8921C202.733 63.318 202.356 63.6066 201.943 63.6066H201.95Z" fill="#3F80FF"/>
<path d="M201.902 63.8058L200.494 63.5104L200.94 61.4149L202.349 61.7103C202.926 61.834 203.297 62.4043 203.173 62.9814C203.049 63.5585 202.479 63.9295 201.902 63.8058Z" fill="white"/>
<path d="M213.733 54.8194C213.733 52.875 212.263 51.4528 207.357 51.8238C203.352 52.1261 201.407 50.2574 202.548 47.6535C205.791 49.3436 205.255 47.1313 211.438 46.8634C217.622 46.5954 219.415 48.9657 220.068 52.5521C223.853 58.1653 217.319 60.4944 217.319 60.4944L214.764 62.7273C214.764 62.7273 213.073 63.1944 211.83 61.786C211.83 61.786 211.328 57.2378 213.733 54.8262V54.8194Z" fill="#001640"/>
<path d="M207.165 45.8946L207.007 45.9839C206.361 46.3274 206.334 47.2412 206.959 47.6259L221.304 56.4957C221.881 56.8529 222.637 56.5026 222.74 55.8292C222.878 54.9223 222.465 54.0223 221.682 53.5414L209.453 45.9633C208.759 45.5304 207.893 45.503 207.172 45.8877L207.165 45.8946Z" fill="#3F80FF"/>
<path d="M209.748 46.8427L213.424 41.4769C213.644 41.1609 214.07 41.0647 214.399 41.2639L224.526 47.3237C224.897 47.5435 224.994 48.0451 224.733 48.3886L220.335 54.1872L209.748 46.8359V46.8427Z" fill="#3F80FF"/>
<path d="M209.748 46.8427L211.212 44.2319L222.52 51.707L220.335 54.1941L209.748 46.8427Z" fill="#3F80FF"/>
<path opacity="0.6" d="M209.748 46.8427L211.212 44.2319L222.52 51.707L220.335 54.1941L209.748 46.8427Z" fill="white"/>
<path d="M217.567 63.9227C216.474 64.6715 215.162 64.8639 214.131 64.6647C212.579 64.3692 212.572 62.7822 213.651 61.6623C214.619 60.6523 216.605 59.5943 217.855 60.4737C219.085 61.3394 218.817 63.0639 217.567 63.9227Z" fill="#FFC3BD"/>
<path d="M214.509 233.492L223.523 233.472C223.523 233.472 222.108 201.414 220.164 184.939C219.573 179.923 220.212 173.053 220.274 165.379C220.356 155.712 220.803 145.18 221.242 136.914C221.71 128.209 222.101 121.937 222.101 121.937L203.661 124.568C203.661 124.568 201.826 170.215 204.698 186.21C207.68 202.843 214.509 233.492 214.509 233.492Z" fill="#3F80FF"/>
<path opacity="0.2" d="M220.274 165.386C220.356 155.719 220.803 145.186 221.242 136.921L218.474 133.246C215.1 139.601 217.457 156.523 220.281 165.386H220.274Z" fill="black"/>
<path d="M212.448 123.318C212.448 123.318 223.908 168.546 229.343 183.166C235.299 199.181 257.244 217.89 257.244 217.89L262.781 211.789C262.781 211.789 251.177 193.699 242.63 176.289C238.535 153.692 231.857 120.535 231.857 120.535L212.448 123.311V123.318Z" fill="#3F80FF"/>
<path d="M256.495 218.817L265.179 211.308L262.939 208.711L253.08 216.935L256.495 218.817Z" fill="#001640"/>
<path d="M213.383 233.705L224.121 233.692V230.222L212.105 230.057L213.383 233.705Z" fill="#001640"/>
<path d="M208.999 56.64C208.663 56.53 208.257 56.8667 208.092 57.382L209.315 57.7736C209.48 57.2583 209.336 56.7499 208.999 56.64Z" fill="#001640"/>
<path d="M203.64 55.63C203.29 55.6094 202.974 56.0285 202.933 56.5713L204.217 56.6537C204.252 56.1109 203.998 55.6575 203.64 55.63Z" fill="#001640"/>
<path d="M205.488 57.1965C205.488 57.1965 204.066 59.45 202.788 60.4256C203.4 61.2638 204.733 61.1883 204.733 61.1883L205.488 57.2034V57.1965Z" fill="#ED847E"/>
<path d="M210.744 56.0835C210.786 56.0903 210.827 56.0903 210.875 56.0835C211.005 56.0422 211.081 55.9048 211.04 55.7674C210.634 54.4346 209.521 54.0979 209.473 54.0842C209.336 54.0429 209.198 54.1254 209.164 54.2559C209.123 54.3865 209.198 54.5307 209.336 54.5651C209.37 54.5788 210.236 54.8468 210.559 55.9117C210.586 56.001 210.662 56.0629 210.744 56.0835Z" fill="#001640"/>
<path d="M202.053 54.9087C202.136 54.9224 202.218 54.8949 202.28 54.8262C203.029 54.0018 203.929 54.1254 203.963 54.1254C204.101 54.1461 204.231 54.0499 204.252 53.9125C204.272 53.7751 204.183 53.6445 204.046 53.6239C203.998 53.6239 202.843 53.4453 201.909 54.4827C201.813 54.5858 201.826 54.7438 201.93 54.84C201.971 54.8743 202.012 54.8949 202.06 54.9018L202.053 54.9087Z" fill="#001640"/>
<path d="M262.788 223.035C263.159 222.713 263.496 222.287 263.722 221.977C263.75 221.936 263.757 221.881 263.729 221.833C263.702 221.792 263.654 221.764 263.606 221.771C263.386 221.806 261.428 222.101 261.167 222.719C261.125 222.816 261.105 222.967 261.228 223.139C261.393 223.372 261.599 223.489 261.84 223.489C262.149 223.489 262.479 223.297 262.781 223.029L262.788 223.035ZM263.338 222.074C262.767 222.809 262.218 223.235 261.847 223.235C261.682 223.235 261.544 223.152 261.435 222.987C261.38 222.905 261.386 222.857 261.4 222.822C261.531 222.5 262.554 222.218 263.338 222.074Z" fill="#3F80FF"/>
<path d="M263.702 221.991C263.702 221.991 263.736 221.957 263.743 221.929C263.757 221.881 263.743 221.833 263.716 221.799C263.674 221.751 262.616 220.631 261.833 220.638C261.627 220.638 261.455 220.713 261.325 220.864C261.118 221.091 261.173 221.29 261.228 221.387C261.51 221.922 263.042 222.142 263.647 222.019C263.667 222.019 263.688 222.005 263.702 221.991ZM261.544 221.002C261.62 220.933 261.716 220.899 261.833 220.899C262.335 220.899 263.022 221.483 263.345 221.792C262.671 221.826 261.606 221.579 261.441 221.256C261.428 221.229 261.393 221.16 261.503 221.036C261.503 221.036 261.531 221.009 261.544 220.995V221.002Z" fill="#3F80FF"/>
<path d="M216.715 240.809C216.756 240.796 216.79 240.754 216.797 240.706C216.804 240.651 216.777 240.603 216.729 240.576C216.488 240.452 214.344 239.367 213.699 239.731C213.575 239.799 213.499 239.916 213.493 240.067C213.472 240.322 213.554 240.528 213.733 240.679C214.317 241.194 215.842 240.981 216.701 240.809H216.715ZM213.87 239.93C214.269 239.793 215.43 240.232 216.275 240.631C215.1 240.83 214.221 240.775 213.898 240.486C213.781 240.383 213.733 240.253 213.747 240.081C213.747 240.012 213.774 239.978 213.829 239.944C213.843 239.937 213.857 239.93 213.877 239.923L213.87 239.93Z" fill="#3F80FF"/>
<path d="M216.715 240.809C216.715 240.809 216.735 240.803 216.749 240.796C216.783 240.768 216.804 240.727 216.804 240.679C216.804 240.617 216.653 239.181 215.973 238.631C215.767 238.46 215.533 238.391 215.272 238.418C214.928 238.453 214.825 238.631 214.805 238.769C214.709 239.373 215.987 240.521 216.625 240.809C216.653 240.823 216.687 240.823 216.722 240.809H216.715ZM215.169 238.693C215.169 238.693 215.245 238.673 215.299 238.666C215.492 238.645 215.657 238.7 215.815 238.824C216.261 239.188 216.454 240.047 216.522 240.466C215.863 240.074 214.997 239.167 215.059 238.81C215.059 238.789 215.073 238.728 215.176 238.693H215.169Z" fill="#3F80FF"/>
<path d="M225.729 107.584L220.61 109.206L224.588 113.163C224.588 113.163 229.233 111.15 227.776 109.103L225.729 107.584Z" fill="#FFC3BD"/>
<path d="M218.494 113.727L222.142 115.932L224.581 113.163L220.603 109.206L218.494 113.727Z" fill="#FFC3BD"/>
</g>
<defs>
<clipPath id="clip0_545_7108">
<rect width="343.523" height="256" fill="white"/>
</clipPath>
</defs>
</svg>
