<svg width="345" height="256" viewBox="0 0 345 256" fill="none" xmlns="http://www.w3.org/2000/svg">
<g clip-path="url(#clip0_288_2139)">
<path d="M309.559 236.376H286.77V236.548H309.559V236.376Z" fill="#EBEBEB"/>
<path d="M227.9 238.248H221.92V238.42H227.9V238.248Z" fill="#EBEBEB"/>
<path d="M286.082 229.991H272.878V230.163H286.082V229.991Z" fill="#EBEBEB"/>
<path d="M65.8131 231.147H36.0957V231.319H65.8131V231.147Z" fill="#EBEBEB"/>
<path d="M76.2993 231.147H71.9438V231.319H76.2993V231.147Z" fill="#EBEBEB"/>
<path d="M154.917 234.051H90.4595V234.223H154.917V234.051Z" fill="#EBEBEB"/>
<path d="M164.034 194.618H31.1691C29.0017 194.618 27.2402 192.857 27.2402 190.689V3.92883C27.2402 1.76144 29.0017 0 31.1691 0H164.034C166.201 0 167.962 1.76144 167.962 3.92883V190.689C167.962 192.857 166.201 194.618 164.034 194.618ZM31.1691 0.172015C29.098 0.172015 27.4122 1.85777 27.4122 3.92883V190.689C27.4122 192.76 29.098 194.446 31.1691 194.446H164.034C166.105 194.446 167.79 192.76 167.79 190.689V3.92883C167.79 1.85777 166.105 0.172015 164.034 0.172015H31.1691Z" fill="#EBEBEB"/>
<path d="M312.861 194.618H179.997C177.829 194.618 176.068 192.857 176.068 190.689V3.92883C176.068 1.76144 177.829 0 179.997 0H312.861C315.029 0 316.79 1.76144 316.79 3.92883V190.689C316.79 192.857 315.029 194.618 312.861 194.618ZM179.997 0.172015C177.926 0.172015 176.24 1.85777 176.24 3.92883V190.689C176.24 192.76 177.926 194.446 179.997 194.446H312.861C314.932 194.446 316.618 192.76 316.618 190.689V3.92883C316.618 1.85777 314.932 0.172015 312.861 0.172015H179.997Z" fill="#EBEBEB"/>
<path d="M344.03 225.306H0V225.478H344.03V225.306Z" fill="#EBEBEB"/>
<path d="M89.9156 43.6781L94.9316 40.4648L97.6701 45.7629L103.629 45.4808L103.353 51.4394L108.652 54.1779L105.431 59.2007L108.652 64.2236L103.353 66.9621L103.629 72.9207L97.6701 72.6455L94.9316 77.9435L89.9156 74.7234L84.8928 77.9435L82.1543 72.6455L76.1957 72.9207L76.4709 66.9621L71.1729 64.2236L74.393 59.2007L71.1729 54.1779L76.4709 51.4394L76.1957 45.4808L82.1543 45.7629L84.8928 40.4648L89.9156 43.6781Z" fill="#E6E6E6"/>
<path d="M88.0096 66.8658L82.0441 60.9003C81.3629 60.2191 81.3629 59.1113 82.0441 58.4301C82.7253 57.7489 83.833 57.7489 84.5142 58.4301L88.0096 61.9255L95.3099 54.6251C95.9911 53.944 97.0989 53.944 97.78 54.6251C98.4612 55.3063 98.4612 56.4141 97.78 57.0953L88.0096 66.8658Z" fill="#FAFAFA"/>
<path d="M276.504 96.3492L280.44 93.824L282.593 97.9799L287.265 97.7597L287.045 102.432L291.201 104.578L288.676 108.521L291.201 112.457L287.045 114.603L287.265 119.275L282.593 119.055L280.44 123.211L276.504 120.686L272.568 123.211L270.422 119.055L265.75 119.275L265.963 114.603L261.807 112.457L264.332 108.521L261.807 104.578L265.963 102.432L265.75 97.7597L270.422 97.9799L272.568 93.824L276.504 96.3492Z" fill="#E6E6E6"/>
<path d="M275.011 114.528L270.332 109.849C269.796 109.312 269.796 108.445 270.332 107.909C270.869 107.372 271.736 107.372 272.273 107.909L275.011 110.647L280.736 104.922C281.272 104.386 282.139 104.386 282.676 104.922C283.213 105.459 283.213 106.326 282.676 106.863L275.011 114.528Z" fill="#FAFAFA"/>
<path d="M90.418 162.403L98.0899 166.318C99.3834 166.979 100.959 166.703 101.957 165.637L107.826 159.334C108.521 158.584 108.831 157.552 108.652 156.548L105.597 139.243C105.094 136.415 102.397 134.523 99.5692 135.025L89.8538 136.738C87.0258 137.241 85.1337 139.938 85.636 142.766L88.691 160.071C88.8699 161.075 89.5098 161.942 90.418 162.41V162.403ZM99.1564 161.061C100.044 160.903 100.89 161.495 101.049 162.389C101.207 163.277 100.615 164.123 99.7206 164.281C98.833 164.44 97.9867 163.848 97.8284 162.954C97.6701 162.066 98.2619 161.22 99.1564 161.061Z" fill="#E6E6E6"/>
<path d="M90.7942 157.048L105.641 154.431L105.357 152.825L90.5111 155.443L90.7942 157.048Z" fill="#FAFAFA"/>
<path d="M88.2796 142.778L103.126 140.16L102.843 138.554L87.9964 141.172L88.2796 142.778Z" fill="#FAFAFA"/>
<path d="M116.64 50.3592L121.917 56.022C122.812 56.9784 124.229 57.2261 125.392 56.6343L132.293 53.1184C133.112 52.6986 133.69 51.9211 133.848 51.0198L136.594 35.4558C137.041 32.91 135.341 30.488 132.802 30.0408L124.064 28.4995C121.518 28.0523 119.096 29.7518 118.649 32.2908L115.904 47.8547C115.745 48.7629 116.021 49.6849 116.647 50.3592H116.64ZM124.436 51.9142C125.234 52.0519 125.771 52.8156 125.626 53.6138C125.488 54.4119 124.725 54.9486 123.927 54.8041C123.128 54.6665 122.592 53.9027 122.736 53.1046C122.874 52.3064 123.638 51.7698 124.436 51.9142Z" fill="#F0F0F0"/>
<path d="M118.612 45.948L131.96 48.3018L132.215 46.8584L118.866 44.5047L118.612 45.948Z" fill="#FAFAFA"/>
<path d="M120.869 33.1194L134.218 35.4731L134.473 34.0298L121.124 31.6761L120.869 33.1194Z" fill="#FAFAFA"/>
<path d="M244.523 33.5705C242.486 30.66 238.468 29.9513 235.558 31.9879L232.833 33.9007L230.92 31.176C228.883 28.2655 224.865 27.5568 221.955 29.5935C219.044 31.6301 218.335 35.6484 220.372 38.5589L229.668 51.8385L242.947 42.5428C245.858 40.5061 246.567 36.4879 244.53 33.5774L244.523 33.5705Z" fill="#EBEBEB"/>
<path d="M263.61 34.8091C262.612 33.3848 260.644 33.0339 259.22 34.0316L257.885 34.9673L256.95 33.6325C255.952 32.2082 253.984 31.8573 252.56 32.855C251.135 33.8527 250.785 35.8205 251.782 37.2448L256.33 43.747L262.832 39.1989C264.257 38.2012 264.608 36.2333 263.61 34.8091Z" fill="#EBEBEB"/>
<path d="M60.1092 97.9869C50.8617 100.636 45.5155 110.289 48.1645 119.537C49.8847 125.544 60.4189 135.617 67.5954 141.933C70.7948 144.748 75.8383 143.303 77.0562 139.222C79.7878 130.064 83.3864 115.938 81.6593 109.932C79.0103 100.684 69.3568 95.3379 60.1092 97.9869ZM67.1275 122.461C62.8615 123.686 58.4029 121.216 57.185 116.95C55.9602 112.684 58.4304 108.225 62.6964 107.007C66.9623 105.783 71.421 108.253 72.6388 112.519C73.8636 116.785 71.3934 121.243 67.1275 122.461Z" fill="#E0E0E0"/>
<path d="M62.8339 97.2023C53.5863 99.8514 48.2401 109.505 50.8891 118.752C52.6093 124.759 63.1435 134.832 70.32 141.149C73.5194 143.963 78.5629 142.518 79.7808 138.438C82.5124 129.28 86.111 115.154 84.3839 109.147C81.7349 99.8995 72.0814 94.5533 62.8339 97.2023ZM69.8521 121.677C65.5861 122.901 61.1275 120.431 59.9096 116.165C58.6848 111.899 61.155 107.441 65.421 106.223C69.6869 104.998 74.1456 107.468 75.3635 111.734C76.5813 116 74.1181 120.459 69.8521 121.677Z" fill="#F5F5F5"/>
<path d="M263.465 53.7238C255.415 51.4119 247.014 56.0701 244.702 64.1272C243.202 69.3565 246.333 81.6522 248.713 89.6337C249.773 93.191 254.163 94.4501 256.949 91.9937C263.197 86.4892 272.369 77.7233 273.869 72.4872C276.181 64.4369 271.522 56.0357 263.465 53.7238ZM257.355 75.033C253.64 73.9665 251.486 70.0927 252.553 66.3703C253.619 62.6548 257.493 60.5012 261.215 61.5677C264.931 62.6342 267.084 66.5079 266.018 70.2304C264.951 73.9528 261.078 76.0995 257.355 75.033Z" fill="#E0E0E0"/>
<path d="M265.839 54.3981C257.788 52.0862 249.387 56.7444 247.075 64.8016C245.575 70.0308 248.706 82.3265 251.087 90.308C252.146 93.8653 256.536 95.1244 259.323 92.668C265.57 87.1636 274.742 78.3977 276.242 73.1615C278.554 65.1112 273.896 56.71 265.839 54.3981ZM259.729 75.7073C256.013 74.6408 253.86 70.7671 254.926 67.0447C255.993 63.3291 259.866 61.1755 263.589 62.242C267.304 63.3085 269.458 67.1823 268.391 70.9047C267.325 74.6202 263.451 76.7738 259.729 75.7073Z" fill="#F5F5F5"/>
<path d="M172.015 256C245.694 256 305.423 252.513 305.423 248.211C305.423 243.91 245.694 240.422 172.015 240.422C98.3358 240.422 38.6069 243.91 38.6069 248.211C38.6069 252.513 98.3358 256 172.015 256Z" fill="#F5F5F5"/>
<path d="M129.7 91.4572H137.062C138.638 91.4572 139.807 92.737 139.663 94.3126L138.307 109.842C138.17 111.418 136.78 112.698 135.204 112.698H127.842C126.266 112.698 125.097 111.418 125.241 109.842L126.597 94.3126C126.734 92.737 128.124 91.4572 129.7 91.4572Z" fill="#3F80FF"/>
<path opacity="0.2" d="M212.06 88.1406H223.565C226.028 88.1406 227.851 90.136 227.631 92.5993L226.214 108.817C226 111.28 223.826 113.275 221.363 113.275H209.858C207.395 113.275 205.572 111.28 205.792 108.817L207.209 92.5993C207.423 90.136 209.597 88.1406 212.06 88.1406Z" fill="black"/>
<path opacity="0.2" d="M209.7 115.085H221.205C223.668 115.085 225.491 117.08 225.271 119.544L223.854 135.761C223.64 138.225 221.466 140.22 219.003 140.22H207.499C205.035 140.22 203.212 138.225 203.432 135.761L204.849 119.544C205.063 117.08 207.237 115.085 209.7 115.085Z" fill="black"/>
<path d="M150.348 57.7352H214.448C223.358 57.7352 229.943 64.953 229.165 73.8634L215.487 230.17C214.709 239.081 206.852 246.298 197.948 246.298H133.848C124.938 246.298 118.353 239.081 119.131 230.17L132.802 73.8634C133.58 64.953 141.438 57.7352 150.341 57.7352H150.348Z" fill="#3F80FF"/>
<path opacity="0.2" d="M150.348 57.7352H214.448C223.358 57.7352 229.943 64.953 229.165 73.8634L215.487 230.17C214.709 239.081 206.852 246.298 197.948 246.298H133.848C124.938 246.298 118.353 239.081 119.131 230.17L132.802 73.8634C133.58 64.953 141.438 57.7352 150.341 57.7352H150.348Z" fill="black"/>
<path d="M148.277 57.7352H212.377C221.287 57.7352 227.872 64.953 227.095 73.8634L213.423 230.17C212.645 239.081 204.788 246.298 195.884 246.298H131.784C122.874 246.298 116.289 239.081 117.067 230.17L130.745 73.8634C131.523 64.953 139.381 57.7352 148.284 57.7352H148.277Z" fill="#3F80FF"/>
<path d="M225.175 73.8634L211.503 230.163C210.815 238.007 203.9 244.372 196.056 244.372H131.956C124.113 244.372 118.305 238.014 118.993 230.163L132.665 73.8634C133.353 66.0195 140.268 59.6549 148.112 59.6549H212.212C220.056 59.6549 225.863 66.0126 225.175 73.8634Z" fill="white"/>
<g opacity="0.1">
<path d="M131.949 244.372H156.252L195.512 59.6619H164.55L125.619 242.81C127.47 243.808 129.617 244.379 131.949 244.379V244.372Z" fill="black"/>
<path d="M210.375 59.6619H204.485L165.217 244.372H171.114L210.375 59.6619Z" fill="black"/>
</g>
<path d="M161.371 59.2008C161.158 61.7122 163.016 63.742 165.527 63.7558H194.082C196.593 63.7489 198.802 61.7122 199.029 59.2008H161.371Z" fill="#3F80FF"/>
<path d="M211.049 64.6915H217.531C218.074 64.6915 218.473 65.1319 218.425 65.6686L218.177 68.4965C218.129 69.0401 217.654 69.4736 217.111 69.4736H210.629C210.086 69.4736 209.687 69.0332 209.735 68.4965L209.983 65.6686C210.031 65.125 210.506 64.6915 211.049 64.6915Z" fill="#3F80FF"/>
<path d="M141.844 64.6915H150.52C151.133 64.6915 151.58 65.1869 151.532 65.7993L151.305 68.3727C151.25 68.985 150.713 69.4804 150.101 69.4804H141.424C140.812 69.4804 140.365 68.985 140.413 68.3727L140.64 65.7993C140.695 65.1869 141.232 64.6915 141.844 64.6915Z" fill="#3F80FF"/>
<path opacity="0.4" d="M141.844 64.6915H150.52C151.133 64.6915 151.58 65.1869 151.532 65.7993L151.305 68.3727C151.25 68.985 150.713 69.4804 150.101 69.4804H141.424C140.812 69.4804 140.365 68.985 140.413 68.3727L140.64 65.7993C140.695 65.1869 141.232 64.6915 141.844 64.6915Z" fill="white"/>
<path d="M209.322 65.5104H210.34C210.54 65.5104 210.684 65.6687 210.671 65.8682L210.457 68.2975C210.437 68.497 210.265 68.6553 210.065 68.6553H209.047C208.847 68.6553 208.702 68.497 208.716 68.2975L208.93 65.8682C208.95 65.6687 209.122 65.5104 209.322 65.5104Z" fill="#3F80FF"/>
<path d="M216.244 65.5104H217.262C217.462 65.5104 217.606 65.6687 217.593 65.8682L217.379 68.2975C217.359 68.497 217.186 68.6553 216.987 68.6553H215.968C215.769 68.6553 215.624 68.497 215.638 68.2975L215.851 65.8682C215.872 65.6687 216.044 65.5104 216.244 65.5104Z" fill="white"/>
<path d="M214.049 65.5104H215.067C215.267 65.5104 215.411 65.6687 215.398 65.8682L215.184 68.2975C215.164 68.497 214.992 68.6553 214.792 68.6553H213.774C213.574 68.6553 213.43 68.497 213.443 68.2975L213.657 65.8682C213.677 65.6687 213.849 65.5104 214.049 65.5104Z" fill="white"/>
<path d="M225.567 108.707L224.17 124.69C225.512 124.443 226.62 123.28 226.744 121.89L227.652 111.514C227.776 110.117 226.874 108.961 225.574 108.714L225.567 108.707Z" fill="#3F80FF"/>
<path opacity="0.2" d="M225.567 108.707L224.17 124.69C225.512 124.443 226.62 123.28 226.744 121.89L227.652 111.514C227.776 110.117 226.874 108.961 225.574 108.714L225.567 108.707Z" fill="black"/>
<path d="M227.074 91.4572L225.677 107.441C227.019 107.193 228.127 106.03 228.251 104.64L229.159 94.2644C229.283 92.8677 228.381 91.7117 227.081 91.464L227.074 91.4572Z" fill="#3F80FF"/>
<path opacity="0.2" d="M227.074 91.4572L225.677 107.441C227.019 107.193 228.127 106.03 228.251 104.64L229.159 94.2644C229.283 92.8677 228.381 91.7117 227.081 91.464L227.074 91.4572Z" fill="black"/>
<path d="M188.192 70.6433H166.752C163.167 70.6433 160.002 73.5538 159.685 77.1386L158.577 89.8333C158.261 93.4181 160.917 96.3286 164.502 96.3286H170.632L170.199 101.269C170.089 102.494 171.52 103.106 172.462 102.239L178.889 96.3286H185.935C189.519 96.3286 192.685 93.4181 193.001 89.8333L194.109 77.1386C194.425 73.5538 191.769 70.6433 188.185 70.6433H188.192Z" fill="#3F80FF"/>
<path d="M181.779 76.7051H171.485C171.458 75.8519 171.444 75.4253 171.417 74.5721H165.754C165.83 75.0607 165.871 75.3015 165.947 75.79H170.034C170.054 76.1547 170.068 76.3405 170.096 76.7051C170.213 78.5079 170.268 79.4092 170.385 81.2119C170.419 81.7005 170.433 81.9413 170.46 82.4298C170.577 84.2325 170.632 85.1339 170.749 86.9366C170.811 87.8999 170.846 88.3815 170.907 89.3448H182.205C182.364 88.8563 182.439 88.6155 182.591 88.127H171.836C171.823 87.6522 171.816 87.4114 171.802 86.9366H183.499C184.104 85.1339 184.4 84.2325 185.006 82.4298C185.171 81.9413 185.247 81.7005 185.412 81.2119C186.017 79.4092 186.313 78.5079 186.919 76.7051H181.772H181.779ZM171.527 77.923H175.173C175.098 79.2372 175.063 79.8977 174.988 81.2119H171.637C171.596 79.8977 171.575 79.2372 171.534 77.923H171.527ZM171.774 85.7187C171.733 84.4045 171.713 83.744 171.671 82.4298H174.919C174.843 83.744 174.809 84.4045 174.733 85.7187H171.781H171.774ZM178.772 85.7187H175.82C175.937 84.4045 175.999 83.744 176.116 82.4298H179.364C179.13 83.744 179.013 84.4045 178.772 85.7187ZM179.577 81.2119H176.219C176.336 79.8977 176.398 79.2372 176.515 77.923H180.162C179.928 79.2372 179.811 79.8977 179.57 81.2119H179.577ZM182.818 85.7187H179.866C180.148 84.4045 180.286 83.744 180.561 82.4298H183.809C183.41 83.744 183.217 84.4045 182.818 85.7187ZM184.173 81.2119H180.822C181.105 79.8977 181.242 79.2372 181.517 77.923H185.164C184.765 79.2372 184.572 79.8977 184.173 81.2119Z" fill="white"/>
<path d="M171.52 90.4869C170.722 90.4869 170.02 91.1338 169.944 91.9321C169.876 92.7304 170.467 93.3773 171.266 93.3773C172.064 93.3773 172.766 92.7304 172.842 91.9321C172.91 91.1338 172.319 90.4869 171.52 90.4869Z" fill="white"/>
<path d="M181.793 90.4869C180.994 90.4869 180.293 91.1338 180.217 91.9321C180.148 92.7304 180.74 93.3773 181.538 93.3773C182.336 93.3773 183.038 92.7304 183.114 91.9321C183.183 91.1338 182.591 90.4869 181.793 90.4869Z" fill="white"/>
<path d="M203.597 160.476H179.082V184.992H203.597V160.476Z" fill="#3F80FF"/>
<path d="M218.645 160.476H203.59V184.992H218.645V160.476Z" fill="#3F80FF"/>
<path d="M198.912 154.325H174.396L179.082 160.476H203.59L198.912 154.325Z" fill="#3F80FF"/>
<path opacity="0.3" d="M218.645 160.476H203.59V184.992H218.645V160.476Z" fill="white"/>
<path opacity="0.4" d="M198.912 154.325H174.396L179.082 160.476H203.59L198.912 154.325Z" fill="white"/>
<path d="M208.028 154.325H223.083L218.652 160.476H203.59L208.028 154.325Z" fill="#3F80FF"/>
<path opacity="0.6" d="M203.597 160.476H179.082V184.992H203.597V160.476Z" fill="white"/>
<path opacity="0.2" d="M208.028 154.325H223.083L218.652 160.476H203.59L208.028 154.325Z" fill="white"/>
<path d="M272.575 184.38H210.788V246.168H272.575V184.38Z" fill="#3F80FF"/>
<path opacity="0.4" d="M272.575 184.38H210.788V246.168H272.575V184.38Z" fill="white"/>
<path d="M210.774 184.38H172.82V246.168H210.774V184.38Z" fill="#3F80FF"/>
<path opacity="0.6" d="M210.774 184.38H172.82V246.168H210.774V184.38Z" fill="white"/>
<path opacity="0.5" d="M184.545 184.38V200.976L186.052 201.774L187.352 200.687L189.41 201.774L191.364 200.687L192.877 201.774L194.611 200.687L195.595 201.574V184.38H184.545Z" fill="white"/>
<path opacity="0.5" d="M195.595 246.168V229.572L194.088 228.78L192.788 229.861L190.731 228.78L188.776 229.861L187.263 228.78L185.529 229.861L184.545 228.973V246.168H195.595Z" fill="white"/>
<path d="M235.991 209.577C236.342 210.987 236.514 211.696 236.865 213.106C236.961 213.492 237.01 213.677 237.099 214.063C237.45 215.473 237.622 216.182 237.973 217.592H247.138C247.097 217.964 247.069 218.15 247.028 218.521H238.599C238.688 218.9 238.73 219.092 238.819 219.478H247.675C247.791 218.721 247.847 218.342 247.964 217.592C248.177 216.182 248.287 215.473 248.5 214.063C248.555 213.684 248.59 213.492 248.645 213.106C248.858 211.696 248.968 210.987 249.181 209.577C249.223 209.288 249.243 209.15 249.291 208.861H252.491C252.587 208.483 252.635 208.29 252.725 207.905H248.287C248.204 208.572 248.17 208.909 248.087 209.577H235.984H235.991ZM247.675 213.106H245.046C245.081 212.074 245.094 211.558 245.122 210.533H247.977C247.853 211.565 247.792 212.081 247.668 213.106H247.675ZM244.936 216.636C244.97 215.604 244.984 215.088 245.012 214.056H247.558C247.434 215.088 247.372 215.604 247.248 216.636H244.936ZM241.53 214.056H244.076C244.076 215.088 244.076 215.604 244.083 216.636H241.771C241.675 215.604 241.626 215.088 241.537 214.056H241.53ZM241.207 210.526H244.069C244.069 211.558 244.069 212.074 244.076 213.099H241.448C241.351 212.067 241.303 211.551 241.214 210.526H241.207ZM238.042 214.056H240.588C240.718 215.088 240.78 215.604 240.911 216.636H238.599C238.379 215.604 238.269 215.088 238.049 214.056H238.042ZM237.285 210.526H240.14C240.271 211.558 240.333 212.074 240.464 213.099H237.835C237.615 212.067 237.505 211.551 237.285 210.526Z" fill="white"/>
<path d="M247.124 222.65C247.751 222.65 248.26 222.142 248.26 221.515C248.26 220.887 247.751 220.379 247.124 220.379C246.497 220.379 245.989 220.887 245.989 221.515C245.989 222.142 246.497 222.65 247.124 222.65Z" fill="white"/>
<path d="M239.067 222.65C239.694 222.65 240.203 222.142 240.203 221.515C240.203 220.887 239.694 220.379 239.067 220.379C238.44 220.379 237.932 220.887 237.932 221.515C237.932 222.142 238.44 222.65 239.067 222.65Z" fill="white"/>
<g opacity="0.5">
<path d="M183.43 209.577C183.781 210.987 183.953 211.696 184.304 213.106C184.4 213.492 184.449 213.677 184.538 214.063C184.889 215.473 185.061 216.182 185.412 217.592H194.577C194.536 217.964 194.508 218.15 194.467 218.521H186.038C186.127 218.9 186.169 219.092 186.258 219.478H195.114C195.23 218.721 195.286 218.342 195.402 217.592C195.616 216.182 195.726 215.473 195.939 214.063C195.994 213.684 196.029 213.492 196.084 213.106C196.297 211.696 196.407 210.987 196.62 209.577C196.662 209.288 196.682 209.15 196.73 208.861H199.93C200.026 208.483 200.074 208.29 200.164 207.905H195.726C195.643 208.572 195.609 208.909 195.526 209.577H183.423H183.43ZM195.114 213.106H192.485L192.561 210.533H195.416C195.292 211.565 195.23 212.081 195.107 213.106H195.114ZM192.375 216.636C192.409 215.604 192.423 215.088 192.451 214.056H194.997C194.873 215.088 194.811 215.604 194.687 216.636H192.375ZM188.969 214.056H191.515C191.515 215.088 191.515 215.604 191.522 216.636H189.21C189.114 215.604 189.065 215.088 188.976 214.056H188.969ZM188.646 210.526H191.508C191.508 211.558 191.508 212.074 191.515 213.099H188.887C188.79 212.067 188.742 211.551 188.653 210.526H188.646ZM185.481 214.056H188.026C188.157 215.088 188.219 215.604 188.35 216.636H186.038C185.818 215.604 185.708 215.088 185.488 214.056H185.481ZM184.724 210.526H187.579C187.71 211.558 187.772 212.074 187.903 213.099H185.274C185.054 212.067 184.944 211.551 184.724 210.526Z" fill="white"/>
<path d="M194.563 222.65C195.19 222.65 195.699 222.142 195.699 221.515C195.699 220.887 195.19 220.379 194.563 220.379C193.936 220.379 193.428 220.887 193.428 221.515C193.428 222.142 193.936 222.65 194.563 222.65Z" fill="white"/>
<path d="M186.506 222.65C187.133 222.65 187.642 222.142 187.642 221.515C187.642 220.887 187.133 220.379 186.506 220.379C185.879 220.379 185.371 220.887 185.371 221.515C185.371 222.142 185.879 222.65 186.506 222.65Z" fill="white"/>
</g>
<path d="M250.014 135.218C250.014 135.218 252.154 150.624 254.081 153.279C256.007 155.935 264.663 163.284 264.663 163.284L270.133 162.486L273.8 165.954L271.144 167.791L268.22 166.476C268.22 166.476 266.039 166.772 263.252 166.593C260.459 166.421 249.553 159.052 247.537 155.165C245.528 151.284 243.257 137.014 243.257 137.014L250.007 135.211L250.014 135.218Z" fill="#CE7A63"/>
<path d="M251.852 139.67L251.308 139.766C250.93 136.147 249.416 125.145 245.267 127.972C241.283 130.69 242.398 138.397 242.983 141.28L242.322 141.397L242.928 143.296L252.1 141.534L251.852 139.656V139.67Z" fill="#3F80FF"/>
<path opacity="0.2" d="M248.39 132.39L247.379 130.222L244.2 133.408C244.2 133.408 243.298 134.764 242.383 136.16C242.431 138.218 242.741 140.137 242.968 141.28L242.308 141.397L242.913 143.296L248.087 142.305C249.03 136.924 248.383 132.383 248.383 132.383L248.39 132.39Z" fill="black"/>
<path d="M248.707 104.75C248.707 104.75 259.647 107.11 253.833 112.312L249.03 108.108L248.707 104.757V104.75Z" fill="#263238"/>
<path d="M263.892 220.269L256.929 237.326L252.099 235.448L255.993 218.494L263.892 220.269Z" fill="#CE7A63"/>
<path opacity="0.2" d="M256.337 217.29L253.592 229.241L259.544 230.569L264.236 219.058L256.337 217.29Z" fill="black"/>
<path d="M258.043 236.927C258.931 238.936 259.53 240.601 263.156 242.748C263.947 243.202 262.612 245.294 260.637 244.406C257.376 242.934 258.229 242.906 255.429 241.695C253.082 240.663 251.342 240.03 249.422 239.239C249.374 239.218 249.326 239.191 249.284 239.156C249.284 239.156 249.277 239.156 249.271 239.149C248.933 238.895 248.865 238.413 249.119 238.076L251.94 234.216C252.064 234.037 252.298 233.975 252.498 234.058L257.066 236.026C257.486 236.198 257.83 236.514 258.036 236.92L258.043 236.927Z" fill="#263238"/>
<path d="M279.477 180.183C278.589 191.198 262.777 227.583 262.777 227.583L253.392 224.968C253.392 224.968 260.562 190.008 265.241 184.221C265.241 184.221 263.713 184.249 261.257 184.27C252.704 184.345 232.881 184.332 227.163 182.811C223.083 181.724 214.558 179.543 216.808 165.891L227.377 165.527L239.686 165.1C239.686 165.1 280.694 165.135 279.477 180.183Z" fill="#263238"/>
<path opacity="0.2" d="M261.257 184.27C252.704 184.345 232.881 184.332 227.163 182.811C223.083 181.724 214.558 179.543 216.808 165.892L227.377 165.527C235.695 166.511 246.567 168.155 253.977 171.341C257.582 172.889 260.087 175.683 260.823 178.972C261.037 179.935 261.195 182.254 261.257 184.27Z" fill="black"/>
<path d="M247.571 219.663L244.09 237.051L238.854 236.803L239.473 219.416L247.571 219.663Z" fill="#CE7A63"/>
<path opacity="0.2" d="M247.571 219.663L239.473 219.416L239.115 229.819L245.493 230.039L247.571 219.663Z" fill="black"/>
<path d="M244.888 237.464C245.741 239.548 246.298 241.262 249.931 243.56C250.716 244.069 249.291 246.168 247.317 245.19C244.041 243.587 244.908 243.594 242.101 242.266C239.727 241.145 237.973 240.443 236.053 239.576L235.902 239.5C235.558 239.232 235.496 238.736 235.764 238.392L238.757 234.532C238.895 234.36 239.129 234.298 239.328 234.395L243.911 236.535C244.337 236.707 244.688 237.037 244.888 237.457V237.464Z" fill="#263238"/>
<path d="M210.663 165.878C210.663 165.878 207.677 176.632 212.618 180.877C219.533 186.822 244.516 185.013 244.516 185.013C240.202 198.829 238.275 226.262 238.275 226.262H247.64C247.64 226.262 260.397 188.735 258.511 179.027C256.626 169.325 223.159 165.891 223.159 165.891L210.657 165.878H210.663Z" fill="#263238"/>
<path d="M252.56 226.056L263.183 228.732L265.351 224.184L253.681 220.875L252.56 226.056Z" fill="#3F80FF"/>
<path d="M237.347 227.562L248.184 228.12L249.305 223.352L237.347 222.794V227.562Z" fill="#3F80FF"/>
<path d="M242.314 150.988C245.039 142.876 248.514 136.704 248.899 129.789C239.48 116.193 221.06 124.229 221.06 124.229C209.914 145.14 210.657 165.878 210.657 165.878C235.984 165.878 237.436 165.444 237.436 165.444C237.436 165.444 237.532 161.859 242.314 150.988Z" fill="#3F80FF"/>
<path opacity="0.2" d="M233.81 123.83C234.216 126.218 235.062 130.546 236.067 131.172C237.464 132.011 239.521 130.835 239.521 130.835C239.521 130.835 241.193 133.099 242.975 131.592C243.966 130.642 244.743 129.486 245.246 128.206C244.723 129.094 244.069 129.892 243.298 130.573C241.509 132.073 239.837 129.823 239.837 129.823C239.837 129.823 237.773 130.986 236.383 130.16C235.482 129.617 234.422 126.19 233.81 123.837V123.83Z" fill="black"/>
<path d="M236.081 120.528L238.599 121.388L236.624 123.108L236.081 120.528Z" fill="#3F80FF"/>
<path opacity="0.2" d="M236.081 120.528L238.599 121.388L236.624 123.108L236.081 120.528Z" fill="black"/>
<path d="M244.062 123.115L244.757 125.145C244.757 125.145 241.165 128.901 240.133 128.943C239.101 128.984 236.074 121.876 236.074 121.876C240.071 120.067 239.7 118.078 239.7 118.078L244.055 123.115H244.062Z" fill="#CE7A63"/>
<path opacity="0.2" d="M242.755 127.099C243.814 126.128 244.757 125.145 244.757 125.145L244.062 123.115L240.174 118.622C239.679 120.576 239.184 124.67 242.755 127.099Z" fill="black"/>
<path d="M246.112 126.603C245.466 128.117 244.502 129.479 243.298 130.601C241.509 132.101 239.837 129.851 239.837 129.851C239.837 129.851 237.78 131.014 236.39 130.188C235 129.362 233.252 121.745 233.252 121.745L236.08 120.528L239.975 128.757L245.225 124.415L246.112 126.61V126.603Z" fill="#3F80FF"/>
<path d="M239.555 111.136C239.555 109.918 239.865 108.714 240.47 107.654C242.376 104.31 246.628 103.14 249.972 105.046C254.961 107.743 255.098 115.601 253.619 120.204C253.22 121.546 252.415 122.729 251.321 123.603C248.349 125.977 244.014 125.495 241.64 122.523C239.184 119.509 239.507 116.42 239.569 111.115L239.555 111.129V111.136Z" fill="#CE7A63"/>
<path d="M248.858 114.424C249.147 114.445 249.319 114.844 249.25 115.264C249.181 115.684 248.92 115.973 248.637 115.938C248.355 115.911 248.176 115.519 248.245 115.099C248.307 114.672 248.569 114.397 248.858 114.424Z" fill="#263238"/>
<path d="M253.626 115.319C253.915 115.346 254.094 115.725 254.026 116.159C253.957 116.585 253.695 116.867 253.406 116.833C253.117 116.805 252.952 116.42 253.014 115.993C253.083 115.574 253.337 115.285 253.626 115.319Z" fill="#263238"/>
<path d="M247.578 113.42C248.074 113.035 248.734 112.911 249.333 113.09C249.333 113.09 249.333 113.09 249.34 113.09C249.471 113.131 249.608 113.062 249.65 112.938C249.691 112.808 249.622 112.67 249.498 112.622C248.72 112.381 247.874 112.546 247.234 113.062C247.131 113.152 247.117 113.303 247.2 113.406C247.234 113.434 247.268 113.448 247.31 113.461C247.399 113.503 247.496 113.489 247.564 113.42H247.578Z" fill="#263238"/>
<path d="M254.83 114.762C254.947 114.686 254.982 114.535 254.913 114.418C254.521 113.702 253.805 113.22 252.993 113.11C252.883 113.11 252.793 113.193 252.766 113.296C252.731 113.434 252.821 113.571 252.952 113.599C253.605 113.702 254.176 114.101 254.486 114.686C254.527 114.755 254.603 114.803 254.686 114.81C254.741 114.81 254.789 114.783 254.823 114.748L254.83 114.762Z" fill="#263238"/>
<path d="M250.798 120.012C251.459 120.315 252.216 120.315 252.876 120.012C252.236 118.732 251.775 117.37 251.486 115.973L250.791 120.019L250.798 120.012Z" fill="#BA4D3C"/>
<path d="M239.225 114.569C237.168 107.062 240.498 105.108 244.103 103.766C247.709 102.425 249.704 103.711 250.86 104.977C251.218 105.37 251.933 106.574 249.622 106.732C248.218 106.787 246.814 106.677 245.438 106.409C244.881 106.305 244.31 106.532 243.973 106.987C243.174 108.026 241.881 109.98 241.895 111.693C241.998 113.007 241.509 114.301 240.56 115.216L239.218 114.569H239.225Z" fill="#263238"/>
<path d="M236.624 152.261H236.631C237.134 152.261 237.54 152.674 237.533 153.176C237.526 153.679 237.12 154.085 236.617 154.078C236.115 154.078 235.709 153.665 235.716 153.163C235.716 152.66 236.129 152.261 236.624 152.261Z" fill="#3F80FF"/>
<path d="M234.643 161.859H234.657C235.159 161.859 235.565 162.272 235.558 162.775C235.558 163.277 235.145 163.683 234.643 163.676C234.14 163.676 233.734 163.263 233.741 162.761C233.741 162.266 234.147 161.859 234.643 161.859Z" fill="#3F80FF"/>
<path d="M239.28 112.856C240.732 113.124 241.433 115.181 241.447 116.53C241.461 117.982 240.415 119.069 239.128 118.202C238.151 117.528 237.463 116.516 237.209 115.353C236.927 113.922 237.828 112.587 239.28 112.856Z" fill="#CE7A63"/>
<path d="M245.941 119.936C245.941 119.936 247.234 120.204 250.516 121.718C249.677 122.53 248.59 123.005 246.911 122.213C245.239 121.422 245.941 119.936 245.941 119.936Z" fill="#263238"/>
<path d="M248.053 121.794C247.248 121.408 246.574 121.326 246.002 121.429C246.161 121.711 246.45 121.986 246.918 122.213C247.723 122.592 248.39 122.681 248.968 122.578C248.81 122.296 248.528 122.021 248.06 121.801L248.053 121.794Z" fill="#A02724"/>
<path d="M246.106 119.97C246.106 120.225 246.099 120.48 246.395 120.7C247.056 121.064 248.899 121.677 249.416 121.794C249.739 121.883 250.042 121.897 250.379 121.649C247.847 120.486 246.533 120.087 246.106 119.97Z" fill="white"/>
<path d="M251.37 170.453L263.823 170.52L263.834 168.518L251.38 168.451L251.37 170.453Z" fill="#263238"/>
<path d="M252.401 170.454L236.555 170.368C236.039 170.365 235.622 169.943 235.624 169.427L235.63 168.368L252.412 168.459L252.401 170.461L252.401 170.454Z" fill="#263238"/>
<path opacity="0.3" d="M252.401 170.454L236.555 170.368C236.039 170.365 235.622 169.943 235.624 169.427L235.63 168.368L252.412 168.459L252.401 170.461L252.401 170.454Z" fill="white"/>
<path d="M247.884 169.792L249.886 169.803L249.89 169.094L247.888 169.083L247.884 169.792Z" fill="#263238"/>
<path d="M244.76 169.781L246.762 169.792L246.766 169.083L244.763 169.072L244.76 169.781Z" fill="#263238"/>
<path d="M254.775 168.486L253.447 168.479L258.745 150.431L260.073 150.438L254.775 168.486Z" fill="#263238"/>
<path opacity="0.3" d="M254.775 168.486L253.447 168.479L258.745 150.431L260.073 150.438L254.775 168.486Z" fill="white"/>
<path d="M254.287 168.485L277.66 168.609L282.958 150.561L259.585 150.438L254.287 168.485Z" fill="#263238"/>
<path opacity="0.6" d="M254.287 168.485L277.66 168.609L282.958 150.561L259.585 150.438L254.287 168.485Z" fill="white"/>
<path d="M253.144 168.479C253.399 168.479 277.219 168.609 277.474 168.609C277.887 168.609 278.217 169.063 278.21 169.614C278.21 170.164 277.873 170.612 277.46 170.612C277.047 170.612 253.536 170.481 253.13 170.481C252.718 170.481 252.387 170.027 252.394 169.476C252.394 168.926 252.731 168.479 253.144 168.479Z" fill="#263238"/>
<path opacity="0.5" d="M253.144 168.479C253.399 168.479 277.219 168.609 277.474 168.609C277.887 168.609 278.217 169.063 278.21 169.614C278.21 170.164 277.873 170.612 277.46 170.612C277.047 170.612 253.536 170.481 253.13 170.481C252.718 170.481 252.387 170.027 252.394 169.476C252.394 168.926 252.731 168.479 253.144 168.479Z" fill="white"/>
<path d="M252.394 169.476C252.394 170.027 252.724 170.481 253.13 170.481C253.543 170.481 253.874 170.041 253.88 169.483C253.88 168.933 253.55 168.479 253.144 168.479C252.731 168.479 252.401 168.919 252.394 169.476Z" fill="#263238"/>
<path opacity="0.3" d="M252.394 169.476C252.394 170.027 252.724 170.481 253.13 170.481C253.543 170.481 253.874 170.041 253.88 169.483C253.88 168.933 253.55 168.479 253.144 168.479C252.731 168.479 252.401 168.919 252.394 169.476Z" fill="white"/>
<path opacity="0.2" d="M229.42 151.772C228.299 150.224 227.108 144.52 226.276 139.8L227.356 139.594L227.101 137.64L226.537 137.743C226.152 134.048 224.624 122.963 220.482 125.365C219.278 127.711 218.225 130.057 217.296 132.383C217.152 135.094 217.585 137.825 217.888 139.312L217.207 139.436L217.84 141.41L219.299 141.128C220.179 145.683 221.445 151.442 222.636 153.733C224.191 156.733 230.872 161.742 235.379 164.185C240.422 163.291 241.585 162.658 241.585 162.658C241.585 162.658 241.42 162.458 241.241 162.038L240.429 162.155C240.429 162.155 231.436 154.518 229.434 151.766L229.42 151.772Z" fill="black"/>
<path d="M228.188 133.085C228.188 133.085 229.661 149.171 231.532 152.013C233.404 154.862 242.025 162.905 242.025 162.905L247.736 162.348L251.369 166.125L248.527 167.901L245.555 166.394C245.555 166.394 243.277 166.593 240.394 166.277C237.511 165.96 226.551 157.786 224.652 153.658C222.752 149.529 221.094 134.619 221.094 134.619L228.188 133.078V133.085Z" fill="#CE7A63"/>
<path d="M229.468 136.559L228.904 136.663C228.512 132.906 226.936 121.477 222.629 124.415C218.493 127.236 219.649 135.245 220.255 138.238L219.574 138.362L220.2 140.337L229.723 138.513L229.468 136.559Z" fill="#3F80FF"/>
<path d="M278.864 127.931H265.351C263.087 127.931 261.257 129.761 261.257 132.025V140.027C261.257 142.291 263.087 144.121 265.351 144.121H269.218V147.231C269.218 148.002 270.153 148.394 270.697 147.844L274.426 144.114H278.864C281.128 144.114 282.958 142.284 282.958 140.02V132.018C282.958 129.755 281.128 127.924 278.864 127.924V127.931Z" fill="#3F80FF"/>
<path d="M275.596 131.75H269.108C269.046 131.213 269.011 130.945 268.949 130.408H265.378C265.454 130.718 265.495 130.869 265.571 131.179H268.144C268.179 131.406 268.199 131.523 268.234 131.757C268.406 132.892 268.495 133.463 268.667 134.598C268.716 134.908 268.736 135.059 268.784 135.369C268.956 136.504 269.046 137.076 269.218 138.211C269.307 138.816 269.355 139.119 269.452 139.725H276.573C276.642 139.415 276.676 139.264 276.752 138.954H269.975C269.94 138.651 269.92 138.507 269.885 138.204H277.254C277.536 137.069 277.674 136.498 277.956 135.362C278.032 135.053 278.073 134.901 278.149 134.592C278.431 133.456 278.569 132.885 278.851 131.75H275.61H275.596ZM269.204 132.521H271.502C271.53 133.346 271.537 133.766 271.564 134.592H269.452C269.355 133.766 269.3 133.346 269.204 132.521ZM269.789 137.433C269.693 136.608 269.638 136.188 269.541 135.362H271.585C271.612 136.188 271.619 136.608 271.647 137.433H269.789ZM274.199 137.433H272.342C272.342 136.608 272.342 136.188 272.342 135.362H274.385C274.309 136.188 274.268 136.608 274.192 137.433H274.199ZM274.461 134.592H272.348C272.348 133.766 272.348 133.346 272.348 132.521H274.647C274.571 133.346 274.53 133.766 274.454 134.592H274.461ZM276.752 137.433H274.894C274.998 136.608 275.053 136.188 275.156 135.362H277.199C277.02 136.188 276.931 136.608 276.759 137.433H276.752ZM277.358 134.592H275.245C275.348 133.766 275.403 133.346 275.507 132.521H277.805C277.626 133.346 277.536 133.766 277.364 134.592H277.358Z" fill="white"/>
<path d="M269.885 140.433C269.383 140.433 268.977 140.839 268.977 141.342C268.977 141.844 269.383 142.25 269.885 142.25C270.388 142.25 270.794 141.844 270.794 141.342C270.794 140.839 270.388 140.433 269.885 140.433Z" fill="white"/>
<path d="M276.367 142.257C276.869 142.257 277.275 141.85 277.275 141.349C277.275 140.847 276.869 140.44 276.367 140.44C275.865 140.44 275.458 140.847 275.458 141.349C275.458 141.85 275.865 142.257 276.367 142.257Z" fill="white"/>
<path d="M90.2875 191.694L88.6431 191.604L89.0353 184.146C89.3036 179.068 93.6453 174.94 98.7232 174.94C101.2 174.94 103.478 175.903 105.143 177.657C106.808 179.412 107.654 181.751 107.53 184.228L107.138 191.687L105.494 191.598L105.886 184.139C105.989 182.116 105.308 180.217 103.952 178.793C102.604 177.368 100.746 176.584 98.73 176.584C94.5191 176.584 90.9068 180.011 90.6866 184.228L90.2944 191.687L90.2875 191.694Z" fill="#263238"/>
<path d="M125.564 188.377H76.9389L75.2876 246.071L82.4985 244.427L89.7094 246.071H127.216L125.564 188.377Z" fill="#3F80FF"/>
<path opacity="0.6" d="M125.564 188.377H76.9389L75.2876 246.071L82.4985 244.427L89.7094 246.071H127.216L125.564 188.377Z" fill="white"/>
<path d="M89.7094 246.071L82.4985 244.427L75.2876 246.071L76.9389 188.377H88.0649L89.7094 246.071Z" fill="#3F80FF"/>
<path opacity="0.3" d="M89.7094 246.071L82.4985 244.427L75.2876 246.071L76.9389 188.377H88.0649L89.7094 246.071Z" fill="white"/>
<path d="M115.271 191.694L114.878 184.235C114.658 180.024 111.053 176.591 106.835 176.591C104.819 176.591 102.961 177.375 101.613 178.8C100.257 180.224 99.5759 182.123 99.6791 184.146L100.071 191.604L98.4268 191.694L98.0346 184.235C97.9039 181.758 98.7502 179.419 100.422 177.664C102.087 175.91 104.365 174.946 106.842 174.946C111.92 174.946 116.261 179.075 116.53 184.153L116.922 191.611L115.277 191.701L115.271 191.694Z" fill="#263238"/>
<g opacity="0.2">
<path d="M115.271 191.694L114.878 184.235C114.658 180.024 111.053 176.591 106.835 176.591C104.819 176.591 102.961 177.375 101.613 178.8C100.257 180.224 99.5759 182.123 99.6791 184.146L100.071 191.604L98.4268 191.694L98.0346 184.235C97.9039 181.758 98.7502 179.419 100.422 177.664C102.087 175.91 104.365 174.946 106.842 174.946C111.92 174.946 116.261 179.075 116.53 184.153L116.922 191.611L115.277 191.701L115.271 191.694Z" fill="white"/>
</g>
<path d="M96.3903 209.453H118.993C119.502 209.453 119.915 209.866 119.915 210.375V214.021C119.915 214.531 119.502 214.943 118.993 214.943H96.3903C95.8811 214.943 95.4683 214.531 95.4683 214.021V210.375C95.4683 209.866 95.8811 209.453 96.3903 209.453Z" fill="white"/>
<path d="M67.9393 209.625L66.8384 209.57L67.0998 204.567C67.2787 201.168 70.1892 198.396 73.5951 198.396C75.2534 198.396 76.7809 199.042 77.8955 200.219C79.0102 201.395 79.5813 202.964 79.4918 204.622L79.2304 209.625L78.1295 209.57L78.3909 204.567C78.4597 203.212 77.9987 201.939 77.0974 200.983C76.1891 200.026 74.9506 199.503 73.5951 199.503C70.7741 199.503 68.3521 201.801 68.2076 204.629L67.9462 209.632L67.9393 209.625Z" fill="#263238"/>
<path d="M91.588 207.395H58.9877L57.8799 246.071L62.7169 244.97L67.554 246.071H92.6958L91.588 207.395Z" fill="#3F80FF"/>
<path d="M67.554 246.071L62.717 244.97L57.8799 246.071L58.9877 207.395H66.4462L67.554 246.071Z" fill="#3F80FF"/>
<path opacity="0.2" d="M67.554 246.071L62.717 244.97L57.8799 246.071L58.9877 207.395H66.4462L67.554 246.071Z" fill="black"/>
<path d="M84.6866 209.625L84.4252 204.623C84.2807 201.795 81.8587 199.496 79.0376 199.496C77.6822 199.496 76.4436 200.019 75.5354 200.976C74.6272 201.932 74.1662 203.205 74.2419 204.561L74.5033 209.563L73.4024 209.618L73.141 204.616C73.0515 202.951 73.6226 201.389 74.7373 200.212C75.8519 199.035 77.3794 198.389 79.0376 198.389C82.4435 198.389 85.354 201.155 85.5329 204.561L85.7944 209.563L84.6935 209.618L84.6866 209.625Z" fill="#263238"/>
<g opacity="0.2">
<path d="M84.6866 209.625L84.4252 204.623C84.2807 201.795 81.8587 199.496 79.0376 199.496C77.6822 199.496 76.4436 200.019 75.5354 200.976C74.6272 201.932 74.1662 203.205 74.2419 204.561L74.5033 209.563L73.4024 209.618L73.141 204.616C73.0515 202.951 73.6226 201.389 74.7373 200.212C75.8519 199.035 77.3794 198.389 79.0376 198.389C82.4435 198.389 85.354 201.155 85.5329 204.561L85.7944 209.563L84.6935 209.618L84.6866 209.625Z" fill="white"/>
</g>
<path d="M86.8748 221.528H72.3292C71.82 221.528 71.4072 221.941 71.4072 222.45V224.287C71.4072 224.797 71.82 225.209 72.3292 225.209H86.8748C87.3841 225.209 87.7968 224.797 87.7968 224.287V222.45C87.7968 221.941 87.3841 221.528 86.8748 221.528Z" fill="white"/>
<path d="M118.126 242.301L112.89 241.75L113.152 229.523L118.388 230.067L118.126 242.301Z" fill="#B55B52"/>
<path d="M162.423 224.748L157.738 227.143L150.692 217.042L155.384 214.654L162.423 224.748Z" fill="#B55B52"/>
<path d="M156.761 226.489L161.577 223.056C161.749 222.932 161.983 222.952 162.128 223.104L165.396 226.523C165.733 226.881 165.664 227.494 165.251 227.776C163.552 228.945 162.671 229.42 160.552 230.934C159.252 231.863 157.442 233.356 155.646 234.643C153.885 235.895 152.481 234.216 153.114 233.521C155.956 230.404 155.777 229.028 156.231 227.273C156.314 226.957 156.506 226.682 156.761 226.496V226.489Z" fill="#263238"/>
<path d="M112.443 241.09L118.325 241.702C118.539 241.723 118.697 241.888 118.704 242.101L118.89 246.828C118.91 247.317 118.442 247.73 117.954 247.674C115.903 247.427 114.933 247.2 112.346 246.931C110.757 246.766 106.167 246.45 103.966 246.223C101.819 245.996 101.881 243.808 102.817 243.704C107.014 243.25 110.034 242.335 111.534 241.317C111.803 241.131 112.133 241.055 112.443 241.09Z" fill="#263238"/>
<g opacity="0.2">
<path d="M113.151 229.523L113.014 235.826L118.25 236.376L118.387 230.074L113.151 229.523Z" fill="black"/>
<path d="M155.384 214.654L150.692 217.049L154.325 222.25L159.017 219.856L155.384 214.654Z" fill="black"/>
</g>
<path d="M115.656 123.837C115.656 123.837 110.227 164.24 110.062 180.3C109.897 197.006 112.016 234.498 112.016 234.498L119.096 235.241C119.096 235.241 121.965 198.361 123.114 181.985C124.367 164.137 131.302 124.326 131.302 124.326L115.649 123.83L115.656 123.837Z" fill="#263238"/>
<path d="M119.688 235.558L111.376 234.691L111.046 231.98L120.383 232.627L119.688 235.558Z" fill="#3F80FF"/>
<path opacity="0.6" d="M124.56 134.213C118.979 144.61 122.564 164.006 124.195 171.231C125.488 160.497 127.504 147.389 129.059 137.77C128.433 132.28 127.133 129.424 124.56 134.22V134.213Z" fill="black"/>
<path d="M121.298 124.016C121.298 124.016 124.807 166.311 128.041 179.955C131.874 196.152 152.64 221.741 152.64 221.741L159.038 218.48C159.038 218.48 144.968 190.049 141.92 181.483C135.404 163.201 142.319 136.477 137.027 124.512L121.298 124.016Z" fill="#263238"/>
<path d="M159.947 218.446L152.006 222.485L149.894 220.42L159.018 215.246L159.947 218.446Z" fill="#3F80FF"/>
<path d="M154.91 228.65C154.91 228.65 154.869 228.65 154.848 228.65C154.614 228.622 154.428 228.478 154.298 228.23C154.201 228.044 154.242 227.893 154.298 227.803C154.635 227.225 156.534 227.136 156.754 227.122C156.809 227.122 156.851 227.15 156.871 227.191C156.892 227.239 156.885 227.287 156.851 227.329C156.403 227.838 155.571 228.677 154.917 228.657L154.91 228.65ZM156.452 227.384C155.695 227.439 154.683 227.618 154.504 227.92C154.483 227.962 154.463 228.017 154.511 228.106C154.6 228.278 154.717 228.375 154.876 228.395C155.233 228.436 155.812 228.065 156.452 227.384Z" fill="#3F80FF"/>
<path d="M156.575 227.37C155.922 227.349 154.731 226.998 154.511 226.503C154.463 226.4 154.421 226.186 154.649 225.973C154.793 225.835 154.972 225.78 155.172 225.801C155.935 225.884 156.816 227.108 156.858 227.164C156.885 227.198 156.885 227.246 156.871 227.287C156.851 227.329 156.816 227.356 156.768 227.363C156.713 227.363 156.644 227.37 156.575 227.363V227.37ZM155.11 226.049C155 226.049 154.903 226.083 154.814 226.159C154.697 226.269 154.71 226.345 154.731 226.4C154.883 226.737 155.867 227.081 156.507 227.115C156.19 226.723 155.598 226.097 155.144 226.049C155.13 226.049 155.117 226.049 155.103 226.049H155.11Z" fill="#3F80FF"/>
<path d="M110.386 241.805C109.863 241.75 109.395 241.62 109.147 241.351C108.989 241.179 108.94 240.966 108.989 240.725C109.016 240.581 109.099 240.47 109.236 240.415C109.918 240.133 111.893 241.413 112.113 241.565C112.154 241.592 112.175 241.647 112.168 241.702C112.154 241.75 112.113 241.792 112.058 241.799C111.604 241.84 110.964 241.874 110.392 241.812L110.386 241.805ZM109.567 240.622C109.47 240.615 109.388 240.622 109.333 240.642C109.278 240.663 109.25 240.704 109.236 240.766C109.202 240.931 109.236 241.069 109.34 241.179C109.629 241.496 110.482 241.64 111.666 241.565C110.984 241.145 110.069 240.67 109.574 240.622H109.567Z" fill="#3F80FF"/>
<path d="M112.023 241.785C112.023 241.785 111.989 241.778 111.975 241.771C111.383 241.427 110.262 240.168 110.42 239.583C110.454 239.445 110.578 239.28 110.922 239.28C111.177 239.28 111.404 239.376 111.59 239.569C112.189 240.188 112.168 241.606 112.161 241.668C112.161 241.709 112.133 241.751 112.099 241.771C112.078 241.785 112.051 241.792 112.023 241.785ZM110.998 239.535C110.998 239.535 110.95 239.535 110.922 239.535C110.695 239.535 110.668 239.624 110.661 239.652C110.564 240.003 111.308 240.98 111.906 241.427C111.886 241.007 111.803 240.147 111.411 239.741C111.294 239.617 111.156 239.548 110.998 239.535Z" fill="#3F80FF"/>
<path d="M113.399 102.349C111.411 104.977 109.326 107.324 106.876 109.574C105.652 110.695 104.351 111.769 102.762 112.718C101.964 113.186 101.09 113.647 99.9752 113.957C99.4179 114.108 98.7849 114.225 98.0555 114.218C97.6977 114.218 97.3055 114.17 96.9133 114.087C96.7138 114.039 96.5143 113.984 96.3216 113.915C96.1152 113.833 95.9707 113.785 95.6679 113.62C95.1381 113.331 94.7047 112.925 94.4226 112.553C94.1336 112.181 93.934 111.81 93.7964 111.487C93.5143 110.826 93.4042 110.269 93.3217 109.753C93.1772 108.721 93.184 107.833 93.2185 106.966C93.301 105.246 93.5762 103.65 93.879 102.067C94.512 98.9225 95.3927 95.9226 96.4661 92.9364L99.3147 93.6726C98.9018 96.6657 98.5303 99.7207 98.3032 102.679C98.1862 104.159 98.1312 105.631 98.1931 106.993C98.2207 107.668 98.2963 108.321 98.4202 108.817C98.4821 109.058 98.5578 109.257 98.5991 109.298C98.6335 109.367 98.606 109.154 98.1931 108.893C98.0555 108.824 98.0968 108.837 98.0693 108.824C98.0555 108.817 98.0418 108.81 98.0349 108.803C98.0211 108.789 98.0142 108.789 98.0349 108.776C98.0762 108.762 98.2069 108.734 98.3927 108.665C98.7505 108.528 99.2596 108.26 99.7619 107.915C100.78 107.221 101.84 106.285 102.865 105.301C103.89 104.31 104.874 103.223 105.851 102.122C106.828 101.035 107.792 99.8514 108.672 98.7643L113.406 102.356L113.399 102.349Z" fill="#B55B52"/>
<path d="M112.25 94.7803C110.09 94.1886 103.698 102.349 103.698 102.349L109.808 109.168C109.808 109.168 116.977 102.7 116.702 99.8032C116.42 96.7826 115.395 95.6542 112.243 94.7872L112.25 94.7803Z" fill="#3F80FF"/>
<path d="M99.3834 92.9088L99.1426 88.6222L95.0073 92.0281C95.0073 92.0281 95.6335 95.3514 97.7183 96.012L99.005 94.2024C99.2733 93.8239 99.404 93.3698 99.3765 92.9157L99.3834 92.9088Z" fill="#B55B52"/>
<path d="M96.4521 85.0994L93.1494 88.1337L95.0072 92.0213L99.1424 88.6154L96.4521 85.0994Z" fill="#B55B52"/>
<path d="M94.7731 93.3905L93.8236 93.0464C93.2869 92.8538 92.9704 92.2965 93.0736 91.7323L94.5254 84.0122L97.1332 84.9617L96.335 92.4203C96.2525 93.1703 95.4887 93.6519 94.78 93.3905H94.7731Z" fill="#263238"/>
<path d="M101.647 83.5787C101.812 83.1314 101.964 82.6911 102.115 82.2507C101.709 81.487 100.897 80.6682 99.81 79.8838C99.466 80.7301 99.122 81.6177 98.7848 82.5328C98.4477 83.4479 98.1449 84.3493 97.8628 85.2231C99.1976 85.3195 100.347 85.2163 101.152 84.8929C101.317 84.4594 101.482 84.0259 101.647 83.5787Z" fill="#263238"/>
<path d="M99.9199 82.9525C100.374 81.7003 100.677 80.5237 100.794 79.6361L92.2412 76.5192L89.9155 82.9113L98.475 86.0282C98.9498 85.2713 99.4727 84.191 99.9268 82.9525H99.9199Z" fill="#3F80FF"/>
<path opacity="0.6" d="M99.9199 82.9525C100.374 81.7003 100.677 80.5237 100.794 79.6361L92.2412 76.5192L89.9155 82.9113L98.475 86.0282C98.9498 85.2713 99.4727 84.191 99.9268 82.9525H99.9199Z" fill="white"/>
<path d="M94.4637 76.7393C94.0715 76.5949 84.8515 67.0859 83.7988 66.7005C82.6773 66.2877 80.269 70.0652 78.425 75.1293C76.581 80.1934 75.9962 84.6245 77.1246 85.0374C78.1842 85.4227 91.3537 84.0672 91.7459 84.2117C92.2069 84.3768 93.1839 82.8424 93.9339 80.7783C94.6839 78.7141 94.9247 76.9114 94.4637 76.7393Z" fill="#3F80FF"/>
<path opacity="0.4" d="M94.4637 76.7393C94.0715 76.5949 84.8515 67.0859 83.7988 66.7005C82.6773 66.2877 80.269 70.0652 78.425 75.1293C76.581 80.1934 75.9962 84.6245 77.1246 85.0374C78.1842 85.4227 91.3537 84.0672 91.7459 84.2117C92.2069 84.3768 93.1839 82.8424 93.9339 80.7783C94.6839 78.7141 94.9247 76.9114 94.4637 76.7393Z" fill="white"/>
<path d="M82.4997 76.609C80.6557 81.6732 78.2475 85.4437 77.1259 85.0378C76.0044 84.6318 76.5824 80.1938 78.4264 75.1297C80.2704 70.0656 82.6786 66.295 83.8001 66.701C84.9217 67.1138 84.3437 71.5449 82.4997 76.609Z" fill="#3F80FF"/>
<path d="M79.7807 75.618C79.6568 75.9552 79.5398 76.2855 79.4297 76.6159C79.8564 77.2352 80.6615 77.9165 81.7213 78.5978C81.9897 77.9647 82.2512 77.304 82.4989 76.609C82.7467 75.9208 82.9738 75.2464 83.1802 74.5858C81.9346 74.4275 80.8748 74.4344 80.1523 74.6339C80.0284 74.9574 79.8976 75.2877 79.7807 75.618Z" fill="#263238"/>
<path opacity="0.7" d="M79.7807 75.618C79.6568 75.9552 79.5398 76.2855 79.4297 76.6159C79.8564 77.2352 80.6615 77.9165 81.7213 78.5978C81.9897 77.9647 82.2512 77.304 82.4989 76.609C82.7467 75.9208 82.9738 75.2464 83.1802 74.5858C81.9346 74.4275 80.8748 74.4344 80.1523 74.6339C80.0284 74.9574 79.8976 75.2877 79.7807 75.618Z" fill="white"/>
<path opacity="0.2" d="M110.447 99.5761C110.764 104.152 109.69 106.876 108.94 108.191L109.807 109.161C109.807 109.161 113.853 105.514 115.745 102.473C113.612 99.3147 110.11 94.7735 110.44 99.583L110.447 99.5761Z" fill="black"/>
<path d="M134.502 73.5537C137.371 73.5537 139.697 71.2278 139.697 68.3588C139.697 65.4898 137.371 63.1639 134.502 63.1639C131.633 63.1639 129.307 65.4898 129.307 68.3588C129.307 71.2278 131.633 73.5537 134.502 73.5537Z" fill="#263238"/>
<path d="M133.945 70.7258C133.945 72.5285 132.486 73.9872 130.683 73.9872C128.881 73.9872 127.422 72.5285 127.422 70.7258C127.422 68.923 128.881 67.4644 130.683 67.4644C132.486 67.4644 133.945 68.923 133.945 70.7258Z" fill="#3F80FF"/>
<path d="M120.301 66.6731C120.301 66.6731 113.399 66.1089 113.406 77.9435C113.413 86.0489 117.342 89.7988 122.165 87.0741C122.165 87.0741 132.803 86.2002 134.027 76.4642C135.252 66.7281 127.732 63.102 120.294 66.6662L120.301 66.6731Z" fill="#263238"/>
<path d="M110.846 95.09C110.846 95.09 108.411 96.1496 115.663 126.603C124.126 125.991 132.871 125.351 136.993 125.055C136.002 116.399 135.603 111.053 138.458 92.9364C138.458 92.9364 133.917 92.2896 129.314 92.3997C125.715 92.4891 122.764 92.5855 119.633 93.1015C115.498 93.7827 110.853 95.09 110.853 95.09H110.846Z" fill="#3F80FF"/>
<path d="M127.553 81.5627C127.167 84.7209 126.975 90.4731 129.307 92.3997C129.307 92.3997 128.688 95.6198 122.894 96.0464C116.53 96.5074 119.619 93.1084 119.619 93.1084C123.032 92.0282 122.757 89.4548 121.972 87.0741L127.546 81.5627H127.553Z" fill="#B55B52"/>
<path opacity="0.2" d="M125.282 83.8126L121.979 87.0672C122.165 87.6314 122.324 88.2025 122.406 88.7667C123.72 88.4777 125.44 86.8883 125.475 85.4915C125.495 84.7966 125.42 84.1291 125.282 83.8126Z" fill="black"/>
<path d="M131.117 76.3059C129.927 81.3907 129.528 83.5718 126.479 85.7667C121.897 89.0694 115.911 86.4892 115.56 81.1499C115.243 76.3403 117.246 68.8336 122.633 67.6432C127.938 66.4735 132.314 71.2211 131.124 76.3059H131.117Z" fill="#B55B52"/>
<path d="M122.344 76.2716C122.275 76.6914 121.993 76.9942 121.718 76.946C121.443 76.8978 121.278 76.5194 121.353 76.1065C121.422 75.6867 121.704 75.3839 121.98 75.432C122.255 75.4802 122.42 75.8587 122.344 76.2716Z" fill="#263238"/>
<path d="M117.617 75.4597C117.548 75.8795 117.266 76.1823 116.991 76.1341C116.716 76.086 116.551 75.7075 116.626 75.2946C116.695 74.8748 116.977 74.572 117.253 74.6201C117.528 74.6683 117.693 75.0468 117.617 75.4597Z" fill="#263238"/>
<path d="M117.37 74.6615L116.413 74.2004C116.413 74.2004 116.792 75.0744 117.37 74.6615Z" fill="#263238"/>
<path d="M119.282 76.4642C119.282 76.4642 118.264 78.1434 117.335 78.8797C117.803 79.4922 118.78 79.4165 118.78 79.4165L119.282 76.4642Z" fill="#A02724"/>
<path d="M131.709 81.2531C131.172 82.1957 130.25 82.8012 129.39 83.0214C128.089 83.3517 127.47 82.1889 127.855 80.9779C128.199 79.8907 129.293 78.4045 130.587 78.6109C131.86 78.8105 132.328 80.1797 131.709 81.26V81.2531Z" fill="#B55B52"/>
<path d="M124.409 75.632C124.305 75.632 124.209 75.5632 124.175 75.4531C123.837 74.352 122.427 73.8772 122.413 73.8772C122.282 73.8359 122.213 73.6914 122.255 73.5606C122.296 73.4299 122.44 73.361 122.571 73.4023C122.64 73.423 124.243 73.9597 124.656 75.3086C124.698 75.4393 124.622 75.577 124.491 75.6182C124.464 75.6251 124.436 75.632 124.415 75.632H124.409Z" fill="#263238"/>
<path d="M116.564 73.0309C116.482 73.0309 116.399 72.9827 116.351 72.907C116.282 72.79 116.323 72.6317 116.44 72.5698C117.638 71.8816 118.67 72.3978 118.711 72.4184C118.835 72.4803 118.883 72.6317 118.821 72.7556C118.759 72.8795 118.608 72.9277 118.484 72.8657C118.484 72.8657 117.645 72.4597 116.688 73.0033C116.647 73.024 116.605 73.0378 116.557 73.0378L116.564 73.0309Z" fill="#263238"/>
<path d="M122.096 75.4734L121.14 75.0123C121.14 75.0123 121.518 75.8863 122.096 75.4734Z" fill="#263238"/>
<path d="M119.193 80.7164C119.193 80.7164 120.576 80.3242 124.505 80.1384C124.099 81.3425 123.287 82.3471 121.278 82.4228C119.262 82.4985 119.193 80.7164 119.193 80.7164Z" fill="#263238"/>
<path d="M122.166 81.4457C121.195 81.4801 120.5 81.7416 119.998 82.1201C120.294 82.3128 120.707 82.4367 121.271 82.416C122.241 82.3816 122.93 82.127 123.432 81.7416C123.136 81.5489 122.723 81.4251 122.166 81.4457Z" fill="#A02724"/>
<path d="M119.372 80.6682C119.495 80.9159 119.619 81.1636 120.018 81.2255C120.837 81.2393 122.922 80.909 123.479 80.7645C123.837 80.6888 124.14 80.5512 124.339 80.1453C121.312 80.2966 119.846 80.5719 119.372 80.6751V80.6682Z" fill="white"/>
<path d="M116.447 72.5698C116.447 72.5698 119.089 71.4964 120.397 69.4804C120.397 69.4804 120.424 73.1409 121.89 72.8588C123.362 72.5767 121.14 69.4735 121.14 69.4735C121.14 69.4735 124.587 71.001 125.757 73.9872C126.926 76.9803 128.275 80.2279 130.924 79.4229C133.58 78.611 132.988 70.1478 129.08 68.0355L123.548 67.0447L121.924 67.2786C121.092 67.4025 120.294 67.6915 119.578 68.1318C118.491 68.7992 117.638 69.79 117.135 70.9597L116.447 72.5698Z" fill="#263238"/>
<path d="M129.294 73.0102C129.04 72.4734 127.822 72.5147 126.569 73.1065C125.317 73.6983 125.268 74.2558 125.523 74.7925C125.778 75.3293 126.239 75.6459 127.491 75.054C128.744 74.4622 129.549 73.5469 129.294 73.0102ZM126.342 74.4072C126.163 74.0218 126.197 73.6226 127.092 73.2029C127.987 72.7831 128.861 72.7487 129.04 73.134C129.219 73.5194 128.64 74.1732 127.753 74.593C126.858 75.0128 126.528 74.7925 126.349 74.4072H126.342Z" fill="#3F80FF"/>
<path opacity="0.2" d="M136.098 99.9958L134.481 98.606L133.284 99.1426C133.284 99.1426 132.314 105.094 136.332 111.149C136.435 108.858 136.656 106.278 137.013 103.195C136.511 101.351 136.098 99.9958 136.098 99.9958Z" fill="black"/>
<path d="M157.896 116.764L157.022 116.853L156.609 112.911C156.327 110.227 158.268 107.695 160.93 107.276C162.231 107.069 163.504 107.386 164.522 108.17C165.54 108.954 166.18 110.11 166.318 111.418L166.731 115.36L165.857 115.45L165.444 111.507C165.334 110.434 164.811 109.498 163.985 108.858C163.16 108.225 162.121 107.964 161.061 108.136C158.852 108.487 157.242 110.585 157.476 112.814L157.889 116.757L157.896 116.764Z" fill="#263238"/>
<path d="M141.678 99.0808C141.795 99.6725 141.967 100.402 142.119 101.076C142.284 101.757 142.463 102.445 142.655 103.12C143.041 104.475 143.447 105.824 143.935 107.124C144.912 109.718 146.096 112.216 147.644 114.211L147.788 114.397L147.864 114.493C147.864 114.493 147.809 114.438 147.781 114.411C147.664 114.301 147.499 114.232 147.403 114.198C147.197 114.136 147.203 114.198 147.334 114.198C147.609 114.218 148.194 114.094 148.758 113.895C149.921 113.489 151.208 112.876 152.446 112.195C154.944 110.833 157.469 109.25 159.912 107.654L161.811 109.897C159.65 112.12 157.394 114.142 154.848 115.993C153.561 116.902 152.24 117.796 150.637 118.525C149.818 118.883 148.965 119.241 147.747 119.392C147.141 119.454 146.378 119.468 145.47 119.145C145.022 118.986 144.541 118.704 144.142 118.347C144.045 118.257 143.942 118.161 143.859 118.071L143.749 117.954L143.529 117.714C142.359 116.434 141.396 115.044 140.577 113.626C139.738 112.209 139.057 110.743 138.451 109.257C137.853 107.771 137.316 106.278 136.883 104.757C136.669 103.994 136.47 103.23 136.284 102.459C136.098 101.675 135.947 100.945 135.802 100.065L141.665 99.0808H141.678Z" fill="#B55B52"/>
<path d="M138.451 92.9364C140.633 93.4318 144.458 101.317 144.458 101.317L135.878 107.124C135.878 107.124 132.41 101.2 133.105 98.3721C133.835 95.4272 135.961 92.3653 138.451 92.9295V92.9364Z" fill="#3F80FF"/>
<path d="M159.561 107.675L164.543 104.929L163.497 110.179C163.497 110.179 160.277 111.197 158.708 109.677L159.561 107.681V107.675Z" fill="#B55B52"/>
<path d="M168.912 105.631L167.797 109.98L163.497 110.179L164.543 104.929L168.912 105.631Z" fill="#B55B52"/>
<path d="M171.004 114.686L170.178 110.805C169.71 108.61 167.536 107.11 165.327 107.461C164.268 107.626 163.359 108.198 162.768 109.051C162.176 109.911 161.976 110.964 162.196 112.016L163.022 115.897L162.162 116.083L161.336 112.202C161.061 110.909 161.316 109.615 162.038 108.555C162.768 107.496 163.882 106.801 165.183 106.594C167.845 106.175 170.467 107.977 171.031 110.62L171.857 114.5L170.997 114.686H171.004Z" fill="#263238"/>
<g opacity="0.3">
<path d="M171.004 114.686L170.178 110.805C169.71 108.61 167.536 107.11 165.327 107.461C164.268 107.626 163.359 108.198 162.768 109.051C162.176 109.911 161.976 110.964 162.196 112.016L163.022 115.897L162.162 116.083L161.336 112.202C161.061 110.909 161.316 109.615 162.038 108.555C162.768 107.496 163.882 106.801 165.183 106.594C167.845 106.175 170.467 107.977 171.031 110.62L171.857 114.5L170.997 114.686H171.004Z" fill="white"/>
</g>
<path d="M176.136 112.092L150.616 116.131L154.545 146.543L158.192 145.078L162.114 145.339L181.792 142.222L176.136 112.092Z" fill="#3F80FF"/>
<path opacity="0.6" d="M176.136 112.092L150.616 116.131L154.545 146.543L158.192 145.078L162.114 145.339L181.792 142.222L176.136 112.092Z" fill="white"/>
<path d="M162.114 145.339L158.192 145.078L154.545 146.543L150.616 116.131L156.458 115.209L162.114 145.339Z" fill="#3F80FF"/>
<path opacity="0.3" d="M162.114 145.339L158.192 145.078L154.545 146.543L150.616 116.131L156.458 115.209L162.114 145.339Z" fill="white"/>
<path d="M173.632 125.197L163.078 126.868C162.511 126.958 162.125 127.49 162.214 128.057L162.229 128.152C162.319 128.719 162.851 129.106 163.418 129.016L173.972 127.344C174.539 127.254 174.926 126.722 174.836 126.155L174.821 126.06C174.731 125.494 174.199 125.107 173.632 125.197Z" fill="white"/>
</g>
<defs>
<clipPath id="clip0_288_2139">
<rect width="344.03" height="256" fill="white"/>
</clipPath>
</defs>
</svg>
