<svg width="259" height="256" viewBox="0 0 259 256" fill="none" xmlns="http://www.w3.org/2000/svg">
<path d="M245.05 175.787C218.179 235.855 149.581 260.655 96.2647 255.287C81.7075 253.822 52.4173 250.872 29.8928 228.748C-13.3639 186.261 -5.0703 99.1796 37.9294 48.5795C43.4664 42.0634 81.7704 -1.57353 140.246 0.0438349C183.059 1.22875 212.692 26.0159 216.294 29.1025C220.844 33.0019 230.868 42.2527 239.794 56.8072C260.768 91.005 261.84 138.251 245.049 175.787H245.05Z" fill="url(#paint0_linear_286_1732)"/>
<path d="M17.8023 225.223C17.8023 227.459 19.6282 229.289 21.8607 229.289H241.303C243.535 229.289 245.361 227.459 245.361 225.223L247.187 98.7429C247.187 96.5065 244.56 92.1408 239.746 92.469L25.2828 86.9038C22.4824 86.8316 19.775 87.9123 17.7914 89.8944C15.8087 91.8766 14.723 94.5874 14.7895 97.3934L17.8032 225.223H17.8023Z" fill="url(#paint1_linear_286_1732)"/>
<path d="M21.8089 221.321C21.8089 223.438 23.5363 225.171 25.6485 225.171H236.011C238.123 225.171 239.851 223.439 239.851 221.321L241.574 106.501C241.371 99.5919 235.331 97.1078 231.67 97.255L26.1261 91.7245C24.1589 91.6715 22.2565 92.4322 20.8635 93.8255C19.4697 95.2198 18.704 97.127 18.7532 99.101L21.8098 221.321L21.8089 221.321Z" fill="#3F80FF"/>
<path d="M237.577 166.774H237.569C237.258 166.77 237.01 166.514 237.015 166.201L237.151 156.889C237.155 156.58 237.406 156.333 237.713 156.333H237.721C238.032 156.338 238.28 156.594 238.275 156.906L238.14 166.218C238.135 166.528 237.884 166.774 237.577 166.774Z" fill="#8CB3FF"/>
<path d="M237.911 143.955H237.903C237.592 143.95 237.344 143.694 237.349 143.382L237.871 107.717C237.861 105.599 237.22 103.908 235.965 102.702C233.622 100.451 229.904 100.566 229.747 100.573L164.051 98.8059C163.74 98.7977 163.495 98.538 163.504 98.2272C163.512 97.9154 163.751 97.6503 164.082 97.6786L229.739 99.4459C230.147 99.4221 234.107 99.3527 236.744 101.887C238.227 103.312 238.985 105.276 238.996 107.724L238.474 143.399C238.469 143.708 238.219 143.955 237.911 143.955Z" fill="#8CB3FF"/>
<path d="M0.515198 239.788L258.199 239.788C258.483 239.788 258.714 239.557 258.714 239.272V229.192C258.714 228.906 258.483 228.675 258.199 228.675L0.515198 228.675C0.230743 228.675 0.00012207 228.906 0.00012207 229.192V239.272C0.00012207 239.557 0.230743 239.788 0.515198 239.788Z" fill="url(#paint2_linear_286_1732)"/>
<path d="M192.955 30.9878L61.3282 30.1796C57.0027 30.1531 53.5423 33.7773 53.7565 38.1101L62.8122 225.674H209.288L217.421 58.0963L192.955 30.9878Z" fill="#8CB3FF"/>
<path d="M198.429 57.2948C194.141 57.1439 190.844 53.4374 191.183 49.1476L192.594 31.2377L217.448 57.9887L198.429 57.2948Z" fill="#7D97F4"/>
<path d="M83.3976 150.08C101.644 149.784 171.688 148.571 189.376 148.265C191.606 148.227 193.441 149.582 193.429 151.258C193.418 152.852 191.728 154.15 189.605 154.193L83.693 156.393C81.6528 156.435 79.8989 155.304 79.6473 153.783L79.5835 153.398C79.2955 151.659 81.0648 150.118 83.3976 150.08Z" fill="#D9E6FF"/>
<path d="M82.1202 168.703C82.4274 169.095 82.9907 169.334 83.5951 169.328L156.314 168.658C157.228 168.65 157.962 168.095 157.967 167.409L157.993 163.812C157.998 163.097 157.211 162.519 156.259 162.539L85.5614 164.021C82.4128 164.087 80.5212 166.66 82.1202 168.703Z" fill="#D9E6FF"/>
<path d="M83.0465 182.629C101.293 182.333 171.337 181.121 189.024 180.815C191.255 180.776 193.09 182.131 193.078 183.807C193.067 185.401 191.377 186.699 189.254 186.743L83.3419 188.942C81.3017 188.985 79.5478 187.854 79.2962 186.332L79.2324 185.947C78.9444 184.208 80.7138 182.668 83.0465 182.629Z" fill="#D9E6FF"/>
<path d="M81.7691 201.248C82.0763 201.641 82.6397 201.879 83.2441 201.874L155.963 201.204C156.877 201.195 157.611 200.64 157.616 199.955L157.642 196.357C157.647 195.642 156.859 195.064 155.908 195.084L85.2103 196.566C82.0617 196.632 80.1702 199.206 81.7691 201.248Z" fill="#D9E6FF"/>
<g opacity="0.8">
<path d="M167.132 73.3407C166.746 72.8644 166.14 72.6669 165.498 72.6806L107.011 73.9112L105.533 69.2045C105.328 68.549 104.713 68.1284 104.018 68.1476L95.988 68.3588C95.1266 68.3817 94.4292 68.9823 94.4292 69.8436C94.4292 70.7049 95.1266 71.2708 95.988 71.2507L102.85 71.0879L115.267 110.883C115.476 111.553 116.103 112.013 116.814 112.023L157.866 112.576C158.829 112.589 159.612 111.983 159.612 111.07C159.612 110.156 158.829 109.531 157.866 109.52L118.012 109.089L114.813 98.7569L158.609 98.8236C159.506 98.8255 160.296 98.2367 160.547 97.4202L167.459 75.0047C167.64 74.4196 167.518 73.818 167.131 73.3417L167.132 73.3407Z" fill="white"/>
<path d="M122.819 114.477C119.442 114.424 116.709 117.061 116.709 120.354C116.709 123.647 119.442 126.399 122.819 126.487C126.218 126.577 128.997 123.941 128.997 120.611C128.997 117.281 126.218 114.529 122.819 114.476V114.477ZM122.819 123.285C121.24 123.248 119.96 121.964 119.96 120.423C119.96 118.881 121.24 117.651 122.819 117.68C124.403 117.709 125.694 118.994 125.694 120.543C125.694 122.091 124.402 123.322 122.819 123.285V123.285Z" fill="white"/>
<path d="M150.185 114.903C146.64 114.848 143.772 117.547 143.772 120.921C143.772 124.295 146.64 127.114 150.185 127.208C153.753 127.302 156.671 124.603 156.671 121.191C156.671 117.779 153.753 114.958 150.185 114.902V114.903ZM150.185 123.927C148.528 123.888 147.184 122.572 147.184 120.993C147.184 119.414 148.528 118.154 150.185 118.185C151.847 118.216 153.203 119.531 153.203 121.119C153.203 122.708 151.847 123.967 150.185 123.927Z" fill="white"/>
</g>
<path opacity="0.81" d="M133.638 141.225C105.946 141.225 83.4175 118.629 83.4175 90.856C83.4175 63.0828 105.946 40.4872 133.638 40.4872C161.329 40.4872 183.858 63.0828 183.858 90.856C183.858 118.629 161.329 141.225 133.638 141.225ZM133.638 42.9932C107.324 42.9932 85.9161 64.4643 85.9161 90.856C85.9161 117.248 107.324 138.719 133.638 138.719C159.952 138.719 181.36 117.248 181.36 90.856C181.36 64.4643 159.952 42.9932 133.638 42.9932Z" fill="white"/>
<path d="M134.296 97.1235C133.52 97.1747 132.799 96.8127 132.398 96.1663L125.657 85.3091C125.025 84.2915 125.365 82.8982 126.417 82.1969C127.467 81.4956 128.831 81.7516 129.462 82.7692L134.137 90.3057L140.305 77.705C140.859 76.574 142.189 76.0556 143.275 76.5457C144.361 77.0358 144.794 78.3496 144.241 79.4796L136.269 95.7759C135.904 96.5219 135.178 97.0357 134.374 97.1162C134.348 97.1189 134.322 97.1208 134.296 97.1226V97.1235Z" fill="#3F80FF"/>
<path d="M39.7508 137.615C39.3306 137.615 38.9833 137.28 38.9705 136.856C38.9623 136.571 38.7818 129.801 40.7691 122.571C43.4455 112.833 48.8148 107.062 56.2944 105.881C59.959 105.302 63.2252 106.169 66.0019 108.46C75.0513 115.925 75.9118 135.952 75.9437 136.802C75.9601 137.234 75.6237 137.598 75.1935 137.614C74.7596 137.624 74.3995 137.294 74.3831 136.862C74.3749 136.661 73.5161 116.686 65.0083 109.669C62.5917 107.677 59.7429 106.923 56.5378 107.429C39.9122 110.054 40.5248 136.541 40.533 136.809C40.5457 137.241 40.2075 137.603 39.7764 137.615C39.7682 137.615 39.76 137.615 39.7518 137.615H39.7508Z" fill="#659AFF"/>
<path d="M6.85619 223.373L20.2748 130.564L70.6848 129.713L86.932 228.532H11.2209C8.52805 228.532 6.4633 226.092 6.85619 223.373Z" fill="#3F80FF"/>
<path d="M80.4746 130.564L70.6841 129.713L86.9313 228.532H96.6507C98.6216 228.532 100.094 226.684 99.6927 224.717L80.4746 130.564Z" fill="#0056FE"/>
<path d="M64.3309 137.402C63.9134 137.402 63.567 137.071 63.5506 136.649C63.5424 136.448 62.6837 116.473 54.1758 109.456C51.7601 107.464 48.9105 106.71 45.7053 107.216C29.0934 109.839 29.6923 136.328 29.6996 136.596C29.7124 137.028 29.3733 137.39 28.943 137.402C28.5073 137.421 28.1517 137.076 28.139 136.644C28.1308 136.359 27.9503 129.589 29.9375 122.359C32.614 112.621 37.9832 106.85 45.4628 105.668C49.1283 105.09 52.3937 105.957 55.1704 108.248C64.2188 115.713 65.0803 135.74 65.1122 136.59C65.1286 137.022 64.7922 137.386 64.3619 137.402C64.3519 137.402 64.3419 137.402 64.3319 137.402H64.3309Z" fill="#659AFF"/>
<path d="M198.841 248.481C202.144 248.767 207.877 249.232 212.397 249.432C215.113 249.552 216.677 249.285 217.578 248.923C217.576 249.025 217.574 249.122 217.57 249.211C217.549 249.688 217.162 250.069 216.682 250.096C208.142 250.574 201.351 250.261 198.932 250.114C198.433 250.084 198.135 249.539 198.39 249.111C198.518 248.897 198.673 248.688 198.841 248.481Z" fill="#3F80FF"/>
<path d="M212.397 249.433C207.877 249.233 202.145 248.768 198.841 248.482C202.088 244.485 212.397 241.792 212.397 241.792H215.308C217.311 244.686 217.601 247.443 217.579 248.924C216.678 249.286 215.114 249.552 212.398 249.433H212.397Z" fill="url(#paint3_linear_286_1732)"/>
<path d="M215.798 237.027L215.525 242.434C215.496 243.019 215.059 243.512 214.474 243.595C213.893 243.678 213.113 243.689 212.287 243.413C211.78 243.243 211.402 242.814 211.308 242.29L210.367 237.027H215.798Z" fill="url(#paint4_linear_286_1732)"/>
<path d="M249.586 254.719C251.018 254.461 251.667 253.496 251.938 252.465C251.94 252.474 251.942 252.483 251.944 252.492C252.154 253.58 251.666 254.707 250.689 255.243C249.509 255.891 248.218 256.002 247.216 255.948C246.141 255.891 245.154 255.314 244.612 254.391L244.604 254.377C245.683 255.07 247.198 255.151 249.586 254.719Z" fill="#659AFF"/>
<path d="M242.832 238.692H245.234C248.891 238.595 251.187 248.593 251.938 252.464C251.667 253.496 251.019 254.46 249.586 254.719C247.197 255.151 245.683 255.069 244.604 254.377C242.628 251.007 241.648 246.072 241.178 243.191C240.643 239.915 242.833 238.691 242.833 238.691L242.832 238.692Z" fill="url(#paint5_linear_286_1732)"/>
<path d="M244.926 233.674L246.259 238.992C246.422 239.644 246.111 240.319 245.51 240.628C244.765 241.012 243.714 241.415 242.749 241.298C242.295 241.243 241.919 240.922 241.768 240.494L239.811 234.899L244.925 233.674H244.926Z" fill="url(#paint6_linear_286_1732)"/>
<path d="M198.028 163.631C198.028 163.631 209.942 238.323 209.746 238.733C209.746 238.733 213.037 240.234 216.624 238.924C216.624 238.924 215.546 198.997 213.022 183.687C213.022 183.687 233.355 219.374 239.812 237.157C239.812 237.157 243.179 236.754 245.967 234.914C245.967 234.914 224.074 170.678 218.234 162.123L198.029 163.631H198.028Z" fill="url(#paint7_linear_286_1732)"/>
<path d="M212.546 183.298C212.61 183.298 212.675 183.281 212.732 183.244C212.897 183.141 212.946 182.923 212.844 182.758L208.392 175.625C208.341 175.543 208.258 175.486 208.163 175.466L204.887 174.805C204.696 174.768 204.511 174.891 204.472 175.081C204.434 175.272 204.558 175.459 204.748 175.497L207.875 176.128L212.247 183.132C212.314 183.239 212.429 183.297 212.546 183.297V183.298Z" fill="url(#paint8_linear_286_1732)"/>
<path d="M143.357 90.4911C143.357 90.4911 151.396 92.2694 156.286 94.5341C157.257 94.9839 158.031 95.7702 158.473 96.7393C159.935 99.9521 164.31 108.009 172.796 111.853C171.574 113.48 169.606 116.864 168.749 122.55C163.652 118.746 159.253 112.393 157.141 101.974C157.141 101.974 155.533 102.85 153.525 101.873C152.465 101.356 151.241 100.624 150.322 100.048C149.407 99.4739 148.725 98.5816 148.46 97.5402C148.11 96.1642 148.316 94.9546 148.316 93.6563L144.183 92.3727C144.183 92.3727 142.941 91.9027 143.356 90.492L143.357 90.4911Z" fill="url(#paint9_linear_286_1732)"/>
<path d="M168.749 122.551C169.605 116.864 171.574 113.48 172.795 111.853C178.066 114.241 184.923 115.006 193.654 111.971C194.459 111.692 195.299 111.528 196.15 111.478C200.798 111.204 216.115 110.705 228.789 114.905C231.457 115.789 233.617 117.767 234.731 120.33C238.16 128.221 243.71 146.193 228.301 155.265C227.117 152.318 225.75 149.948 224.582 148.207C227.063 144.009 227.799 138.275 223.395 130.808C220.184 139.504 218.677 152.193 218.363 157.809C218.259 159.658 218.582 161.503 219.305 163.21L219.385 163.396C219.54 163.762 219.326 164.182 218.937 164.269C210.262 166.224 201.239 165.693 198.544 165.47C198.063 165.43 197.663 165.085 197.552 164.618C193.333 146.79 193.324 134.63 194.357 126.943C190.411 127.828 178.344 129.715 168.749 122.552L168.749 122.551Z" fill="#0056FE"/>
<path d="M194.339 127.421C194.513 127.421 194.664 127.292 194.687 127.115C195.678 119.609 197.695 116.334 197.716 116.301C197.819 116.136 197.77 115.918 197.606 115.814C197.443 115.71 197.225 115.758 197.121 115.922C197.035 116.059 195.004 119.338 193.99 127.022C193.964 127.215 194.1 127.392 194.293 127.418C194.308 127.419 194.324 127.42 194.339 127.42V127.421Z" fill="url(#paint10_linear_286_1732)"/>
<path d="M215.748 101.093C215.748 101.093 216.625 110.399 217.398 113.152C217.515 113.57 217.334 114.01 216.955 114.227C215.644 114.979 212.499 116.205 208.196 114.09C207.499 113.747 207.08 113.019 207.112 112.248L207.491 103.255L215.747 101.094L215.748 101.093Z" fill="url(#paint11_linear_286_1732)"/>
<path d="M207.303 89.1865C207.303 89.1865 204.496 95.6533 204.307 99.048C204.119 102.443 203.389 104.645 207.303 105.328C211.216 106.012 214.513 104.056 216.298 100.675C216.298 100.675 219.097 95.4658 218.469 93.3319C217.841 91.198 207.303 89.1865 207.303 89.1865Z" fill="url(#paint12_linear_286_1732)"/>
<path d="M214.962 98.2441L214.74 98.1454C214.456 98.0201 214.335 97.6818 214.477 97.4057C215.029 96.336 216.104 93.8857 214.715 93.3143C212.924 92.5774 205.83 91.1264 204.299 88.6021C202.828 86.1756 204.131 83.0432 206.09 82.1527C206.222 82.0933 206.376 82.1408 206.443 82.2679L206.606 82.5778C206.719 82.79 207.03 82.758 207.097 82.5276C207.161 82.3063 207.454 82.2633 207.575 82.459C208.046 83.2142 209.317 84.4393 212.713 85.0674C217.541 85.9607 220.732 87.9209 220.812 91.2663C220.817 91.4793 221.042 91.5973 221.223 91.4866C221.579 91.269 222.15 91.1666 222.912 91.8094C224.237 92.9275 223.695 95.8276 220.789 98.2139C220.651 98.3273 220.652 98.5431 220.802 98.6409C221.329 98.9847 222.114 99.8039 220.079 100.895C217.974 102.023 216.401 101.93 215.796 101.831C215.646 101.806 215.548 101.66 215.581 101.51L216.227 98.5696C216.264 98.4032 216.138 98.2459 215.968 98.2459H214.961L214.962 98.2441Z" fill="url(#paint13_linear_286_1732)"/>
<path d="M214.84 98.8649C214.84 98.8649 215.911 94.7342 217.757 95.8916C219.604 97.05 216.799 100.521 215.314 100.675L214.839 98.8649H214.84Z" fill="url(#paint14_linear_286_1732)"/>
<path d="M154.996 101.013C155.074 101.013 155.153 100.987 155.218 100.933C155.368 100.811 155.391 100.589 155.269 100.437C154.965 100.062 152.267 96.7533 151.228 96.1645C150.85 95.9506 150.624 95.7284 150.576 95.5245C150.553 95.4267 150.569 95.317 150.623 95.1926L153.793 95.8299L155.589 97.375C155.736 97.5021 155.958 97.4856 156.085 97.3375C156.212 97.1894 156.194 96.9673 156.047 96.8402L154.181 95.2347C154.136 95.1954 154.081 95.1689 154.022 95.157L150.513 94.4521C150.373 94.4237 150.231 94.4831 150.152 94.6011C149.895 94.9842 149.809 95.3398 149.892 95.6882C149.989 96.1005 150.313 96.458 150.882 96.7807C151.664 97.2242 153.921 99.893 154.724 100.884C154.793 100.97 154.894 101.014 154.997 101.014L154.996 101.013Z" fill="url(#paint15_linear_286_1732)"/>
<path d="M214.976 159.738L202.569 159.892L206.911 155.792C207.99 154.773 209.637 154.608 210.883 155.418C211.613 155.892 212.404 156.537 213.09 157.39C213.09 157.39 220.829 154.553 224.581 148.206C225.75 149.947 227.116 152.317 228.3 155.264C224.937 157.245 220.577 158.802 214.976 159.737V159.738Z" fill="url(#paint16_linear_286_1732)"/>
<path d="M213.639 161.344C213.616 161.345 213.591 161.346 213.567 161.346L182.073 161.312C181.294 161.312 180.664 160.685 180.665 159.911C180.665 159.139 181.299 158.5 182.076 158.514L213.57 158.548C214.349 158.548 214.98 159.175 214.979 159.949C214.979 160.698 214.384 161.308 213.639 161.345V161.344Z" fill="url(#paint17_linear_286_1732)"/>
<path d="M153.761 132.966H179.99C181.925 132.966 183.686 134.074 184.511 135.81L196.637 161.325H164.042C162.795 161.325 161.674 160.569 161.216 159.418L151.813 135.807C151.269 134.443 152.282 132.965 153.761 132.965V132.966Z" fill="url(#paint18_linear_286_1732)"/>
<path d="M171.31 149.857C172.393 149.499 172.804 147.789 172.229 146.039C171.654 144.289 170.31 143.16 169.227 143.518C168.144 143.876 167.732 145.585 168.307 147.335C168.882 149.086 170.226 150.215 171.31 149.857Z" fill="#3F80FF"/>
<defs>
<linearGradient id="paint0_linear_286_1732" x1="269.239" y1="292.155" x2="84.2871" y2="86.0089" gradientUnits="userSpaceOnUse">
<stop stop-color="#DAE3FE"/>
<stop offset="1" stop-color="#E9EFFD"/>
</linearGradient>
<linearGradient id="paint1_linear_286_1732" x1="151.625" y1="219.565" x2="99.522" y2="63.7157" gradientUnits="userSpaceOnUse">
<stop stop-color="#09005D"/>
<stop offset="1" stop-color="#1A0F91"/>
</linearGradient>
<linearGradient id="paint2_linear_286_1732" x1="126.123" y1="99.2914" x2="129.277" y2="230.072" gradientUnits="userSpaceOnUse">
<stop stop-color="#09005D"/>
<stop offset="1" stop-color="#1A0F91"/>
</linearGradient>
<linearGradient id="paint3_linear_286_1732" x1="217.579" y1="245.627" x2="198.841" y2="245.627" gradientUnits="userSpaceOnUse">
<stop stop-color="#09005D"/>
<stop offset="1" stop-color="#1A0F91"/>
</linearGradient>
<linearGradient id="paint4_linear_286_1732" x1="215.798" y1="240.337" x2="210.367" y2="240.337" gradientUnits="userSpaceOnUse">
<stop stop-color="#FEBBBA"/>
<stop offset="1" stop-color="#FF928E"/>
</linearGradient>
<linearGradient id="paint5_linear_286_1732" x1="251.939" y1="246.838" x2="241.093" y2="246.838" gradientUnits="userSpaceOnUse">
<stop stop-color="#09005D"/>
<stop offset="1" stop-color="#1A0F91"/>
</linearGradient>
<linearGradient id="paint6_linear_286_1732" x1="246.302" y1="237.496" x2="239.811" y2="237.496" gradientUnits="userSpaceOnUse">
<stop stop-color="#FEBBBA"/>
<stop offset="1" stop-color="#FF928E"/>
</linearGradient>
<linearGradient id="paint7_linear_286_1732" x1="231.957" y1="255.101" x2="209.338" y2="154.873" gradientUnits="userSpaceOnUse">
<stop stop-color="#09005D"/>
<stop offset="1" stop-color="#1A0F91"/>
</linearGradient>
<linearGradient id="paint8_linear_286_1732" x1="234.015" y1="139.257" x2="200.764" y2="191.176" gradientUnits="userSpaceOnUse">
<stop stop-color="#CB236D"/>
<stop offset="1" stop-color="#4C246D"/>
</linearGradient>
<linearGradient id="paint9_linear_286_1732" x1="157.024" y1="100.369" x2="182.826" y2="133.839" gradientUnits="userSpaceOnUse">
<stop stop-color="#FEBBBA"/>
<stop offset="1" stop-color="#FF928E"/>
</linearGradient>
<linearGradient id="paint10_linear_286_1732" x1="193.987" y1="121.59" x2="197.77" y2="121.59" gradientUnits="userSpaceOnUse">
<stop stop-color="#E1473D"/>
<stop offset="1" stop-color="#E9605A"/>
</linearGradient>
<linearGradient id="paint11_linear_286_1732" x1="214.325" y1="122.049" x2="211.496" y2="107.244" gradientUnits="userSpaceOnUse">
<stop stop-color="#FEBBBA"/>
<stop offset="1" stop-color="#FF928E"/>
</linearGradient>
<linearGradient id="paint12_linear_286_1732" x1="206.715" y1="94.8789" x2="222.796" y2="107.148" gradientUnits="userSpaceOnUse">
<stop stop-color="#FEBBBA"/>
<stop offset="1" stop-color="#FF928E"/>
</linearGradient>
<linearGradient id="paint13_linear_286_1732" x1="218.011" y1="85.1287" x2="203.011" y2="104.384" gradientUnits="userSpaceOnUse">
<stop stop-color="#09005D"/>
<stop offset="1" stop-color="#1A0F91"/>
</linearGradient>
<linearGradient id="paint14_linear_286_1732" x1="208.705" y1="92.2702" x2="224.786" y2="104.538" gradientUnits="userSpaceOnUse">
<stop stop-color="#FEBBBA"/>
<stop offset="1" stop-color="#FF928E"/>
</linearGradient>
<linearGradient id="paint15_linear_286_1732" x1="149.861" y1="97.7289" x2="156.17" y2="97.7289" gradientUnits="userSpaceOnUse">
<stop stop-color="#FF928E"/>
<stop offset="1" stop-color="#FE7062"/>
</linearGradient>
<linearGradient id="paint16_linear_286_1732" x1="199.297" y1="132.568" x2="210.575" y2="149.434" gradientUnits="userSpaceOnUse">
<stop stop-color="#FEBBBA"/>
<stop offset="1" stop-color="#FF928E"/>
</linearGradient>
<linearGradient id="paint17_linear_286_1732" x1="218.974" y1="152.966" x2="193.961" y2="161.144" gradientUnits="userSpaceOnUse">
<stop stop-color="#09005D"/>
<stop offset="1" stop-color="#1A0F91"/>
</linearGradient>
<linearGradient id="paint18_linear_286_1732" x1="184.573" y1="136.727" x2="166.62" y2="155.647" gradientUnits="userSpaceOnUse">
<stop stop-color="#09005D"/>
<stop offset="1" stop-color="#1A0F91"/>
</linearGradient>
</defs>
</svg>
