<svg width="256" height="256" viewBox="0 0 256 256" fill="none" xmlns="http://www.w3.org/2000/svg">
<g clip-path="url(#clip0_288_2649)">
<path d="M223.266 216.882C216.659 223.692 210.749 227.694 206.223 230.716C162.085 260.187 111.63 251.693 96.0303 248.79C70.8627 244.106 49.6174 240.801 31.3646 224.31C-10.1129 186.838 -8.09505 108.666 23.5987 60.243C27.3564 54.5013 59.0017 7.59295 109.566 0.983582C110.803 0.821753 111.726 0.72941 112.534 0.644382C120.356 -0.183961 168.828 -4.55516 208.353 28.5584C214.011 33.2981 223.116 41.8485 231.559 54.888C262.43 102.567 262.528 176.412 223.267 216.882H223.266Z" fill="url(#paint0_linear_288_2649)"/>
<g opacity="0.3">
<path d="M62.6668 39.3838C62.4044 39.8172 61.8403 39.9562 61.407 39.6938C60.564 39.1845 59.6872 38.7036 58.7994 38.2657C58.3505 38.0444 58.1631 37.5041 58.3752 37.0524C58.3779 37.0469 58.3807 37.0414 58.3825 37.0359C58.6065 36.5815 59.1569 36.395 59.6113 36.6199C60.5457 37.0817 61.4691 37.5873 62.356 38.1239C62.7619 38.369 62.9091 38.8791 62.7116 39.2988C62.6979 39.328 62.6833 39.3564 62.6659 39.3838H62.6668ZM54.3331 36.4289C53.3951 36.1162 52.4342 35.8401 51.4769 35.6087C50.985 35.4899 50.6815 34.9943 50.8003 34.5015C50.921 34.0078 51.4156 33.7061 51.9075 33.825C52.9142 34.0682 53.9263 34.358 54.9137 34.6881C55.3946 34.8481 55.6543 35.3683 55.4934 35.8492C55.4815 35.8839 55.4678 35.9178 55.4531 35.9507C55.2584 36.3658 54.7784 36.5788 54.3331 36.4298V36.4289ZM46.718 34.8051C45.7361 34.7091 44.7386 34.6542 43.7512 34.6433C43.2447 34.6378 42.8387 34.2218 42.8442 33.7153C42.8506 33.2087 43.2657 32.8028 43.7722 32.8083C44.8118 32.8202 45.8632 32.8778 46.8963 32.9783C47.401 33.0277 47.7695 33.4766 47.7201 33.9813C47.7091 34.0892 47.6808 34.1898 47.6378 34.283C47.4769 34.6241 47.1148 34.8444 46.718 34.806V34.8051ZM38.9311 34.9258C37.9509 35.0519 36.9653 35.222 36.0017 35.4314C35.5061 35.5383 35.0179 35.2238 34.91 34.7292C34.8031 34.2337 35.1176 33.7454 35.6122 33.6375C36.628 33.4172 37.6657 33.238 38.6961 33.1054C39.1989 33.0405 39.6588 33.3962 39.7238 33.8981C39.7466 34.0782 39.7164 34.2519 39.6442 34.4055C39.5153 34.6798 39.2538 34.8846 38.9311 34.9258ZM31.3644 36.7781C30.4392 37.1182 29.5157 37.5022 28.6197 37.9201C28.1599 38.134 27.614 37.9356 27.4001 37.4766C27.1852 37.0167 27.3845 36.4709 27.8444 36.257C28.7871 35.8172 29.7589 35.4131 30.7327 35.0556C31.2081 34.881 31.7356 35.1251 31.9103 35.6005C31.998 35.8401 31.9797 36.0933 31.8792 36.3073C31.7804 36.5185 31.6012 36.6913 31.3653 36.7781H31.3644ZM24.3967 40.2579C23.5683 40.7946 22.7528 41.3733 21.9729 41.9786C21.5724 42.2894 20.9955 42.2163 20.6856 41.8158C20.3747 41.4154 20.4479 40.8394 20.8483 40.5285C21.6693 39.8912 22.5279 39.2823 23.3992 38.7173C23.8243 38.4421 24.393 38.5637 24.6682 38.9889C24.8474 39.265 24.8584 39.6014 24.7276 39.8794C24.6572 40.0293 24.5457 40.1619 24.3967 40.2579ZM7.59665 69.9036C7.09013 69.8972 6.68419 69.4812 6.6915 68.9737C6.70522 67.936 6.76465 66.8837 6.86796 65.8487C6.91825 65.344 7.36807 64.9765 7.87185 65.0268C8.37562 65.0771 8.74408 65.5269 8.69379 66.0307C8.59596 67.0144 8.53928 68.0128 8.52648 68.9984C8.52465 69.1337 8.49356 69.2617 8.43962 69.3769C8.2915 69.6924 7.96785 69.9091 7.59665 69.9045V69.9036ZM18.377 45.1932C17.6895 45.8999 17.0239 46.6451 16.3994 47.4094C16.0785 47.8016 15.4997 47.8592 15.1075 47.5383C14.7153 47.2174 14.6595 46.6405 14.9786 46.2474C15.636 45.4437 16.3372 44.6583 17.0613 43.9141C17.4152 43.5511 17.9957 43.5429 18.3587 43.8967C18.6467 44.1774 18.7116 44.6007 18.5498 44.9454C18.5077 45.035 18.4501 45.1191 18.377 45.195V45.1932ZM8.39756 61.9465C7.90568 61.8268 7.60305 61.3303 7.72282 60.8375C7.96876 59.8291 8.26133 58.8179 8.5923 57.8314C8.75139 57.3495 9.27345 57.0926 9.75436 57.2535C10.2344 57.4144 10.4931 57.9347 10.3322 58.4156C10.0177 59.3527 9.73973 60.3136 9.50659 61.2718C9.49196 61.3331 9.47093 61.3907 9.44533 61.4455C9.26339 61.8323 8.8291 62.0508 8.39848 61.9456L8.39756 61.9465ZM13.6117 51.3491C13.0997 52.192 12.617 53.067 12.1781 53.952C11.9532 54.4064 11.4028 54.5911 10.9484 54.3662C10.5004 54.144 10.3139 53.6046 10.526 53.1539C10.5288 53.1484 10.5315 53.142 10.5342 53.1365C10.996 52.2048 11.5043 51.2823 12.0428 50.3955C12.3061 49.9621 12.8702 49.825 13.3036 50.0883C13.7077 50.3342 13.8549 50.8426 13.6575 51.2622C13.6437 51.2915 13.6282 51.3207 13.6108 51.3491H13.6117Z" fill="#8CB3FF"/>
<path d="M8.93785 75.8007C9.01465 75.6371 9.04482 75.4496 9.01191 75.2576C8.93236 74.7914 8.86196 74.315 8.80162 73.8432C8.73762 73.3404 8.27774 72.9847 7.77488 73.0496C7.27202 73.1136 6.91636 73.5735 6.98128 74.0764C7.04436 74.5728 7.11933 75.0739 7.20254 75.5639C7.28756 76.0631 7.76116 76.3996 8.26036 76.3155C8.56848 76.2634 8.81442 76.0631 8.93785 75.8007Z" fill="#8CB3FF"/>
</g>
<g opacity="0.3">
<path d="M24.0154 99.3655C24.2037 98.9651 24.0794 98.475 23.7018 98.2181C23.3114 97.9521 22.9191 97.6723 22.537 97.3879C22.1301 97.0853 21.555 97.1694 21.2533 97.5763C20.9498 97.985 21.0348 98.5582 21.4417 98.8599C21.8439 99.1589 22.2563 99.4533 22.6677 99.734C23.0865 100.019 23.657 99.9114 23.9431 99.4926C23.9715 99.4515 23.9953 99.4085 24.0154 99.3655Z" fill="#8CB3FF"/>
<path d="M75.6888 86.7146C75.4511 87.1617 74.8952 87.3317 74.4472 87.094C74.0001 86.8563 73.831 86.3013 74.0678 85.8533C74.5203 85.0012 74.9446 84.1171 75.3322 83.2147C75.5297 82.7502 76.0719 82.5345 76.5382 82.7338C77.0044 82.9331 77.2193 83.4735 77.0191 83.9397C76.8508 84.3311 76.6771 84.7169 76.497 85.0991C76.241 85.644 75.9686 86.188 75.6888 86.7146ZM77.5484 79.8611C77.0602 79.7258 76.774 79.2202 76.9094 78.732C77.169 77.7939 77.3921 76.8357 77.5722 75.8821C77.6646 75.3848 78.1455 75.0565 78.6438 75.1507C79.1411 75.2449 79.4694 75.7249 79.3752 76.2222C79.1859 77.2261 78.951 78.2355 78.6776 79.222C78.663 79.2732 78.6447 79.3226 78.6236 79.3683C78.4371 79.7651 77.9855 79.9818 77.5484 79.8611ZM73.0447 90.9587C72.4467 91.7861 71.8049 92.5999 71.1375 93.3761C70.8074 93.7601 70.2277 93.804 69.8428 93.473C69.4588 93.1429 69.4159 92.5633 69.7459 92.1793C70.3804 91.4424 70.9893 90.6698 71.5571 89.8844C71.8543 89.4739 72.4275 89.3816 72.839 89.6778C73.2019 89.9402 73.3162 90.4193 73.1324 90.8115C73.1087 90.8627 73.0794 90.9121 73.0456 90.9596L73.0447 90.9587ZM79.0022 72.1262C78.4956 72.1016 78.1052 71.6709 78.1308 71.1653C78.1784 70.1953 78.1848 69.2115 78.15 68.2414C78.1318 67.7349 78.5276 67.3098 79.0342 67.2915C79.5407 67.2732 79.9658 67.6691 79.9841 68.1756C80.0207 69.1969 80.0134 70.2337 79.964 71.2549C79.9576 71.3784 79.9283 71.4954 79.878 71.6005C79.7244 71.9269 79.3852 72.1454 79.0022 72.1262ZM67.6266 96.9308C66.8613 97.6065 66.0577 98.2584 65.2348 98.8682C64.828 99.1708 64.2538 99.0858 63.9512 98.6789C63.6485 98.2721 63.7336 97.697 64.1404 97.3953C64.9212 96.8147 65.6856 96.1957 66.4115 95.5548C66.7919 95.2193 67.3715 95.2559 67.7071 95.6353C67.9567 95.9187 68.0005 96.3128 67.8497 96.6337C67.7976 96.7434 67.7235 96.8449 67.6266 96.9308ZM61.03 101.57C60.134 102.063 59.2069 102.524 58.2735 102.94C57.8108 103.146 57.2677 102.938 57.0611 102.475C56.8545 102.012 57.062 101.469 57.5256 101.264C58.4115 100.869 59.2929 100.431 60.145 99.9617C60.5893 99.7176 61.1471 99.8794 61.3912 100.324C61.5384 100.592 61.5375 100.901 61.4168 101.157C61.3372 101.326 61.2056 101.472 61.0291 101.569L61.03 101.57ZM53.5786 104.661C52.5957 104.947 51.59 105.195 50.5898 105.398C50.0933 105.499 49.6088 105.178 49.5082 104.681C49.4076 104.184 49.7285 103.7 50.225 103.6C51.1759 103.407 52.1313 103.172 53.0657 102.899C53.5521 102.758 54.0613 103.037 54.2031 103.524C54.268 103.748 54.2442 103.975 54.1528 104.171C54.0449 104.401 53.8419 104.585 53.5786 104.662V104.661ZM45.6307 106.054C44.6095 106.118 43.5736 106.14 42.5514 106.118C42.0449 106.107 41.6426 105.687 41.6536 105.18C41.6645 104.675 42.0842 104.273 42.5907 104.284C43.5608 104.305 44.5445 104.284 45.5146 104.223C46.0202 104.191 46.4563 104.575 46.4883 105.081C46.4984 105.241 46.4673 105.393 46.4033 105.529C46.2652 105.822 45.9763 106.033 45.6298 106.054L45.6307 106.054ZM37.5667 105.665C36.5582 105.503 35.5443 105.296 34.5514 105.049C34.0595 104.926 33.7596 104.429 33.8821 103.937C34.0037 103.447 34.502 103.145 34.9939 103.268C35.9374 103.503 36.9011 103.699 37.8584 103.853C38.3585 103.933 38.6995 104.404 38.619 104.904C38.6053 104.991 38.5797 105.073 38.5432 105.15C38.3731 105.51 37.98 105.732 37.5667 105.665ZM29.7925 103.517C29.0931 103.239 28.3946 102.936 27.7144 102.617C27.4684 102.501 27.2243 102.383 26.982 102.262C26.5285 102.036 26.332 101.487 26.5688 101.032C26.7937 100.579 27.345 100.393 27.7994 100.619C28.0298 100.733 28.262 100.846 28.4961 100.956C29.1425 101.26 29.8062 101.548 30.4709 101.813C30.9418 102.001 31.1713 102.534 30.9838 103.004C30.9765 103.022 30.9692 103.039 30.961 103.057C30.7562 103.492 30.2451 103.698 29.7916 103.517H29.7925Z" fill="#8CB3FF"/>
<path d="M79.3863 63.7249C79.464 63.5594 79.4933 63.3701 79.4595 63.1772C79.3735 62.6881 79.2766 62.1907 79.1696 61.7006C79.0617 61.2051 78.5735 60.8915 78.078 60.9994C77.5824 61.1073 77.2688 61.5955 77.3767 62.091C77.4782 62.5573 77.5705 63.0291 77.6519 63.4936C77.7388 63.9928 78.2142 64.3265 78.7134 64.2396C79.0197 64.1857 79.2629 63.9864 79.3863 63.7258V63.7249Z" fill="#8CB3FF"/>
</g>
<path d="M66.5231 54.6688C66.4436 54.5033 66.269 54.4073 66.087 54.4284L60.9012 55.0254C59.3743 53.1246 57.5339 51.4542 55.42 50.1029L55.4548 44.8869C55.4557 44.704 55.3405 44.5404 55.1686 44.4791L49.2632 42.3991C49.0904 42.3379 48.8984 42.3936 48.7851 42.5372L45.543 46.6231C43.0488 46.3516 40.5675 46.4997 38.1867 47.0236L34.5204 43.3079C34.3915 43.1781 34.1949 43.1433 34.0294 43.222L28.3828 45.9264C28.2182 46.0051 28.1213 46.1806 28.1423 46.3625L28.7394 51.5484C26.8386 53.0752 25.1682 54.9157 23.8168 57.0295L18.6008 56.9948C18.418 56.9939 18.2543 57.1081 18.1931 57.2809L16.1131 63.1863C16.0527 63.3591 16.1076 63.5511 16.2511 63.6645L20.338 66.9065C20.0664 69.4007 20.2146 71.8821 20.7384 74.2629L17.0228 77.9292C16.893 78.0581 16.8582 78.2547 16.9368 78.4202L19.6413 84.0668C19.7199 84.2314 19.8955 84.3283 20.0774 84.3072L25.2632 83.7102C26.7901 85.611 28.6306 87.2814 30.7444 88.6327L30.7096 93.8487C30.7087 94.0316 30.823 94.1952 30.9958 94.2565L36.9012 96.3365C37.074 96.3968 37.266 96.342 37.3794 96.1984L40.6214 92.1125C43.1156 92.384 45.597 92.2359 47.9778 91.712L51.644 95.4277C51.772 95.5575 51.9695 95.5923 52.135 95.5136L57.7816 92.8092C57.9462 92.7306 58.0431 92.555 58.0221 92.3731L57.4251 87.1872C59.3259 85.6604 60.9963 83.8199 62.3476 81.7061L67.5636 81.7408C67.7464 81.7418 67.9101 81.6275 67.9714 81.4547L70.0514 75.5493C70.1117 75.3765 70.0568 75.1845 69.9133 75.0711L65.8274 71.8291C66.0989 69.3349 65.9508 66.8535 65.4269 64.4727L69.1426 60.8064C69.2724 60.6775 69.3071 60.4809 69.2285 60.3164L66.524 54.6697L66.5231 54.6688Z" fill="#8CB3FF"/>
<path d="M48.3254 72.8484C46.4063 75.7394 42.4931 76.5312 39.6012 74.6112C38.2006 73.6813 37.246 72.2624 36.9132 70.6139C36.5804 68.9664 36.9087 67.2877 37.8385 65.8871C39.7576 62.9961 43.6707 62.2043 46.5626 64.1243C49.193 65.8706 50.0854 69.2672 48.7798 72.0429C48.6499 72.3181 48.4991 72.5879 48.3263 72.8484H48.3254ZM38.3523 70.3241C38.6074 71.5876 39.3398 72.6756 40.414 73.3888C42.6303 74.8599 45.6319 74.2537 47.103 72.0365C48.5759 69.8194 47.9679 66.8187 45.7507 65.3476C43.5345 63.8765 40.5329 64.4827 39.0618 66.6999C38.9283 66.901 38.8113 67.1095 38.7107 67.3234C38.2728 68.2541 38.1448 69.2973 38.3523 70.3241Z" fill="#B2CCFF"/>
<path d="M56.9497 76.0284C57.1737 75.552 57.3758 75.0611 57.5531 74.5573C57.6089 74.3991 57.6619 74.2391 57.7131 74.0791C57.9637 73.2883 58.1502 72.48 58.2709 71.6645C58.2727 71.6535 58.2745 71.6426 58.2754 71.6316C58.28 71.6005 58.2846 71.5685 58.2891 71.5365C58.2983 71.4752 58.3056 71.4131 58.3138 71.3518C58.3349 71.19 58.2462 71.0391 58.1063 70.9733C58.0725 70.9568 58.035 70.9459 57.9957 70.9413C57.7945 70.9157 57.6117 71.0583 57.5851 71.2595C57.4535 72.2944 57.2094 73.3221 56.8601 74.3132C55.1257 79.2403 51.0224 82.6689 46.2763 83.7733C43.6368 84.3886 40.7988 84.2844 38.0587 83.3189C37.5778 83.1498 37.1097 82.9578 36.6553 82.7438C33.5952 81.3038 31.1431 78.8755 29.6628 75.7843C27.9613 72.2332 27.7456 68.2323 29.0539 64.5184C31.7565 56.8494 40.189 52.8119 47.8553 55.5127C48.328 55.6791 48.7906 55.8693 49.2414 56.0814C51.1934 57.0003 52.9232 58.3351 54.301 59.9982C54.3367 60.0412 54.3797 60.0741 54.4272 60.096C54.5515 60.1545 54.7042 60.1399 54.8176 60.0467C54.973 59.9168 54.9959 59.6864 54.8661 59.5301C53.4197 57.7847 51.6039 56.3822 49.5541 55.4176C49.0814 55.1955 48.5959 54.9961 48.0994 54.8206C40.051 51.9854 31.1961 56.2286 28.3618 64.2743C26.9885 68.1728 27.2153 72.3731 29.0018 76.1015C30.5561 79.3472 33.1298 81.8963 36.3426 83.4085C36.8199 83.6334 37.3118 83.8346 37.8164 84.0129C41.7159 85.3861 45.9152 85.1594 49.6436 83.3738C52.8903 81.8186 55.4393 79.2439 56.9506 76.0302L56.9497 76.0284Z" fill="#B2CCFF"/>
<g opacity="0.3">
<path d="M97.923 21.2554C98.0272 21.0332 97.9788 20.7607 97.7859 20.5898C97.4256 20.2707 97.0508 19.958 96.6723 19.6608C96.4263 19.4679 96.0697 19.5109 95.8768 19.7568C95.6821 20.0028 95.7269 20.3594 95.9728 20.5523C96.334 20.8357 96.6905 21.1338 97.0343 21.4382C97.2684 21.6458 97.6268 21.6238 97.8343 21.3898C97.8709 21.3477 97.9001 21.3029 97.923 21.2544V21.2554Z" fill="#8CB3FF"/>
<path d="M94.3818 18.7265C94.2199 18.9943 93.8725 19.0812 93.6037 18.9203C92.9262 18.5134 92.2204 18.1367 91.5063 17.8003C91.3555 17.729 91.2037 17.6604 91.0501 17.5918C90.7648 17.4647 90.6359 17.1292 90.763 16.8439C90.8937 16.5779 91.2256 16.4298 91.5118 16.5569C91.6718 16.6282 91.8309 16.7013 91.9891 16.7754C92.7379 17.1274 93.4784 17.5233 94.1888 17.9502C94.4403 18.1011 94.5326 18.4165 94.4101 18.6762C94.4019 18.6935 94.3927 18.7109 94.3827 18.7274L94.3818 18.7265ZM88.3539 16.5834C87.4378 16.3036 86.496 16.0778 85.5552 15.9123C85.2471 15.8583 85.0414 15.5649 85.0954 15.2558C85.1493 14.9495 85.4428 14.7411 85.7518 14.7959C86.7374 14.9687 87.7248 15.2055 88.6848 15.4999C88.9838 15.5914 89.153 15.9086 89.0615 16.2076C89.0533 16.2341 89.0432 16.2597 89.0323 16.2835C88.9143 16.534 88.6272 16.6666 88.3539 16.5834ZM82.6954 15.5923C81.7399 15.5447 80.7717 15.5575 79.8172 15.6298C79.5054 15.6535 79.233 15.4186 79.2101 15.1068C79.1863 14.7941 79.4204 14.5226 79.7331 14.4988C80.7342 14.4238 81.75 14.411 82.7511 14.4595C83.0638 14.475 83.3052 14.7411 83.2896 15.0538C83.286 15.1297 83.2668 15.2019 83.2366 15.2668C83.1415 15.4689 82.9322 15.6033 82.6963 15.5923H82.6954ZM76.9655 16.022C76.0266 16.2113 75.0903 16.4599 74.1852 16.7626C73.8881 16.8613 73.5671 16.7013 73.4684 16.4042C73.3697 16.1079 73.5297 15.7861 73.8268 15.6874C74.7767 15.3701 75.7578 15.1095 76.7434 14.9111C77.0506 14.849 77.3495 15.0483 77.4108 15.3555C77.4355 15.4789 77.4181 15.6014 77.3678 15.7075C77.2938 15.8647 77.1493 15.9854 76.9665 16.022H76.9655ZM71.5146 17.8378C70.6497 18.2492 69.803 18.7182 68.9966 19.2311C68.7333 19.3994 68.3822 19.3207 68.214 19.0574C68.0458 18.7932 68.1235 18.443 68.3877 18.2748C69.2325 17.7372 70.1203 17.2462 71.0263 16.8147C71.3089 16.6803 71.6471 16.8001 71.7815 17.0826C71.8574 17.2426 71.8519 17.4199 71.7825 17.5681C71.7285 17.6823 71.6362 17.7802 71.5137 17.8387L71.5146 17.8378ZM66.6698 20.9217C65.9319 21.5306 65.2261 22.1907 64.5697 22.8855C64.3548 23.1132 63.9964 23.1233 63.7687 22.9084C63.5411 22.6935 63.531 22.3361 63.7459 22.1066C64.4334 21.3788 65.1749 20.6858 65.9484 20.0467C66.1898 19.8474 66.5473 19.8821 66.7457 20.1235C66.8901 20.2981 66.9121 20.534 66.8215 20.726C66.7868 20.7991 66.7365 20.8668 66.6698 20.9217ZM62.7274 25.0945C62.1633 25.8634 61.6403 26.678 61.1731 27.5155C61.0204 27.7889 60.6748 27.8867 60.4014 27.734C60.1281 27.5813 60.0339 27.2394 60.1829 26.9623C60.6739 26.0846 61.2225 25.2307 61.814 24.4243C61.9996 24.1719 62.3543 24.1171 62.6067 24.3027C62.8289 24.4654 62.8974 24.7598 62.7841 25.0003C62.7685 25.0332 62.7502 25.0643 62.7283 25.0945H62.7274ZM58.3123 33.2371C58.0097 33.1557 57.8314 32.8449 57.9127 32.5422C58.1386 31.7057 58.4147 30.8673 58.731 30.0517C58.7786 29.9274 58.8279 29.8049 58.8773 29.6823C58.9861 29.3907 59.3262 29.2535 59.6161 29.3724C59.9059 29.4903 60.0449 29.8213 59.9269 30.1111C59.8794 30.2263 59.8337 30.3415 59.7889 30.4604C59.4853 31.2403 59.2229 32.0403 59.0071 32.8375C58.998 32.8705 58.987 32.9015 58.9724 32.9317C58.8572 33.1758 58.5811 33.3102 58.3123 33.2371Z" fill="#8CB3FF"/>
</g>
<g opacity="0.3">
<path d="M103.552 49.6412C103.121 50.5299 102.63 51.3994 102.096 52.2259C101.926 52.4883 101.575 52.5642 101.312 52.3941C101.049 52.2241 100.978 51.873 101.144 51.6106C101.653 50.8225 102.12 49.9923 102.533 49.1448C102.67 48.8632 103.009 48.7461 103.29 48.8833C103.569 49.0195 103.687 49.3541 103.555 49.6339C103.554 49.6357 103.553 49.6385 103.551 49.6412H103.552ZM103.966 47.2485C103.671 47.1461 103.514 46.8234 103.616 46.5281C103.923 45.6385 104.18 44.7205 104.379 43.8008C104.445 43.4972 104.746 43.3006 105.052 43.3665C105.359 43.4323 105.553 43.734 105.487 44.0403C105.278 45.004 105.01 45.9658 104.688 46.8984C104.681 46.9185 104.673 46.9368 104.665 46.955C104.543 47.2138 104.244 47.3445 103.967 47.2485H103.966ZM100.335 54.6168C99.7003 55.3747 99.0146 56.1006 98.2968 56.7736C98.0683 56.9875 97.709 56.9756 97.4959 56.747C97.282 56.5185 97.2939 56.161 97.5215 55.9461C98.2072 55.3043 98.861 54.6122 99.4662 53.889C99.6674 53.6485 100.025 53.6174 100.264 53.8177C100.466 53.9868 100.52 54.2657 100.413 54.4933C100.393 54.5363 100.367 54.5774 100.335 54.6158V54.6168ZM105.319 41.6184C105.007 41.59 104.777 41.3148 104.805 41.003C104.889 40.065 104.916 39.1132 104.886 38.1733C104.876 37.8606 105.122 37.5992 105.434 37.5882C105.746 37.5781 106.009 37.8232 106.019 38.1368C106.051 39.1233 106.023 40.1217 105.934 41.1045C105.927 41.1722 105.91 41.2362 105.883 41.2947C105.784 41.5041 105.563 41.6403 105.319 41.6184ZM96.012 58.6661C95.2157 59.2476 94.3755 59.787 93.5151 60.2689C93.2418 60.4216 92.8962 60.3237 92.7435 60.0513C92.5908 59.7779 92.6877 59.4323 92.9611 59.2796C93.783 58.8206 94.5839 58.3059 95.3428 57.7509C95.5951 57.5662 95.9499 57.6211 96.1346 57.8744C96.2616 58.0472 96.2754 58.2684 96.1894 58.4504C96.1501 58.5336 96.0907 58.6085 96.0111 58.6661H96.012ZM90.8436 61.5598C89.9293 61.9347 88.9848 62.2574 88.0349 62.5189C87.7332 62.6021 87.4214 62.4248 87.3382 62.123C87.255 61.8213 87.4315 61.5096 87.7341 61.4264C88.6392 61.1768 89.5407 60.8686 90.413 60.5102C90.7028 60.3914 91.0338 60.5304 91.1526 60.8193C91.2157 60.972 91.2066 61.1365 91.1407 61.2755C91.0822 61.3989 90.9798 61.5022 90.8436 61.558V61.5598ZM85.1302 63.1333C84.1519 63.2787 83.1572 63.3656 82.1725 63.3912C81.8589 63.3994 81.5992 63.1525 81.591 62.8389C81.5828 62.5262 81.8306 62.2666 82.1423 62.2574C83.0813 62.2337 84.0303 62.1505 84.9629 62.0115C85.2728 61.9658 85.5608 62.1788 85.6066 62.4888C85.6239 62.604 85.6047 62.7155 85.559 62.8133C85.4813 62.9788 85.324 63.1041 85.1293 63.1333H85.1302Z" fill="#8CB3FF"/>
<path d="M105.692 35.4816C105.739 35.3829 105.757 35.2695 105.739 35.1534C105.664 34.6743 105.574 34.1952 105.473 33.729C105.406 33.4236 105.105 33.2288 104.798 33.2956C104.493 33.3632 104.299 33.664 104.365 33.9703C104.462 34.4147 104.547 34.8718 104.619 35.3289C104.668 35.638 104.957 35.8501 105.266 35.8007C105.459 35.7706 105.615 35.6462 105.692 35.4816H105.692Z" fill="#8CB3FF"/>
</g>
<path d="M97.0568 29.0131C97.0038 28.9025 96.8867 28.8376 96.7651 28.8522L93.2954 29.2518C92.2742 27.98 91.0417 26.8627 89.6282 25.9585L89.6511 22.4678C89.6511 22.3452 89.5752 22.2355 89.4591 22.1953L85.5075 20.8038C85.3923 20.7626 85.2634 20.8001 85.1875 20.8961L83.0179 23.6307C81.3494 23.4488 79.689 23.5475 78.0954 23.8986L75.6424 21.4127C75.5565 21.3258 75.4248 21.303 75.3142 21.3551L71.5354 23.1654C71.4248 23.2184 71.3599 23.3354 71.3745 23.457L71.7741 26.9267C70.5023 27.948 69.3841 29.1804 68.4799 30.5948L64.9892 30.572C64.8666 30.572 64.7569 30.6479 64.7167 30.764L63.3242 34.7155C63.284 34.8307 63.3206 34.9596 63.4166 35.0355L66.1512 37.2051C65.9693 38.8737 66.068 40.534 66.4191 42.1276L63.9332 44.5807C63.8463 44.6666 63.8234 44.7983 63.8756 44.9089L65.6858 48.6876C65.7389 48.7983 65.8559 48.8623 65.9775 48.8485L69.4472 48.449C70.4685 49.7208 71.7 50.8389 73.1144 51.7422L73.0915 55.233C73.0915 55.3555 73.1674 55.4652 73.2835 55.5054L77.2351 56.8979C77.3503 56.9381 77.4792 56.9016 77.5551 56.8056L79.7247 54.0709C81.3933 54.2529 83.0536 54.1541 84.6472 53.803L87.1002 56.289C87.1862 56.3758 87.3178 56.3987 87.4284 56.3466L91.2072 54.5363C91.3178 54.4833 91.3827 54.3662 91.3681 54.2446L90.9686 50.7749C92.2403 49.7537 93.3585 48.5212 94.2627 47.1077L97.7535 47.1306C97.876 47.1306 97.9857 47.0547 98.0259 46.9386L99.4175 42.9871C99.4577 42.8719 99.4211 42.7429 99.3251 42.6671L96.5905 40.4975C96.7724 38.8289 96.6737 37.1685 96.3226 35.5749L98.8085 33.1219C98.8954 33.036 98.9183 32.9043 98.8661 32.7937L97.0559 29.015L97.0568 29.0131Z" fill="#8CB3FF"/>
<path d="M84.9427 41.2198C84.31 42.1743 83.3427 42.8244 82.22 43.0511C81.0982 43.2779 79.9544 43.0539 78.9999 42.4212C77.0305 41.1137 76.4929 38.4532 77.7985 36.4783C79.1059 34.509 81.772 33.9704 83.7404 35.2779C84.695 35.9115 85.345 36.8779 85.5718 38.0006C85.7564 38.9131 85.6431 39.8392 85.2536 40.6667C85.164 40.8568 85.0598 41.0424 84.9418 41.2207L84.9427 41.2198ZM79.6271 41.4767C80.3292 41.943 81.1704 42.1076 81.996 41.9403C82.8216 41.7729 83.5329 41.2948 83.9983 40.5935C84.4636 39.8913 84.6282 39.0502 84.4618 38.2246C84.2954 37.399 83.8163 36.6877 83.1151 36.2223C81.6659 35.2605 79.7057 35.6573 78.7439 37.1055C78.657 37.2363 78.5821 37.3707 78.5171 37.5087C77.8625 38.8993 78.3096 40.6017 79.628 41.4767H79.6271Z" fill="#B2CCFF"/>
<path d="M90.9458 43.4323C91.0985 43.1077 91.2357 42.7731 91.3582 42.4275C91.5995 41.7418 91.7723 41.0314 91.8702 40.3128C91.8747 40.2808 91.8784 40.2478 91.883 40.2158C91.915 39.9662 91.7787 39.734 91.563 39.6316C91.5099 39.6069 91.4533 39.5896 91.392 39.5822C91.0811 39.5429 90.7995 39.7633 90.7584 40.0732C90.6734 40.7443 90.5152 41.4099 90.2894 42.0499C90.2775 42.0856 90.2638 42.1203 90.2519 42.155C89.7033 43.6664 88.7991 44.9829 87.6261 46.0206C86.9897 46.5838 86.2729 47.0648 85.4894 47.4478C85.483 47.4506 85.4766 47.4542 85.4702 47.457C85.4501 47.4661 85.4309 47.4762 85.4117 47.4853C83.1131 48.5861 80.523 48.7269 78.1184 47.8794C77.8075 47.7697 77.504 47.6453 77.2096 47.5073C75.2283 46.5747 73.6411 45.003 72.6821 43.0017C71.5813 40.7032 71.4414 38.113 72.288 35.7093C73.1355 33.3075 74.8672 31.3747 77.1657 30.273C79.4642 29.1722 82.0544 29.0314 84.459 29.8789C84.7653 29.9868 85.0642 30.1093 85.3559 30.2465C86.6203 30.8417 87.7394 31.7057 88.6309 32.7818C88.6857 32.8485 88.7525 32.8988 88.8256 32.9326C89.0176 33.0232 89.2544 33.0012 89.4281 32.8558C89.6686 32.6556 89.7024 32.299 89.5031 32.0577C88.5047 30.8536 87.2521 29.8862 85.8386 29.2206C85.5122 29.067 85.1776 28.9299 84.8357 28.8092C82.1458 27.862 79.2475 28.0183 76.6757 29.2508C74.1038 30.4833 72.1646 32.6401 71.2183 35.3317C70.2702 38.0216 70.4274 40.9189 71.6599 43.4908C72.7323 45.7299 74.5079 47.489 76.7241 48.5313C77.0533 48.6858 77.3925 48.8257 77.7399 48.9482C82.9477 50.7822 88.6437 48.3228 90.9449 43.4305L90.9458 43.4323Z" fill="#B2CCFF"/>
<path d="M212.163 73.3265C211.748 73.3265 211.404 72.9983 211.387 72.5796C211.374 72.2312 209.858 37.578 194.746 25.1272C190.295 21.4591 185.032 20.0639 179.111 20.981C166.608 22.9156 157.957 32.1261 153.397 48.3556C149.961 60.586 150.28 72.4086 150.284 72.5266C150.297 72.9553 149.96 73.3137 149.531 73.3265C149.101 73.3265 148.744 73.0038 148.731 72.5741C148.728 72.4543 148.399 60.4251 151.893 47.9688C153.956 40.6152 156.927 34.5426 160.725 29.919C165.512 24.0923 171.619 20.5686 178.874 19.4459C185.254 18.4585 190.928 19.967 195.738 23.9304C202.328 29.3613 207.226 39.2027 210.298 53.1821C212.571 63.5327 212.938 72.4324 212.941 72.5211C212.957 72.9499 212.623 73.3101 212.195 73.3275C212.185 73.3275 212.175 73.3275 212.164 73.3275L212.163 73.3265Z" fill="url(#paint1_linear_288_2649)"/>
<path d="M114.842 63.0564C114.959 62.2609 115.635 61.6667 116.44 61.6539L204.24 60.2029L232.988 231.588H94.2602C89.4949 231.588 114.842 63.0573 114.842 63.0573V63.0564Z" fill="#3F80FF"/>
<path d="M219.593 61.5094L204.239 60.2029L232.988 231.588H250.185C253.672 231.588 256.278 228.384 255.567 224.971L221.965 63.6123C221.726 62.4648 220.762 61.61 219.593 61.5103V61.5094Z" fill="#0041BF"/>
<path d="M192.997 72.9582C192.582 72.9582 192.238 72.6299 192.221 72.2112C192.208 71.8628 190.692 37.2096 175.58 24.7588C171.129 21.0907 165.867 19.6964 159.945 20.6125C147.442 22.5472 138.791 31.7577 134.231 47.9872C130.795 60.2176 131.114 72.0402 131.118 72.1582C131.131 72.587 130.794 72.9454 130.365 72.9582C129.948 72.9646 129.578 72.6345 129.565 72.2057C129.562 72.0859 129.233 60.0567 132.727 47.6004C134.79 40.2468 137.761 34.1741 141.559 29.5506C146.346 23.7239 152.453 20.2002 159.708 19.0775C166.088 18.0891 171.762 19.5986 176.572 23.562C183.162 28.9929 188.06 38.8343 191.132 52.8137C193.405 63.1643 193.772 72.064 193.775 72.1527C193.791 72.5815 193.457 72.9417 193.029 72.9591C193.019 72.9591 193.009 72.9591 192.998 72.9591L192.997 72.9582Z" fill="url(#paint2_linear_288_2649)"/>
<path d="M138.077 135.982C138.064 135.66 136.665 103.653 122.68 92.128C118.536 88.7131 113.64 87.4148 108.13 88.2678C96.5312 90.0626 88.5102 98.5947 84.288 113.627C81.1163 124.922 81.4116 135.835 81.4144 135.944L80.3474 135.977C80.3438 135.866 80.0421 124.811 83.253 113.361C85.1465 106.611 87.872 101.038 91.3554 96.7981C95.7367 91.4651 101.325 88.2404 107.965 87.2128C113.789 86.3113 118.97 87.6882 123.358 91.3051C129.398 96.2825 133.89 105.316 136.711 118.155C138.803 127.675 139.14 135.859 139.143 135.941L138.077 135.982Z" fill="url(#paint3_linear_288_2649)"/>
<path d="M36.5529 224.904L50.7289 131.46C50.8642 130.567 51.624 129.903 52.5264 129.888L134.439 128.534L152.158 234.026H43.5262C38.9182 234.026 35.8809 229.463 36.5529 224.904Z" fill="#B2CCFF"/>
<path d="M150.232 129.878L134.44 128.534L152.159 234.026L169.65 233.574C171.377 233.53 172.641 231.931 172.287 230.241L151.457 130.883C151.297 130.327 150.81 129.926 150.233 129.878H150.232Z" fill="#8CB3FF"/>
<path d="M120.42 135.642C120.407 135.321 119.008 103.313 105.022 91.7887C100.879 88.3739 95.9834 87.0756 90.4721 87.9286C78.8735 89.7234 70.8525 98.2555 66.6303 113.288C63.4586 124.582 63.7539 135.496 63.7567 135.605L62.6897 135.638C62.686 135.527 62.3843 124.472 65.5953 113.022C67.4888 106.272 70.2143 100.698 73.6977 96.4589C78.079 91.1259 83.6671 87.9012 90.3075 86.8735C96.1325 85.972 101.312 87.349 105.7 90.9659C111.74 95.9432 116.232 104.976 119.054 117.816C121.145 127.336 121.482 135.52 121.486 135.601L120.42 135.642Z" fill="url(#paint4_linear_288_2649)"/>
<path d="M61.0394 166.708C61.033 166.536 60.2814 149.366 52.8016 143.204C50.6046 141.394 48.0071 140.705 45.0842 141.158C30.2764 143.449 30.8177 166.446 30.825 166.678L29.9555 166.705C29.9537 166.645 29.7909 160.669 31.5253 154.483C33.8476 146.203 38.4903 141.298 44.9507 140.297C48.1306 139.805 50.9585 140.557 53.3557 142.533C61.1354 148.944 61.8805 165.953 61.9079 166.674L61.0384 166.708H61.0394Z" fill="url(#paint5_linear_288_2649)"/>
<path d="M15.5922 159.571L61.4601 158.813L74.9257 235.176H6.37987C4.03838 235.176 13.4829 168.563 14.6496 160.402C14.7172 159.931 15.1168 159.58 15.5922 159.571Z" fill="#8CB3FF"/>
<path d="M69.5322 159.501L61.46 158.814L74.9256 235.176H83.9423C84.9946 235.176 85.7818 234.212 85.5715 233.181L70.729 160.566C70.6101 159.986 70.1228 159.552 69.5322 159.502V159.501Z" fill="#7D97F4"/>
<path d="M51.532 166.525C51.5256 166.353 50.7741 149.183 43.2943 143.021C41.0973 141.211 38.4998 140.522 35.5768 140.975C20.7691 143.266 21.3103 166.263 21.3177 166.495L20.4482 166.522C20.4463 166.462 20.2836 160.487 22.018 154.301C24.3403 146.02 28.983 141.115 35.4434 140.114C38.6232 139.623 41.4511 140.374 43.8484 142.35C51.628 148.761 52.3732 165.77 52.4006 166.492L51.5311 166.525H51.532Z" fill="url(#paint6_linear_288_2649)"/>
<path d="M193.235 243.13C193.235 243.13 193.957 247.221 194.312 251.271C194.451 252.854 193.23 254.228 191.642 254.295C186.249 254.52 174.711 254.957 170.571 254.771C169.949 254.744 169.542 254.106 169.772 253.528C169.965 253.043 170.337 252.651 170.812 252.432L189.869 243.674L193.235 243.13Z" fill="url(#paint7_linear_288_2649)"/>
<path d="M193.827 240.726L193.246 245.62C193.246 245.62 189.908 247.174 187.628 245.424L189.01 239.971L193.827 240.727V240.726Z" fill="url(#paint8_linear_288_2649)"/>
<path d="M193.39 148.717C193.64 149.995 194.737 212.494 188.056 240.502C187.947 240.959 188.178 241.43 188.614 241.607C189.639 242.026 191.647 242.632 194.055 242.714C194.8 242.738 195.469 242.254 195.679 241.539C197.589 235.04 206.739 202.482 207.933 171.38C209.267 136.626 207.933 170.197 207.933 170.197L207.151 148.715L193.391 148.718L193.39 148.717Z" fill="url(#paint9_linear_288_2649)"/>
<path d="M215.157 245.264C215.157 245.264 216.307 247.33 217.422 252.818C217.623 253.809 216.93 254.758 215.923 254.857C214.142 255.033 211.4 255.258 209.204 255.242C208.192 255.235 207.401 254.353 207.524 253.349C207.767 251.345 208.525 248.058 210.866 245.497L215.157 245.264Z" fill="url(#paint10_linear_288_2649)"/>
<path d="M216.168 238.97L214.811 246.371C214.811 246.371 213.47 247.368 210.815 246.645L211.463 238.682L216.168 238.969V238.97Z" fill="url(#paint11_linear_288_2649)"/>
<path d="M219.833 150.634C225.296 183.61 218.648 232.135 216.405 241.633C216.268 242.214 215.799 242.66 215.209 242.758C214.208 242.923 212.56 243.059 210.936 242.587C210.376 242.424 209.983 241.919 209.96 241.337C209.659 233.659 210.201 186.519 205.11 167.889C204.852 166.945 204.275 166.122 203.478 165.555L193.596 158.53L192.838 147.174L219.834 150.633L219.833 150.634Z" fill="url(#paint12_linear_288_2649)"/>
<path d="M187.628 89.3293C187.628 89.3293 212.729 83.0738 230.283 92.3702L219.833 150.634C219.833 150.634 203.206 151.974 192.838 148.676L187.628 89.3284V89.3293Z" fill="#8CB3FF"/>
<path d="M215.779 71.8729L217.7 88.4059C217.822 88.6399 217.763 88.9289 217.553 89.0889C216.266 90.0781 211.547 93.0879 204.865 90.1449C204.169 89.8386 203.637 89.247 203.428 88.5156L206.146 74.1869L215.779 71.8719V71.8729Z" fill="url(#paint13_linear_288_2649)"/>
<path d="M200.372 63.2538C200.372 63.2538 197.928 75.2008 199.859 79.167C201.792 83.1331 208.506 80.8301 213.447 75.6909L214.312 63.3133L200.372 63.2529V63.2538Z" fill="url(#paint14_linear_288_2649)"/>
<path d="M211.571 70.2902C211.298 70.2546 211.122 69.9858 211.201 69.7216C211.443 68.9207 211.863 67.3069 211.774 66.0297C211.774 66.0297 212.575 65.1072 208.83 65.3001C205.086 65.493 199.487 65.7298 197.514 63.0756C195.59 60.4882 196.248 52.3611 202.442 56.8576C202.677 57.0285 203.013 56.9353 203.117 56.6637C203.57 55.4916 204.917 52.938 207.952 53.3513C210.793 53.738 211.616 55.4935 211.855 56.4297C211.926 56.7049 212.232 56.8457 212.484 56.7149C213.682 56.0996 216.664 54.9952 219.005 57.6987C220.933 59.9259 220.601 61.6064 220.118 62.5225C219.962 62.8196 220.172 63.1698 220.508 63.1735C221.417 63.1835 222.701 63.573 223.168 65.5579C223.815 68.3026 220.726 68.9536 219.83 69.0834C219.683 69.1044 219.555 69.1949 219.491 69.3284C218.995 70.3616 216.694 74.8022 213.223 76.2779C212.922 76.4059 212.59 76.1691 212.606 75.8436L212.83 70.8644C212.84 70.6331 212.672 70.4329 212.442 70.4018L211.57 70.2875L211.571 70.2902Z" fill="url(#paint15_linear_288_2649)"/>
<path d="M211.135 71.1167C211.135 71.1167 214.252 67.2849 215.203 69.4582C216.154 71.6314 212.648 73.7645 210.516 73.4783L211.135 71.1167Z" fill="url(#paint16_linear_288_2649)"/>
<path d="M234.875 124.353C234.875 124.353 233.163 146.232 218.76 147.175C218.76 147.175 212.587 146.609 209.907 148.714C207.228 150.819 208.526 154.061 208.526 154.061L220.146 152.644C220.146 152.644 236.765 155.411 246.758 127.594L234.875 124.353Z" fill="url(#paint17_linear_288_2649)"/>
<path d="M230.283 92.3702C230.283 92.3702 249.998 104.098 246.758 127.594C246.758 127.594 239.715 130.647 234.594 126.554C234.594 126.554 230.603 111.29 221.937 110.529L230.284 92.3702H230.283Z" fill="#8CB3FF"/>
<path d="M174.529 100.778C174.529 100.778 165.062 105.179 153.989 93.4309C146.421 85.4016 141.791 90.3251 140.328 93.5662C138.865 96.8073 142.365 96.5367 143.586 96.5367C144.806 96.5367 144.958 93.0112 147.11 93.4912C149.263 93.9712 148.63 93.3285 148.764 95.4889C148.9 97.6494 160.47 122.048 174.784 110.165L174.529 100.779V100.778Z" fill="url(#paint18_linear_288_2649)"/>
<path d="M130.991 104.187L163.524 102.362C166.49 102.195 169.093 104.106 169.472 106.73L176.757 157.087C177.192 160.089 174.565 162.747 171.164 162.747H128.713C125.492 162.747 122.925 160.35 123.08 157.486L125.713 108.954C125.852 106.4 128.124 104.347 130.991 104.187Z" fill="#002B7F"/>
<path d="M136.486 109.303C135.986 109.303 135.571 108.909 135.55 108.404C135.522 107.758 135.013 92.5467 145.717 90.8736C148.008 90.5179 150.039 91.0546 151.757 92.4736C156.969 96.7808 157.409 107.863 157.426 108.333C157.444 108.85 157.039 109.284 156.521 109.302C156.008 109.31 155.57 108.915 155.552 108.398C155.549 108.292 155.124 97.6869 150.562 93.9182C149.259 92.8411 147.769 92.4535 146.008 92.7269C136.938 94.144 137.418 108.184 137.424 108.325C137.446 108.843 137.044 109.28 136.526 109.302C136.512 109.302 136.5 109.302 136.487 109.302L136.486 109.303Z" fill="#B2CCFF"/>
<path d="M187.628 89.3293L172.354 100.778C172.354 100.778 172.084 109.355 174.11 113.411L191.124 109.23L187.628 89.3293Z" fill="#8CB3FF"/>
<path d="M90.4741 178.953V192.515C90.4741 197.565 92.374 202.43 95.1114 206.672L97.7025 209.987C100.702 214.63 105.837 217.286 111.364 217.286H168.112L168.541 215.827L182.45 164.87L194.121 158.577L192.383 155.399L179.344 162.469L174.872 178.953H90.4741ZM94.5235 183.002H173.877L168.28 203.652L165.327 214.587H111.364C107.079 214.587 103.057 212.08 100.735 208.483L98.3763 204.721C96.0165 201.072 94.5226 196.86 94.5226 192.515V183.001L94.5235 183.002Z" fill="#002B7F"/>
<path d="M98.3096 235.78C98.3096 236.785 99.1269 237.803 100.136 237.803H166.719C167.728 237.803 168.491 236.377 168.491 235.373V203.976C168.491 203.63 168.422 203.665 168.254 203.39L165.327 214.587H164.442V233.754H100.137C99.1279 233.754 98.3105 234.772 98.3105 235.781L98.3096 235.78Z" fill="#002B7F"/>
<path d="M135.274 180.859H132.844V215.037H135.274V180.859Z" fill="#002B7F"/>
<path d="M156.743 180.859H154.312V215.037H156.743V180.859Z" fill="#002B7F"/>
<path d="M114.313 180.859H111.882V215.037H114.313V180.859Z" fill="#002B7F"/>
<path d="M172.954 190.913H93.9019V193.086H172.954V190.913Z" fill="#002B7F"/>
<path d="M169.503 202.81H95.8823V204.984H169.503V202.81Z" fill="#002B7F"/>
<path d="M150.341 248.149C150.341 252.484 153.855 256 158.191 256C162.526 256 166.042 252.485 166.042 248.149C166.042 243.812 162.527 240.299 158.191 240.299C153.854 240.299 150.341 243.813 150.341 248.149ZM153.453 248.149C153.453 245.532 155.574 243.41 158.192 243.41C160.809 243.41 162.931 245.531 162.931 248.149C162.931 250.766 160.808 252.887 158.192 252.887C155.575 252.887 153.453 250.766 153.453 248.149Z" fill="#002B7F"/>
<path d="M101.555 248.149C101.555 252.484 105.07 256 109.405 256C113.741 256 117.256 252.485 117.256 248.149C117.256 243.812 113.742 240.299 109.405 240.299C105.069 240.299 101.555 243.813 101.555 248.149ZM104.667 248.149C104.667 245.532 106.789 243.41 109.406 243.41C112.024 243.41 114.145 245.531 114.145 248.149C114.145 250.766 112.024 252.887 109.406 252.887C106.789 252.887 104.667 250.766 104.667 248.149Z" fill="#002B7F"/>
<path d="M184.294 158.575C184.294 160.612 185.946 162.264 187.983 162.264H200.255C202.292 162.264 203.943 160.612 203.943 158.575C203.943 156.538 202.292 154.887 200.255 154.887H187.983C185.946 154.887 184.294 156.538 184.294 158.575Z" fill="#002B7F"/>
</g>
<defs>
<linearGradient id="paint0_linear_288_2649" x1="276.997" y1="293.31" x2="98.0428" y2="102.81" gradientUnits="userSpaceOnUse">
<stop stop-color="#DAE3FE"/>
<stop offset="1" stop-color="#E9EFFD"/>
</linearGradient>
<linearGradient id="paint1_linear_288_2649" x1="185.85" y1="18.7273" x2="199.52" y2="-121.08" gradientUnits="userSpaceOnUse">
<stop stop-color="#09005D"/>
<stop offset="1" stop-color="#1A0F91"/>
</linearGradient>
<linearGradient id="paint2_linear_288_2649" x1="170.772" y1="-65.3843" x2="167.355" y2="-14.432" gradientUnits="userSpaceOnUse">
<stop stop-color="#09005D"/>
<stop offset="1" stop-color="#1A0F91"/>
</linearGradient>
<linearGradient id="paint3_linear_288_2649" x1="121.593" y1="12.4443" x2="135.262" y2="-127.363" gradientUnits="userSpaceOnUse">
<stop stop-color="#09005D"/>
<stop offset="1" stop-color="#1A0F91"/>
</linearGradient>
<linearGradient id="paint4_linear_288_2649" x1="109.241" y1="-1.34864" x2="102.716" y2="49.6036" gradientUnits="userSpaceOnUse">
<stop stop-color="#09005D"/>
<stop offset="1" stop-color="#1A0F91"/>
</linearGradient>
<linearGradient id="paint5_linear_288_2649" x1="61.4645" y1="6.5656" x2="75.134" y2="-133.242" gradientUnits="userSpaceOnUse">
<stop stop-color="#09005D"/>
<stop offset="1" stop-color="#1A0F91"/>
</linearGradient>
<linearGradient id="paint6_linear_288_2649" x1="71.116" y1="59.7761" x2="53.0963" y2="113.213" gradientUnits="userSpaceOnUse">
<stop stop-color="#09005D"/>
<stop offset="1" stop-color="#1A0F91"/>
</linearGradient>
<linearGradient id="paint7_linear_288_2649" x1="171.175" y1="237.475" x2="240.962" y2="313.384" gradientUnits="userSpaceOnUse">
<stop stop-color="#09005D"/>
<stop offset="1" stop-color="#1A0F91"/>
</linearGradient>
<linearGradient id="paint8_linear_288_2649" x1="193.826" y1="243.113" x2="187.627" y2="243.113" gradientUnits="userSpaceOnUse">
<stop stop-color="#FEBBBA"/>
<stop offset="1" stop-color="#FF928E"/>
</linearGradient>
<linearGradient id="paint9_linear_288_2649" x1="187.083" y1="125.918" x2="203.907" y2="234.573" gradientUnits="userSpaceOnUse">
<stop stop-color="#09005D"/>
<stop offset="1" stop-color="#1A0F91"/>
</linearGradient>
<linearGradient id="paint10_linear_288_2649" x1="186.83" y1="223.082" x2="256.617" y2="298.991" gradientUnits="userSpaceOnUse">
<stop stop-color="#09005D"/>
<stop offset="1" stop-color="#1A0F91"/>
</linearGradient>
<linearGradient id="paint11_linear_288_2649" x1="216.167" y1="242.795" x2="210.815" y2="242.795" gradientUnits="userSpaceOnUse">
<stop stop-color="#FEBBBA"/>
<stop offset="1" stop-color="#FF928E"/>
</linearGradient>
<linearGradient id="paint12_linear_288_2649" x1="201.923" y1="123.621" x2="218.747" y2="232.275" gradientUnits="userSpaceOnUse">
<stop stop-color="#09005D"/>
<stop offset="1" stop-color="#1A0F91"/>
</linearGradient>
<linearGradient id="paint13_linear_288_2649" x1="215.39" y1="108.357" x2="208.401" y2="74.3396" gradientUnits="userSpaceOnUse">
<stop stop-color="#FEBBBA"/>
<stop offset="1" stop-color="#FF928E"/>
</linearGradient>
<linearGradient id="paint14_linear_288_2649" x1="201.038" y1="75.9799" x2="214.749" y2="60.8626" gradientUnits="userSpaceOnUse">
<stop stop-color="#FEBBBA"/>
<stop offset="1" stop-color="#FF928E"/>
</linearGradient>
<linearGradient id="paint15_linear_288_2649" x1="220.43" y1="47.5117" x2="203.862" y2="70.9248" gradientUnits="userSpaceOnUse">
<stop stop-color="#09005D"/>
<stop offset="1" stop-color="#1A0F91"/>
</linearGradient>
<linearGradient id="paint16_linear_288_2649" x1="206.548" y1="78.4881" x2="218.884" y2="64.8873" gradientUnits="userSpaceOnUse">
<stop stop-color="#FEBBBA"/>
<stop offset="1" stop-color="#FF928E"/>
</linearGradient>
<linearGradient id="paint17_linear_288_2649" x1="227.208" y1="151.364" x2="228.077" y2="115.221" gradientUnits="userSpaceOnUse">
<stop stop-color="#FEBBBA"/>
<stop offset="1" stop-color="#FF928E"/>
</linearGradient>
<linearGradient id="paint18_linear_288_2649" x1="157.184" y1="110.709" x2="157.867" y2="82.3031" gradientUnits="userSpaceOnUse">
<stop stop-color="#FEBBBA"/>
<stop offset="1" stop-color="#FF928E"/>
</linearGradient>
<clipPath id="clip0_288_2649">
<rect width="255.684" height="256" fill="white"/>
</clipPath>
</defs>
</svg>
